<?xml version="1.0" encoding="UTF-8" standalone="no"?><!DOCTYPE svg PUBLIC "-//W3C//DTD SVG 1.1//EN" "http://www.w3.org/Graphics/SVG/1.1/DTD/svg11.dtd"><svg width="100%" height="100%" viewBox="0 0 8000 4500" version="1.1" xmlns="http://www.w3.org/2000/svg" xmlns:xlink="http://www.w3.org/1999/xlink" xml:space="preserve" xmlns:serif="http://www.serif.com/" style="fill-rule:evenodd;clip-rule:evenodd;stroke-linecap:round;stroke-linejoin:round;stroke-miterlimit:1.5;"><rect id="Artboard3" x="0" y="0" width="8000" height="4500" style="fill:none;"/><clipPath id="_clip1"><rect x="0" y="0" width="8000" height="4500"/></clipPath><g clip-path="url(#_clip1)"><rect x="0" y="0" width="8000" height="4500"/><g><path d="M7015.34,4062.42l107.314,133.952c-23.739,29.631 -107.314,133.952 -107.314,133.952c-3.432,4.285 -3.644,10.315 -0.519,14.83c0,-0 86.136,124.447 108.355,156.547c-0,0 -107.959,139.29 -107.959,139.29c-4.198,5.416 -3.209,13.222 2.207,17.42c5.417,4.198 13.223,3.209 17.421,-2.207l113.533,-146.482c3.318,-4.281 3.478,-10.219 0.395,-14.673l-108.266,-156.42c23.134,-28.878 107.747,-134.494 107.747,-134.494c3.635,-4.537 3.635,-10.989 0,-15.527l-113.533,-141.715c-4.284,-5.348 -12.105,-6.212 -17.454,-1.927c-5.348,4.285 -6.211,12.105 -1.927,17.454Z"/><path d="M7086.49,4062.42c0,-0 83.575,104.32 107.314,133.952c-0,-0 -107.314,133.952 -107.314,133.952c-3.433,4.285 -3.644,10.315 -0.519,14.83l108.354,156.547c-22.825,29.45 -107.959,139.29 -107.959,139.29c-4.198,5.416 -3.209,13.222 2.208,17.42c5.416,4.198 13.222,3.209 17.42,-2.207l113.533,-146.482c3.319,-4.281 3.479,-10.219 0.396,-14.673c0,0 -85.91,-124.12 -108.267,-156.42c0,-0 107.748,-134.494 107.748,-134.494c3.635,-4.537 3.635,-10.989 -0,-15.527l-113.533,-141.715c-4.285,-5.348 -12.106,-6.212 -17.454,-1.927c-5.348,4.285 -6.212,12.105 -1.927,17.454Z"/><path d="M7151.26,4062.42c-0,-0 83.574,104.32 107.313,133.952c0,-0 -107.313,133.952 -107.313,133.952c-3.433,4.285 -3.644,10.315 -0.52,14.83c0,-0 86.137,124.447 108.355,156.547c-0,0 -107.959,139.29 -107.959,139.29c-4.198,5.416 -3.209,13.222 2.207,17.42c5.417,4.198 13.223,3.209 17.421,-2.207l113.533,-146.482c3.318,-4.281 3.478,-10.219 0.396,-14.673c-0,0 -85.911,-124.12 -108.267,-156.42c-0,-0 107.747,-134.494 107.747,-134.494c3.635,-4.537 3.635,-10.989 0,-15.527l-113.533,-141.715c-4.284,-5.348 -12.105,-6.212 -17.453,-1.927c-5.349,4.285 -6.212,12.105 -1.927,17.454Z"/></g><g><path d="M145.233,4210.79l107.313,133.952c-23.739,29.631 -107.313,133.952 -107.313,133.952c-3.433,4.285 -3.644,10.315 -0.519,14.83c-0,-0 86.136,124.447 108.354,156.547c0,0 -107.959,139.29 -107.959,139.29c-4.198,5.416 -3.209,13.222 2.208,17.42c5.416,4.199 13.222,3.209 17.42,-2.207l113.533,-146.481c3.318,-4.282 3.478,-10.22 0.396,-14.674l-108.267,-156.42c23.135,-28.877 107.748,-134.494 107.748,-134.494c3.635,-4.537 3.635,-10.989 -0,-15.527l-113.533,-141.715c-4.285,-5.348 -12.106,-6.212 -17.454,-1.927c-5.348,4.285 -6.212,12.105 -1.927,17.454Z" style="fill:#fff;"/><path d="M216.377,4210.79c0,-0 83.575,104.32 107.314,133.952c-0,-0 -107.314,133.952 -107.314,133.952c-3.432,4.285 -3.643,10.315 -0.519,14.83l108.355,156.547c-22.826,29.45 -107.959,139.29 -107.959,139.29c-4.198,5.416 -3.209,13.222 2.207,17.42c5.417,4.199 13.223,3.209 17.421,-2.207l113.533,-146.481c3.318,-4.282 3.478,-10.22 0.395,-14.674c0,0 -85.91,-124.12 -108.266,-156.42c-0,0 107.747,-134.494 107.747,-134.494c3.635,-4.537 3.635,-10.989 0,-15.527l-113.533,-141.715c-4.284,-5.348 -12.105,-6.212 -17.454,-1.927c-5.348,4.285 -6.211,12.105 -1.927,17.454Z" style="fill:#fff;"/><path d="M281.144,4210.79c-0,-0 83.575,104.32 107.313,133.952c0,-0 -107.313,133.952 -107.313,133.952c-3.433,4.285 -3.644,10.315 -0.519,14.83c-0,-0 86.136,124.447 108.354,156.547c0,0 -107.959,139.29 -107.959,139.29c-4.198,5.416 -3.209,13.222 2.208,17.42c5.416,4.199 13.222,3.209 17.42,-2.207l113.533,-146.481c3.319,-4.282 3.479,-10.22 0.396,-14.674c-0,0 -85.91,-124.12 -108.267,-156.42c0,0 107.748,-134.494 107.748,-134.494c3.635,-4.537 3.635,-10.989 -0,-15.527l-113.533,-141.715c-4.285,-5.348 -12.106,-6.212 -17.454,-1.927c-5.348,4.285 -6.212,12.105 -1.927,17.454Z" style="fill:#fff;"/></g><g><path d="M928.035,1978.45l-133.952,107.313c-29.632,-23.739 -133.952,-107.313 -133.952,-107.313c-4.285,-3.433 -10.316,-3.644 -14.83,-0.519c-0,-0 -124.447,86.136 -156.548,108.354c0.001,0 -139.289,-107.959 -139.289,-107.959c-5.417,-4.198 -13.223,-3.209 -17.421,2.208c-4.198,5.416 -3.209,13.222 2.208,17.42l146.481,113.533c4.281,3.318 10.219,3.478 14.673,0.396l156.421,-108.267c28.877,23.135 134.494,107.748 134.494,107.748c4.537,3.635 10.989,3.635 15.526,-0l141.716,-113.533c5.348,-4.285 6.211,-12.106 1.927,-17.454c-4.285,-5.348 -12.106,-6.212 -17.454,-1.927Z" style="fill:#fff;"/><path d="M928.035,2049.59c-0,0 -104.321,83.575 -133.952,107.314c-0,-0 -133.952,-107.314 -133.952,-107.314c-4.285,-3.432 -10.316,-3.644 -14.83,-0.519l-156.548,108.355c-29.449,-22.826 -139.289,-107.959 -139.289,-107.959c-5.417,-4.198 -13.223,-3.209 -17.421,2.207c-4.198,5.417 -3.209,13.223 2.208,17.421l146.481,113.533c4.281,3.318 10.219,3.478 14.673,0.395c0,0 124.121,-85.91 156.421,-108.266c-0,-0 134.494,107.747 134.494,107.747c4.537,3.635 10.989,3.635 15.526,0l141.716,-113.533c5.348,-4.284 6.211,-12.105 1.927,-17.454c-4.285,-5.348 -12.106,-6.211 -17.454,-1.927Z" style="fill:#fff;"/><path d="M928.035,2114.36c-0,-0 -104.321,83.575 -133.952,107.313c-0,0 -133.952,-107.313 -133.952,-107.313c-4.285,-3.433 -10.316,-3.644 -14.83,-0.519c-0,-0 -124.447,86.136 -156.548,108.354c0.001,0 -139.289,-107.959 -139.289,-107.959c-5.417,-4.198 -13.223,-3.209 -17.421,2.208c-4.198,5.416 -3.209,13.222 2.208,17.42l146.481,113.533c4.281,3.319 10.219,3.479 14.673,0.396c0,-0 124.121,-85.91 156.421,-108.267c-0,0 134.494,107.748 134.494,107.748c4.537,3.635 10.989,3.635 15.526,-0l141.716,-113.533c5.348,-4.285 6.211,-12.106 1.927,-17.454c-4.285,-5.348 -12.106,-6.212 -17.454,-1.927Z" style="fill:#fff;"/></g><g><path d="M7116.41,-289.207l107.313,133.952c-23.739,29.631 -107.313,133.952 -107.313,133.952c-3.433,4.285 -3.644,10.315 -0.52,14.83c0,-0 86.137,124.447 108.355,156.547c0,0 -107.959,139.29 -107.959,139.29c-4.198,5.416 -3.209,13.222 2.207,17.42c5.417,4.199 13.223,3.209 17.421,-2.207l113.533,-146.481c3.318,-4.282 3.478,-10.22 0.396,-14.674l-108.267,-156.42c23.134,-28.877 107.747,-134.494 107.747,-134.494c3.635,-4.537 3.635,-10.989 0,-15.527l-113.533,-141.715c-4.284,-5.348 -12.105,-6.212 -17.453,-1.927c-5.349,4.285 -6.212,12.105 -1.927,17.454Z" style="fill:#fff;"/><path d="M7187.55,-289.207c0,-0 83.575,104.32 107.314,133.952c-0,-0 -107.314,133.952 -107.314,133.952c-3.433,4.285 -3.644,10.315 -0.519,14.83l108.355,156.547c-22.826,29.45 -107.959,139.29 -107.959,139.29c-4.198,5.416 -3.209,13.222 2.207,17.42c5.417,4.199 13.223,3.209 17.421,-2.207l113.533,-146.481c3.318,-4.282 3.478,-10.22 0.395,-14.674c0,0 -85.91,-124.12 -108.267,-156.42c0,0 107.748,-134.494 107.748,-134.494c3.635,-4.537 3.635,-10.989 0,-15.527l-113.533,-141.715c-4.285,-5.348 -12.105,-6.212 -17.454,-1.927c-5.348,4.285 -6.211,12.105 -1.927,17.454Z" style="fill:#fff;"/><path d="M7252.32,-289.207c-0,-0 83.574,104.32 107.313,133.952c0,-0 -107.313,133.952 -107.313,133.952c-3.433,4.285 -3.644,10.315 -0.519,14.83c-0,-0 86.136,124.447 108.354,156.547c0,0 -107.959,139.29 -107.959,139.29c-4.198,5.416 -3.209,13.222 2.208,17.42c5.416,4.199 13.222,3.209 17.42,-2.207l113.533,-146.481c3.318,-4.282 3.478,-10.22 0.396,-14.674c-0,0 -85.91,-124.12 -108.267,-156.42c-0,0 107.748,-134.494 107.748,-134.494c3.635,-4.537 3.635,-10.989 -0,-15.527l-113.533,-141.715c-4.285,-5.348 -12.106,-6.212 -17.454,-1.927c-5.348,4.285 -6.212,12.105 -1.927,17.454Z" style="fill:#fff;"/></g><g><path d="M7305.88,3310.54l-160.486,0l-120.395,175.887l160.486,-0l120.395,-175.887Zm229.04,0l-160.486,0l-120.395,175.887l160.486,-0l120.395,-175.887Zm229.04,0l-160.486,0l-120.395,175.887l160.486,-0l120.395,-175.887Zm229.04,0l-160.485,0l-120.396,175.887l160.486,-0l120.395,-175.887Zm229.041,0l-160.486,0l-120.396,175.887l160.486,-0l120.396,-175.887Zm229.04,0l-160.486,0l-120.396,175.887l160.486,-0l120.396,-175.887Zm229.04,0l-160.486,0l-120.396,175.887l160.486,-0l120.396,-175.887Zm229.04,0l-160.486,0l-120.396,175.887l160.486,-0l120.396,-175.887Zm229.04,0l-160.486,0l-120.396,175.887l160.486,-0l120.396,-175.887Zm229.04,0l-160.486,0l-120.395,175.887l160.485,-0l120.396,-175.887Z" style="fill:#fff;"/><path d="M7245.42,3354.15l-160.486,0l-120.395,175.887l160.485,-0l120.396,-175.887Zm229.04,0l-160.486,0l-120.395,175.887l160.485,-0l120.396,-175.887Zm229.04,0l-160.486,0l-120.395,175.887l160.486,-0l120.395,-175.887Zm229.04,0l-160.486,0l-120.395,175.887l160.486,-0l120.395,-175.887Zm229.04,0l-160.485,0l-120.396,175.887l160.486,-0l120.395,-175.887Zm229.04,0l-160.485,0l-120.396,175.887l160.486,-0l120.395,-175.887Zm229.041,0l-160.486,0l-120.396,175.887l160.486,-0l120.396,-175.887Zm229.04,0l-160.486,0l-120.396,175.887l160.486,-0l120.396,-175.887Zm229.04,0l-160.486,0l-120.396,175.887l160.486,-0l120.396,-175.887Zm229.04,0l-160.486,0l-120.396,175.887l160.486,-0l120.396,-175.887Z" style="fill:#c9c9c9;"/></g><g><g><path d="M183.724,31.316l-181.438,673.061" style="fill:none;stroke:#fff;stroke-width:4.03px;"/><path d="M401.324,121.672l-348.544,603.695" style="fill:none;stroke:#fff;stroke-width:4.03px;"/><path d="M589.313,265.955l-492.916,492.916" style="fill:none;stroke:#fff;stroke-width:4.03px;"/><path d="M733.552,453.978l-603.695,348.544" style="fill:none;stroke:#fff;stroke-width:4.03px;"/><path d="M824.213,672.926l-673.335,180.419" style="fill:none;stroke:#fff;stroke-width:4.03px;"/><path d="M855.117,907.878l-697.087,-0" style="fill:none;stroke:#fff;stroke-width:4.03px;"/></g></g></g></svg>