<?xml version="1.0" encoding="UTF-8" standalone="no"?><!DOCTYPE svg PUBLIC "-//W3C//DTD SVG 1.1//EN" "http://www.w3.org/Graphics/SVG/1.1/DTD/svg11.dtd"><svg width="100%" height="100%" viewBox="0 0 33334 18750" version="1.1" xmlns="http://www.w3.org/2000/svg" xmlns:xlink="http://www.w3.org/1999/xlink" xml:space="preserve" xmlns:serif="http://www.serif.com/" style="fill-rule:evenodd;clip-rule:evenodd;stroke-linecap:round;stroke-linejoin:round;stroke-miterlimit:1.5;"><rect id="Artboard3" x="0" y="0" width="33333.3" height="18750" style="fill:none;"/><g><rect x="0" y="0" width="33333.3" height="18750" style="fill:#fcfcfa;"/><g><path d="M33333.3,-4088.62c2256.57,0 4088.62,1832.05 4088.62,4088.62c0,2256.57 -1832.05,4088.62 -4088.62,4088.62c-2256.57,-0 -4088.62,-1832.05 -4088.62,-4088.62c-0,-2256.57 1832.05,-4088.62 4088.62,-4088.62Zm0,460.379c2002.48,0 3628.24,1625.76 3628.24,3628.24c-0,2002.48 -1625.76,3628.24 -3628.24,3628.24c-2002.48,-0 -3628.24,-1625.76 -3628.24,-3628.24c-0,-2002.48 1625.76,-3628.24 3628.24,-3628.24Z" style="fill:#c9c9c9;"/><path d="M33333.3,-3058.24c1687.89,0 3058.24,1370.35 3058.24,3058.24c0,1687.89 -1370.35,3058.24 -3058.24,3058.24c-1687.89,-0 -3058.24,-1370.35 -3058.24,-3058.24c-0,-1687.89 1370.35,-3058.24 3058.24,-3058.24Zm0,569.992c1373.3,0 2488.25,1114.95 2488.25,2488.25c0,1373.3 -1114.95,2488.25 -2488.25,2488.25c-1373.3,0 -2488.25,-1114.95 -2488.25,-2488.25c0,-1373.3 1114.95,-2488.25 2488.25,-2488.25Z" style="fill:#c9c9c9;"/><path d="M33333.3,-1933.8c-1067.29,0 -1933.8,866.504 -1933.8,1933.8c-0,1067.29 866.504,1933.8 1933.8,1933.8c1067.29,-0 1933.8,-866.504 1933.8,-1933.8c0,-1067.29 -866.504,-1933.8 -1933.8,-1933.8Zm0,528.892c775.388,-0 1404.9,629.516 1404.9,1404.9c-0,775.388 -629.517,1404.9 -1404.9,1404.9c-775.387,0 -1404.9,-629.516 -1404.9,-1404.9c0,-775.388 629.517,-1404.9 1404.9,-1404.9Z" style="fill:#c9c9c9;"/></g><g><path d="M31765,1300.47l-558.133,447.137c-123.463,-98.912 -558.133,-447.137 -558.133,-447.137c-17.854,-14.304 -42.979,-15.184 -61.792,-2.167c0,0 -518.529,358.904 -652.279,451.479l-580.375,-449.829c-22.567,-17.492 -55.092,-13.371 -72.583,9.2c-17.496,22.567 -13.371,55.092 9.195,72.583l610.342,473.055c17.838,13.825 42.579,14.491 61.138,1.65l651.75,-451.113c120.32,96.396 560.391,448.95 560.391,448.95c18.904,15.146 45.788,15.146 64.696,0l590.479,-473.054c22.284,-17.854 25.884,-50.442 8.029,-72.725c-17.854,-22.288 -50.437,-25.883 -72.725,-8.029Z"/><path d="M31765,1596.9c0,0 -434.666,348.229 -558.133,447.142l-558.133,-447.142c-17.854,-14.3 -42.979,-15.183 -61.792,-2.163l-652.279,451.48c-122.708,-95.109 -580.375,-449.83 -580.375,-449.83c-22.567,-17.491 -55.092,-13.37 -72.583,9.196c-17.496,22.571 -13.371,55.096 9.195,72.588l610.342,473.054c17.838,13.825 42.579,14.492 61.138,1.646c-0,-0 517.166,-357.958 651.75,-451.109l560.391,448.946c18.904,15.146 45.788,15.146 64.696,0l590.479,-473.054c22.284,-17.854 25.884,-50.437 8.029,-72.725c-17.854,-22.283 -50.437,-25.879 -72.725,-8.029Z"/><path d="M31765,1866.76c0,-0 -434.666,348.229 -558.133,447.137l-558.133,-447.137c-17.854,-14.305 -42.979,-15.184 -61.792,-2.163c0,0 -518.529,358.9 -652.279,451.475l-580.375,-449.829c-22.567,-17.492 -55.092,-13.371 -72.583,9.2c-17.496,22.567 -13.371,55.091 9.195,72.583l610.342,473.054c17.838,13.825 42.579,14.496 61.138,1.65c-0,0 517.166,-357.958 651.75,-451.112l560.391,448.95c18.904,15.146 45.788,15.146 64.696,-0l590.479,-473.054c22.284,-17.855 25.884,-50.442 8.029,-72.725c-17.854,-22.284 -50.437,-25.884 -72.725,-8.03Z"/></g><path d="M1647.51,3789.33c0,0 -129.416,-188.95 -242.691,-354.329c-95.63,-139.621 -74.409,-328.25 49.854,-443.138c124.754,-115.337 145.766,-304.837 49.308,-444.704c-7.637,-11.071 -15.258,-22.125 -22.8,-33.058c-82.629,-119.813 -85.037,-277.579 -6.096,-399.858c34.742,-53.817 72.875,-112.884 109.671,-169.888c106.484,-164.942 98.504,-378.85 -19.966,-535.404c-21.809,-28.817 -44.009,-58.15 -65.788,-86.933c-117.446,-155.196 -126.396,-366.938 -22.467,-531.492c54.055,-85.588 113.288,-179.371 165.838,-262.579c90.754,-143.692 77.887,-329.638 -31.792,-459.463c-125.371,-148.4 -126.104,-365.396 -1.737,-514.637c0.496,-0.592 0.987,-1.184 1.479,-1.771c113.867,-136.642 122.604,-332.45 21.362,-478.692c-96.137,-138.866 -196.958,-284.496 -196.958,-284.496" style="fill:none;stroke:#000;stroke-width:140.63px;"/><path d="M1468.79,16270.7c-0,-0 -129.417,-188.954 -242.692,-354.329c-95.629,-139.621 -74.408,-328.255 49.854,-443.138c124.754,-115.342 145.767,-304.842 49.308,-444.708c-7.637,-11.071 -15.258,-22.121 -22.8,-33.059c-82.629,-119.812 -85.037,-277.579 -6.095,-399.854c34.741,-53.821 72.875,-112.883 109.67,-169.887c106.484,-164.942 98.505,-378.855 -19.966,-535.405c-21.809,-28.816 -44.009,-58.154 -65.788,-86.933c-117.446,-155.196 -126.396,-366.937 -22.466,-531.491c54.054,-85.588 113.287,-179.371 165.837,-262.58c90.754,-143.695 77.888,-329.637 -31.792,-459.462c-125.37,-148.404 -126.104,-365.396 -1.737,-514.638c0.496,-0.591 0.987,-1.183 1.479,-1.775c113.867,-136.637 122.604,-332.45 21.363,-478.687c-96.138,-138.867 -196.959,-284.496 -196.959,-284.496" style="fill:none;stroke:#000;stroke-width:140.63px;"/><path d="M31826.1,15855.8c0,-0 -53.97,-78.796 -101.208,-147.763c-39.883,-58.229 -31.033,-136.891 20.787,-184.8c52.025,-48.1 60.788,-127.129 20.563,-185.454c-3.183,-4.617 -6.362,-9.225 -9.508,-13.788c-34.459,-49.966 -35.463,-115.758 -2.542,-166.749c14.488,-22.446 30.392,-47.075 45.738,-70.846c44.404,-68.788 41.079,-157.992 -8.33,-223.28c-9.091,-12.016 -18.35,-24.25 -27.433,-36.254c-48.979,-64.72 -52.712,-153.02 -9.371,-221.646c22.542,-35.691 47.246,-74.8 69.159,-109.499c37.85,-59.926 32.483,-137.467 -13.255,-191.609l-0.004,0c-52.283,-61.887 -52.587,-152.379 -0.721,-214.616c0.205,-0.25 0.409,-0.496 0.617,-0.742c47.483,-56.979 51.129,-138.638 8.908,-199.625c-40.091,-57.913 -82.137,-118.642 -82.137,-118.642" style="fill:none;stroke:#000;stroke-width:58.63px;"/></g></svg>