<?xml version="1.0" encoding="UTF-8" standalone="no"?><!DOCTYPE svg PUBLIC "-//W3C//DTD SVG 1.1//EN" "http://www.w3.org/Graphics/SVG/1.1/DTD/svg11.dtd"><svg width="100%" height="100%" viewBox="0 0 8000 4500" version="1.1" xmlns="http://www.w3.org/2000/svg" xmlns:xlink="http://www.w3.org/1999/xlink" xml:space="preserve" xmlns:serif="http://www.serif.com/" style="fill-rule:evenodd;clip-rule:evenodd;stroke-linecap:round;stroke-linejoin:round;stroke-miterlimit:1.5;"><rect id="Artboard3" x="0" y="0" width="8000" height="4500" style="fill:none;"/><clipPath id="_clip1"><rect x="0" y="0" width="8000" height="4500"/></clipPath><g clip-path="url(#_clip1)"><rect x="-0" y="0" width="8000" height="4500"/><g><path d="M8000,-981.268c541.577,-0 981.268,439.691 981.268,981.268c0,541.577 -439.691,981.268 -981.268,981.268c-541.577,0 -981.268,-439.691 -981.268,-981.268c-0,-541.577 439.691,-981.268 981.268,-981.268Zm0,110.491c480.595,0 870.777,390.182 870.777,870.777c-0,480.595 -390.182,870.777 -870.777,870.777c-480.595,-0 -870.777,-390.182 -870.777,-870.777c0,-480.595 390.182,-870.777 870.777,-870.777Z" style="fill:#c9c9c9;"/><path d="M8000,-733.978c405.094,-0 733.978,328.884 733.978,733.978c0,405.094 -328.884,733.978 -733.978,733.978c-405.094,0 -733.978,-328.884 -733.978,-733.978c-0,-405.094 328.884,-733.978 733.978,-733.978Zm0,136.798c329.592,0 597.18,267.588 597.18,597.18c-0,329.592 -267.588,597.18 -597.18,597.18c-329.592,-0 -597.18,-267.588 -597.18,-597.18c0,-329.592 267.588,-597.18 597.18,-597.18Z" style="fill:#c9c9c9;"/><path d="M8000,-464.111c-256.15,-0 -464.111,207.961 -464.111,464.111c-0,256.15 207.961,464.111 464.111,464.111c256.15,0 464.111,-207.961 464.111,-464.111c0,-256.15 -207.961,-464.111 -464.111,-464.111Zm0,126.934c186.093,0 337.177,151.084 337.177,337.177c-0,186.093 -151.084,337.177 -337.177,337.177c-186.093,-0 -337.177,-151.084 -337.177,-337.177c0,-186.093 151.084,-337.177 337.177,-337.177Z" style="fill:#c9c9c9;"/></g><g><path d="M7623.59,312.112l-133.952,107.313c-29.631,-23.739 -133.952,-107.313 -133.952,-107.313c-4.285,-3.433 -10.315,-3.644 -14.83,-0.52c0,0 -124.447,86.137 -156.547,108.355c-0,0 -139.29,-107.959 -139.29,-107.959c-5.416,-4.198 -13.222,-3.209 -17.42,2.208c-4.199,5.416 -3.209,13.222 2.207,17.42l146.482,113.533c4.281,3.318 10.219,3.478 14.673,0.396l156.42,-108.267c28.877,23.135 134.494,107.748 134.494,107.748c4.537,3.635 10.989,3.635 15.527,-0l141.715,-113.533c5.348,-4.285 6.212,-12.106 1.927,-17.454c-4.285,-5.349 -12.105,-6.212 -17.454,-1.927Z" style="fill:#fcfcfa;"/><path d="M7623.59,383.256c0,0 -104.32,83.575 -133.952,107.314c0,-0 -133.952,-107.314 -133.952,-107.314c-4.285,-3.432 -10.315,-3.644 -14.83,-0.519l-156.547,108.355c-29.45,-22.826 -139.29,-107.959 -139.29,-107.959c-5.416,-4.198 -13.222,-3.209 -17.42,2.207c-4.199,5.417 -3.209,13.223 2.207,17.421l146.482,113.533c4.281,3.318 10.219,3.478 14.673,0.395c-0,0 124.12,-85.91 156.42,-108.266c0,-0 134.494,107.747 134.494,107.747c4.537,3.635 10.989,3.635 15.527,0l141.715,-113.533c5.348,-4.285 6.212,-12.105 1.927,-17.454c-4.285,-5.348 -12.105,-6.211 -17.454,-1.927Z" style="fill:#fcfcfa;"/><path d="M7623.59,448.023c0,-0 -104.32,83.575 -133.952,107.313c0,0 -133.952,-107.313 -133.952,-107.313c-4.285,-3.433 -10.315,-3.644 -14.83,-0.519c0,-0 -124.447,86.136 -156.547,108.354c-0,0 -139.29,-107.959 -139.29,-107.959c-5.416,-4.198 -13.222,-3.209 -17.42,2.208c-4.199,5.416 -3.209,13.222 2.207,17.42l146.482,113.533c4.281,3.318 10.219,3.479 14.673,0.396c-0,-0 124.12,-85.91 156.42,-108.267c0,0 134.494,107.748 134.494,107.748c4.537,3.635 10.989,3.635 15.527,-0l141.715,-113.533c5.348,-4.285 6.212,-12.106 1.927,-17.454c-4.285,-5.348 -12.105,-6.212 -17.454,-1.927Z" style="fill:#fcfcfa;"/></g><path d="M395.402,909.438c0,0 -31.06,-45.348 -58.246,-85.039c-22.951,-33.509 -17.858,-78.78 11.965,-106.353c-0,0 0,0 0,-0c29.941,-27.681 34.984,-73.161 11.834,-106.729c-1.833,-2.657 -3.662,-5.31 -5.472,-7.934c-19.831,-28.755 -20.409,-66.619 -1.463,-95.966c8.338,-12.916 17.49,-27.092 26.321,-40.773c25.556,-39.586 23.641,-90.924 -4.792,-128.497c-5.234,-6.916 -10.562,-13.956 -15.789,-20.864c-28.187,-37.247 -30.335,-88.065 -5.392,-127.558c12.973,-20.541 27.189,-43.049 39.801,-63.019c21.781,-34.486 18.693,-79.113 -7.63,-110.271c0,0 0,0 0,-0c-30.089,-35.616 -30.265,-87.695 -0.417,-123.513c0.119,-0.142 0.237,-0.284 0.355,-0.425c27.328,-32.794 29.425,-79.788 5.127,-114.886c-23.073,-33.328 -47.27,-68.279 -47.27,-68.279" style="fill:none;stroke:#fcfcfa;stroke-width:33.75px;"/><path d="M352.51,3904.96c0,-0 -31.06,-45.349 -58.246,-85.039c-22.951,-33.509 -17.858,-78.781 11.965,-106.353c-0,-0 0,-0 0,-0c29.941,-27.682 34.984,-73.162 11.834,-106.73c-1.833,-2.657 -3.662,-5.309 -5.472,-7.934c-19.831,-28.755 -20.409,-66.619 -1.463,-95.965c8.338,-12.917 17.49,-27.092 26.321,-40.773c25.556,-39.586 23.641,-90.925 -4.792,-128.497c-5.234,-6.916 -10.562,-13.957 -15.789,-20.864c-28.187,-37.247 -30.335,-88.065 -5.392,-127.558c12.973,-20.541 27.189,-43.049 39.801,-63.019c21.781,-34.487 18.693,-79.113 -7.63,-110.271c0,-0 0,-0 0,-0c-30.089,-35.617 -30.265,-87.695 -0.417,-123.513c0.119,-0.142 0.237,-0.284 0.355,-0.426c27.328,-32.793 29.425,-79.788 5.127,-114.885c-23.073,-33.328 -47.27,-68.279 -47.27,-68.279" style="fill:none;stroke:#fcfcfa;stroke-width:33.75px;"/><path d="M7638.26,3805.39c-0,0 -12.953,-18.911 -24.29,-35.463c-9.572,-13.975 -7.448,-32.854 4.989,-44.352c0,-0 0,-0 0,-0c12.486,-11.544 14.589,-30.511 4.935,-44.509c-0.764,-1.108 -1.527,-2.214 -2.282,-3.309c-8.27,-11.992 -8.511,-27.782 -0.61,-40.02c3.477,-5.387 7.294,-11.298 10.977,-17.003c10.657,-16.509 9.859,-37.918 -1.999,-53.587c-2.182,-2.884 -4.404,-5.82 -6.584,-8.701c-11.755,-15.533 -12.651,-36.725 -2.249,-53.195c5.41,-8.566 11.339,-17.952 16.598,-26.28c9.084,-14.382 7.796,-32.992 -3.181,-45.986c-0.001,-0 -0.001,-0 -0.001,-0c-12.548,-14.853 -12.621,-36.571 -0.173,-51.508c0.049,-0.06 0.098,-0.119 0.148,-0.178c11.396,-13.675 12.271,-33.273 2.138,-47.91c-9.622,-13.899 -19.713,-28.474 -19.713,-28.474" style="fill:none;stroke:#fcfcfa;stroke-width:14.07px;"/></g></svg>