<?xml version="1.0" encoding="UTF-8" standalone="no"?><!DOCTYPE svg PUBLIC "-//W3C//DTD SVG 1.1//EN" "http://www.w3.org/Graphics/SVG/1.1/DTD/svg11.dtd"><svg width="100%" height="100%" viewBox="0 0 8000 4500" version="1.1" xmlns="http://www.w3.org/2000/svg" xmlns:xlink="http://www.w3.org/1999/xlink" xml:space="preserve" xmlns:serif="http://www.serif.com/" style="fill-rule:evenodd;clip-rule:evenodd;stroke-linecap:round;stroke-linejoin:round;stroke-miterlimit:1.5;"><rect id="Artboard2" x="0" y="0" width="8000" height="4500" style="fill:none;"/><clipPath id="_clip1"><rect x="0" y="0" width="8000" height="4500"/></clipPath><g clip-path="url(#_clip1)"><rect x="-1" y="-2.5" width="8000" height="4502.5" style="fill:#fcfcfa;"/><g><path d="M719.599,-376.721c22.324,41.796 41.184,85.722 56.193,131.398l-619.956,1073.8c-46.03,9.599 -93.436,15.388 -141.884,17.023l705.647,-1222.22Zm-115.763,-165.003c27.541,30.612 52.845,63.276 75.641,97.712l-743.925,1288.52c-41.758,-2.476 -82.69,-8.039 -122.556,-16.454l790.84,-1369.77Zm-139.471,-123.941c31.618,22.321 61.613,46.793 89.784,73.216l-809.937,1402.85c-37.232,-11.281 -73.363,-25.103 -108.222,-41.281l828.375,-1434.79Zm336.246,514.139c10.858,53.61 16.551,109.029 16.551,165.767c0,11.935 -0.252,23.812 -0.75,35.592l-384.622,666.185c-56.52,36.045 -117.673,65.45 -182.351,87.114l551.172,-954.658Zm-500.552,-604.306c35.571,14.565 69.913,31.524 102.804,50.666l-831.747,1440.63c-33.242,-19.15 -65.039,-40.532 -95.152,-63.919l824.095,-1427.37Zm-181.552,-51.054c39.749,6.406 78.558,15.632 116.204,27.456l-811.818,1406.11c-29.32,-26.95 -56.702,-55.975 -81.918,-86.842l777.532,-1346.72Zm668.082,1045.16l-205.912,356.651c96.025,-98.439 167.862,-220.519 205.912,-356.651Zm-874.847,-1052.54c24.266,-2.136 48.848,-3.226 73.683,-3.226c19.831,-0 39.5,0.695 59.041,2.068l-747.985,1295.55c-24.741,-36.499 -46.659,-75.063 -65.442,-115.377l680.703,-1179.01Zm-85.963,12.108l-627.222,1086.38c-17.913,-52.161 -30.782,-106.645 -38.023,-162.87l505.244,-875.108c50.966,-21.262 104.502,-37.596 160.001,-48.402Zm-271.864,105.37c-235.066,143.062 -393.742,399.358 -400.032,692.877l400.032,-692.877Z"/><path d="M766.554,-409.721c22.325,41.796 41.184,85.722 56.193,131.398l-619.956,1073.8c-46.03,9.599 -93.436,15.388 -141.884,17.023l705.647,-1222.22Zm-115.763,-165.003c27.541,30.612 52.845,63.276 75.641,97.712l-743.925,1288.52c-41.758,-2.476 -82.69,-8.039 -122.556,-16.454l790.84,-1369.77Zm-139.471,-123.941c31.618,22.321 61.613,46.793 89.784,73.216l-809.937,1402.85c-37.231,-11.281 -73.363,-25.103 -108.222,-41.281l828.375,-1434.79Zm336.246,514.139c10.858,53.61 16.551,109.029 16.551,165.767c0,11.935 -0.252,23.812 -0.75,35.592l-384.622,666.185c-56.52,36.045 -117.673,65.45 -182.351,87.114l551.172,-954.658Zm-500.552,-604.306c35.571,14.565 69.913,31.524 102.804,50.666l-831.747,1440.63c-33.242,-19.15 -65.039,-40.532 -95.152,-63.919l824.095,-1427.37Zm-181.552,-51.054c39.749,6.406 78.558,15.632 116.204,27.456l-811.818,1406.11c-29.32,-26.95 -56.702,-55.975 -81.917,-86.842l777.531,-1346.72Zm668.082,1045.16l-205.912,356.651c96.025,-98.439 167.863,-220.519 205.912,-356.651Zm-874.847,-1052.54c24.267,-2.136 48.848,-3.226 73.683,-3.226c19.831,-0 39.5,0.695 59.041,2.068l-747.984,1295.55c-24.742,-36.499 -46.66,-75.063 -65.443,-115.377l680.703,-1179.01Zm-85.963,12.108l-627.222,1086.38c-17.913,-52.161 -30.781,-106.645 -38.023,-162.87l505.244,-875.108c50.966,-21.262 104.502,-37.596 160.001,-48.402Zm-271.864,105.37c-235.066,143.062 -393.741,399.358 -400.032,692.877l400.032,-692.877Z" style="fill:#c9c9c9;"/></g><g><path d="M7015.34,4062.42l107.314,133.952c-23.739,29.631 -107.314,133.952 -107.314,133.952c-3.432,4.285 -3.644,10.315 -0.519,14.83c0,-0 86.136,124.447 108.355,156.547c-0,0 -107.959,139.29 -107.959,139.29c-4.198,5.416 -3.209,13.222 2.207,17.42c5.417,4.198 13.223,3.209 17.421,-2.207l113.533,-146.482c3.318,-4.281 3.478,-10.219 0.395,-14.673l-108.266,-156.42c23.134,-28.878 107.747,-134.494 107.747,-134.494c3.635,-4.537 3.635,-10.989 0,-15.527l-113.533,-141.715c-4.284,-5.348 -12.105,-6.212 -17.454,-1.927c-5.348,4.285 -6.211,12.105 -1.927,17.454Z"/><path d="M7086.49,4062.42c0,-0 83.575,104.32 107.314,133.952c-0,-0 -107.314,133.952 -107.314,133.952c-3.433,4.285 -3.644,10.315 -0.519,14.83l108.354,156.547c-22.825,29.45 -107.959,139.29 -107.959,139.29c-4.198,5.416 -3.209,13.222 2.208,17.42c5.416,4.198 13.222,3.209 17.42,-2.207l113.533,-146.482c3.319,-4.281 3.479,-10.219 0.396,-14.673c0,0 -85.91,-124.12 -108.267,-156.42c0,-0 107.748,-134.494 107.748,-134.494c3.635,-4.537 3.635,-10.989 -0,-15.527l-113.533,-141.715c-4.285,-5.348 -12.106,-6.212 -17.454,-1.927c-5.348,4.285 -6.212,12.105 -1.927,17.454Z"/><path d="M7151.26,4062.42c-0,-0 83.574,104.32 107.313,133.952c0,-0 -107.313,133.952 -107.313,133.952c-3.433,4.285 -3.644,10.315 -0.52,14.83c0,-0 86.137,124.447 108.355,156.547c-0,0 -107.959,139.29 -107.959,139.29c-4.198,5.416 -3.209,13.222 2.207,17.42c5.417,4.198 13.223,3.209 17.421,-2.207l113.533,-146.482c3.318,-4.281 3.478,-10.219 0.396,-14.673c-0,0 -85.911,-124.12 -108.267,-156.42c-0,-0 107.747,-134.494 107.747,-134.494c3.635,-4.537 3.635,-10.989 0,-15.527l-113.533,-141.715c-4.284,-5.348 -12.105,-6.212 -17.453,-1.927c-5.349,4.285 -6.212,12.105 -1.927,17.454Z"/></g><g><path d="M2526.63,-289.207l107.313,133.952c-23.739,29.631 -107.313,133.952 -107.313,133.952c-3.433,4.285 -3.644,10.315 -0.52,14.83c0,-0 86.137,124.447 108.355,156.547c0,0 -107.959,139.29 -107.959,139.29c-4.198,5.416 -3.209,13.222 2.208,17.42c5.416,4.199 13.222,3.209 17.42,-2.207l113.533,-146.481c3.318,-4.282 3.478,-10.22 0.396,-14.674l-108.267,-156.42c23.135,-28.877 107.748,-134.494 107.748,-134.494c3.635,-4.537 3.635,-10.989 -0,-15.527l-113.533,-141.715c-4.285,-5.348 -12.106,-6.212 -17.454,-1.927c-5.348,4.285 -6.212,12.105 -1.927,17.454Z"/><path d="M2597.77,-289.207c0,-0 83.575,104.32 107.314,133.952c-0,-0 -107.314,133.952 -107.314,133.952c-3.432,4.285 -3.644,10.315 -0.519,14.83l108.355,156.547c-22.826,29.45 -107.959,139.29 -107.959,139.29c-4.198,5.416 -3.209,13.222 2.207,17.42c5.417,4.199 13.223,3.209 17.421,-2.207l113.533,-146.481c3.318,-4.282 3.478,-10.22 0.395,-14.674c0,0 -85.91,-124.12 -108.266,-156.42c-0,0 107.747,-134.494 107.747,-134.494c3.635,-4.537 3.635,-10.989 0,-15.527l-113.533,-141.715c-4.284,-5.348 -12.105,-6.212 -17.454,-1.927c-5.348,4.285 -6.211,12.105 -1.927,17.454Z"/><path d="M2662.54,-289.207c-0,-0 83.575,104.32 107.313,133.952c0,-0 -107.313,133.952 -107.313,133.952c-3.433,4.285 -3.644,10.315 -0.519,14.83c-0,-0 86.136,124.447 108.354,156.547c0,0 -107.959,139.29 -107.959,139.29c-4.198,5.416 -3.209,13.222 2.208,17.42c5.416,4.199 13.222,3.209 17.42,-2.207l113.533,-146.481c3.319,-4.282 3.479,-10.22 0.396,-14.674c-0,0 -85.91,-124.12 -108.267,-156.42c0,0 107.748,-134.494 107.748,-134.494c3.635,-4.537 3.635,-10.989 -0,-15.527l-113.533,-141.715c-4.285,-5.348 -12.106,-6.212 -17.454,-1.927c-5.348,4.285 -6.212,12.105 -1.927,17.454Z"/></g><g><path d="M7405.43,-152.278l107.313,133.952c-23.738,29.632 -107.313,133.952 -107.313,133.952c-3.433,4.285 -3.644,10.316 -0.519,14.83c-0,0 86.136,124.447 108.354,156.548c0,-0 -107.959,139.289 -107.959,139.289c-4.198,5.417 -3.209,13.223 2.208,17.421c5.416,4.198 13.222,3.209 17.42,-2.208l113.533,-146.481c3.318,-4.281 3.479,-10.219 0.396,-14.673l-108.267,-156.421c23.135,-28.877 107.748,-134.493 107.748,-134.493c3.635,-4.538 3.635,-10.99 -0,-15.527l-113.533,-141.715c-4.285,-5.349 -12.106,-6.212 -17.454,-1.928c-5.348,4.285 -6.212,12.106 -1.927,17.454Z" style="fill:#fff;"/><path d="M7476.57,-152.278c0,0 83.575,104.321 107.314,133.952c-0,0 -107.314,133.952 -107.314,133.952c-3.432,4.285 -3.643,10.316 -0.519,14.83l108.355,156.548c-22.826,29.449 -107.959,139.289 -107.959,139.289c-4.198,5.417 -3.209,13.223 2.207,17.421c5.417,4.198 13.223,3.209 17.421,-2.208l113.533,-146.481c3.318,-4.281 3.478,-10.219 0.396,-14.673c-0,-0 -85.911,-124.12 -108.267,-156.421c-0,0 107.747,-134.493 107.747,-134.493c3.635,-4.538 3.635,-10.99 0,-15.527l-113.533,-141.715c-4.284,-5.349 -12.105,-6.212 -17.453,-1.928c-5.349,4.285 -6.212,12.106 -1.928,17.454Z" style="fill:#fff;"/><path d="M7541.34,-152.278c-0,0 83.575,104.321 107.314,133.952c-0,0 -107.314,133.952 -107.314,133.952c-3.433,4.285 -3.644,10.316 -0.519,14.83c-0,0 86.136,124.447 108.354,156.548c0,-0 -107.959,139.289 -107.959,139.289c-4.198,5.417 -3.209,13.223 2.208,17.421c5.416,4.198 13.222,3.209 17.42,-2.208l113.533,-146.481c3.319,-4.281 3.479,-10.219 0.396,-14.673c0,-0 -85.91,-124.12 -108.267,-156.421c0,0 107.748,-134.493 107.748,-134.493c3.635,-4.538 3.635,-10.99 -0,-15.527l-113.533,-141.715c-4.285,-5.349 -12.106,-6.212 -17.454,-1.928c-5.348,4.285 -6.212,12.106 -1.927,17.454Z" style="fill:#fff;"/></g><g><path d="M-1206.24,3254.36l-160.485,-0l-120.396,175.886l160.486,0l120.395,-175.886Zm229.041,-0l-160.486,-0l-120.396,175.886l160.486,0l120.396,-175.886Zm229.04,-0l-160.486,-0l-120.396,175.886l160.486,0l120.396,-175.886Zm229.04,-0l-160.486,-0l-120.396,175.886l160.486,0l120.396,-175.886Zm229.04,-0l-160.486,-0l-120.396,175.886l160.486,0l120.396,-175.886Zm229.04,-0l-160.486,-0l-120.396,175.886l160.486,0l120.396,-175.886Zm229.04,-0l-160.486,-0l-120.396,175.886l160.486,0l120.396,-175.886Zm229.04,-0l-160.486,-0l-120.395,175.886l160.485,0l120.396,-175.886Zm229.04,-0l-160.486,-0l-120.395,175.886l160.486,0l120.395,-175.886Zm229.04,-0l-160.486,-0l-120.395,175.886l160.486,0l120.395,-175.886Z"/><path d="M-1266.7,3297.97l-160.486,0l-120.395,175.887l160.486,-0l120.395,-175.887Zm229.04,0l-160.485,0l-120.396,175.887l160.486,-0l120.395,-175.887Zm229.04,0l-160.485,0l-120.396,175.887l160.486,-0l120.395,-175.887Zm229.041,0l-160.486,0l-120.396,175.887l160.486,-0l120.396,-175.887Zm229.04,0l-160.486,0l-120.396,175.887l160.486,-0l120.396,-175.887Zm229.04,0l-160.486,0l-120.396,175.887l160.486,-0l120.396,-175.887Zm229.04,0l-160.486,0l-120.396,175.887l160.486,-0l120.396,-175.887Zm229.04,0l-160.486,0l-120.396,175.887l160.486,-0l120.396,-175.887Zm229.04,0l-160.486,0l-120.395,175.887l160.485,-0l120.396,-175.887Zm229.04,0l-160.486,0l-120.395,175.887l160.485,-0l120.396,-175.887Z" style="fill:#c9c9c9;"/></g><g><g><path d="M7012.62,0.107l-697.088,-0" style="fill:none;stroke:#000;stroke-width:4.03px;"/></g><g><path d="M5197.18,0l697.087,0" style="fill:none;stroke:#000;stroke-width:4.03px;"/></g><g><path d="M6104.95,907.771l-0,-697.088" style="fill:none;stroke:#000;stroke-width:4.03px;"/><path d="M5868.68,876.455l181.439,-673.061" style="fill:none;stroke:#000;stroke-width:4.03px;"/><path d="M5651.08,786.1l348.544,-603.696" style="fill:none;stroke:#000;stroke-width:4.03px;"/><path d="M5463.09,641.816l492.915,-492.916" style="fill:none;stroke:#000;stroke-width:4.03px;"/><path d="M5318.85,453.793l603.696,-348.544" style="fill:none;stroke:#000;stroke-width:4.03px;"/><path d="M5228.19,234.845l673.335,-180.419" style="fill:none;stroke:#000;stroke-width:4.03px;"/><path d="M5197.29,-0.107l697.088,0" style="fill:none;stroke:#000;stroke-width:4.03px;"/></g></g></g></svg>