<?xml version="1.0" encoding="UTF-8" standalone="no"?><!DOCTYPE svg PUBLIC "-//W3C//DTD SVG 1.1//EN" "http://www.w3.org/Graphics/SVG/1.1/DTD/svg11.dtd"><svg width="100%" height="100%" viewBox="0 0 7759 4580" version="1.1" xmlns="http://www.w3.org/2000/svg" xmlns:xlink="http://www.w3.org/1999/xlink" xml:space="preserve" xmlns:serif="http://www.serif.com/" style="fill-rule:evenodd;clip-rule:evenodd;stroke-linejoin:round;stroke-miterlimit:2;"><g opacity="0.25"><path d="M3646.7,2264.28c-0,0 95.314,-162.522 139.891,-238.531c2.475,-4.221 7.137,-6.667 12.017,-6.303c4.881,0.363 9.129,3.471 10.952,8.013c25.29,62.986 72.286,180.031 88.278,219.862c4.685,11.668 15.995,19.314 28.567,19.314l217.812,-0c5.188,-0 9.866,3.125 11.851,7.919c1.986,4.793 0.888,10.311 -2.781,13.98c-60.643,60.643 -174.071,174.071 -174.071,174.071c-3.503,3.503 -3.503,9.193 0,12.696c3.504,3.504 9.193,3.504 12.697,0c-0,0 113.428,-113.428 174.071,-174.071c8.804,-8.804 11.438,-22.045 6.673,-33.548c-4.765,-11.503 -15.99,-19.003 -28.44,-19.003c-66.763,0 -177.988,0 -217.812,0c-5.239,0 -9.952,-3.186 -11.904,-8.048c-15.993,-39.831 -62.988,-156.876 -88.278,-219.863c-4.376,-10.898 -14.571,-18.357 -26.282,-19.228c-11.711,-0.872 -22.898,4.995 -28.839,15.125c-44.577,76.01 -139.891,238.532 -139.891,238.532c-2.506,4.274 -1.071,9.779 3.203,12.286c4.274,2.506 9.779,1.071 12.286,-3.203Z" style="fill:#fff;"/><path d="M5767.81,1879.02c-1.145,-3.525 -4.43,-5.912 -8.137,-5.912c-3.706,-0 -6.991,2.387 -8.137,5.912l-54.526,167.814c0,-0 -142.751,-103.715 -142.751,-103.715c-2.998,-2.179 -7.059,-2.179 -10.058,-0c-2.998,2.179 -4.253,6.04 -3.108,9.566l54.526,167.814c0,-0 -176.45,-0 -176.45,-0c-3.706,-0 -6.991,2.386 -8.137,5.911c-1.145,3.526 0.11,7.387 3.108,9.566l142.751,103.715c0,-0 -142.751,103.714 -142.751,103.714c-2.998,2.179 -4.253,6.041 -3.108,9.566c1.146,3.525 4.431,5.912 8.137,5.912l176.45,-0c0,-0 -54.526,167.814 -54.526,167.814c-1.145,3.525 0.11,7.387 3.108,9.566c2.999,2.178 7.06,2.178 10.058,-0l142.751,-103.715c0,-0 54.526,167.814 54.526,167.814c1.146,3.525 4.431,5.912 8.137,5.912c3.707,-0 6.992,-2.387 8.137,-5.912c0,-0 41.792,-128.622 54.526,-167.814c0,-0 142.751,103.715 142.751,103.715c2.999,2.178 7.06,2.178 10.058,-0c2.999,-2.179 4.254,-6.041 3.108,-9.566c0,-0 -41.791,-128.622 -54.526,-167.814c41.21,-0 176.45,-0 176.45,-0c3.707,-0 6.992,-2.387 8.137,-5.912c1.146,-3.525 -0.109,-7.387 -3.108,-9.566l-142.751,-103.714c0,-0 142.751,-103.715 142.751,-103.715c2.999,-2.179 4.254,-6.04 3.108,-9.566c-1.145,-3.525 -4.43,-5.911 -8.137,-5.911l-176.45,-0c0,-0 54.526,-167.814 54.526,-167.814c1.146,-3.526 -0.109,-7.387 -3.108,-9.566c-2.998,-2.179 -7.059,-2.179 -10.058,-0l-142.751,103.715c-12.734,-39.193 -54.526,-167.814 -54.526,-167.814Zm-8.137,30.331l50.028,153.97c0.847,2.605 2.889,4.647 5.494,5.493c2.604,0.847 5.457,0.395 7.672,-1.215c0,-0 89.079,-64.72 130.975,-95.159c-16.003,49.252 -50.028,153.97 -50.028,153.97c-0.846,2.605 -0.394,5.458 1.216,7.673c1.609,2.216 4.183,3.527 6.921,3.527c0,0 110.108,0 161.894,0c0,0 -130.975,95.159 -130.975,95.159c-2.215,1.61 -3.526,4.183 -3.526,6.922c-0,2.738 1.311,5.312 3.526,6.922l130.975,95.158c-51.786,0 -161.894,0 -161.894,0c-2.738,0 -5.312,1.312 -6.921,3.527c-1.61,2.216 -2.062,5.068 -1.216,7.673l50.028,153.97c0,0 -130.975,-95.158 -130.975,-95.158c-2.215,-1.61 -5.068,-2.062 -7.672,-1.216c-2.605,0.847 -4.647,2.889 -5.494,5.493c0,0 -34.025,104.719 -50.028,153.971c0,-0 -50.028,-153.971 -50.028,-153.971c-0.846,-2.604 -2.888,-4.646 -5.493,-5.493c-2.604,-0.846 -5.457,-0.394 -7.673,1.216l-130.975,95.158c0,0 50.028,-153.97 50.028,-153.97c0.847,-2.605 0.395,-5.457 -1.215,-7.673c-1.61,-2.215 -4.183,-3.527 -6.922,-3.527l-161.894,0c0,0 130.975,-95.158 130.975,-95.158c2.216,-1.61 3.527,-4.184 3.527,-6.922c0,-2.739 -1.311,-5.312 -3.527,-6.922c0,-0 -89.079,-64.72 -130.975,-95.159c51.787,0 161.894,0 161.894,0c2.739,0 5.312,-1.311 6.922,-3.527c1.61,-2.215 2.062,-5.068 1.215,-7.673c0,0 -34.025,-104.718 -50.028,-153.97c0,0 130.975,95.159 130.975,95.159c2.216,1.61 5.069,2.062 7.673,1.215c2.605,-0.846 4.647,-2.888 5.493,-5.493l50.028,-153.97l0,-0Z" style="fill:#fff;"/><path d="M419.777,3169.16c-34.584,11.087 -81.242,26.044 -113.947,36.529c-10.06,3.224 -17.714,11.456 -20.2,21.723c-2.486,10.267 0.554,21.088 8.024,28.558c22.868,22.867 54.551,54.55 77.418,77.418c7.47,7.47 18.291,10.51 28.558,8.024c10.267,-2.486 18.499,-10.14 21.723,-20.2c10.485,-32.705 25.442,-79.363 36.529,-113.947c3.465,-10.809 0.598,-22.649 -7.429,-30.676c-8.027,-8.027 -19.866,-10.894 -30.676,-7.429Zm3.149,9.825c7.129,-2.285 14.938,-0.394 20.231,4.9c5.294,5.293 7.185,13.102 4.9,20.231c-11.087,34.583 -26.044,81.242 -36.529,113.946c-2.127,6.635 -7.555,11.682 -14.326,13.322c-6.771,1.64 -13.908,-0.365 -18.834,-5.292c-22.868,-22.867 -54.551,-54.55 -77.418,-77.418c-4.927,-4.926 -6.932,-12.063 -5.292,-18.834c1.64,-6.771 6.687,-12.199 13.322,-14.326c32.704,-10.484 79.363,-25.442 113.946,-36.529Z" style="fill:#fff;"/><path d="M1477.12,4417.53c-36.261,2.016 -85.183,4.737 -119.474,6.644c-10.547,0.586 -20.028,6.624 -25.021,15.933c-4.993,9.31 -4.776,20.548 0.571,29.658c16.369,27.891 39.048,66.535 55.417,94.426c5.347,9.11 15.053,14.779 25.615,14.959c10.563,0.181 20.457,-5.153 26.112,-14.075c18.385,-29.009 44.615,-70.394 64.056,-101.069c6.077,-9.588 6.285,-21.769 0.54,-31.559c-5.746,-9.79 -16.482,-15.547 -27.816,-14.917Zm0.573,10.302c7.475,-0.416 14.555,3.381 18.344,9.838c3.79,6.456 3.652,14.489 -0.355,20.812c-19.442,30.676 -45.672,72.061 -64.057,101.069c-3.73,5.885 -10.255,9.402 -17.22,9.283c-6.966,-0.119 -13.367,-3.857 -16.894,-9.866c-16.369,-27.891 -39.048,-66.534 -55.417,-94.425c-3.526,-6.008 -3.669,-13.42 -0.376,-19.559c3.292,-6.14 9.545,-10.122 16.501,-10.509c34.291,-1.906 83.213,-4.627 119.474,-6.643Z" style="fill:#fff;"/><path d="M2072.79,3273.31c-35.288,8.586 -82.896,20.171 -116.266,28.291c-10.264,2.498 -18.487,10.161 -21.701,20.224c-3.214,10.063 -0.954,21.074 5.962,29.058c21.175,24.444 50.513,58.31 71.688,82.754c6.917,7.984 17.493,11.79 27.911,10.044c10.419,-1.746 19.176,-8.792 23.112,-18.596c12.794,-31.871 31.048,-77.341 44.578,-111.045c4.229,-10.534 2.215,-22.548 -5.217,-31.128c-7.433,-8.58 -19.037,-12.286 -30.067,-9.602Zm2.439,10.025c7.274,-1.77 14.928,0.674 19.829,6.332c4.902,5.659 6.23,13.582 3.441,20.53c-13.53,33.703 -31.784,79.173 -44.578,111.044c-2.596,6.466 -8.371,11.113 -15.242,12.264c-6.871,1.152 -13.846,-1.358 -18.408,-6.624c-21.174,-24.443 -50.512,-58.31 -71.687,-82.753c-4.562,-5.266 -6.052,-12.527 -3.932,-19.164c2.119,-6.637 7.542,-11.691 14.311,-13.338c33.371,-8.12 80.979,-19.705 116.266,-28.291Z" style="fill:#fff;"/><path d="M3948.26,3893.78c-34.105,12.482 -80.118,29.321 -112.37,41.124c-9.92,3.631 -17.233,12.166 -19.301,22.526c-2.067,10.359 1.41,21.048 9.177,28.208c23.777,21.921 56.72,52.291 80.497,74.212c7.767,7.16 18.703,9.759 28.861,6.858c10.157,-2.902 18.071,-10.883 20.885,-21.066c9.147,-33.103 22.198,-80.33 31.872,-115.335c3.023,-10.942 -0.322,-22.656 -8.668,-30.35c-8.346,-7.694 -20.293,-10.078 -30.953,-6.177Zm3.546,9.689c7.03,-2.573 14.909,-1 20.413,4.074c5.505,5.074 7.711,12.799 5.717,20.015c-9.674,35.006 -22.724,82.233 -31.872,115.336c-1.856,6.715 -7.075,11.979 -13.774,13.893c-6.699,1.913 -13.911,0.199 -19.033,-4.523c-23.777,-21.92 -56.721,-52.291 -80.498,-74.211c-5.122,-4.723 -7.415,-11.772 -6.052,-18.604c1.364,-6.832 6.187,-12.461 12.729,-14.855c32.252,-11.804 78.265,-28.643 112.37,-41.125Z" style="fill:#fff;"/><path d="M2943.53,3562.84c36.16,3.374 84.946,7.926 119.141,11.117c10.518,0.982 20.788,-3.585 27.104,-12.053c6.316,-8.468 7.766,-19.614 3.827,-29.416c-12.06,-30.007 -28.768,-71.582 -40.827,-101.589c-3.94,-9.802 -12.699,-16.845 -23.119,-18.587c-10.419,-1.742 -20.993,2.067 -27.907,10.055c-22.478,25.966 -54.545,63.012 -78.314,90.471c-7.429,8.583 -9.438,20.598 -5.205,31.131c4.232,10.533 13.997,17.816 25.3,18.871Zm0.959,-10.273c-7.454,-0.696 -13.894,-5.499 -16.686,-12.445c-2.792,-6.947 -1.467,-14.871 3.433,-20.531c23.769,-27.459 55.836,-64.505 78.314,-90.472c4.559,-5.267 11.533,-7.78 18.405,-6.631c6.871,1.149 12.648,5.794 15.246,12.258c12.06,30.007 28.768,71.582 40.827,101.589c2.598,6.465 1.642,13.815 -2.523,19.4c-4.166,5.585 -10.939,8.597 -17.875,7.949c-34.196,-3.191 -82.981,-7.743 -119.141,-11.117Z" style="fill:#fff;"/><path d="M3822.3,1159.66c21.296,29.419 50.026,69.108 70.165,96.928c6.194,8.557 16.398,13.271 26.929,12.44c10.531,-0.832 19.87,-7.087 24.645,-16.51c14.618,-28.847 34.873,-68.815 49.491,-97.662c4.776,-9.423 4.299,-20.653 -1.259,-29.637c-5.557,-8.984 -15.391,-14.426 -25.955,-14.361c-34.343,0.211 -83.34,0.511 -119.657,0.734c-11.351,0.069 -21.711,6.477 -26.843,16.603c-5.131,10.126 -4.172,22.27 2.484,31.465Zm8.358,-6.05c-4.39,-6.064 -5.022,-14.073 -1.638,-20.751c3.384,-6.678 10.217,-10.904 17.703,-10.95c36.316,-0.223 85.313,-0.523 119.656,-0.733c6.967,-0.043 13.453,3.545 17.118,9.471c3.665,5.925 3.979,13.331 0.83,19.545c-14.619,28.847 -34.873,68.815 -49.492,97.662c-3.149,6.214 -9.307,10.34 -16.253,10.888c-6.945,0.548 -13.674,-2.56 -17.759,-8.204c-20.139,-27.82 -48.87,-67.509 -70.165,-96.928Z" style="fill:#fff;"/><path d="M2518.63,1404.1c-35.707,-6.63 -83.881,-15.575 -117.648,-21.845c-10.386,-1.929 -21.027,1.691 -28.083,9.553c-7.056,7.862 -9.508,18.831 -6.471,28.949c9.296,30.975 22.177,73.89 31.473,104.865c3.037,10.118 11.124,17.924 21.343,20.602c10.219,2.677 21.095,-0.161 28.703,-7.491c24.733,-23.827 60.019,-57.822 86.174,-83.019c8.175,-7.875 11.262,-19.66 7.999,-30.532c-3.263,-10.873 -12.329,-19.009 -23.49,-21.082Zm-1.884,10.145c7.361,1.366 13.34,6.732 15.492,13.903c2.152,7.17 0.116,14.942 -5.276,20.136c-26.154,25.197 -61.44,59.191 -86.174,83.019c-5.017,4.834 -12.19,6.705 -18.929,4.94c-6.739,-1.766 -12.073,-6.914 -14.075,-13.587c-9.297,-30.975 -22.177,-73.89 -31.474,-104.865c-2.003,-6.672 -0.386,-13.907 4.268,-19.092c4.653,-5.185 11.671,-7.572 18.521,-6.3c33.766,6.27 81.94,15.215 117.647,21.846Z" style="fill:#fff;"/><path d="M1319.51,2272.36c-35.707,-6.63 -83.881,-15.575 -117.647,-21.845c-10.387,-1.929 -21.028,1.691 -28.084,9.553c-7.055,7.862 -9.507,18.831 -6.471,28.949c9.297,30.975 22.177,73.891 31.474,104.865c3.037,10.118 11.124,17.924 21.343,20.602c10.219,2.677 21.094,-0.161 28.702,-7.49c24.733,-23.828 60.02,-57.823 86.174,-83.02c8.175,-7.875 11.263,-19.66 7.999,-30.532c-3.263,-10.873 -12.329,-19.009 -23.49,-21.082Zm-1.883,10.145c7.36,1.366 13.339,6.732 15.491,13.903c2.152,7.17 0.116,14.942 -5.275,20.136c-26.155,25.197 -61.441,59.191 -86.174,83.019c-5.018,4.834 -12.19,6.706 -18.93,4.94c-6.739,-1.766 -12.072,-6.914 -14.075,-13.587c-9.297,-30.974 -22.177,-73.89 -31.474,-104.865c-2.002,-6.672 -0.385,-13.907 4.268,-19.092c4.653,-5.185 11.671,-7.572 18.521,-6.3c33.767,6.27 81.94,15.215 117.648,21.846Z" style="fill:#fff;"/><path d="M6787.51,3049.39c-35.707,-6.63 -83.881,-15.576 -117.647,-21.846c-10.387,-1.928 -21.028,1.692 -28.084,9.554c-7.055,7.862 -9.507,18.831 -6.471,28.949c9.297,30.975 22.177,73.89 31.474,104.865c3.037,10.118 11.124,17.924 21.343,20.601c10.219,2.677 21.094,-0.161 28.702,-7.49c24.733,-23.828 60.02,-57.822 86.174,-83.019c8.175,-7.876 11.263,-19.66 7.999,-30.533c-3.263,-10.872 -12.329,-19.009 -23.49,-21.081Zm-1.883,10.144c7.36,1.367 13.339,6.733 15.491,13.903c2.152,7.171 0.116,14.942 -5.275,20.136c-26.155,25.197 -61.441,59.192 -86.174,83.02c-5.018,4.833 -12.19,6.705 -18.93,4.939c-6.739,-1.765 -12.072,-6.913 -14.075,-13.586c-9.297,-30.975 -22.177,-73.89 -31.474,-104.865c-2.002,-6.673 -0.385,-13.907 4.268,-19.092c4.653,-5.185 11.671,-7.572 18.521,-6.3c33.767,6.27 81.941,15.215 117.648,21.845Z" style="fill:#fff;"/><path d="M7583.73,4181.36c-35.707,-6.631 -83.881,-15.576 -117.648,-21.846c-10.386,-1.929 -21.027,1.691 -28.083,9.553c-7.056,7.862 -9.508,18.832 -6.471,28.95c9.297,30.974 22.177,73.89 31.473,104.864c3.037,10.118 11.124,17.924 21.343,20.602c10.219,2.677 21.095,-0.161 28.703,-7.49c24.733,-23.828 60.019,-57.822 86.174,-83.02c8.175,-7.875 11.262,-19.66 7.999,-30.532c-3.263,-10.872 -12.329,-19.009 -23.49,-21.081Zm-1.884,10.144c7.361,1.366 13.34,6.733 15.492,13.903c2.152,7.17 0.116,14.942 -5.275,20.136c-26.155,25.197 -61.441,59.191 -86.175,83.019c-5.017,4.834 -12.189,6.706 -18.929,4.94c-6.739,-1.766 -12.073,-6.914 -14.075,-13.587c-9.297,-30.974 -22.177,-73.89 -31.474,-104.864c-2.003,-6.673 -0.385,-13.907 4.268,-19.092c4.653,-5.185 11.671,-7.573 18.521,-6.301c33.766,6.27 81.94,15.215 117.647,21.846Z" style="fill:#fff;"/><path d="M7305.11,2264.91c-10.122,-34.878 -23.777,-81.934 -33.349,-114.918c-2.944,-10.145 -10.959,-18.025 -21.153,-20.795c-10.195,-2.771 -21.096,-0.032 -28.77,7.227c-23.494,22.224 -56.045,53.014 -79.539,75.238c-7.675,7.259 -11.015,17.992 -8.815,28.324c2.201,10.332 9.623,18.773 19.589,22.276c32.401,11.389 78.626,27.636 112.888,39.68c10.709,3.764 22.624,1.227 30.871,-6.574c8.247,-7.801 11.442,-19.556 8.278,-30.458Zm-9.909,2.875c2.087,7.19 -0.021,14.943 -5.459,20.088c-5.439,5.144 -13.297,6.817 -20.36,4.335c-34.262,-12.043 -80.487,-28.291 -112.887,-39.68c-6.573,-2.31 -11.468,-7.877 -12.919,-14.691c-1.451,-6.814 0.751,-13.892 5.813,-18.68c23.494,-22.223 56.045,-53.014 79.539,-75.237c5.061,-4.788 12.251,-6.594 18.974,-4.767c6.723,1.827 12.009,7.024 13.95,13.715c9.572,32.983 23.227,80.039 33.349,114.917Z" style="fill:#fff;"/><path d="M5447.9,1459.83c9.295,-35.108 21.835,-82.473 30.625,-115.673c2.704,-10.212 -0.106,-21.095 -7.416,-28.722c-7.309,-7.627 -18.063,-10.896 -28.381,-8.628c-31.586,6.942 -75.348,16.561 -106.933,23.504c-10.318,2.267 -18.71,9.745 -22.147,19.734c-3.438,9.989 -1.425,21.047 5.311,29.184c21.902,26.454 53.149,64.195 76.309,92.169c7.239,8.744 18.758,12.709 29.845,10.272c11.087,-2.437 19.882,-10.866 22.787,-21.84Zm-9.974,-2.641c-1.916,7.237 -7.716,12.796 -15.028,14.404c-7.312,1.607 -14.909,-1.008 -19.683,-6.774c-23.16,-27.974 -54.407,-65.716 -76.308,-92.17c-4.443,-5.366 -5.771,-12.659 -3.503,-19.247c2.267,-6.587 7.801,-11.519 14.606,-13.014c31.585,-6.943 75.347,-16.562 106.933,-23.504c6.805,-1.496 13.897,0.66 18.717,5.69c4.821,5.03 6.674,12.207 4.891,18.942c-8.79,33.2 -21.33,80.566 -30.625,115.673Z" style="fill:#fff;"/><path d="M6684.18,1289.69c36.316,-0.309 85.311,-0.727 119.654,-1.019c10.564,-0.09 20.318,-5.675 25.743,-14.739c5.424,-9.065 5.737,-20.301 0.824,-29.653c-15.039,-28.63 -35.877,-68.296 -50.916,-96.926c-4.913,-9.352 -14.342,-15.471 -24.884,-16.148c-10.542,-0.676 -20.676,4.186 -26.744,12.833c-19.729,28.112 -47.875,68.218 -68.738,97.945c-6.521,9.292 -7.302,21.449 -2.023,31.498c5.28,10.05 15.733,16.306 27.084,16.209Zm-0.088,-10.317c-7.486,0.063 -14.38,-4.062 -17.861,-10.69c-3.482,-6.627 -2.967,-14.645 1.333,-20.773c20.863,-29.727 49.009,-69.833 68.738,-97.945c4.002,-5.703 10.686,-8.91 17.638,-8.463c6.953,0.446 13.171,4.481 16.411,10.649c15.039,28.63 35.877,68.297 50.916,96.926c3.24,6.168 3.034,13.578 -0.544,19.556c-3.577,5.978 -10.01,9.661 -16.977,9.721c-34.343,0.292 -83.338,0.709 -119.654,1.019Z" style="fill:#fff;"/><path d="M7632.17,1088.83c-12.366,34.147 -29.05,80.217 -40.744,112.508c-3.597,9.933 -1.761,21.022 4.844,29.266c6.606,8.243 17.028,12.452 27.506,11.106c32.077,-4.119 76.518,-9.826 108.595,-13.945c10.477,-1.346 19.498,-8.051 23.807,-17.697c4.308,-9.645 3.282,-20.838 -2.708,-29.539c-19.474,-28.289 -47.257,-68.648 -67.85,-98.563c-6.437,-9.35 -17.56,-14.319 -28.819,-12.873c-11.259,1.446 -20.765,9.064 -24.631,19.737Zm9.702,3.513c2.549,-7.039 8.818,-12.063 16.244,-13.016c7.425,-0.954 14.76,2.323 19.005,8.489c20.593,29.915 48.376,70.274 67.85,98.563c3.951,5.739 4.627,13.12 1.786,19.481c-2.841,6.362 -8.791,10.784 -15.701,11.671c-32.076,4.119 -76.518,9.827 -108.594,13.946c-6.91,0.887 -13.784,-1.888 -18.14,-7.325c-4.357,-5.437 -5.567,-12.75 -3.195,-19.301c11.694,-32.291 28.378,-78.361 40.745,-112.508Z" style="fill:#fff;"/><path d="M5981.7,623.577c-35.707,-6.63 -83.881,-15.575 -117.648,-21.845c-10.386,-1.929 -21.027,1.691 -28.083,9.553c-7.056,7.862 -9.508,18.831 -6.471,28.949c9.296,30.975 22.177,73.891 31.473,104.865c3.037,10.118 11.124,17.924 21.343,20.602c10.219,2.677 21.095,-0.161 28.703,-7.49c24.733,-23.828 60.019,-57.823 86.174,-83.02c8.175,-7.875 11.262,-19.66 7.999,-30.532c-3.263,-10.873 -12.33,-19.009 -23.49,-21.082Zm-1.884,10.145c7.361,1.366 13.34,6.732 15.492,13.903c2.152,7.17 0.116,14.942 -5.276,20.136c-26.154,25.197 -61.44,59.191 -86.174,83.019c-5.017,4.834 -12.19,6.706 -18.929,4.94c-6.739,-1.766 -12.073,-6.914 -14.076,-13.587c-9.296,-30.974 -22.177,-73.89 -31.473,-104.865c-2.003,-6.672 -0.386,-13.907 4.268,-19.092c4.653,-5.185 11.671,-7.572 18.52,-6.3c33.767,6.27 81.941,15.215 117.648,21.846Z" style="fill:#fff;"/><path d="M7288.8,403.516c-3.495,-36.149 -8.211,-84.919 -11.516,-119.103c-1.017,-10.515 -7.437,-19.741 -16.942,-24.35c-9.506,-4.608 -20.726,-3.933 -29.61,1.781c-27.2,17.494 -64.885,41.733 -92.084,59.227c-8.885,5.714 -14.152,15.644 -13.901,26.205c0.25,10.561 5.983,20.228 15.13,25.515c29.734,17.185 72.156,41.703 103.6,59.876c9.828,5.68 22.007,5.391 31.554,-0.75c9.547,-6.14 14.861,-17.102 13.769,-28.401Zm-10.27,0.993c0.721,7.452 -2.784,14.681 -9.081,18.731c-6.296,4.049 -14.328,4.24 -20.809,0.494c-31.444,-18.173 -73.866,-42.691 -103.6,-59.876c-6.032,-3.487 -9.813,-9.863 -9.979,-16.827c-0.165,-6.965 3.309,-13.514 9.168,-17.282c27.2,-17.495 64.884,-41.733 92.084,-59.227c5.859,-3.769 13.259,-4.214 19.528,-1.175c6.269,3.04 10.502,9.124 11.173,16.059c3.305,34.184 8.021,82.954 11.516,119.103Z" style="fill:#fff;"/><path d="M5463.68,22.355c-35.707,-6.63 -83.881,-15.575 -117.647,-21.845c-10.387,-1.929 -21.028,1.691 -28.084,9.553c-7.055,7.862 -9.507,18.831 -6.471,28.949c9.297,30.975 22.177,73.891 31.474,104.865c3.037,10.118 11.124,17.924 21.343,20.602c10.219,2.677 21.094,-0.161 28.702,-7.49c24.734,-23.828 60.02,-57.823 86.174,-83.02c8.175,-7.875 11.263,-19.66 8,-30.532c-3.264,-10.873 -12.33,-19.009 -23.491,-21.082Zm-1.883,10.145c7.36,1.366 13.339,6.732 15.491,13.903c2.153,7.17 0.116,14.942 -5.275,20.136c-26.155,25.197 -61.441,59.191 -86.174,83.019c-5.017,4.834 -12.19,6.706 -18.929,4.94c-6.74,-1.766 -12.073,-6.914 -14.076,-13.587c-9.297,-30.974 -22.177,-73.89 -31.473,-104.865c-2.003,-6.672 -0.386,-13.907 4.267,-19.092c4.654,-5.185 11.671,-7.572 18.521,-6.3c33.767,6.27 81.941,15.215 117.648,21.846Z" style="fill:#fff;"/><path d="M734.548,1403.37c7.279,35.58 17.1,83.583 23.984,117.23c2.117,10.35 9.472,18.85 19.409,22.432c9.938,3.583 21.025,1.732 29.259,-4.886c25.208,-20.259 60.133,-48.328 85.341,-68.586c8.234,-6.618 12.428,-17.046 11.067,-27.522c-1.361,-10.476 -8.079,-19.487 -17.731,-23.782c-31.378,-13.961 -76.144,-33.88 -109.325,-48.644c-10.371,-4.614 -22.452,-3.045 -31.3,4.066c-8.848,7.111 -12.979,18.571 -10.704,29.692Zm10.108,-2.068c-1.5,-7.334 1.224,-14.892 7.06,-19.582c5.835,-4.69 13.802,-5.725 20.642,-2.681c33.181,14.764 77.947,34.682 109.325,48.644c6.365,2.832 10.796,8.775 11.693,15.684c0.898,6.908 -1.868,13.786 -7.298,18.15c-25.208,20.259 -60.134,48.328 -85.342,68.587c-5.43,4.364 -12.741,5.585 -19.295,3.222c-6.554,-2.362 -11.405,-7.968 -12.801,-14.794c-6.884,-33.647 -16.705,-81.65 -23.984,-117.23Z" style="fill:#fff;"/><path d="M1841.21,719.18c-33.647,13.669 -79.042,32.11 -110.86,45.036c-9.787,3.976 -16.797,12.762 -18.501,23.187c-1.703,10.426 2.147,20.986 10.16,27.87c24.53,21.074 58.517,50.272 83.047,71.346c8.013,6.884 19.033,9.098 29.083,5.843c10.05,-3.255 17.679,-11.509 20.134,-21.784c7.983,-33.403 19.372,-81.059 27.813,-116.381c2.638,-11.041 -1.116,-22.63 -9.726,-30.028c-8.61,-7.397 -20.633,-9.361 -31.15,-5.089Zm3.883,9.559c6.936,-2.817 14.865,-1.522 20.544,3.357c5.678,4.878 8.154,12.521 6.414,19.802c-8.442,35.323 -19.83,82.979 -27.813,116.382c-1.619,6.776 -6.65,12.22 -13.278,14.366c-6.628,2.147 -13.896,0.687 -19.18,-3.853c-24.531,-21.074 -58.518,-50.272 -83.048,-71.346c-5.285,-4.54 -7.823,-11.504 -6.7,-18.38c1.123,-6.876 5.746,-12.67 12.201,-15.292c31.819,-12.926 77.213,-31.367 110.86,-45.036Z" style="fill:#fff;"/><path d="M3256.33,91.936c-10.406,34.794 -24.446,81.737 -34.286,114.641c-3.027,10.121 -0.565,21.088 6.499,28.943c7.063,7.855 17.708,11.465 28.092,9.526c31.791,-5.935 75.837,-14.158 107.627,-20.093c10.384,-1.939 19.01,-9.146 22.763,-19.02c3.754,-9.875 2.093,-20.992 -4.381,-29.339c-21.05,-27.137 -51.081,-65.852 -73.341,-94.548c-6.957,-8.97 -18.344,-13.298 -29.503,-11.215c-11.159,2.084 -20.217,10.229 -23.47,21.105Zm9.885,2.956c2.145,-7.172 8.119,-12.544 15.478,-13.918c7.36,-1.374 14.869,1.48 19.458,7.396c22.259,28.696 52.29,67.411 73.34,94.548c4.27,5.505 5.365,12.836 2.89,19.349c-2.476,6.512 -8.164,11.265 -15.013,12.543c-31.79,5.935 -75.836,14.158 -107.626,20.093c-6.849,1.279 -13.869,-1.101 -18.527,-6.282c-4.658,-5.18 -6.282,-12.413 -4.286,-19.088c9.84,-32.904 23.88,-79.846 34.286,-114.641Z" style="fill:#fff;"/><path d="M35.557,591.068c-10.406,34.795 -24.445,81.738 -34.286,114.642c-3.027,10.12 -0.564,21.087 6.499,28.943c7.064,7.855 17.708,11.464 28.093,9.525c31.79,-5.935 75.836,-14.157 107.626,-20.093c10.385,-1.938 19.01,-9.145 22.763,-19.02c3.754,-9.874 2.094,-20.991 -4.381,-29.338c-21.05,-27.137 -51.081,-65.852 -73.34,-94.548c-6.958,-8.97 -18.345,-13.298 -29.504,-11.215c-11.159,2.083 -20.217,10.229 -23.47,21.104Zm9.885,2.957c2.145,-7.173 8.119,-12.545 15.479,-13.919c7.359,-1.374 14.869,1.481 19.457,7.396c22.26,28.697 52.291,67.412 73.34,94.549c4.27,5.505 5.365,12.836 2.89,19.348c-2.475,6.513 -8.164,11.266 -15.012,12.544c-31.791,5.935 -75.836,14.158 -107.627,20.093c-6.848,1.279 -13.868,-1.102 -18.527,-6.282c-4.658,-5.181 -6.282,-12.413 -4.286,-19.088c9.841,-32.904 23.88,-79.847 34.286,-114.641Z" style="fill:#fff;"/><path d="M4535.56,678.691c-10.406,34.794 -24.445,81.737 -34.286,114.641c-3.027,10.121 -0.564,21.088 6.499,28.943c7.064,7.855 17.708,11.465 28.093,9.526c31.79,-5.935 75.836,-14.158 107.626,-20.093c10.385,-1.939 19.01,-9.146 22.763,-19.02c3.754,-9.875 2.094,-20.991 -4.381,-29.339c-21.05,-27.136 -51.081,-65.852 -73.34,-94.548c-6.958,-8.969 -18.345,-13.298 -29.504,-11.214c-11.159,2.083 -20.217,10.228 -23.47,21.104Zm9.885,2.956c2.145,-7.172 8.119,-12.544 15.479,-13.918c7.359,-1.374 14.869,1.481 19.457,7.396c22.26,28.696 52.291,67.411 73.34,94.548c4.27,5.505 5.365,12.837 2.89,19.349c-2.475,6.512 -8.164,11.265 -15.012,12.544c-31.791,5.935 -75.836,14.158 -107.627,20.093c-6.848,1.278 -13.868,-1.102 -18.527,-6.283c-4.658,-5.18 -6.282,-12.413 -4.286,-19.087c9.841,-32.904 23.88,-79.847 34.286,-114.642Z" style="fill:#fff;"/><path d="M4535.56,3667.16c-10.406,34.795 -24.445,81.737 -34.286,114.641c-3.027,10.121 -0.564,21.088 6.499,28.943c7.064,7.855 17.708,11.465 28.093,9.526c31.79,-5.935 75.836,-14.158 107.626,-20.093c10.385,-1.938 19.01,-9.145 22.763,-19.02c3.754,-9.875 2.094,-20.991 -4.381,-29.338c-21.05,-27.137 -51.081,-65.852 -73.34,-94.549c-6.958,-8.969 -18.345,-13.297 -29.504,-11.214c-11.159,2.083 -20.217,10.228 -23.47,21.104Zm9.885,2.956c2.145,-7.172 8.119,-12.544 15.479,-13.918c7.359,-1.374 14.869,1.481 19.457,7.396c22.26,28.696 52.291,67.412 73.34,94.548c4.27,5.505 5.365,12.837 2.89,19.349c-2.475,6.512 -8.164,11.265 -15.012,12.544c-31.791,5.935 -75.836,14.158 -107.627,20.093c-6.848,1.278 -13.868,-1.102 -18.527,-6.282c-4.658,-5.181 -6.282,-12.414 -4.286,-19.088c9.841,-32.904 23.88,-79.847 34.286,-114.642Z" style="fill:#fff;"/></g></svg>