<?xml version="1.0" encoding="UTF-8" standalone="no"?>
<!DOCTYPE svg PUBLIC "-//W3C//DTD SVG 1.1//EN" "http://www.w3.org/Graphics/SVG/1.1/DTD/svg11.dtd">
<svg width="100%" height="100%" viewBox="0 0 8000 4500" version="1.1" xmlns="http://www.w3.org/2000/svg" xmlns:xlink="http://www.w3.org/1999/xlink" xml:space="preserve" xmlns:serif="http://www.serif.com/" style="fill-rule:evenodd;clip-rule:evenodd;stroke-linejoin:round;stroke-miterlimit:2;">
    <g transform="matrix(1,0,0,1,-5059.73,-5318.73)">
        <g id="Artboard1-font" serif:id="Artboard1 font" transform="matrix(1.27324,0,0,1.35921,5059.73,-1571.61)">
            <rect x="0" y="5069.39" width="6283.21" height="3310.76" style="fill:none;"/>
            <g>
                <g transform="matrix(0.37079,0,0,0.347337,328.852,4094.26)">
                    <path d="M5696.03,7442.13C5696.03,7442.13 5897.92,7097.88 5992.35,6936.88C5997.59,6927.93 6007.46,6922.75 6017.8,6923.52C6028.14,6924.29 6037.14,6930.88 6041,6940.5C6094.57,7073.91 6194.11,7321.84 6227.99,7406.2C6237.91,7430.92 6261.87,7447.11 6288.5,7447.11C6372.85,7447.11 6608.45,7447.11 6749.86,7447.11C6760.85,7447.11 6770.76,7453.74 6774.97,7463.89C6779.17,7474.04 6776.85,7485.73 6769.08,7493.5C6640.62,7621.95 6400.36,7862.22 6400.36,7862.22C6392.94,7869.64 6392.94,7881.69 6400.36,7889.11C6407.78,7896.53 6419.84,7896.53 6427.26,7889.11C6427.26,7889.11 6667.52,7648.85 6795.97,7520.4C6814.62,7501.75 6820.2,7473.7 6810.11,7449.33C6800.01,7424.97 6776.24,7409.08 6749.86,7409.08C6608.45,7409.08 6372.85,7409.08 6288.5,7409.08C6277.4,7409.08 6267.42,7402.33 6263.28,7392.03C6229.41,7307.66 6129.86,7059.74 6076.3,6926.32C6067.03,6903.24 6045.43,6887.44 6020.62,6885.6C5995.82,6883.75 5972.12,6896.18 5959.54,6917.63C5865.12,7078.64 5663.22,7422.89 5663.22,7422.89C5657.91,7431.94 5660.95,7443.6 5670.01,7448.91C5679.06,7454.22 5690.72,7451.18 5696.03,7442.13Z" style="fill:white;"/>
                </g>
                <g transform="matrix(0.353359,0,0,0.331009,2231.89,4116.66)">
                    <path d="M6599.06,6870.81C6596.51,6862.98 6589.21,6857.67 6580.97,6857.67C6572.74,6857.67 6565.43,6862.98 6562.89,6870.81L6441.69,7243.81C6441.69,7243.81 6124.41,7013.28 6124.41,7013.28C6117.74,7008.44 6108.72,7008.44 6102.05,7013.28C6095.39,7018.12 6092.6,7026.71 6095.14,7034.54L6216.34,7407.54C6216.34,7407.54 5824.15,7407.54 5824.15,7407.54C5815.91,7407.54 5808.61,7412.84 5806.06,7420.68C5803.51,7428.51 5806.3,7437.1 5812.97,7441.94L6130.26,7672.46C6130.26,7672.46 5812.97,7902.99 5812.97,7902.99C5806.3,7907.83 5803.51,7916.41 5806.06,7924.25C5808.61,7932.08 5815.91,7937.39 5824.15,7937.39L6216.34,7937.39C6216.34,7937.39 6095.14,8310.39 6095.14,8310.39C6092.6,8318.22 6095.39,8326.8 6102.05,8331.65C6108.72,8336.49 6117.74,8336.49 6124.41,8331.65L6441.69,8101.12C6441.69,8101.12 6562.89,8474.12 6562.89,8474.12C6565.43,8481.95 6572.74,8487.26 6580.97,8487.26C6589.21,8487.26 6596.51,8481.95 6599.06,8474.12C6599.06,8474.12 6691.95,8188.23 6720.25,8101.12C6720.25,8101.12 7037.54,8331.65 7037.54,8331.65C7044.21,8336.49 7053.23,8336.49 7059.9,8331.65C7066.56,8326.8 7069.35,8318.22 7066.81,8310.39C7066.81,8310.39 6973.92,8024.5 6945.61,7937.39C7037.21,7937.39 7337.8,7937.39 7337.8,7937.39C7346.04,7937.39 7353.34,7932.08 7355.89,7924.25C7358.44,7916.41 7355.65,7907.83 7348.98,7902.99L7031.69,7672.46C7031.69,7672.46 7348.98,7441.94 7348.98,7441.94C7355.65,7437.1 7358.44,7428.51 7355.89,7420.68C7353.34,7412.84 7346.04,7407.54 7337.8,7407.54L6945.61,7407.54C6945.61,7407.54 7066.81,7034.54 7066.81,7034.54C7069.35,7026.71 7066.56,7018.12 7059.9,7013.28C7053.23,7008.44 7044.21,7008.44 7037.54,7013.28L6720.25,7243.81C6691.95,7156.69 6599.06,6870.81 6599.06,6870.81ZM6580.97,6938.23L6692.17,7280.45C6694.05,7286.24 6698.59,7290.78 6704.38,7292.66C6710.17,7294.54 6716.51,7293.54 6721.43,7289.96C6721.43,7289.96 6919.43,7146.11 7012.55,7078.45C6976.98,7187.92 6901.35,7420.68 6901.35,7420.68C6899.47,7426.47 6900.48,7432.81 6904.05,7437.73C6907.63,7442.66 6913.35,7445.57 6919.44,7445.57C6919.44,7445.57 7164.17,7445.57 7279.28,7445.57C7279.28,7445.57 6988.16,7657.08 6988.16,7657.08C6983.24,7660.66 6980.32,7666.38 6980.32,7672.46C6980.32,7678.55 6983.24,7684.27 6988.16,7687.85L7279.28,7899.36C7164.17,7899.36 6919.44,7899.36 6919.44,7899.36C6913.35,7899.36 6907.63,7902.27 6904.05,7907.2C6900.48,7912.12 6899.47,7918.46 6901.35,7924.25L7012.55,8266.48C7012.55,8266.48 6721.43,8054.97 6721.43,8054.97C6716.51,8051.39 6710.17,8050.39 6704.38,8052.27C6698.59,8054.15 6694.05,8058.69 6692.17,8064.48C6692.17,8064.48 6616.54,8297.23 6580.97,8406.7C6580.97,8406.7 6469.78,8064.48 6469.78,8064.48C6467.9,8058.69 6463.36,8054.15 6457.57,8052.27C6451.78,8050.39 6445.44,8051.39 6440.51,8054.97L6149.4,8266.48C6149.4,8266.48 6260.6,7924.25 6260.6,7924.25C6262.48,7918.46 6261.47,7912.12 6257.9,7907.2C6254.32,7902.27 6248.6,7899.36 6242.51,7899.36L5882.67,7899.36C5882.67,7899.36 6173.79,7687.85 6173.79,7687.85C6178.71,7684.27 6181.63,7678.55 6181.63,7672.46C6181.63,7666.38 6178.71,7660.66 6173.79,7657.08C6173.79,7657.08 5975.79,7513.23 5882.67,7445.57C5997.78,7445.57 6242.51,7445.57 6242.51,7445.57C6248.6,7445.57 6254.32,7442.66 6257.9,7437.73C6261.47,7432.81 6262.48,7426.47 6260.6,7420.68C6260.6,7420.68 6184.97,7187.92 6149.4,7078.45C6149.4,7078.45 6440.51,7289.96 6440.51,7289.96C6445.44,7293.54 6451.78,7294.54 6457.57,7292.66C6463.36,7290.78 6467.9,7286.24 6469.78,7280.45L6580.97,6938.23L6580.97,6938.23Z" style="fill:white;"/>
                </g>
                <g transform="matrix(0.217871,0.204091,-0.217871,0.204091,901.689,4292.72)">
                    <path d="M6230.44,8701.24C6188.09,8783.55 6130.95,8894.61 6090.9,8972.46C6078.58,8996.4 6079.62,9025.03 6093.65,9048.02C6107.67,9071.01 6132.65,9085.03 6159.58,9085.03C6242.02,9085.03 6356.23,9085.03 6438.67,9085.03C6465.59,9085.03 6490.58,9071.01 6504.6,9048.02C6518.63,9025.03 6519.67,8996.4 6507.35,8972.46C6467.3,8894.61 6410.16,8783.55 6367.81,8701.24C6354.57,8675.51 6328.06,8659.33 6299.12,8659.33C6270.19,8659.33 6243.68,8675.51 6230.44,8701.24ZM6253.83,8713.27C6262.56,8696.3 6280.04,8685.63 6299.12,8685.63C6318.21,8685.63 6335.69,8696.3 6344.42,8713.27C6386.77,8795.59 6443.91,8906.65 6483.96,8984.49C6492.09,9000.28 6491.4,9019.16 6482.15,9034.32C6472.9,9049.48 6456.42,9058.73 6438.67,9058.73C6356.23,9058.73 6242.02,9058.73 6159.58,9058.73C6141.82,9058.73 6125.35,9049.48 6116.1,9034.32C6106.85,9019.16 6106.16,9000.28 6114.29,8984.49C6154.34,8906.65 6211.48,8795.59 6253.83,8713.27Z" style="fill:white;"/>
                </g>
                <g transform="matrix(0.155956,0.248924,-0.265732,0.146091,2375.11,5274.38)">
                    <path d="M6230.44,8701.24C6188.09,8783.55 6130.95,8894.61 6090.9,8972.46C6078.58,8996.4 6079.62,9025.03 6093.65,9048.02C6107.67,9071.01 6132.65,9085.03 6159.58,9085.03C6242.02,9085.03 6356.23,9085.03 6438.67,9085.03C6465.59,9085.03 6490.58,9071.01 6504.6,9048.02C6518.63,9025.03 6519.67,8996.4 6507.35,8972.46C6467.3,8894.61 6410.16,8783.55 6367.81,8701.24C6354.57,8675.51 6328.06,8659.33 6299.12,8659.33C6270.19,8659.33 6243.68,8675.51 6230.44,8701.24ZM6253.83,8713.27C6262.56,8696.3 6280.04,8685.63 6299.12,8685.63C6318.21,8685.63 6335.69,8696.3 6344.42,8713.27C6386.77,8795.59 6443.91,8906.65 6483.96,8984.49C6492.09,9000.28 6491.4,9019.16 6482.15,9034.32C6472.9,9049.48 6456.42,9058.73 6438.67,9058.73C6356.23,9058.73 6242.02,9058.73 6159.58,9058.73C6141.82,9058.73 6125.35,9049.48 6116.1,9034.32C6106.85,9019.16 6106.16,9000.28 6114.29,8984.49C6154.34,8906.65 6211.48,8795.59 6253.83,8713.27Z" style="fill:white;"/>
                </g>
                <g transform="matrix(0.201743,0.218155,-0.232885,0.188983,2431.09,4413.18)">
                    <path d="M6230.44,8701.24C6188.09,8783.55 6130.95,8894.61 6090.9,8972.46C6078.58,8996.4 6079.62,9025.03 6093.65,9048.02C6107.67,9071.01 6132.65,9085.03 6159.58,9085.03C6242.02,9085.03 6356.23,9085.03 6438.67,9085.03C6465.59,9085.03 6490.58,9071.01 6504.6,9048.02C6518.63,9025.03 6519.67,8996.4 6507.35,8972.46C6467.3,8894.61 6410.16,8783.55 6367.81,8701.24C6354.57,8675.51 6328.06,8659.33 6299.12,8659.33C6270.19,8659.33 6243.68,8675.51 6230.44,8701.24ZM6253.83,8713.27C6262.56,8696.3 6280.04,8685.63 6299.12,8685.63C6318.21,8685.63 6335.69,8696.3 6344.42,8713.27C6386.77,8795.59 6443.91,8906.65 6483.96,8984.49C6492.09,9000.28 6491.4,9019.16 6482.15,9034.32C6472.9,9049.48 6456.42,9058.73 6438.67,9058.73C6356.23,9058.73 6242.02,9058.73 6159.58,9058.73C6141.82,9058.73 6125.35,9049.48 6116.1,9034.32C6106.85,9019.16 6106.16,9000.28 6114.29,8984.49C6154.34,8906.65 6211.48,8795.59 6253.83,8713.27Z" style="fill:white;"/>
                </g>
                <g transform="matrix(0.226537,0.195637,-0.208846,0.212208,3444.24,4962.44)">
                    <path d="M6230.44,8701.24C6188.09,8783.55 6130.95,8894.61 6090.9,8972.46C6078.58,8996.4 6079.62,9025.03 6093.65,9048.02C6107.67,9071.01 6132.65,9085.03 6159.58,9085.03C6242.02,9085.03 6356.23,9085.03 6438.67,9085.03C6465.59,9085.03 6490.58,9071.01 6504.6,9048.02C6518.63,9025.03 6519.67,8996.4 6507.35,8972.46C6467.3,8894.61 6410.16,8783.55 6367.81,8701.24C6354.57,8675.51 6328.06,8659.33 6299.12,8659.33C6270.19,8659.33 6243.68,8675.51 6230.44,8701.24ZM6253.83,8713.27C6262.56,8696.3 6280.04,8685.63 6299.12,8685.63C6318.21,8685.63 6335.69,8696.3 6344.42,8713.27C6386.77,8795.59 6443.91,8906.65 6483.96,8984.49C6492.09,9000.28 6491.4,9019.16 6482.15,9034.32C6472.9,9049.48 6456.42,9058.73 6438.67,9058.73C6356.23,9058.73 6242.02,9058.73 6159.58,9058.73C6141.82,9058.73 6125.35,9049.48 6116.1,9034.32C6106.85,9019.16 6106.16,9000.28 6114.29,8984.49C6154.34,8906.65 6211.48,8795.59 6253.83,8713.27Z" style="fill:white;"/>
                </g>
                <g transform="matrix(-0.114896,-0.26781,0.285893,-0.107629,573.762,10234.9)">
                    <path d="M6230.44,8701.24C6188.09,8783.55 6130.95,8894.61 6090.9,8972.46C6078.58,8996.4 6079.62,9025.03 6093.65,9048.02C6107.67,9071.01 6132.65,9085.03 6159.58,9085.03C6242.02,9085.03 6356.23,9085.03 6438.67,9085.03C6465.59,9085.03 6490.58,9071.01 6504.6,9048.02C6518.63,9025.03 6519.67,8996.4 6507.35,8972.46C6467.3,8894.61 6410.16,8783.55 6367.81,8701.24C6354.57,8675.51 6328.06,8659.33 6299.12,8659.33C6270.19,8659.33 6243.68,8675.51 6230.44,8701.24ZM6253.83,8713.27C6262.56,8696.3 6280.04,8685.63 6299.12,8685.63C6318.21,8685.63 6335.69,8696.3 6344.42,8713.27C6386.77,8795.59 6443.91,8906.65 6483.96,8984.49C6492.09,9000.28 6491.4,9019.16 6482.15,9034.32C6472.9,9049.48 6456.42,9058.73 6438.67,9058.73C6356.23,9058.73 6242.02,9058.73 6159.58,9058.73C6141.82,9058.73 6125.35,9049.48 6116.1,9034.32C6106.85,9019.16 6106.16,9000.28 6114.29,8984.49C6154.34,8906.65 6211.48,8795.59 6253.83,8713.27Z" style="fill:white;"/>
                </g>
                <g transform="matrix(0.139279,-0.257456,0.27484,0.13047,-113.096,6700.19)">
                    <path d="M6230.44,8701.24C6188.09,8783.55 6130.95,8894.61 6090.9,8972.46C6078.58,8996.4 6079.62,9025.03 6093.65,9048.02C6107.67,9071.01 6132.65,9085.03 6159.58,9085.03C6242.02,9085.03 6356.23,9085.03 6438.67,9085.03C6465.59,9085.03 6490.58,9071.01 6504.6,9048.02C6518.63,9025.03 6519.67,8996.4 6507.35,8972.46C6467.3,8894.61 6410.16,8783.55 6367.81,8701.24C6354.57,8675.51 6328.06,8659.33 6299.12,8659.33C6270.19,8659.33 6243.68,8675.51 6230.44,8701.24ZM6253.83,8713.27C6262.56,8696.3 6280.04,8685.63 6299.12,8685.63C6318.21,8685.63 6335.69,8696.3 6344.42,8713.27C6386.77,8795.59 6443.91,8906.65 6483.96,8984.49C6492.09,9000.28 6491.4,9019.16 6482.15,9034.32C6472.9,9049.48 6456.42,9058.73 6438.67,9058.73C6356.23,9058.73 6242.02,9058.73 6159.58,9058.73C6141.82,9058.73 6125.35,9049.48 6116.1,9034.32C6106.85,9019.16 6106.16,9000.28 6114.29,8984.49C6154.34,8906.65 6211.48,8795.59 6253.83,8713.27Z" style="fill:white;"/>
                </g>
                <g transform="matrix(0.0885728,0.276445,-0.295111,0.0829704,4027.8,3597.23)">
                    <path d="M6230.44,8701.24C6188.09,8783.55 6130.95,8894.61 6090.9,8972.46C6078.58,8996.4 6079.62,9025.03 6093.65,9048.02C6107.67,9071.01 6132.65,9085.03 6159.58,9085.03C6242.02,9085.03 6356.23,9085.03 6438.67,9085.03C6465.59,9085.03 6490.58,9071.01 6504.6,9048.02C6518.63,9025.03 6519.67,8996.4 6507.35,8972.46C6467.3,8894.61 6410.16,8783.55 6367.81,8701.24C6354.57,8675.51 6328.06,8659.33 6299.12,8659.33C6270.19,8659.33 6243.68,8675.51 6230.44,8701.24ZM6253.83,8713.27C6262.56,8696.3 6280.04,8685.63 6299.12,8685.63C6318.21,8685.63 6335.69,8696.3 6344.42,8713.27C6386.77,8795.59 6443.91,8906.65 6483.96,8984.49C6492.09,9000.28 6491.4,9019.16 6482.15,9034.32C6472.9,9049.48 6456.42,9058.73 6438.67,9058.73C6356.23,9058.73 6242.02,9058.73 6159.58,9058.73C6141.82,9058.73 6125.35,9049.48 6116.1,9034.32C6106.85,9019.16 6106.16,9000.28 6114.29,8984.49C6154.34,8906.65 6211.48,8795.59 6253.83,8713.27Z" style="fill:white;"/>
                </g>
                <g transform="matrix(0.0885728,0.276445,-0.295111,0.0829704,3086.01,4236.02)">
                    <path d="M6230.44,8701.24C6188.09,8783.55 6130.95,8894.61 6090.9,8972.46C6078.58,8996.4 6079.62,9025.03 6093.65,9048.02C6107.67,9071.01 6132.65,9085.03 6159.58,9085.03C6242.02,9085.03 6356.23,9085.03 6438.67,9085.03C6465.59,9085.03 6490.58,9071.01 6504.6,9048.02C6518.63,9025.03 6519.67,8996.4 6507.35,8972.46C6467.3,8894.61 6410.16,8783.55 6367.81,8701.24C6354.57,8675.51 6328.06,8659.33 6299.12,8659.33C6270.19,8659.33 6243.68,8675.51 6230.44,8701.24ZM6253.83,8713.27C6262.56,8696.3 6280.04,8685.63 6299.12,8685.63C6318.21,8685.63 6335.69,8696.3 6344.42,8713.27C6386.77,8795.59 6443.91,8906.65 6483.96,8984.49C6492.09,9000.28 6491.4,9019.16 6482.15,9034.32C6472.9,9049.48 6456.42,9058.73 6438.67,9058.73C6356.23,9058.73 6242.02,9058.73 6159.58,9058.73C6141.82,9058.73 6125.35,9049.48 6116.1,9034.32C6106.85,9019.16 6106.16,9000.28 6114.29,8984.49C6154.34,8906.65 6211.48,8795.59 6253.83,8713.27Z" style="fill:white;"/>
                </g>
                <g transform="matrix(0.0885728,0.276445,-0.295111,0.0829704,7380.58,4807.7)">
                    <path d="M6230.44,8701.24C6188.09,8783.55 6130.95,8894.61 6090.9,8972.46C6078.58,8996.4 6079.62,9025.03 6093.65,9048.02C6107.67,9071.01 6132.65,9085.03 6159.58,9085.03C6242.02,9085.03 6356.23,9085.03 6438.67,9085.03C6465.59,9085.03 6490.58,9071.01 6504.6,9048.02C6518.63,9025.03 6519.67,8996.4 6507.35,8972.46C6467.3,8894.61 6410.16,8783.55 6367.81,8701.24C6354.57,8675.51 6328.06,8659.33 6299.12,8659.33C6270.19,8659.33 6243.68,8675.51 6230.44,8701.24ZM6253.83,8713.27C6262.56,8696.3 6280.04,8685.63 6299.12,8685.63C6318.21,8685.63 6335.69,8696.3 6344.42,8713.27C6386.77,8795.59 6443.91,8906.65 6483.96,8984.49C6492.09,9000.28 6491.4,9019.16 6482.15,9034.32C6472.9,9049.48 6456.42,9058.73 6438.67,9058.73C6356.23,9058.73 6242.02,9058.73 6159.58,9058.73C6141.82,9058.73 6125.35,9049.48 6116.1,9034.32C6106.85,9019.16 6106.16,9000.28 6114.29,8984.49C6154.34,8906.65 6211.48,8795.59 6253.83,8713.27Z" style="fill:white;"/>
                </g>
                <g transform="matrix(0.0885728,0.276445,-0.295111,0.0829704,8005.93,5640.52)">
                    <path d="M6230.44,8701.24C6188.09,8783.55 6130.95,8894.61 6090.9,8972.46C6078.58,8996.4 6079.62,9025.03 6093.65,9048.02C6107.67,9071.01 6132.65,9085.03 6159.58,9085.03C6242.02,9085.03 6356.23,9085.03 6438.67,9085.03C6465.59,9085.03 6490.58,9071.01 6504.6,9048.02C6518.63,9025.03 6519.67,8996.4 6507.35,8972.46C6467.3,8894.61 6410.16,8783.55 6367.81,8701.24C6354.57,8675.51 6328.06,8659.33 6299.12,8659.33C6270.19,8659.33 6243.68,8675.51 6230.44,8701.24ZM6253.83,8713.27C6262.56,8696.3 6280.04,8685.63 6299.12,8685.63C6318.21,8685.63 6335.69,8696.3 6344.42,8713.27C6386.77,8795.59 6443.91,8906.65 6483.96,8984.49C6492.09,9000.28 6491.4,9019.16 6482.15,9034.32C6472.9,9049.48 6456.42,9058.73 6438.67,9058.73C6356.23,9058.73 6242.02,9058.73 6159.58,9058.73C6141.82,9058.73 6125.35,9049.48 6116.1,9034.32C6106.85,9019.16 6106.16,9000.28 6114.29,8984.49C6154.34,8906.65 6211.48,8795.59 6253.83,8713.27Z" style="fill:white;"/>
                </g>
                <g transform="matrix(-0.22384,0.198342,-0.211735,-0.209682,9008.09,7263.6)">
                    <path d="M6230.44,8701.24C6188.09,8783.55 6130.95,8894.61 6090.9,8972.46C6078.58,8996.4 6079.62,9025.03 6093.65,9048.02C6107.67,9071.01 6132.65,9085.03 6159.58,9085.03C6242.02,9085.03 6356.23,9085.03 6438.67,9085.03C6465.59,9085.03 6490.58,9071.01 6504.6,9048.02C6518.63,9025.03 6519.67,8996.4 6507.35,8972.46C6467.3,8894.61 6410.16,8783.55 6367.81,8701.24C6354.57,8675.51 6328.06,8659.33 6299.12,8659.33C6270.19,8659.33 6243.68,8675.51 6230.44,8701.24ZM6253.83,8713.27C6262.56,8696.3 6280.04,8685.63 6299.12,8685.63C6318.21,8685.63 6335.69,8696.3 6344.42,8713.27C6386.77,8795.59 6443.91,8906.65 6483.96,8984.49C6492.09,9000.28 6491.4,9019.16 6482.15,9034.32C6472.9,9049.48 6456.42,9058.73 6438.67,9058.73C6356.23,9058.73 6242.02,9058.73 6159.58,9058.73C6141.82,9058.73 6125.35,9049.48 6116.1,9034.32C6106.85,9019.16 6106.16,9000.28 6114.29,8984.49C6154.34,8906.65 6211.48,8795.59 6253.83,8713.27Z" style="fill:white;"/>
                </g>
                <g transform="matrix(-0.300933,0.0619607,-0.0661444,-0.281899,6762.95,8149.38)">
                    <path d="M6230.44,8701.24C6188.09,8783.55 6130.95,8894.61 6090.9,8972.46C6078.58,8996.4 6079.62,9025.03 6093.65,9048.02C6107.67,9071.01 6132.65,9085.03 6159.58,9085.03C6242.02,9085.03 6356.23,9085.03 6438.67,9085.03C6465.59,9085.03 6490.58,9071.01 6504.6,9048.02C6518.63,9025.03 6519.67,8996.4 6507.35,8972.46C6467.3,8894.61 6410.16,8783.55 6367.81,8701.24C6354.57,8675.51 6328.06,8659.33 6299.12,8659.33C6270.19,8659.33 6243.68,8675.51 6230.44,8701.24ZM6253.83,8713.27C6262.56,8696.3 6280.04,8685.63 6299.12,8685.63C6318.21,8685.63 6335.69,8696.3 6344.42,8713.27C6386.77,8795.59 6443.91,8906.65 6483.96,8984.49C6492.09,9000.28 6491.4,9019.16 6482.15,9034.32C6472.9,9049.48 6456.42,9058.73 6438.67,9058.73C6356.23,9058.73 6242.02,9058.73 6159.58,9058.73C6141.82,9058.73 6125.35,9049.48 6116.1,9034.32C6106.85,9019.16 6106.16,9000.28 6114.29,8984.49C6154.34,8906.65 6211.48,8795.59 6253.83,8713.27Z" style="fill:white;"/>
                </g>
                <g transform="matrix(-0.143289,-0.255518,0.272771,-0.134226,3802.75,8717.3)">
                    <path d="M6230.44,8701.24C6188.09,8783.55 6130.95,8894.61 6090.9,8972.46C6078.58,8996.4 6079.62,9025.03 6093.65,9048.02C6107.67,9071.01 6132.65,9085.03 6159.58,9085.03C6242.02,9085.03 6356.23,9085.03 6438.67,9085.03C6465.59,9085.03 6490.58,9071.01 6504.6,9048.02C6518.63,9025.03 6519.67,8996.4 6507.35,8972.46C6467.3,8894.61 6410.16,8783.55 6367.81,8701.24C6354.57,8675.51 6328.06,8659.33 6299.12,8659.33C6270.19,8659.33 6243.68,8675.51 6230.44,8701.24ZM6253.83,8713.27C6262.56,8696.3 6280.04,8685.63 6299.12,8685.63C6318.21,8685.63 6335.69,8696.3 6344.42,8713.27C6386.77,8795.59 6443.91,8906.65 6483.96,8984.49C6492.09,9000.28 6491.4,9019.16 6482.15,9034.32C6472.9,9049.48 6456.42,9058.73 6438.67,9058.73C6356.23,9058.73 6242.02,9058.73 6159.58,9058.73C6141.82,9058.73 6125.35,9049.48 6116.1,9034.32C6106.85,9019.16 6106.16,9000.28 6114.29,8984.49C6154.34,8906.65 6211.48,8795.59 6253.83,8713.27Z" style="fill:white;"/>
                </g>
                <g transform="matrix(0.305607,-0.0367636,0.039246,0.286277,3782.44,3547.69)">
                    <path d="M6230.44,8701.24C6188.09,8783.55 6130.95,8894.61 6090.9,8972.46C6078.58,8996.4 6079.62,9025.03 6093.65,9048.02C6107.67,9071.01 6132.65,9085.03 6159.58,9085.03C6242.02,9085.03 6356.23,9085.03 6438.67,9085.03C6465.59,9085.03 6490.58,9071.01 6504.6,9048.02C6518.63,9025.03 6519.67,8996.4 6507.35,8972.46C6467.3,8894.61 6410.16,8783.55 6367.81,8701.24C6354.57,8675.51 6328.06,8659.33 6299.12,8659.33C6270.19,8659.33 6243.68,8675.51 6230.44,8701.24ZM6253.83,8713.27C6262.56,8696.3 6280.04,8685.63 6299.12,8685.63C6318.21,8685.63 6335.69,8696.3 6344.42,8713.27C6386.77,8795.59 6443.91,8906.65 6483.96,8984.49C6492.09,9000.28 6491.4,9019.16 6482.15,9034.32C6472.9,9049.48 6456.42,9058.73 6438.67,9058.73C6356.23,9058.73 6242.02,9058.73 6159.58,9058.73C6141.82,9058.73 6125.35,9049.48 6116.1,9034.32C6106.85,9019.16 6106.16,9000.28 6114.29,8984.49C6154.34,8906.65 6211.48,8795.59 6253.83,8713.27Z" style="fill:white;"/>
                </g>
                <g transform="matrix(0.305607,-0.0367636,0.039246,0.286277,2473.97,5840.81)">
                    <path d="M6230.44,8701.24C6188.09,8783.55 6130.95,8894.61 6090.9,8972.46C6078.58,8996.4 6079.62,9025.03 6093.65,9048.02C6107.67,9071.01 6132.65,9085.03 6159.58,9085.03C6242.02,9085.03 6356.23,9085.03 6438.67,9085.03C6465.59,9085.03 6490.58,9071.01 6504.6,9048.02C6518.63,9025.03 6519.67,8996.4 6507.35,8972.46C6467.3,8894.61 6410.16,8783.55 6367.81,8701.24C6354.57,8675.51 6328.06,8659.33 6299.12,8659.33C6270.19,8659.33 6243.68,8675.51 6230.44,8701.24ZM6253.83,8713.27C6262.56,8696.3 6280.04,8685.63 6299.12,8685.63C6318.21,8685.63 6335.69,8696.3 6344.42,8713.27C6386.77,8795.59 6443.91,8906.65 6483.96,8984.49C6492.09,9000.28 6491.4,9019.16 6482.15,9034.32C6472.9,9049.48 6456.42,9058.73 6438.67,9058.73C6356.23,9058.73 6242.02,9058.73 6159.58,9058.73C6141.82,9058.73 6125.35,9049.48 6116.1,9034.32C6106.85,9019.16 6106.16,9000.28 6114.29,8984.49C6154.34,8906.65 6211.48,8795.59 6253.83,8713.27Z" style="fill:white;"/>
                </g>
                <g transform="matrix(0.305607,-0.0367636,0.039246,0.286277,1626.44,4589.16)">
                    <path d="M6230.44,8701.24C6188.09,8783.55 6130.95,8894.61 6090.9,8972.46C6078.58,8996.4 6079.62,9025.03 6093.65,9048.02C6107.67,9071.01 6132.65,9085.03 6159.58,9085.03C6242.02,9085.03 6356.23,9085.03 6438.67,9085.03C6465.59,9085.03 6490.58,9071.01 6504.6,9048.02C6518.63,9025.03 6519.67,8996.4 6507.35,8972.46C6467.3,8894.61 6410.16,8783.55 6367.81,8701.24C6354.57,8675.51 6328.06,8659.33 6299.12,8659.33C6270.19,8659.33 6243.68,8675.51 6230.44,8701.24ZM6253.83,8713.27C6262.56,8696.3 6280.04,8685.63 6299.12,8685.63C6318.21,8685.63 6335.69,8696.3 6344.42,8713.27C6386.77,8795.59 6443.91,8906.65 6483.96,8984.49C6492.09,9000.28 6491.4,9019.16 6482.15,9034.32C6472.9,9049.48 6456.42,9058.73 6438.67,9058.73C6356.23,9058.73 6242.02,9058.73 6159.58,9058.73C6141.82,9058.73 6125.35,9049.48 6116.1,9034.32C6106.85,9019.16 6106.16,9000.28 6114.29,8984.49C6154.34,8906.65 6211.48,8795.59 6253.83,8713.27Z" style="fill:white;"/>
                </g>
                <g transform="matrix(0.0885728,0.276445,-0.295111,0.0829704,6747.7,3022.98)">
                    <path d="M6230.44,8701.24C6188.09,8783.55 6130.95,8894.61 6090.9,8972.46C6078.58,8996.4 6079.62,9025.03 6093.65,9048.02C6107.67,9071.01 6132.65,9085.03 6159.58,9085.03C6242.02,9085.03 6356.23,9085.03 6438.67,9085.03C6465.59,9085.03 6490.58,9071.01 6504.6,9048.02C6518.63,9025.03 6519.67,8996.4 6507.35,8972.46C6467.3,8894.61 6410.16,8783.55 6367.81,8701.24C6354.57,8675.51 6328.06,8659.33 6299.12,8659.33C6270.19,8659.33 6243.68,8675.51 6230.44,8701.24ZM6253.83,8713.27C6262.56,8696.3 6280.04,8685.63 6299.12,8685.63C6318.21,8685.63 6335.69,8696.3 6344.42,8713.27C6386.77,8795.59 6443.91,8906.65 6483.96,8984.49C6492.09,9000.28 6491.4,9019.16 6482.15,9034.32C6472.9,9049.48 6456.42,9058.73 6438.67,9058.73C6356.23,9058.73 6242.02,9058.73 6159.58,9058.73C6141.82,9058.73 6125.35,9049.48 6116.1,9034.32C6106.85,9019.16 6106.16,9000.28 6114.29,8984.49C6154.34,8906.65 6211.48,8795.59 6253.83,8713.27Z" style="fill:white;"/>
                </g>
                <g transform="matrix(-0.259143,0.156133,-0.166676,-0.242752,8823.17,6444.86)">
                    <path d="M6230.44,8701.24C6188.09,8783.55 6130.95,8894.61 6090.9,8972.46C6078.58,8996.4 6079.62,9025.03 6093.65,9048.02C6107.67,9071.01 6132.65,9085.03 6159.58,9085.03C6242.02,9085.03 6356.23,9085.03 6438.67,9085.03C6465.59,9085.03 6490.58,9071.01 6504.6,9048.02C6518.63,9025.03 6519.67,8996.4 6507.35,8972.46C6467.3,8894.61 6410.16,8783.55 6367.81,8701.24C6354.57,8675.51 6328.06,8659.33 6299.12,8659.33C6270.19,8659.33 6243.68,8675.51 6230.44,8701.24ZM6253.83,8713.27C6262.56,8696.3 6280.04,8685.63 6299.12,8685.63C6318.21,8685.63 6335.69,8696.3 6344.42,8713.27C6386.77,8795.59 6443.91,8906.65 6483.96,8984.49C6492.09,9000.28 6491.4,9019.16 6482.15,9034.32C6472.9,9049.48 6456.42,9058.73 6438.67,9058.73C6356.23,9058.73 6242.02,9058.73 6159.58,9058.73C6141.82,9058.73 6125.35,9049.48 6116.1,9034.32C6106.85,9019.16 6106.16,9000.28 6114.29,8984.49C6154.34,8906.65 6211.48,8795.59 6253.83,8713.27Z" style="fill:white;"/>
                </g>
                <g transform="matrix(0.0885728,0.276445,-0.295111,0.0829704,6245.14,2713.46)">
                    <path d="M6230.44,8701.24C6188.09,8783.55 6130.95,8894.61 6090.9,8972.46C6078.58,8996.4 6079.62,9025.03 6093.65,9048.02C6107.67,9071.01 6132.65,9085.03 6159.58,9085.03C6242.02,9085.03 6356.23,9085.03 6438.67,9085.03C6465.59,9085.03 6490.58,9071.01 6504.6,9048.02C6518.63,9025.03 6519.67,8996.4 6507.35,8972.46C6467.3,8894.61 6410.16,8783.55 6367.81,8701.24C6354.57,8675.51 6328.06,8659.33 6299.12,8659.33C6270.19,8659.33 6243.68,8675.51 6230.44,8701.24ZM6253.83,8713.27C6262.56,8696.3 6280.04,8685.63 6299.12,8685.63C6318.21,8685.63 6335.69,8696.3 6344.42,8713.27C6386.77,8795.59 6443.91,8906.65 6483.96,8984.49C6492.09,9000.28 6491.4,9019.16 6482.15,9034.32C6472.9,9049.48 6456.42,9058.73 6438.67,9058.73C6356.23,9058.73 6242.02,9058.73 6159.58,9058.73C6141.82,9058.73 6125.35,9049.48 6116.1,9034.32C6106.85,9019.16 6106.16,9000.28 6114.29,8984.49C6154.34,8906.65 6211.48,8795.59 6253.83,8713.27Z" style="fill:white;"/>
                </g>
                <g transform="matrix(0.240168,-0.180808,0.193016,0.224977,-2565.24,5209.95)">
                    <path d="M6230.44,8701.24C6188.09,8783.55 6130.95,8894.61 6090.9,8972.46C6078.58,8996.4 6079.62,9025.03 6093.65,9048.02C6107.67,9071.01 6132.65,9085.03 6159.58,9085.03C6242.02,9085.03 6356.23,9085.03 6438.67,9085.03C6465.59,9085.03 6490.58,9071.01 6504.6,9048.02C6518.63,9025.03 6519.67,8996.4 6507.35,8972.46C6467.3,8894.61 6410.16,8783.55 6367.81,8701.24C6354.57,8675.51 6328.06,8659.33 6299.12,8659.33C6270.19,8659.33 6243.68,8675.51 6230.44,8701.24ZM6253.83,8713.27C6262.56,8696.3 6280.04,8685.63 6299.12,8685.63C6318.21,8685.63 6335.69,8696.3 6344.42,8713.27C6386.77,8795.59 6443.91,8906.65 6483.96,8984.49C6492.09,9000.28 6491.4,9019.16 6482.15,9034.32C6472.9,9049.48 6456.42,9058.73 6438.67,9058.73C6356.23,9058.73 6242.02,9058.73 6159.58,9058.73C6141.82,9058.73 6125.35,9049.48 6116.1,9034.32C6106.85,9019.16 6106.16,9000.28 6114.29,8984.49C6154.34,8906.65 6211.48,8795.59 6253.83,8713.27Z" style="fill:white;"/>
                </g>
                <g transform="matrix(0.233714,0.188083,-0.200783,0.218931,1819.15,2288.6)">
                    <path d="M6230.44,8701.24C6188.09,8783.55 6130.95,8894.61 6090.9,8972.46C6078.58,8996.4 6079.62,9025.03 6093.65,9048.02C6107.67,9071.01 6132.65,9085.03 6159.58,9085.03C6242.02,9085.03 6356.23,9085.03 6438.67,9085.03C6465.59,9085.03 6490.58,9071.01 6504.6,9048.02C6518.63,9025.03 6519.67,8996.4 6507.35,8972.46C6467.3,8894.61 6410.16,8783.55 6367.81,8701.24C6354.57,8675.51 6328.06,8659.33 6299.12,8659.33C6270.19,8659.33 6243.68,8675.51 6230.44,8701.24ZM6253.83,8713.27C6262.56,8696.3 6280.04,8685.63 6299.12,8685.63C6318.21,8685.63 6335.69,8696.3 6344.42,8713.27C6386.77,8795.59 6443.91,8906.65 6483.96,8984.49C6492.09,9000.28 6491.4,9019.16 6482.15,9034.32C6472.9,9049.48 6456.42,9058.73 6438.67,9058.73C6356.23,9058.73 6242.02,9058.73 6159.58,9058.73C6141.82,9058.73 6125.35,9049.48 6116.1,9034.32C6106.85,9019.16 6106.16,9000.28 6114.29,8984.49C6154.34,8906.65 6211.48,8795.59 6253.83,8713.27Z" style="fill:white;"/>
                </g>
                <g transform="matrix(0.302884,-0.0529693,0.0565459,0.283726,-2.52574,3242.22)">
                    <path d="M6230.44,8701.24C6188.09,8783.55 6130.95,8894.61 6090.9,8972.46C6078.58,8996.4 6079.62,9025.03 6093.65,9048.02C6107.67,9071.01 6132.65,9085.03 6159.58,9085.03C6242.02,9085.03 6356.23,9085.03 6438.67,9085.03C6465.59,9085.03 6490.58,9071.01 6504.6,9048.02C6518.63,9025.03 6519.67,8996.4 6507.35,8972.46C6467.3,8894.61 6410.16,8783.55 6367.81,8701.24C6354.57,8675.51 6328.06,8659.33 6299.12,8659.33C6270.19,8659.33 6243.68,8675.51 6230.44,8701.24ZM6253.83,8713.27C6262.56,8696.3 6280.04,8685.63 6299.12,8685.63C6318.21,8685.63 6335.69,8696.3 6344.42,8713.27C6386.77,8795.59 6443.91,8906.65 6483.96,8984.49C6492.09,9000.28 6491.4,9019.16 6482.15,9034.32C6472.9,9049.48 6456.42,9058.73 6438.67,9058.73C6356.23,9058.73 6242.02,9058.73 6159.58,9058.73C6141.82,9058.73 6125.35,9049.48 6116.1,9034.32C6106.85,9019.16 6106.16,9000.28 6114.29,8984.49C6154.34,8906.65 6211.48,8795.59 6253.83,8713.27Z" style="fill:white;"/>
                </g>
                <g transform="matrix(0.302884,-0.0529693,0.0565459,0.283726,-2317.51,3304.64)">
                    <path d="M6230.44,8701.24C6188.09,8783.55 6130.95,8894.61 6090.9,8972.46C6078.58,8996.4 6079.62,9025.03 6093.65,9048.02C6107.67,9071.01 6132.65,9085.03 6159.58,9085.03C6242.02,9085.03 6356.23,9085.03 6438.67,9085.03C6465.59,9085.03 6490.58,9071.01 6504.6,9048.02C6518.63,9025.03 6519.67,8996.4 6507.35,8972.46C6467.3,8894.61 6410.16,8783.55 6367.81,8701.24C6354.57,8675.51 6328.06,8659.33 6299.12,8659.33C6270.19,8659.33 6243.68,8675.51 6230.44,8701.24ZM6253.83,8713.27C6262.56,8696.3 6280.04,8685.63 6299.12,8685.63C6318.21,8685.63 6335.69,8696.3 6344.42,8713.27C6386.77,8795.59 6443.91,8906.65 6483.96,8984.49C6492.09,9000.28 6491.4,9019.16 6482.15,9034.32C6472.9,9049.48 6456.42,9058.73 6438.67,9058.73C6356.23,9058.73 6242.02,9058.73 6159.58,9058.73C6141.82,9058.73 6125.35,9049.48 6116.1,9034.32C6106.85,9019.16 6106.16,9000.28 6114.29,8984.49C6154.34,8906.65 6211.48,8795.59 6253.83,8713.27Z" style="fill:white;"/>
                </g>
                <g transform="matrix(0.302884,-0.0529693,0.0565459,0.283726,931.989,3563.66)">
                    <path d="M6230.44,8701.24C6188.09,8783.55 6130.95,8894.61 6090.9,8972.46C6078.58,8996.4 6079.62,9025.03 6093.65,9048.02C6107.67,9071.01 6132.65,9085.03 6159.58,9085.03C6242.02,9085.03 6356.23,9085.03 6438.67,9085.03C6465.59,9085.03 6490.58,9071.01 6504.6,9048.02C6518.63,9025.03 6519.67,8996.4 6507.35,8972.46C6467.3,8894.61 6410.16,8783.55 6367.81,8701.24C6354.57,8675.51 6328.06,8659.33 6299.12,8659.33C6270.19,8659.33 6243.68,8675.51 6230.44,8701.24ZM6253.83,8713.27C6262.56,8696.3 6280.04,8685.63 6299.12,8685.63C6318.21,8685.63 6335.69,8696.3 6344.42,8713.27C6386.77,8795.59 6443.91,8906.65 6483.96,8984.49C6492.09,9000.28 6491.4,9019.16 6482.15,9034.32C6472.9,9049.48 6456.42,9058.73 6438.67,9058.73C6356.23,9058.73 6242.02,9058.73 6159.58,9058.73C6141.82,9058.73 6125.35,9049.48 6116.1,9034.32C6106.85,9019.16 6106.16,9000.28 6114.29,8984.49C6154.34,8906.65 6211.48,8795.59 6253.83,8713.27Z" style="fill:white;"/>
                </g>
                <g transform="matrix(0.302884,-0.0529693,0.0565459,0.283726,1355.26,5457.54)">
                    <path d="M6230.44,8701.24C6188.09,8783.55 6130.95,8894.61 6090.9,8972.46C6078.58,8996.4 6079.62,9025.03 6093.65,9048.02C6107.67,9071.01 6132.65,9085.03 6159.58,9085.03C6242.02,9085.03 6356.23,9085.03 6438.67,9085.03C6465.59,9085.03 6490.58,9071.01 6504.6,9048.02C6518.63,9025.03 6519.67,8996.4 6507.35,8972.46C6467.3,8894.61 6410.16,8783.55 6367.81,8701.24C6354.57,8675.51 6328.06,8659.33 6299.12,8659.33C6270.19,8659.33 6243.68,8675.51 6230.44,8701.24ZM6253.83,8713.27C6262.56,8696.3 6280.04,8685.63 6299.12,8685.63C6318.21,8685.63 6335.69,8696.3 6344.42,8713.27C6386.77,8795.59 6443.91,8906.65 6483.96,8984.49C6492.09,9000.28 6491.4,9019.16 6482.15,9034.32C6472.9,9049.48 6456.42,9058.73 6438.67,9058.73C6356.23,9058.73 6242.02,9058.73 6159.58,9058.73C6141.82,9058.73 6125.35,9049.48 6116.1,9034.32C6106.85,9019.16 6106.16,9000.28 6114.29,8984.49C6154.34,8906.65 6211.48,8795.59 6253.83,8713.27Z" style="fill:white;"/>
                </g>
            </g>
        </g>
    </g>
</svg>
