<?xml version="1.0" encoding="UTF-8" standalone="no"?><!DOCTYPE svg PUBLIC "-//W3C//DTD SVG 1.1//EN" "http://www.w3.org/Graphics/SVG/1.1/DTD/svg11.dtd"><svg width="100%" height="100%" viewBox="0 0 4500 8000" version="1.1" xmlns="http://www.w3.org/2000/svg" xmlns:xlink="http://www.w3.org/1999/xlink" xml:space="preserve" xmlns:serif="http://www.serif.com/" style="fill-rule:evenodd;clip-rule:evenodd;stroke-linejoin:round;stroke-miterlimit:2;"><rect id="Artboard1" x="0" y="0" width="4500" height="8000" style="fill:none;"/><clipPath id="_clip1"><rect x="0" y="0" width="4500" height="8000"/></clipPath><g clip-path="url(#_clip1)"><rect x="-0" y="1.233" width="4500" height="7998.77"/><path id="back-texture" serif:id="back texture" d="M4234,1707.88l990.796,-571.305l998.557,575.78l-0,569.799l0.322,582.478l-992.518,573.031l-0.312,562.316l0.313,563.585l992.195,572.111l-0,569.799l0.322,582.478l-998.879,576.704l-991.265,-572.307l-984.649,568.487l-998.879,-576.703l0.323,-582.479l-0,-569.799l983.081,-566.856l0.313,-565.02l-0.313,-565.02l-983.081,-566.856l-0,-569.799l-0.323,-582.479l-0.323,582.479l0,569.799l-983.081,566.856l-0.313,565.02l0.313,565.02l983.081,566.856l0,569.799l0.323,582.479l-998.879,576.703l-985.752,-569.124l-990.162,571.671l-998.879,-576.704l0.322,-582.478l0,-569.799l992.196,-572.112l0.312,-562.311l-0.312,-562.237l-992.518,-573.031l0.322,-582.478l0,-569.799l998.557,-575.78l990.727,571.265l985.187,-568.797l998.879,576.703l998.879,-576.703l985.118,568.758Zm28.832,4576.88l946.532,546.481l-0.605,-1091.91l-945.927,545.433Zm978.001,-545.433l-0.605,1091.91l946.532,-546.481l-945.927,-545.433Zm-6927.59,544.16l946.532,546.481l-0.605,-1091.91l-945.927,545.433Zm978.001,-545.433l-0.605,1091.91l946.532,-546.481l-945.927,-545.433Zm2995.67,542.886l946.533,546.481l-0.605,-1091.91l-945.928,545.433Zm978.001,-545.433l-0.605,1091.91l946.533,-546.481l-945.928,-545.433Zm-1051.83,545.433l-946.533,546.481l0.605,-1091.91l945.928,545.433Zm-978.001,-545.433l0.605,1091.91l-946.533,-546.481l945.928,-545.433Zm4005.76,-20.95l-0,0.285l961.283,554.287l-0,-563.639l-0.303,-545.756l-960.98,554.823Zm-993.096,554.402l-0.295,-531.346l0,-32.123l0.302,-545.756l960.981,554.823l0,0.285l-960.988,554.117Zm-4988.6,-555.675l0,0.285l-961.283,554.287l0,-563.639l0.303,-545.756l960.98,554.823Zm993.391,24.329l-0,-33.396l-0.302,-545.756l-960.981,554.823l-0,0.285l960.989,554.118l0.294,-530.074Zm2980.28,-26.876l-0,0.285l-961.283,554.288l-0,-563.64l0.302,-545.755l960.981,554.822Zm-1965.65,0l0,0.285l961.283,554.288l0,-563.64l-0.302,-545.755l-960.981,554.822Zm2959.04,30.696l0,-39.763l-0.302,-545.755l-960.981,554.822l0,0.285l960.993,554.12l0.29,-523.709Zm-3952.14,523.709l-0.291,-524.982l-0,-38.49l0.302,-545.755l960.981,554.822l-0,0.285l-960.992,554.12Zm4966.77,-1671.5l-0,1096.41l950.127,-548.556l-950.127,-547.854Zm-982.235,547.854l950.127,548.556l0,-1096.41l-950.127,547.854Zm-4967.35,547.283l949.208,-548.025l-949.208,-547.325l-0,1095.35Zm-982.235,-548.556l950.127,548.556l0,-1096.41l-950.127,547.854Zm3908.28,-2.546l-950.127,548.556l0,-1096.41l950.127,547.855Zm-982.234,548.556l-942.448,-544.123l942.448,-543.426l-0,1087.55Zm1047.63,-548.556l950.127,548.556l-0,-1096.41l-950.127,547.855Zm982.234,548.556l942.448,-544.123l-942.448,-543.426l0,1087.55Zm983.4,-571.763l942.378,-544.082l-942.378,-544.083l0,1088.16Zm-3996.67,-0l-942.378,-544.082l942.378,-544.083l-0,1088.16Zm974.485,-544.082l-108.466,62.623l-833.912,480.843l0,-1087.55l942.378,544.083Zm2047.7,-0l108.466,62.623l833.912,480.843l-0,-1087.55l-942.378,544.083Zm-2028.79,-581.31l0,21.792l-0.3,541.674l-958.306,-552.57l958.306,-552.57l0.3,541.674Zm2009.89,0l-0,21.792l0.3,541.674l958.306,-552.57l-958.306,-552.57l-0.3,541.674Zm1954.67,0l-0.3,-541.674l-958.306,552.57l958.306,552.57l0.3,-541.674l0,-21.792Zm-5919.23,0l0.3,-541.674l958.306,552.57l-958.306,552.57l-0.3,-541.674l-0,-21.792Zm961.283,-15.436l-942.378,-544.082l942.378,-544.082l-0,1088.16Zm3996.67,0l942.378,-544.082l-942.378,-544.082l0,1088.16Zm-3130.65,-606.705l108.466,62.623l-942.378,544.082l0,-1087.55l833.912,480.843Zm2264.63,-0l-108.466,62.623l942.378,544.082l-0,-1087.55l-833.912,480.843Zm-1165.01,-504.666l-950.127,-548.556l0,1096.41l950.127,-547.855Zm65.398,0l950.127,-548.556l-0,1096.41l-950.127,-547.855Zm-3969.46,-0.754l946.532,546.48l-0.605,-1091.91l-945.927,545.433Zm6927.59,-545.512l-0.605,1091.91l946.532,-546.481l-945.927,-545.433Zm-977.705,545.262l946.236,545.61l-0.605,-1090.87l-945.631,545.262Zm-4972.49,545.61l946.167,-545.571l-945.562,-545.222l-0.605,1090.79Zm1944.43,-5.613l-942.448,-543.426l942.448,-544.123l-0,1087.55Zm2029.87,-0l942.448,-543.426l-942.448,-544.123l0,1087.55Zm-3973.67,-1109.95l-0,0.286l961.283,554.287l-0,-563.639l-0.302,-545.756l-960.981,554.822Zm-32.108,0l0,0.286l-961.283,554.287l0,-563.639l0.303,-545.756l960.98,554.822Zm5981.69,-0.078l-0,0.285l961.283,554.287l-0,-563.639l-0.303,-545.756l-960.98,554.823Zm-32.108,-0l0,0.285l-961.283,554.287l0,-563.639l0.302,-545.756l960.981,554.823Zm-1943.81,-2.022l0,-0.286l961.283,-554.287l0,563.64l-0.302,545.755l-960.981,-554.822Zm-2029.87,-0l-0,-0.286l-961.283,-554.287l-0,563.64l0.302,545.755l960.981,-554.822Zm32.107,-0l0,-0.286l961.283,-554.287l0,563.64l-0.302,545.755l-960.981,-554.822Zm1965.65,-0l-0,-0.286l-961.283,-554.287l-0,563.64l0.302,545.755l960.981,-554.822Zm-3941.57,-1118.81l-0,1096.41l950.127,-548.556l-950.127,-547.854Zm-982.235,547.854l950.127,548.556l0,-1096.41l-950.127,547.854Zm6931.82,-547.933l-0,1096.41l950.127,-548.556l-950.127,-547.854Zm-982.235,547.854l950.127,548.556l0,-1096.41l-950.127,547.854Zm-1971.7,0.834l946.533,-546.481l-0.605,1091.91l-945.928,-545.433Zm978.001,545.433l-0.605,-1091.91l946.533,546.481l-945.928,545.433Zm-1051.83,-545.433l-946.533,-546.481l0.605,1091.91l945.928,-545.433Zm-978.001,545.433l0.605,-1091.91l-946.533,546.481l945.928,545.433Z" style="fill:url(#_Radial2);"/></g><defs><radialGradient id="_Radial2" cx="0" cy="0" r="1" gradientUnits="userSpaceOnUse" gradientTransform="matrix(2977.23,-1720.76,1720.76,2977.23,2250,3982.79)"><stop offset="0" style="stop-color:#00d8ff;stop-opacity:1"/><stop offset="0.54" style="stop-color:#823fed;stop-opacity:0.32"/><stop offset="1" style="stop-color:#b404e6;stop-opacity:0.05"/></radialGradient></defs></svg>