<?xml version="1.0" encoding="UTF-8" standalone="no"?><!DOCTYPE svg PUBLIC "-//W3C//DTD SVG 1.1//EN" "http://www.w3.org/Graphics/SVG/1.1/DTD/svg11.dtd"><svg width="100%" height="100%" viewBox="0 0 8000 4500" version="1.1" xmlns="http://www.w3.org/2000/svg" xmlns:xlink="http://www.w3.org/1999/xlink" xml:space="preserve" xmlns:serif="http://www.serif.com/" style="fill-rule:evenodd;clip-rule:evenodd;stroke-linejoin:round;stroke-miterlimit:2;"><rect id="Main-logo-extended" serif:id="Main logo extended" x="0" y="0" width="8000" height="4500" style="fill:none;"/><path id="back-texture" serif:id="back texture" d="M5558.29,449.219l778.199,-448.719l784.296,452.234l-0,447.536l0.253,457.496l-779.553,450.075l-0.244,441.659l0.245,442.656l779.299,449.352l-0,447.537l0.253,457.496l-784.549,452.959l-778.567,-449.506l-773.372,446.506l-784.549,-452.959l0.253,-457.496l0,-447.537l772.141,-445.225l0.246,-443.783l-0.246,-443.783l-772.141,-445.225l0,-447.537l-0.253,-457.496l-0.253,457.496l-0,447.537l-772.141,445.225l-0.246,443.783l0.246,443.783l772.141,445.225l-0,447.537l0.253,457.496l-784.549,452.959l-774.238,-447.006l-777.701,449.006l-784.549,-452.959l0.253,-457.496l0,-447.537l779.3,-449.353l0.244,-441.655l-0.244,-441.597l-779.553,-450.075l0.253,-457.496l0,-447.536l784.296,-452.234l778.146,448.688l773.793,-446.75l784.549,452.959l784.549,-452.959l773.74,446.719Zm22.645,3594.82l743.434,429.222l-0.475,-857.621l-742.959,428.399Zm768.15,-428.399l-0.475,857.621l743.434,-429.222l-742.959,-428.399Zm-5441.13,427.399l743.434,429.222l-0.475,-857.621l-742.959,428.399Zm768.15,-428.399l-0.475,857.621l743.434,-429.222l-742.959,-428.399Zm2352.89,426.399l743.434,429.222l-0.475,-857.621l-742.959,428.399Zm768.15,-428.399l-0.475,857.621l743.434,-429.222l-742.959,-428.399Zm-826.138,428.399l-743.434,429.222l0.475,-857.621l742.959,428.399Zm-768.15,-428.399l0.475,857.621l-743.434,-429.222l742.959,-428.399Zm3146.24,-16.455l0,0.224l755.02,435.354l-0,-442.699l-0.238,-428.652l-754.782,435.773Zm-780.006,435.444l-0.231,-417.334l-0,-25.231l0.237,-428.652l754.782,435.773l0,0.224l-754.788,435.22Zm-3918.19,-436.444l-0,0.224l-755.02,435.354l0,-442.699l0.238,-428.652l754.782,435.773Zm780.237,19.11l0,-26.231l-0.237,-428.652l-754.782,435.773l-0,0.224l754.789,435.22l0.23,-416.334Zm2340.8,-21.11l-0,0.224l-755.02,435.354l0,-442.699l0.238,-428.652l754.782,435.773Zm-1543.88,0l0,0.224l755.02,435.354l-0,-442.699l-0.238,-428.652l-754.782,435.773Zm2324.12,24.11l0,-31.231l-0.237,-428.652l-754.782,435.773l-0,0.224l754.792,435.222l0.227,-411.336Zm-3104.13,411.336l-0.228,-412.336l-0,-30.231l0.237,-428.652l754.782,435.773l0,0.224l-754.791,435.222Zm3901.05,-1312.84l0,861.152l746.258,-430.851l-746.258,-430.301Zm-771.475,430.301l746.257,430.851l0,-861.152l-746.257,430.301Zm-3901.5,429.851l745.535,-430.435l-745.535,-429.884l-0,860.319Zm-771.476,-430.851l746.258,430.851l-0,-861.152l-746.258,430.301Zm3069.67,-2l-746.257,430.851l0,-861.152l746.257,430.301Zm-771.475,430.851l-740.225,-427.369l740.225,-426.823l0,854.192Zm822.841,-430.851l746.257,430.851l-0,-861.152l-746.257,430.301Zm771.475,430.851l740.225,-427.369l-740.225,-426.823l-0,854.192Zm772.391,-449.079l740.171,-427.338l-740.171,-427.337l-0,854.675Zm-3139.1,0l-740.171,-427.338l740.171,-427.337l0,854.675Zm765.389,-427.338l-85.192,49.187l-654.979,377.668l0,-854.192l740.171,427.337Zm1608.32,0l85.192,49.187l654.979,377.668l-0,-854.192l-740.171,427.337Zm-1593.47,-456.577l0,17.116l-0.236,425.447l-752.681,-434.005l752.681,-434.005l0.236,425.447Zm1578.62,0l-0,17.116l0.236,425.447l752.681,-434.005l-752.681,-434.005l-0.236,425.447Zm1535.26,0l-0.236,-425.447l-752.681,434.005l752.681,434.005l0.236,-425.447l0,-17.116Zm-4649.14,0l0.236,-425.447l752.681,434.005l-752.681,434.005l-0.236,-425.447l-0,-17.116Zm755.019,-12.124l-740.171,-427.337l740.171,-427.338l0,854.675Zm3139.1,0l740.171,-427.337l-740.171,-427.338l-0,854.675Zm-2458.9,-476.524l85.192,49.187l-740.171,427.337l0,-854.192l654.979,377.668Zm1778.7,0l-85.192,49.187l740.171,427.337l-0,-854.192l-654.979,377.668Zm-915.035,-396.379l-746.257,-430.851l0,861.152l746.257,-430.301Zm51.366,0l746.257,-430.851l-0,861.152l-746.257,-430.301Zm-3117.73,-0.592l743.434,429.222l-0.475,-857.621l-742.959,428.399Zm5441.13,-428.461l-0.475,857.621l743.434,-429.222l-742.959,-428.399Zm-767.917,428.264l743.2,428.539l-0.474,-856.803l-742.726,428.264Zm-3905.53,428.539l743.147,-428.508l-742.673,-428.233l-0.474,856.741Zm1527.21,-4.409l-740.225,-426.823l740.225,-427.369l0,854.192Zm1594.32,-0l740.225,-426.823l-740.225,-427.369l-0,854.192Zm-3121.04,-871.787l-0,0.224l755.019,435.353l0,-442.699l-0.237,-428.652l-754.782,435.774Zm-25.218,-0l-0,0.224l-755.02,435.353l0,-442.699l0.238,-428.652l754.782,435.774Zm4698.19,-0.062l0,0.224l755.02,435.353l-0,-442.699l-0.238,-428.652l-754.782,435.774Zm-25.218,-0l0,0.224l-755.019,435.353l-0,-442.699l0.237,-428.652l754.782,435.774Zm-1526.72,-1.588l-0,-0.224l755.019,-435.354l0,442.699l-0.237,428.652l-754.782,-435.773Zm-1594.32,-0l0,-0.224l-755.019,-435.354l-0,442.699l0.237,428.652l754.782,-435.773Zm25.218,-0l0,-0.224l755.02,-435.354l-0,442.699l-0.238,428.652l-754.782,-435.773Zm1543.88,-0l-0,-0.224l-755.02,-435.354l0,442.699l0.238,428.652l754.782,-435.773Zm-3095.82,-878.748l-0,861.153l746.257,-430.852l-746.257,-430.301Zm-771.476,430.301l746.258,430.852l-0,-861.153l-746.258,430.301Zm5444.45,-430.363l0,861.153l746.258,-430.852l-746.258,-430.301Zm-771.475,430.301l746.257,430.852l0,-861.153l-746.257,430.301Zm-1548.63,0.655l743.434,-429.222l-0.475,857.621l-742.959,-428.399Zm768.15,428.399l-0.475,-857.621l743.434,429.222l-742.959,428.399Zm-826.138,-428.399l-743.434,-429.222l0.475,857.621l742.959,-428.399Zm-768.15,428.399l0.475,-857.621l-743.434,429.222l742.959,428.399Z" style="fill:url(#_Radial1);"/><defs><radialGradient id="_Radial1" cx="0" cy="0" r="1" gradientUnits="userSpaceOnUse" gradientTransform="matrix(2338.4,-1351.53,1351.53,2338.4,4000,2236)"><stop offset="0" style="stop-color:#02e1ce;stop-opacity:1"/><stop offset="1" style="stop-color:#b404e6;stop-opacity:0.05"/></radialGradient></defs></svg>