<?xml version="1.0" encoding="UTF-8" standalone="no"?><!DOCTYPE svg PUBLIC "-//W3C//DTD SVG 1.1//EN" "http://www.w3.org/Graphics/SVG/1.1/DTD/svg11.dtd"><svg width="100%" height="100%" viewBox="0 0 1465 8986" version="1.1" xmlns="http://www.w3.org/2000/svg" xmlns:xlink="http://www.w3.org/1999/xlink" xml:space="preserve" xmlns:serif="http://www.serif.com/" style="fill-rule:evenodd;clip-rule:evenodd;stroke-linejoin:round;stroke-miterlimit:2;"><g><clipPath id="_clip1"><rect x="-0" y="484.374" width="1563.91" height="7744.44"/></clipPath><g clip-path="url(#_clip1)"><g><g transform="matrix(6.12323e-17,-1,1,6.12323e-17,-11390.4,10413.8)"><text x="6733.92px" y="11649.3px" style="font-family:'HirokawaRegular', 'Hirokawa';font-size:355.196px;fill:#fff4f4;">a<tspan x="6965.87px " y="11649.3px ">b</tspan>out</text></g><g transform="matrix(6.12323e-17,-1,1,6.12323e-17,-12853,11876.4)"><text x="6733.92px" y="13111.9px" style="font-family:'HirokawaRegular', 'Hirokawa';font-size:355.196px;fill:#fff4f4;">a<tspan x="6965.87px " y="13111.9px ">b</tspan>out</text></g><g transform="matrix(6.12323e-17,-1,1,6.12323e-17,-14291.3,13314.8)"><text x="6733.92px" y="14550.3px" style="font-family:'HirokawaRegular', 'Hirokawa';font-size:355.196px;fill:#fff4f4;">A<tspan x="6965.16px " y="14550.3px ">b</tspan>out</text></g><g transform="matrix(6.12323e-17,-1,1,6.12323e-17,-15826.3,14849.7)"><text x="6733.92px" y="16085.3px" style="font-family:'HirokawaRegular', 'Hirokawa';font-size:355.196px;fill:#fff4f4;">A<tspan x="6965.16px " y="16085.3px ">b</tspan>out</text></g><g transform="matrix(6.12323e-17,-1,1,6.12323e-17,-9773.68,8797.1)"><text x="6733.92px" y="10032.6px" style="font-family:'HirokawaRegular', 'Hirokawa';font-size:355.196px;fill:#fff4f4;">A<tspan x="6965.16px " y="10032.6px ">B</tspan>OUT</text></g></g><g><g transform="matrix(6.12323e-17,-1,1,6.12323e-17,-10240,11616.5)"><text x="7910.47px" y="11675.4px" style="font-family:'HirokawaRegular', 'Hirokawa';font-size:355.196px;fill:#fff4f4;">a<tspan x="8142.41px " y="11675.4px ">b</tspan>out</text></g><g transform="matrix(6.12323e-17,-1,1,6.12323e-17,-11702.6,13079.1)"><text x="7910.47px" y="13138px" style="font-family:'HirokawaRegular', 'Hirokawa';font-size:355.196px;fill:#fff4f4;">a<tspan x="8142.41px " y="13138px ">b</tspan>out</text></g><g transform="matrix(6.12323e-17,-1,1,6.12323e-17,-13140.9,14517.4)"><text x="7910.47px" y="14576.4px" style="font-family:'HirokawaRegular', 'Hirokawa';font-size:355.196px;fill:#fff4f4;">A<tspan x="8141.7px " y="14576.4px ">b</tspan>out</text></g><g transform="matrix(6.12323e-17,-1,1,6.12323e-17,-14675.9,16052.4)"><text x="7910.47px" y="16111.4px" style="font-family:'HirokawaRegular', 'Hirokawa';font-size:355.196px;fill:#fff4f4;">A<tspan x="8141.7px " y="16111.4px ">b</tspan>out</text></g><g transform="matrix(6.12323e-17,-1,1,6.12323e-17,-8623.27,9999.78)"><text x="7910.47px" y="10058.8px" style="font-family:'HirokawaRegular', 'Hirokawa';font-size:355.196px;fill:#fff4f4;">A<tspan x="8141.7px " y="10058.8px ">B</tspan>OUT</text></g></g><g><g transform="matrix(6.12323e-17,-1,1,6.12323e-17,-9865.22,10111.2)"><text x="7345.19px" y="10735.4px" style="font-family:'HirokawaRegular', 'Hirokawa';font-size:355.196px;fill:#fff4f4;">A<tspan x="7576.43px " y="10735.4px ">B</tspan>OUT</text></g><g transform="matrix(6.12323e-17,-1,1,6.12323e-17,-8359.12,8605.07)"><text x="7345.19px" y="9229.32px" style="font-family:'HirokawaRegular', 'Hirokawa';font-size:355.196px;fill:#fff4f4;">A<tspan x="7576.43px " y="9229.32px ">B</tspan>OUT</text></g><g transform="matrix(6.12323e-17,-1,1,6.12323e-17,-11484.6,11730.6)"><text x="7345.19px" y="12354.8px" style="font-family:'HirokawaRegular', 'Hirokawa';font-size:355.196px;fill:#fff4f4;">A<tspan x="7576.43px " y="12354.8px ">B</tspan>OUT</text></g><g transform="matrix(6.12323e-17,-1,1,6.12323e-17,-13020.8,13266.7)"><text x="7345.19px" y="13891px" style="font-family:'HirokawaRegular', 'Hirokawa';font-size:355.196px;fill:#fff4f4;">A<tspan x="7576.43px " y="13891px ">B</tspan>OUT</text></g><g transform="matrix(6.12323e-17,-1,1,6.12323e-17,-14579.7,14825.6)"><text x="7345.19px" y="15449.9px" style="font-family:'HirokawaRegular', 'Hirokawa';font-size:355.196px;fill:#fff4f4;">A<tspan x="7576.43px " y="15449.9px ">B</tspan>OUT</text></g><g transform="matrix(6.12323e-17,-1,1,6.12323e-17,-16070.6,16316.6)"><text x="7345.19px" y="16940.8px" style="font-family:'HirokawaRegular', 'Hirokawa';font-size:355.196px;fill:#fff4f4;">A<tspan x="7576.43px " y="16940.8px ">B</tspan>OUT</text></g></g></g></g></svg>