<?xml version="1.0" encoding="UTF-8" standalone="no"?><!DOCTYPE svg PUBLIC "-//W3C//DTD SVG 1.1//EN" "http://www.w3.org/Graphics/SVG/1.1/DTD/svg11.dtd"><svg width="100%" height="100%" viewBox="0 0 4500 4500" version="1.1" xmlns="http://www.w3.org/2000/svg" xmlns:xlink="http://www.w3.org/1999/xlink" xml:space="preserve" xmlns:serif="http://www.serif.com/" style="fill-rule:evenodd;clip-rule:evenodd;stroke-linecap:round;stroke-linejoin:round;stroke-miterlimit:1.5;"><rect id="Artboard1" x="0" y="0" width="4500" height="4500" style="fill:none;"/><clipPath id="_clip1"><rect id="Artboard11" serif:id="Artboard1" x="0" y="0" width="4500" height="4500"/></clipPath><g clip-path="url(#_clip1)"><path d="M-0,-0l-0,4500l4500,-0l-0,-4500l-4500,-0Z" style="fill:none;"/><clipPath id="_clip2"><path d="M-0,-0l-0,4500l4500,-0l-0,-4500l-4500,-0Z"/></clipPath><g clip-path="url(#_clip2)"><g><path d="M427.91,4540.21c0,0 181.237,-1717.25 1517.08,-2284.95c1335.84,-567.697 1660.78,-536.18 2560.01,-2080.13" style="fill:none;stroke:#000;stroke-width:25px;"/><path d="M725.455,4973.13c0,-0 181.237,-1717.25 1517.08,-2284.95c1335.84,-567.698 1660.78,-536.18 2560.01,-2080.14" style="fill:none;stroke:#000;stroke-width:25px;"/><path d="M1085.58,5351.98c0,-0 181.237,-1717.25 1517.08,-2284.95c1335.84,-567.698 1660.78,-536.18 2560.01,-2080.14" style="fill:none;stroke:#000;stroke-width:25px;"/></g></g></g></svg>