<?xml version="1.0" encoding="UTF-8" standalone="no"?><!DOCTYPE svg PUBLIC "-//W3C//DTD SVG 1.1//EN" "http://www.w3.org/Graphics/SVG/1.1/DTD/svg11.dtd"><svg width="100%" height="100%" viewBox="0 0 4500 4500" version="1.1" xmlns="http://www.w3.org/2000/svg" xmlns:xlink="http://www.w3.org/1999/xlink" xml:space="preserve" xmlns:serif="http://www.serif.com/" style="fill-rule:evenodd;clip-rule:evenodd;stroke-linecap:round;stroke-linejoin:round;stroke-miterlimit:1.5;"><rect id="Artboard1" x="0" y="0" width="4500" height="4500" style="fill:none;"/><clipPath id="_clip1"><rect id="Artboard11" serif:id="Artboard1" x="0" y="0" width="4500" height="4500"/></clipPath><g clip-path="url(#_clip1)"><rect x="-0" y="0" width="4500" height="4500" style="fill:none;"/><clipPath id="_clip2"><rect x="-0" y="0" width="4500" height="4500"/></clipPath><g clip-path="url(#_clip2)"><g><path d="M-40.207,427.91c-0,0 1717.25,181.237 2284.95,1517.08c567.697,1335.84 536.18,1660.78 2080.13,2560.01" style="fill:none;stroke:#000;stroke-width:25px;"/><path d="M-473.127,725.455c0,0 1717.25,181.237 2284.95,1517.08c567.698,1335.84 536.18,1660.78 2080.14,2560.01" style="fill:none;stroke:#000;stroke-width:25px;"/><path d="M-851.978,1085.58c0,0 1717.25,181.237 2284.95,1517.08c567.698,1335.84 536.18,1660.78 2080.14,2560.01" style="fill:none;stroke:#000;stroke-width:25px;"/></g></g></g></svg>