<?xml version="1.0" encoding="UTF-8" standalone="no"?><!DOCTYPE svg PUBLIC "-//W3C//DTD SVG 1.1//EN" "http://www.w3.org/Graphics/SVG/1.1/DTD/svg11.dtd"><svg width="100%" height="100%" viewBox="0 0 4500 4500" version="1.1" xmlns="http://www.w3.org/2000/svg" xmlns:xlink="http://www.w3.org/1999/xlink" xml:space="preserve" xmlns:serif="http://www.serif.com/" style="fill-rule:evenodd;clip-rule:evenodd;stroke-linejoin:round;stroke-miterlimit:2;"><rect id="Mark-transparent" serif:id="Mark transparent" x="0" y="0" width="4500" height="4500" style="fill:none;"/><g><path d="M2375.99,4073.35l-16.387,39.931l-42.76,5.889l-1285.95,-907.529l-418.032,-1256.59l138.241,213.953l67.419,-745.231l211.552,-609.633l56.869,141.034l273.37,-382.922l200.629,1091.17l582.905,1055.63l232.141,1354.31Z"/><path d="M757.861,2390.89l-144.993,-435.843l138.241,213.953l67.419,-745.231l211.552,-609.633l56.869,141.034l273.37,-382.922l200.629,1091.17l101.363,183.565l-34.006,70.37l-264.34,-148.147l-99.983,276.489l-239.012,-509.731l-77.568,713.403l33.244,228.491l-222.785,-86.967Z" style="fill:#f75656;"/><path d="M2387.38,4078.02l0.745,-6.75l-232.142,-1354.31l-1.356,-3.868l-581.937,-1053.87c0,0 -200.266,-1089.2 -200.266,-1089.2l-22.112,-4.923l-260.337,364.665c-0,0 -48.48,-120.23 -48.48,-120.23l-23.032,0.567l-211.552,609.634l-0.63,2.924l-64.203,709.685c-38.047,-58.884 -118.872,-183.974 -118.872,-183.974l-22.006,10.559l418.032,1256.6l4.58,6.168l1285.95,907.528l8.772,2.136l42.759,-5.889l9.703,-7.517l16.387,-39.93Zm-24.103,-6.074l-12.358,30.113c-0,-0 -30.938,4.261 -30.938,4.261c0,-0 -1278.68,-902.4 -1278.68,-902.4c0,0 -386.159,-1160.79 -386.159,-1160.79c0,-0 85.638,132.54 85.638,132.54l22.585,-5.568l67.284,-743.73c-0,0 200.299,-577.205 200.299,-577.205c-0,0 44.595,110.598 44.595,110.598l21.423,2.547l256.506,-359.301c0,0 195.381,1062.62 195.381,1062.62l1.329,3.722l581.901,1053.81c-0,-0 231.193,1348.78 231.193,1348.78l0,-0Z" style="fill:#fff4f4;"/></g></svg>