<?xml version="1.0" encoding="UTF-8" standalone="no"?><!DOCTYPE svg PUBLIC "-//W3C//DTD SVG 1.1//EN" "http://www.w3.org/Graphics/SVG/1.1/DTD/svg11.dtd"><svg width="100%" height="100%" viewBox="0 0 4500 4500" version="1.1" xmlns="http://www.w3.org/2000/svg" xmlns:xlink="http://www.w3.org/1999/xlink" xml:space="preserve" xmlns:serif="http://www.serif.com/" style="fill-rule:evenodd;clip-rule:evenodd;stroke-linejoin:round;stroke-miterlimit:2;"><rect id="Mark-transparent" serif:id="Mark transparent" x="0" y="0" width="4500" height="4500" style="fill:none;"/><g><path d="M2313.69,4095.36l21.053,23.813l31.251,-5.803l1161.88,-1073.19l360.007,-572.215l-43.872,-582.128l-40.028,219.505l-90.79,-553.242l-116.966,98.058l-35.532,-960.702l-212.451,532.912l-16.376,-180.639l-170.327,450.818l-11.808,-237.169l-298.689,795.398l-101.218,-110.759l-274.152,856.924l-166.629,1180.38l4.646,118.036l0.001,0.004Z"/><path d="M2851.49,2049.57l298.237,-794.194l11.808,237.169l170.327,-450.818l16.376,180.639l212.451,-532.912l35.532,960.702l116.966,-98.058l90.79,553.242l40.028,-219.505l43.872,582.128l-102.318,162.629l-54.781,4.299l-115.8,-375.834l-217.657,57.405l-144.458,-423.29l-401.373,156.398Zm-1.145,0.446l-125.324,48.834l-10.863,-47.365l35.662,-111.47l100.525,110.001Z" style="fill:#f75656;"/><path d="M2313.69,4106.28c-3.131,0 -6.111,-1.343 -8.184,-3.688c-0,0 21.053,23.813 21.053,23.813c2.542,2.875 6.406,4.205 10.178,3.505l31.251,-5.804c2.026,-0.376 3.904,-1.317 5.418,-2.715l1161.88,-1073.19c0.705,-0.652 1.322,-1.394 1.834,-2.207l360.006,-572.216c1.246,-1.979 1.823,-4.306 1.647,-6.637c0,-0 -43.871,-582.128 -43.871,-582.128c-0.413,-5.479 -4.832,-9.798 -10.318,-10.087c-5.487,-0.289 -10.335,3.543 -11.321,8.948c0,0 -28.715,157.468 -28.715,157.468c-0,-0 -80.578,-491.013 -80.578,-491.013c-0.636,-3.874 -3.3,-7.108 -6.98,-8.473c-3.68,-1.365 -7.809,-0.651 -10.817,1.871l-99.857,83.715c-5.333,-144.183 -34.707,-938.393 -34.707,-938.393c-0.191,-5.159 -3.968,-9.48 -9.055,-10.36c-5.088,-0.879 -10.096,1.923 -12.008,6.719l-195.546,490.51c-0,-0 -12.256,-135.178 -12.256,-135.178c-0.459,-5.07 -4.36,-9.15 -9.404,-9.837c-5.044,-0.687 -9.893,2.201 -11.693,6.962l-151.804,401.794c-0,0 -9.203,-184.827 -9.203,-184.827c-0.257,-5.171 -4.11,-9.452 -9.226,-10.25c-5.116,-0.798 -10.089,2.106 -11.909,6.953l-292.424,778.712c0,0 -89.193,-97.602 -89.193,-97.602c-2.629,-2.876 -6.592,-4.135 -10.398,-3.302c-3.807,0.833 -6.882,3.631 -8.07,7.343l-274.152,856.924c-0.188,0.587 -0.326,1.19 -0.412,1.801l-166.63,1180.38c-0.091,0.648 -0.124,1.303 -0.098,1.957l4.646,118.036l10.915,10.494c-0,-0 -10.686,-8.66 -10.686,-8.66c-0,0 10.687,8.663 10.687,8.663Zm10.761,-15.243l-4.455,-113.167c5.285,-37.438 161.228,-1142.11 166.362,-1178.48c0,0 228.721,-714.916 268.124,-838.08c-0,0 88.496,96.839 88.496,96.839c2.564,2.805 6.401,4.077 10.133,3.357c3.732,-0.72 6.821,-3.328 8.157,-6.886l280.172,-746.088c-0,-0 9.189,184.562 9.189,184.562c0.257,5.168 4.104,9.446 9.215,10.248c5.111,0.803 10.084,-2.09 11.913,-6.93l153.523,-406.341c-0,-0 12.084,133.287 12.084,133.287c0.456,5.033 4.305,9.096 9.306,9.823c5.001,0.728 9.848,-2.07 11.719,-6.764c0,-0 193.3,-484.873 193.3,-484.873c-0,-0 33.62,909.022 33.62,909.022c0.155,4.169 2.669,7.885 6.481,9.579c3.812,1.694 8.256,1.068 11.453,-1.612l102.273,-85.741c15.924,97.033 87.686,534.323 87.686,534.323c0.86,5.244 5.369,9.107 10.682,9.154c5.313,0.047 9.89,-3.736 10.843,-8.963l24.778,-135.877c0,-0 33.836,448.972 37.213,493.77c-0,0 -357.319,567.943 -357.319,567.943c0,-0 -1158.5,1070.06 -1158.5,1070.06c-0,-0 -22.069,4.098 -22.069,4.098l-14.379,-16.264Zm0.147,3.893c0.072,1.658 -0.24,3.341 -0.95,4.915c-1.765,3.917 -5.662,6.435 -9.958,6.435c-0,0 4.779,-4.42 7.947,-8.271l2.961,-3.079Z" style="fill:#fff4f4;"/></g></svg>