<?xml version="1.0" encoding="UTF-8" standalone="no"?><!DOCTYPE svg PUBLIC "-//W3C//DTD SVG 1.1//EN" "http://www.w3.org/Graphics/SVG/1.1/DTD/svg11.dtd"><svg width="100%" height="100%" viewBox="0 0 18750 18750" version="1.1" xmlns="http://www.w3.org/2000/svg" xmlns:xlink="http://www.w3.org/1999/xlink" xml:space="preserve" xmlns:serif="http://www.serif.com/" style="fill-rule:evenodd;clip-rule:evenodd;stroke-linejoin:round;stroke-miterlimit:2;"><rect id="Mark-transparent" serif:id="Mark transparent" x="0" y="0" width="18750" height="18750" style="fill:none;"/><g><path d="M9880,17163.2l-241.067,-39.645l-1724.82,-3329.91l-918.958,-3996.6l404.692,783.329l104.779,-4274.96l732.471,-2261.1l84.925,966.012l169.85,-3428.81l2738.8,3991.43l51.562,-407.937l624.309,3638.75l340.312,-626.288l-592.796,4399.33l-1398.39,3834.53l-375.667,751.888l-0,-0.013Z"/><path d="M7469.67,7731.67l34.954,-1426.23l732.471,-2261.1l84.925,966.013l169.85,-3428.81l2738.8,3991.43l51.562,-407.938l478.142,2786.83l-354.504,326.854l-416.059,-397.145l-699.737,1191.44l-1115.79,-2685.47l-1040.15,2099.2l-664.466,-755.075Z" style="fill:#3cccff;"/><path d="M9872.62,17208.1c19.688,3.237 39.188,-6.725 48.104,-24.571l375.663,-751.887c0.771,-1.542 1.454,-3.125 2.046,-4.746l1398.39,-3834.53c1.125,-3.079 1.913,-6.271 2.35,-9.517l592.792,-4399.33c2.933,-21.767 -10.096,-42.521 -30.967,-49.342c-20.875,-6.821 -43.646,2.233 -54.129,21.533l-277.658,510.975c-111.159,-647.895 -602.113,-3509.41 -602.113,-3509.41c-3.812,-22.221 -23.321,-38.304 -45.862,-37.804c-22.542,0.5 -41.321,17.425 -44.15,39.796l-36.563,289.258l-2671.12,-3892.8c-11.049,-16.104 -31.141,-23.362 -49.929,-18.041c-18.791,5.32 -32.091,22.033 -33.058,41.537c0,0 -87.708,1770.63 -137.071,2767.11l-26.904,-306.041c-1.896,-21.559 -18.712,-38.804 -40.217,-41.238c-21.508,-2.437 -41.754,10.609 -48.42,31.196l-732.471,2261.11c-1.354,4.175 -2.096,8.521 -2.204,12.909c-0,-0 -80.617,3289.17 -100.426,4097.28l-323.112,-625.421c-10.525,-20.375 -34.571,-29.737 -56.104,-21.842c-21.533,7.896 -33.825,30.58 -28.688,52.934l918.963,3996.6c0.858,3.729 2.183,7.337 3.942,10.733l1724.82,3329.91c6.608,12.758 18.85,21.645 33.029,23.979l241.067,39.646l0,0.008Zm-18.333,-95.267l-185.434,-30.496l-1711.67,-3304.52c-0,-0 -612.646,-2664.42 -836.784,-3639.21l239.017,462.642c9.542,18.467 30.383,28.125 50.642,23.462c20.258,-4.662 34.783,-22.458 35.291,-43.241l104.617,-4268.33l661.408,-2041.74l65.313,742.9c2.096,23.833 22.287,41.979 46.208,41.521c23.921,-0.459 43.404,-19.359 44.588,-43.254c-0,-0 131.745,-2659.61 163.175,-3294.1l2662.49,3880.22c10.688,15.58 29.888,22.934 48.25,18.484c18.359,-4.45 32.063,-19.784 34.434,-38.525l13.233,-104.704l572.617,3337.5c3.279,19.108 18.304,34.041 37.433,37.208c19.129,3.163 38.163,-6.137 47.417,-23.175l222.175,-408.867c-121.892,904.588 -540.242,4009.32 -559.092,4149.21l-1395.82,3827.46l-359.512,719.559l-0,-0.013Z" style="fill:#fff4f4;"/></g></svg>