<?xml version="1.0" encoding="UTF-8" standalone="no"?><!DOCTYPE svg PUBLIC "-//W3C//DTD SVG 1.1//EN" "http://www.w3.org/Graphics/SVG/1.1/DTD/svg11.dtd"><svg width="100%" height="100%" viewBox="0 0 4500 4500" version="1.1" xmlns="http://www.w3.org/2000/svg" xmlns:xlink="http://www.w3.org/1999/xlink" xml:space="preserve" xmlns:serif="http://www.serif.com/" style="fill-rule:evenodd;clip-rule:evenodd;stroke-linejoin:round;stroke-miterlimit:2;"><rect id="Mark-transparent" serif:id="Mark transparent" x="0" y="0" width="4500" height="4500" style="fill:none;"/><g><path d="M2371.2,4119.17l-57.856,-9.515l-413.957,-799.178l-220.55,-959.185l97.126,187.999l25.147,-1025.99l175.793,-542.665l20.382,231.843l40.764,-822.915l657.312,957.944l12.375,-97.905l149.834,873.3l81.675,-150.309l-142.271,1055.84l-335.614,920.286l-90.16,180.453Z"/><path d="M1792.72,1855.6l8.389,-342.296l175.793,-542.665l20.382,231.843l40.764,-822.915l657.312,957.944l12.375,-97.905l114.754,668.84l-85.081,78.445l-99.854,-95.315l-167.937,285.945l-267.79,-644.512l-249.635,503.809l-159.472,-181.218Z" style="fill:#f75656;"/><path d="M2369.43,4129.95c4.725,0.777 9.405,-1.614 11.545,-5.897l90.159,-180.453c0.185,-0.37 0.349,-0.75 0.491,-1.139l335.614,-920.286c0.27,-0.739 0.459,-1.505 0.564,-2.284c-0,0 142.27,-1055.84 142.27,-1055.84c0.704,-5.224 -2.423,-10.205 -7.432,-11.842c-5.01,-1.637 -10.475,0.536 -12.991,5.168c-0,-0 -66.638,122.634 -66.638,122.634c-26.678,-155.495 -144.507,-842.258 -144.507,-842.258c-0.915,-5.333 -5.597,-9.193 -11.007,-9.073c-5.41,0.12 -9.917,4.182 -10.596,9.551l-8.775,69.422c0,-0 -641.068,-934.271 -641.068,-934.271c-2.652,-3.865 -7.474,-5.607 -11.983,-4.33c-4.51,1.277 -7.702,5.288 -7.934,9.969c-0,0 -21.05,424.951 -32.897,664.106c-0,0 -6.457,-73.45 -6.457,-73.45c-0.455,-5.174 -4.491,-9.313 -9.652,-9.897c-5.162,-0.585 -10.021,2.546 -11.621,7.487l-175.793,542.666c-0.325,1.002 -0.503,2.045 -0.529,3.098c0,0 -19.348,789.401 -24.102,983.347c0,-0 -77.547,-150.101 -77.547,-150.101c-2.526,-4.89 -8.297,-7.137 -13.465,-5.242c-5.168,1.895 -8.118,7.339 -6.885,12.704l220.551,959.185c0.206,0.895 0.524,1.761 0.946,2.576l413.956,799.178c1.586,3.062 4.524,5.195 7.927,5.755l57.856,9.515Zm-4.4,-22.864l-44.504,-7.319c-0,-0 -410.8,-793.085 -410.8,-793.085c-0,0 -147.035,-639.461 -200.828,-873.41c-0,0 57.364,111.034 57.364,111.034c2.29,4.432 7.292,6.75 12.154,5.631c4.862,-1.119 8.348,-5.39 8.47,-10.378l25.108,-1024.4c0,0 158.738,-490.017 158.738,-490.017c0,0 15.675,178.296 15.675,178.296c0.503,5.72 5.349,10.075 11.09,9.965c5.741,-0.11 10.417,-4.646 10.701,-10.381c0,0 31.619,-638.307 39.162,-790.583c0,0 638.998,931.252 638.998,931.252c2.565,3.739 7.173,5.504 11.58,4.436c4.406,-1.068 7.695,-4.748 8.264,-9.246l3.176,-25.129c-0,0 137.428,801.001 137.428,801.001c0.787,4.586 4.393,8.17 8.984,8.93c4.591,0.759 9.159,-1.473 11.38,-5.562c0,0 53.322,-98.128 53.322,-98.128c-29.254,217.101 -129.658,962.236 -134.182,995.811c-0,0 -334.997,918.591 -334.997,918.591l-86.283,172.694Z" style="fill:#fff4f4;"/></g></svg>