<?xml version="1.0" encoding="UTF-8" standalone="no"?><!DOCTYPE svg PUBLIC "-//W3C//DTD SVG 1.1//EN" "http://www.w3.org/Graphics/SVG/1.1/DTD/svg11.dtd"><svg width="100%" height="100%" viewBox="0 0 18750 18750" version="1.1" xmlns="http://www.w3.org/2000/svg" xmlns:xlink="http://www.w3.org/1999/xlink" xml:space="preserve" xmlns:serif="http://www.serif.com/" style="fill-rule:evenodd;clip-rule:evenodd;stroke-linejoin:round;stroke-miterlimit:2;"><rect id="Mark-transparent" serif:id="Mark transparent" x="0" y="0" width="18750" height="18750" style="fill:none;"/><g><path d="M9640.38,17064l87.721,99.221l130.212,-24.179l4841.17,-4471.62l1500.03,-2384.23l-182.8,-2425.53l-166.783,914.604l-378.292,-2305.18l-487.358,408.575l-148.05,-4002.93l-885.213,2220.47l-68.233,-752.663l-709.696,1878.41l-49.2,-988.204l-1244.54,3314.16l-421.742,-461.496l-1142.3,3570.52l-694.287,4918.25l19.358,491.816l0.004,0.017l0,-0.004Z"/><path d="M11881.2,8539.88l1242.65,-3309.14l49.199,988.205l709.696,-1878.41l68.234,752.663l885.212,-2220.47l148.05,4002.93l487.359,-408.575l378.291,2305.18l166.784,-914.604l182.8,2425.53l-426.325,677.621l-228.255,17.913l-482.5,-1565.98l-906.904,239.188l-601.908,-1763.71l-1672.39,651.658Zm-4.77,1.858l-522.184,203.475l-45.262,-197.354l148.591,-464.458l418.855,458.337Z" style="fill:#3cccff;"/><path d="M9640.38,17109.5c-13.046,0 -25.462,-5.596 -34.1,-15.367l87.721,99.221c10.592,11.979 26.692,17.521 42.408,14.604l130.213,-24.183c8.441,-1.567 16.266,-5.488 22.575,-11.313l4841.17,-4471.62c2.938,-2.716 5.509,-5.808 7.642,-9.195l1500.03,-2384.23c5.192,-8.246 7.596,-17.941 6.863,-27.654l-182.796,-2425.53c-1.721,-22.829 -20.134,-40.825 -42.992,-42.029c-22.863,-1.205 -43.063,14.762 -47.171,37.283l-119.646,656.117l-335.741,-2045.89c-2.65,-16.142 -13.75,-29.617 -29.084,-35.304c-15.333,-5.688 -32.537,-2.713 -45.07,7.796l-416.071,348.812c-22.221,-600.762 -144.613,-3909.97 -144.613,-3909.97c-0.796,-21.495 -16.533,-39.5 -37.729,-43.166c-21.2,-3.663 -42.067,8.012 -50.033,27.996l-814.775,2043.79l-51.067,-563.241c-1.912,-21.125 -18.167,-38.125 -39.183,-40.988c-21.017,-2.862 -41.221,9.171 -48.721,29.008l-632.517,1674.14l-38.346,-770.112c-1.07,-21.546 -17.125,-39.384 -38.441,-42.709c-21.317,-3.325 -42.038,8.775 -49.621,28.971l-1218.43,3244.63l-371.637,-406.675c-10.954,-11.983 -27.467,-17.229 -43.325,-13.758c-15.863,3.471 -28.675,15.129 -33.625,30.596l-1142.3,3570.52c-0.783,2.445 -1.358,4.958 -1.717,7.504l-694.291,4918.25c-0.38,2.7 -0.517,5.429 -0.409,8.154l19.359,491.817l45.479,43.725l-44.525,-36.084l44.529,36.096l0,-0.004Zm44.837,-63.513l-18.562,-471.529c22.021,-155.991 671.783,-4758.79 693.175,-4910.33c0,-0 953.004,-2978.82 1117.18,-3492l368.734,403.496c10.683,11.687 26.67,16.987 42.22,13.987c15.55,-3 28.421,-13.866 33.988,-28.691l1167.38,-3108.7l38.288,769.008c1.071,21.533 17.1,39.358 38.396,42.7c21.295,3.346 42.016,-8.708 49.637,-28.875l639.679,-1693.09l50.35,555.362c1.9,20.971 17.938,37.9 38.775,40.929c20.838,3.034 41.034,-8.625 48.829,-28.183l805.417,-2020.3l140.084,3787.59c0.645,17.371 11.12,32.855 27.004,39.913c15.883,7.058 34.4,4.45 47.72,-6.717l426.138,-357.254c66.35,404.304 365.358,2226.35 365.358,2226.35c3.584,21.85 22.371,37.946 44.509,38.142c22.137,0.195 41.208,-15.567 45.179,-37.346l103.241,-566.154c0,-0 140.984,1870.72 155.055,2057.38l-1488.83,2366.43l-4827.08,4458.58l-91.954,17.075l-59.913,-67.767l0,0.004Zm0.613,16.221c0.3,6.909 -1,13.921 -3.958,20.48c-7.354,16.32 -23.592,26.812 -41.492,26.812c0,0 19.912,-18.417 33.112,-34.462l12.338,-12.83Z" style="fill:#fff4f4;"/></g></svg>