<?xml version="1.0" encoding="UTF-8" standalone="no"?><!DOCTYPE svg PUBLIC "-//W3C//DTD SVG 1.1//EN" "http://www.w3.org/Graphics/SVG/1.1/DTD/svg11.dtd"><svg width="100%" height="100%" viewBox="0 0 18750 18750" version="1.1" xmlns="http://www.w3.org/2000/svg" xmlns:xlink="http://www.w3.org/1999/xlink" xml:space="preserve" xmlns:serif="http://www.serif.com/" style="fill-rule:evenodd;clip-rule:evenodd;stroke-linejoin:round;stroke-miterlimit:2;"><rect id="Mark-transparent" serif:id="Mark transparent" x="0" y="0" width="18750" height="18750" style="fill:none;"/><g><path d="M9899.96,16972.3l-68.279,166.379l-178.167,24.537l-5358.12,-3781.37l-1741.8,-5235.79l576.005,891.471l280.912,-3105.13l881.467,-2540.14l236.954,587.642l1139.04,-1595.51l835.954,4546.54l2428.77,4398.46l967.254,5642.96l0.012,-0.05Z"/><path d="M3157.75,9962.04l-604.137,-1816.01l576.004,891.471l280.912,-3105.13l881.467,-2540.14l236.954,587.642l1139.04,-1595.51l835.954,4546.54l422.346,764.855l-141.692,293.208l-1101.42,-617.279l-416.596,1152.04l-995.884,-2123.88l-323.2,2972.51l138.517,952.046l-928.271,-362.362l0,-0.004Z" style="fill:#3cccff;"/><path d="M9947.42,16991.8l3.104,-28.125l-967.258,-5642.96l-5.65,-16.117l-2424.74,-4391.12l-834.442,-4538.33l-92.133,-20.513l-1084.74,1519.44l-201.999,-500.959l-95.967,2.363l-881.467,2540.14l-2.625,12.183l-267.512,2957.02c-158.53,-245.35 -495.3,-766.559 -495.3,-766.559l-91.692,43.996l1741.8,5235.83l19.083,25.7l5358.12,3781.37l36.55,8.9l178.163,-24.537l40.429,-31.321l68.279,-166.375l-0.012,-0.021Zm-100.429,-25.308l-51.492,125.471l-128.908,17.754l-5327.83,-3760l-1609,-4836.62l356.825,552.25l94.104,-23.2l280.351,-3098.88l834.579,-2405.02l185.812,460.825l89.263,10.612l1068.78,-1497.09l814.087,4427.58l5.538,15.508l2424.59,4390.88l963.304,5619.92l0.005,0.013Z" style="fill:#fff4f4;"/></g></svg>