<?xml version="1.0" encoding="UTF-8" standalone="no"?><!DOCTYPE svg PUBLIC "-//W3C//DTD SVG 1.1//EN" "http://www.w3.org/Graphics/SVG/1.1/DTD/svg11.dtd"><svg width="100%" height="100%" viewBox="0 0 5415 1359" version="1.1" xmlns="http://www.w3.org/2000/svg" xmlns:xlink="http://www.w3.org/1999/xlink" xml:space="preserve" xmlns:serif="http://www.serif.com/" style="fill-rule:evenodd;clip-rule:evenodd;stroke-linecap:round;stroke-linejoin:round;stroke-miterlimit:1.5;"><g><g><path d="M765.265,139.364l-48.906,0l0,10.007l52.526,0l15.313,42.322l-30.745,0l0,10.008l34.366,-0l54.413,150.385l71.715,0l0,61.546l-104.484,0l-0,10.007l58.659,0l1.853,5.121l-30.947,0l-0,10.007l34.568,0l95.961,265.215l34.145,0l0,61.547l-11.877,-0l38.558,106.566l-26.681,-0l0,61.546l48.95,-0l75.196,207.823l-287.493,-0l-66.712,-196.957l-416.15,0l-24.06,71.036l-65.848,-0l-0,10.007l62.458,-0l-39.261,115.914l-284.316,-0l8.734,-24.139l-15.2,-0l0,-61.546l122.668,-0l0,-10.008l-81.578,0l44.044,-121.73l-57.964,0l0,-10.007l61.585,0l69.687,-192.599l-13.526,-0l0,-61.547l35.795,0l7.932,-21.922l78.942,-0l-0,-10.008l-75.321,0l30.511,-84.324l47.463,0l0,-61.546l-25.195,0l164.866,-455.652l314.495,-0l40.861,112.928Zm-308.657,512.885l-67.925,0l-0,10.007l64.576,0l-24.29,72.588l274.787,-0l-138.188,-408.209l-108.96,325.614Z"/><path d="M2600.26,402.877c31.768,-48.71 71.477,-87.095 119.127,-115.156c47.651,-28.061 100.596,-42.092 158.836,-42.092l0,287.493l-74.653,0c-67.77,0 -118.597,14.56 -152.482,43.68c-33.885,29.12 -50.828,80.212 -50.828,153.277l0,411.385l-271.609,-0l0,-886.305l271.609,0l0,147.718Z" style="fill-rule:nonzero;"/><g><g><g><path d="M2384.87,255.197l-194.42,0" style="fill:none;stroke:#c9c9c9;stroke-width:4.03px;"/><path d="M2376.14,321.094l-187.719,-50.604" style="fill:none;stroke:#c9c9c9;stroke-width:4.03px;"/><path d="M2350.94,381.783l-168.372,-97.21" style="fill:none;stroke:#c9c9c9;stroke-width:4.03px;"/><path d="M2310.7,434.214l-137.476,-137.476" style="fill:none;stroke:#c9c9c9;stroke-width:4.03px;"/><path d="M2258.26,474.443l-97.21,-168.373" style="fill:none;stroke:#c9c9c9;stroke-width:4.03px;"/><path d="M2197.19,499.729l-50.32,-187.796" style="fill:none;stroke:#c9c9c9;stroke-width:4.03px;"/><path d="M2131.66,508.348l-0,-194.42" style="fill:none;stroke:#c9c9c9;stroke-width:4.03px;"/></g><g><path d="M2131.69,2.017l-0,194.42" style="fill:none;stroke:#c9c9c9;stroke-width:4.03px;"/><path d="M2197.59,10.751l-50.603,187.719" style="fill:none;stroke:#c9c9c9;stroke-width:4.03px;"/><path d="M2258.28,35.951l-97.21,168.373" style="fill:none;stroke:#c9c9c9;stroke-width:4.03px;"/><path d="M2310.71,76.193l-137.475,137.475" style="fill:none;stroke:#c9c9c9;stroke-width:4.03px;"/><path d="M2350.94,128.633l-168.372,97.21" style="fill:none;stroke:#c9c9c9;stroke-width:4.03px;"/><path d="M2376.22,189.698l-187.795,50.32" style="fill:none;stroke:#c9c9c9;stroke-width:4.03px;"/><path d="M2384.84,255.227l-194.42,-0" style="fill:none;stroke:#c9c9c9;stroke-width:4.03px;"/></g><g><path d="M1878.51,255.197l194.42,0" style="fill:none;stroke:#c9c9c9;stroke-width:4.03px;"/><path d="M1887.24,189.3l187.719,50.604" style="fill:none;stroke:#c9c9c9;stroke-width:4.03px;"/><path d="M1912.44,128.611l168.372,97.21" style="fill:none;stroke:#c9c9c9;stroke-width:4.03px;"/><path d="M1952.69,76.18l137.476,137.476" style="fill:none;stroke:#c9c9c9;stroke-width:4.03px;"/><path d="M2005.13,35.951l97.21,168.373" style="fill:none;stroke:#c9c9c9;stroke-width:4.03px;"/><path d="M2066.19,10.666l50.32,187.795" style="fill:none;stroke:#c9c9c9;stroke-width:4.03px;"/><path d="M2131.72,2.046l0,194.421" style="fill:none;stroke:#c9c9c9;stroke-width:4.03px;"/></g></g><path d="M1196.15,696.723c-0,-91.066 17.207,-171.013 51.622,-239.842c34.414,-68.829 81.271,-121.774 140.569,-158.836c59.299,-37.062 125.481,-55.593 198.545,-55.593c62.476,0 117.274,12.707 164.395,38.121c47.122,25.414 83.389,58.769 108.803,100.067l0,-125.481l271.61,0l-0,886.305l-271.61,-0l0,-125.481c-26.473,41.298 -63.27,74.653 -110.391,100.067c-47.121,25.414 -101.92,38.121 -164.395,38.121c-72.006,-0 -137.658,-18.796 -196.957,-56.387c-59.298,-37.591 -106.155,-91.066 -140.569,-160.424c-34.415,-69.359 -51.622,-149.571 -51.622,-240.637Zm663.934,1.589c0,-67.77 -18.795,-121.245 -56.387,-160.425c-37.591,-39.179 -83.389,-58.769 -137.393,-58.769c-54.004,-0 -99.802,19.325 -137.393,57.975c-37.591,38.65 -56.387,91.86 -56.387,159.63c0,67.77 18.796,121.51 56.387,161.219c37.591,39.709 83.389,59.563 137.393,59.563c54.004,0 99.802,-19.59 137.393,-58.769c37.592,-39.18 56.387,-92.655 56.387,-160.424Z" style="fill-rule:nonzero;"/></g><g><g><path d="M3777.05,492.871c9.434,17.662 17.403,36.223 23.746,55.525l-261.973,453.749c-19.45,4.056 -39.482,6.503 -59.955,7.194l298.182,-516.468Zm-48.917,-69.724c11.638,12.936 22.33,26.738 31.963,41.29l-314.357,544.482c-17.645,-1.046 -34.942,-3.397 -51.788,-6.953l334.182,-578.819Zm-58.936,-52.374c13.361,9.433 26.036,19.774 37.94,30.939l-342.252,592.797c-15.732,-4.766 -31,-10.607 -45.731,-17.443l350.043,-606.293Zm142.086,217.258c4.588,22.654 6.994,46.072 6.994,70.048c0,5.043 -0.106,10.062 -0.317,15.039l-162.528,281.507c-23.883,15.232 -49.725,27.658 -77.055,36.812l232.906,-403.406Zm-211.516,-255.359c15.031,6.155 29.543,13.321 43.441,21.41l-351.467,608.759c-14.047,-8.092 -27.483,-17.127 -40.208,-27.009l348.234,-603.16Zm-76.718,-21.573c16.797,2.706 33.197,6.605 49.104,11.602l-343.046,594.173c-12.39,-11.388 -23.961,-23.653 -34.616,-36.696l328.558,-569.079Zm282.309,441.647l-87.011,150.709c40.577,-41.597 70.933,-93.184 87.011,-150.709Zm-369.68,-444.768c10.254,-0.902 20.641,-1.363 31.135,-1.363c8.38,-0 16.692,0.294 24.949,0.874l-316.072,547.454c-10.455,-15.424 -19.717,-31.719 -27.654,-48.755l287.642,-498.21Zm-36.325,5.117l-265.043,459.067c-7.569,-22.042 -13.007,-45.065 -16.067,-68.823l213.499,-369.791c21.536,-8.985 44.159,-15.887 67.611,-20.453Zm-114.881,44.526c-99.331,60.453 -166.381,168.754 -169.04,292.785l169.04,-292.785Z"/><path d="M3734.81,531.897c9.434,17.661 17.403,36.223 23.746,55.524l-261.973,453.749c-19.45,4.057 -39.482,6.503 -59.955,7.194l298.182,-516.467Zm-48.917,-69.725c11.638,12.936 22.33,26.738 31.963,41.29l-314.357,544.482c-17.645,-1.046 -34.942,-3.396 -51.788,-6.953l334.182,-578.819Zm-58.936,-52.373c13.361,9.432 26.036,19.773 37.94,30.938l-342.252,592.797c-15.733,-4.766 -31,-10.607 -45.731,-17.443l350.043,-606.292Zm142.086,217.257c4.588,22.654 6.994,46.072 6.994,70.048c0,5.043 -0.106,10.062 -0.317,15.04l-162.528,281.507c-23.883,15.231 -49.725,27.657 -77.055,36.811l232.906,-403.406Zm-211.516,-255.359c15.031,6.155 29.543,13.321 43.441,21.41l-351.467,608.759c-14.047,-8.092 -27.484,-17.127 -40.208,-27.009l348.234,-603.16Zm-76.718,-21.573c16.797,2.706 33.196,6.605 49.104,11.602l-343.046,594.174c-12.39,-11.389 -23.961,-23.654 -34.616,-36.697l328.558,-569.079Zm282.309,441.647l-87.012,150.709c40.577,-41.597 70.934,-93.184 87.012,-150.709Zm-369.68,-444.768c10.254,-0.902 20.641,-1.363 31.135,-1.363c8.38,0 16.692,0.294 24.949,0.874l-316.072,547.454c-10.455,-15.424 -19.717,-31.719 -27.654,-48.755l287.642,-498.21Zm-36.326,5.117l-265.042,459.067c-7.569,-22.042 -13.007,-45.065 -16.067,-68.823l213.499,-369.791c21.536,-8.985 44.158,-15.887 67.61,-20.453Zm-114.88,44.526c-99.331,60.453 -166.381,168.755 -169.04,292.785l169.04,-292.785Z" style="fill:#c9c9c9;"/></g><path d="M3411.91,1154.17c-86.83,-0 -164.925,-18.531 -234.283,-55.593c-69.358,-37.062 -123.892,-90.007 -163.601,-158.836c-39.709,-68.829 -59.563,-149.306 -59.563,-241.43c-0,-91.066 20.119,-171.279 60.357,-240.637c40.239,-69.358 95.302,-122.568 165.19,-159.63c69.887,-37.062 148.246,-55.593 235.077,-55.593c86.83,0 165.189,18.531 235.077,55.593c69.888,37.062 124.951,90.272 165.189,159.63c40.239,69.358 60.358,149.571 60.358,240.637c-0,91.065 -20.384,171.278 -61.152,240.636c-40.768,69.358 -96.36,122.568 -166.778,159.63c-70.417,37.062 -149.041,55.593 -235.871,55.593Zm-0,-235.078c51.886,0 96.096,-19.06 132.628,-57.181c36.532,-38.12 54.798,-92.654 54.798,-163.6c0,-70.947 -17.736,-125.481 -53.21,-163.601c-35.473,-38.121 -79.153,-57.181 -131.039,-57.181c-52.946,-0 -96.89,18.795 -131.834,56.386c-34.944,37.591 -52.416,92.39 -52.416,164.396c0,70.946 17.207,125.48 51.622,163.6c34.414,38.121 77.565,57.181 129.451,57.181Z" style="fill:#fff;fill-rule:nonzero;"/></g><g><path d="M4560.29,245.629c103.772,0 186.632,33.62 248.578,100.861c61.946,67.24 92.919,159.63 92.919,277.169l-0,517.805l-270.021,-0l-0,-481.273c-0,-59.299 -15.354,-105.361 -46.063,-138.187c-30.708,-32.826 -72.005,-49.239 -123.892,-49.239c-51.886,-0 -93.183,16.413 -123.892,49.239c-30.708,32.826 -46.062,78.888 -46.062,138.187l-0,481.273l-271.609,-0l-0,-886.305l271.609,0l-0,117.539c27.532,-39.18 64.593,-70.153 111.185,-92.919c46.592,-22.767 99.008,-34.15 157.248,-34.15Z" style="fill:#fcfcfa;fill-rule:nonzero;"/><g><path d="M4785.24,865.788l78.048,97.422c-17.265,21.551 -78.048,97.422 -78.048,97.422c-2.496,3.116 -2.65,7.502 -0.377,10.786c-0,-0 62.646,90.509 78.805,113.855c0,-0 -78.517,101.304 -78.517,101.304c-3.054,3.939 -2.334,9.616 1.605,12.67c3.939,3.053 9.617,2.333 12.67,-1.606l82.571,-106.534c2.413,-3.114 2.53,-7.433 0.288,-10.672l-78.741,-113.763c16.825,-21.002 78.363,-97.816 78.363,-97.816c2.644,-3.3 2.644,-7.992 0,-11.292l-82.571,-103.068c-3.116,-3.89 -8.804,-4.518 -12.694,-1.402c-3.89,3.116 -4.518,8.804 -1.402,12.694Z" style="fill:#c9c9c9;"/><path d="M4836.98,865.788c0,0 60.783,75.871 78.048,97.422c0,0 -78.048,97.422 -78.048,97.422c-2.496,3.116 -2.65,7.502 -0.377,10.786l78.805,113.855c-16.601,21.418 -78.518,101.304 -78.518,101.304c-3.053,3.939 -2.334,9.616 1.606,12.67c3.939,3.053 9.616,2.333 12.67,-1.606l82.571,-106.534c2.413,-3.114 2.53,-7.433 0.288,-10.672c-0,0 -62.482,-90.271 -78.742,-113.763c0,0 78.364,-97.816 78.364,-97.816c2.644,-3.3 2.644,-7.992 0,-11.292l-82.571,-103.068c-3.116,-3.89 -8.804,-4.518 -12.694,-1.402c-3.89,3.116 -4.518,8.804 -1.402,12.694Z" style="fill:#c9c9c9;"/><path d="M4884.09,865.788c0,0 60.783,75.871 78.048,97.422c0,0 -78.048,97.422 -78.048,97.422c-2.496,3.116 -2.65,7.502 -0.377,10.786c-0,-0 62.646,90.509 78.805,113.855c-0,-0 -78.518,101.304 -78.518,101.304c-3.053,3.939 -2.334,9.616 1.606,12.67c3.939,3.053 9.616,2.333 12.67,-1.606l82.571,-106.534c2.413,-3.114 2.53,-7.433 0.288,-10.672c-0,0 -62.482,-90.271 -78.742,-113.763c0,0 78.364,-97.816 78.364,-97.816c2.644,-3.3 2.644,-7.992 0,-11.292l-82.571,-103.068c-3.116,-3.89 -8.804,-4.518 -12.694,-1.402c-3.89,3.116 -4.518,8.804 -1.402,12.694Z" style="fill:#c9c9c9;"/></g></g><g><path d="M5254.24,1133.81c-47.651,0 -86.566,-14.03 -116.745,-42.091c-30.178,-28.061 -45.268,-62.74 -45.268,-104.038c0,-42.356 15.09,-77.829 45.268,-106.42c30.179,-28.59 69.094,-42.885 116.745,-42.885c46.592,-0 84.977,14.295 115.156,42.885c30.179,28.591 45.268,64.064 45.268,106.42c0,41.298 -15.089,75.977 -45.268,104.038c-30.179,28.061 -68.564,42.091 -115.156,42.091Z" style="fill:#c9c9c9;fill-rule:nonzero;"/><path d="M5217.87,1154.17c-47.65,-0 -86.565,-14.031 -116.744,-42.092c-30.179,-28.061 -45.268,-62.74 -45.268,-104.037c-0,-42.357 15.089,-77.83 45.268,-106.421c30.179,-28.59 69.094,-42.885 116.744,-42.885c46.592,-0 84.978,14.295 115.156,42.885c30.179,28.591 45.269,64.064 45.269,106.421c-0,41.297 -15.09,75.976 -45.269,104.037c-30.178,28.061 -68.564,42.092 -115.156,42.092Z" style="fill:#fcfcfa;fill-rule:nonzero;"/></g><g><path d="M2275.98,1246.55c-0,0 24.775,-24.807 46.459,-46.519c18.307,-18.33 43.039,-14.262 58.103,9.556c-0,0 -0,0 0,0c15.123,23.913 39.97,27.94 58.309,9.451c1.451,-1.463 2.9,-2.924 4.334,-4.37c15.71,-15.838 36.396,-16.299 52.428,-1.169c7.057,6.66 14.802,13.969 22.276,21.023c21.626,20.41 49.674,18.88 70.201,-3.828c3.778,-4.18 7.624,-8.435 11.398,-12.61c20.349,-22.512 48.112,-24.227 69.688,-4.307c11.222,10.362 23.519,21.715 34.429,31.788c18.841,17.396 43.221,14.93 60.243,-6.093c0.001,-0.001 0.001,-0.001 0.001,-0.001c19.458,-24.031 47.909,-24.171 67.478,-0.332c0.077,0.094 0.155,0.189 0.232,0.283c17.916,21.825 43.59,23.5 62.765,4.095c18.207,-18.428 37.302,-37.753 37.302,-37.753" style="fill:none;stroke:#c9c9c9;stroke-width:31.86px;"/><path d="M2297.82,1332.47c-0,0 24.775,-24.806 46.459,-46.518c18.307,-18.331 43.039,-14.263 58.103,9.555c-0,0 -0,0 0,0.001c15.123,23.912 39.97,27.94 58.309,9.45c1.451,-1.463 2.9,-2.924 4.334,-4.37c15.71,-15.838 36.396,-16.299 52.428,-1.168c7.057,6.659 14.802,13.968 22.276,21.022c21.626,20.41 49.674,18.881 70.201,-3.828c3.778,-4.18 7.624,-8.435 11.398,-12.61c20.349,-22.512 48.112,-24.227 69.688,-4.306c11.222,10.361 23.519,21.714 34.429,31.788c18.841,17.395 43.221,14.929 60.243,-6.094c0,-0 0.001,-0 0.001,-0c19.457,-24.032 47.909,-24.172 67.477,-0.333c0.078,0.094 0.156,0.189 0.233,0.283c17.916,21.826 43.59,23.501 62.764,4.095c18.208,-18.428 37.303,-37.753 37.303,-37.753" style="fill:none;stroke:#000;stroke-width:31.86px;"/></g></g></g></svg>