<?xml version="1.0" encoding="UTF-8" standalone="no"?><!DOCTYPE svg PUBLIC "-//W3C//DTD SVG 1.1//EN" "http://www.w3.org/Graphics/SVG/1.1/DTD/svg11.dtd"><svg width="100%" height="100%" viewBox="0 0 3723 935" version="1.1" xmlns="http://www.w3.org/2000/svg" xmlns:xlink="http://www.w3.org/1999/xlink" xml:space="preserve" xmlns:serif="http://www.serif.com/" style="fill-rule:evenodd;clip-rule:evenodd;stroke-linecap:round;stroke-linejoin:round;stroke-miterlimit:1.5;"><g><g><g><path d="M526.107,96.441l-33.621,-0l-0,6.88l36.111,-0l10.527,29.095l-21.137,0l0,6.88l23.626,0l37.408,103.388l49.303,-0l0,42.312l-71.831,-0l0,6.88l40.327,-0l1.274,3.52l-21.276,0l0,6.88l23.765,-0l65.972,182.331l23.474,0l0,42.312l-8.165,0l26.508,73.263l-18.343,-0l0,42.312l33.653,-0l51.695,142.875l-197.646,-0l-45.863,-135.405l-286.097,0l-16.541,48.836l-45.27,-0l0,6.88l42.94,-0l-26.992,79.689l-195.463,-0l6.005,-16.595l-10.45,-0l-0,-42.313l84.333,0l-0,-6.879l-56.085,-0l30.281,-83.688l-39.85,0l-0,-6.88l42.339,0l47.909,-132.409l-9.299,0l-0,-42.312l24.608,0l5.453,-15.071l54.271,-0l0,-6.88l-51.781,-0l20.975,-57.972l32.631,0l-0,-42.312l-17.321,0l113.342,-313.254l216.211,0l28.09,77.637Zm-212.196,352.6l-46.698,0l0,6.88l44.396,0l-16.699,49.903l188.911,-0l-95.002,-280.637l-74.908,223.854Z" style="fill:#fff;"/><path d="M1787.63,277.602c21.84,-33.487 49.139,-59.877 81.898,-79.168c32.76,-19.292 69.159,-28.938 109.198,-28.938l-0,197.647l-51.323,0c-46.591,0 -81.534,10.01 -104.829,30.03c-23.296,20.019 -34.944,55.144 -34.944,105.375l0,282.821l-186.727,-0l0,-609.321l186.727,0l0,101.554Z" style="fill:#fff;fill-rule:nonzero;"/><g><g><g><path d="M1639.56,176.074l-133.66,0" style="fill:none;stroke:#c9c9c9;stroke-width:4.03px;"/><path d="M1633.56,221.377l-129.054,-34.789" style="fill:none;stroke:#c9c9c9;stroke-width:4.03px;"/><path d="M1616.23,263.1l-115.754,-66.83" style="fill:none;stroke:#c9c9c9;stroke-width:4.03px;"/><path d="M1588.57,299.146l-94.513,-94.513" style="fill:none;stroke:#c9c9c9;stroke-width:4.03px;"/><path d="M1552.52,326.802l-66.831,-115.753" style="fill:none;stroke:#c9c9c9;stroke-width:4.03px;"/><path d="M1510.53,344.186l-34.594,-129.107" style="fill:none;stroke:#c9c9c9;stroke-width:4.03px;"/><path d="M1465.48,350.111l0,-133.66" style="fill:none;stroke:#c9c9c9;stroke-width:4.03px;"/></g><g><path d="M1465.5,2.017l-0,133.66" style="fill:none;stroke:#c9c9c9;stroke-width:4.03px;"/><path d="M1510.81,8.021l-34.789,129.054" style="fill:none;stroke:#c9c9c9;stroke-width:4.03px;"/><path d="M1552.53,25.346l-66.831,115.754" style="fill:none;stroke:#c9c9c9;stroke-width:4.03px;"/><path d="M1588.58,53.011l-94.512,94.513" style="fill:none;stroke:#c9c9c9;stroke-width:4.03px;"/><path d="M1616.23,89.063l-115.754,66.831" style="fill:none;stroke:#c9c9c9;stroke-width:4.03px;"/><path d="M1633.62,131.045l-129.106,34.594" style="fill:none;stroke:#c9c9c9;stroke-width:4.03px;"/><path d="M1639.54,176.095l-133.661,-0" style="fill:none;stroke:#c9c9c9;stroke-width:4.03px;"/></g><g><path d="M1291.45,176.074l133.661,0" style="fill:none;stroke:#c9c9c9;stroke-width:4.03px;"/><path d="M1297.45,130.771l129.054,34.79" style="fill:none;stroke:#c9c9c9;stroke-width:4.03px;"/><path d="M1314.78,89.048l115.753,66.831" style="fill:none;stroke:#c9c9c9;stroke-width:4.03px;"/><path d="M1342.44,53.003l94.512,94.512" style="fill:none;stroke:#c9c9c9;stroke-width:4.03px;"/><path d="M1378.49,25.346l66.83,115.754" style="fill:none;stroke:#c9c9c9;stroke-width:4.03px;"/><path d="M1420.47,7.963l34.594,129.106" style="fill:none;stroke:#c9c9c9;stroke-width:4.03px;"/><path d="M1465.52,2.037l0,133.661" style="fill:none;stroke:#c9c9c9;stroke-width:4.03px;"/></g></g><path d="M822.332,479.616c0,-62.606 11.83,-117.569 35.489,-164.887c23.66,-47.319 55.873,-83.718 96.64,-109.198c40.767,-25.479 86.266,-38.219 136.496,-38.219c42.951,0 80.624,8.736 113.019,26.208c32.396,17.471 57.329,40.403 74.801,68.794l-0,-86.266l186.727,0l-0,609.321l-186.727,-0l-0,-86.266c-18.2,28.391 -43.497,51.323 -75.893,68.794c-32.395,17.472 -70.068,26.207 -113.019,26.207c-49.502,0 -94.637,-12.921 -135.404,-38.765c-40.767,-25.843 -72.98,-62.606 -96.64,-110.289c-23.659,-47.683 -35.489,-102.827 -35.489,-165.434Zm456.445,1.092c-0,-46.59 -12.922,-83.353 -38.765,-110.289c-25.844,-26.935 -57.329,-40.403 -94.456,-40.403c-37.127,0 -68.612,13.286 -94.456,39.857c-25.843,26.572 -38.765,63.153 -38.765,109.743c0,46.591 12.922,83.536 38.765,110.836c25.844,27.299 57.329,40.949 94.456,40.949c37.127,-0 68.612,-13.468 94.456,-40.403c25.843,-26.936 38.765,-63.699 38.765,-110.29Z" style="fill:#fff;fill-rule:nonzero;"/></g><g><g><path d="M2596.66,339.472c6.485,12.142 11.964,24.902 16.324,38.172l-180.102,311.945c-13.371,2.789 -27.143,4.471 -41.218,4.946l204.996,-355.063Zm-33.63,-47.935c8.001,8.893 15.352,18.382 21.974,28.386l-216.116,374.323c-12.13,-0.719 -24.022,-2.335 -35.603,-4.78l229.745,-397.929Zm-40.518,-36.006c9.186,6.485 17.899,13.594 26.083,21.27l-235.292,407.539c-10.816,-3.277 -21.313,-7.293 -31.44,-11.993l240.649,-416.816Zm97.682,149.361c3.155,15.574 4.809,31.674 4.809,48.157c-0,3.467 -0.074,6.918 -0.218,10.34l-111.736,193.531c-16.419,10.471 -34.185,19.014 -52.974,25.308l160.119,-277.336Zm-145.414,-175.555c10.334,4.231 20.311,9.158 29.866,14.719l-241.629,418.513c-9.657,-5.564 -18.894,-11.775 -27.642,-18.569l239.405,-414.663Zm-52.742,-14.831c11.547,1.86 22.822,4.541 33.758,7.976l-235.839,408.485c-8.518,-7.829 -16.472,-16.261 -23.797,-25.228l225.878,-391.233Zm194.083,303.625l-59.819,103.61c27.896,-28.597 48.765,-64.062 59.819,-103.61Zm-254.15,-305.771c7.05,-0.62 14.191,-0.937 21.406,-0.937c5.761,0 11.475,0.202 17.152,0.601l-217.295,376.366c-7.188,-10.603 -13.555,-21.806 -19.012,-33.518l197.749,-342.512Zm-24.973,3.518l-182.212,315.601c-5.204,-15.153 -8.942,-30.981 -11.046,-47.315l146.777,-254.225c14.806,-6.177 30.359,-10.922 46.481,-14.061Zm-78.978,30.611c-68.288,41.56 -114.385,116.016 -116.212,201.285l116.212,-201.285Z"/><path d="M2567.62,366.301c6.485,12.142 11.964,24.903 16.325,38.172l-180.102,311.945c-13.372,2.789 -27.144,4.471 -41.219,4.946l204.996,-355.063Zm-33.63,-47.935c8.001,8.893 15.352,18.382 21.974,28.386l-216.115,374.324c-12.131,-0.72 -24.022,-2.336 -35.604,-4.78l229.745,-397.93Zm-40.517,-36.006c9.185,6.485 17.899,13.594 26.083,21.27l-235.293,407.539c-10.816,-3.277 -21.312,-7.293 -31.439,-11.992l240.649,-416.817Zm97.682,149.362c3.154,15.574 4.808,31.673 4.808,48.156c-0,3.467 -0.073,6.918 -0.218,10.34l-111.736,193.531c-16.419,10.472 -34.185,19.014 -52.974,25.308l160.12,-277.335Zm-145.414,-175.556c10.333,4.232 20.31,9.158 29.865,14.719l-241.629,418.513c-9.657,-5.563 -18.894,-11.775 -27.642,-18.569l239.406,-414.663Zm-52.743,-14.831c11.548,1.861 22.822,4.541 33.758,7.976l-235.839,408.485c-8.517,-7.829 -16.472,-16.261 -23.797,-25.228l225.878,-391.233Zm194.083,303.626l-59.819,103.609c27.896,-28.597 48.765,-64.062 59.819,-103.609Zm-254.149,-305.771c7.049,-0.621 14.19,-0.938 21.405,-0.938c5.761,0 11.475,0.202 17.152,0.601l-217.295,376.366c-7.188,-10.603 -13.555,-21.806 -19.011,-33.518l197.749,-342.511Zm-24.973,3.517l-182.213,315.601c-5.204,-15.153 -8.942,-30.981 -11.046,-47.314l146.777,-254.226c14.806,-6.176 30.359,-10.922 46.482,-14.061Zm-78.979,30.611c-68.288,41.561 -114.384,116.016 -116.212,201.286l116.212,-201.286Z" style="fill:#c9c9c9;"/></g><path d="M2345.63,794.104c-59.694,0 -113.383,-12.739 -161.066,-38.219c-47.682,-25.479 -85.174,-61.878 -112.473,-109.197c-27.299,-47.319 -40.949,-102.645 -40.949,-165.98c0,-62.606 13.832,-117.751 41.495,-165.433c27.663,-47.683 65.518,-84.264 113.565,-109.744c48.047,-25.479 101.918,-38.219 161.612,-38.219c59.695,0 113.565,12.74 161.612,38.219c48.047,25.48 85.902,62.061 113.565,109.744c27.663,47.682 41.495,102.827 41.495,165.433c-0,62.607 -14.014,117.751 -42.041,165.434c-28.027,47.683 -66.246,84.264 -114.657,109.743c-48.411,25.48 -102.463,38.219 -162.158,38.219Zm0,-161.611c35.671,-0 66.064,-13.104 91.18,-39.311c25.115,-26.208 37.673,-63.699 37.673,-112.474c-0,-48.774 -12.194,-86.265 -36.581,-112.473c-24.388,-26.207 -54.417,-39.311 -90.088,-39.311c-36.399,0 -66.61,12.922 -90.634,38.765c-24.023,25.844 -36.035,63.517 -36.035,113.019c0,48.775 11.83,86.266 35.489,112.474c23.66,26.207 53.325,39.311 88.996,39.311Z" style="fill:#fff;fill-rule:nonzero;"/></g><g><path d="M3135.13,169.496c71.342,0 128.307,23.114 170.894,69.341c42.586,46.226 63.88,109.743 63.88,190.549l-0,355.983l-185.635,-0l-0,-330.868c-0,-40.767 -10.556,-72.434 -31.668,-95.001c-21.111,-22.568 -49.502,-33.852 -85.173,-33.852c-35.671,0 -64.063,11.284 -85.174,33.852c-21.112,22.567 -31.667,54.234 -31.667,95.001l-0,330.868l-186.728,-0l0,-609.321l186.728,0l-0,80.806c18.927,-26.935 44.407,-48.229 76.438,-63.88c32.031,-15.652 68.066,-23.478 108.105,-23.478Z" style="fill:#fff;fill-rule:nonzero;"/><g><path d="M3289.78,595.846l53.656,66.976c-11.869,14.816 -53.656,66.976 -53.656,66.976c-1.717,2.143 -1.822,5.158 -0.26,7.415c0,0 43.068,62.224 54.177,78.274c0,-0 -53.979,69.645 -53.979,69.645c-2.099,2.708 -1.605,6.611 1.104,8.71c2.708,2.099 6.611,1.604 8.71,-1.104l56.766,-73.241c1.66,-2.14 1.74,-5.109 0.198,-7.336l-54.133,-78.21c11.567,-14.439 53.874,-67.247 53.874,-67.247c1.817,-2.269 1.817,-5.495 -0,-7.764l-56.767,-70.857c-2.142,-2.674 -6.053,-3.106 -8.727,-0.964c-2.674,2.142 -3.106,6.053 -0.963,8.727Z" style="fill:#c9c9c9;"/><path d="M3325.35,595.846c0,0 41.787,52.16 53.657,66.976c-0,0 -53.657,66.976 -53.657,66.976c-1.716,2.143 -1.822,5.158 -0.26,7.415l54.178,78.274c-11.413,14.725 -53.98,69.645 -53.98,69.645c-2.099,2.708 -1.604,6.611 1.104,8.71c2.708,2.099 6.611,1.604 8.71,-1.104l56.767,-73.241c1.659,-2.14 1.739,-5.109 0.198,-7.336c-0,-0 -42.956,-62.06 -54.134,-78.21c0,-0 53.874,-67.247 53.874,-67.247c1.817,-2.269 1.817,-5.495 -0,-7.764l-56.767,-70.857c-2.142,-2.674 -6.052,-3.106 -8.726,-0.964c-2.675,2.142 -3.106,6.053 -0.964,8.727Z" style="fill:#c9c9c9;"/><path d="M3357.73,595.846c0,0 41.788,52.16 53.657,66.976c0,0 -53.657,66.976 -53.657,66.976c-1.716,2.143 -1.822,5.158 -0.259,7.415c-0,0 43.068,62.224 54.177,78.274c0,-0 -53.979,69.645 -53.979,69.645c-2.1,2.708 -1.605,6.611 1.103,8.71c2.708,2.099 6.611,1.604 8.711,-1.104l56.766,-73.241c1.659,-2.14 1.739,-5.109 0.198,-7.336c-0,-0 -42.955,-62.06 -54.134,-78.21c0,-0 53.874,-67.247 53.874,-67.247c1.818,-2.269 1.818,-5.495 0,-7.764l-56.766,-70.857c-2.143,-2.674 -6.053,-3.106 -8.727,-0.964c-2.674,2.142 -3.106,6.053 -0.964,8.727Z" style="fill:#c9c9c9;"/></g></g><g><path d="M3612.2,780.104c-32.759,0 -59.512,-9.645 -80.26,-28.937c-20.747,-19.291 -31.121,-43.133 -31.121,-71.524c0,-29.119 10.374,-53.507 31.121,-73.162c20.748,-19.656 47.501,-29.483 80.26,-29.483c32.031,-0 58.421,9.827 79.168,29.483c20.748,19.655 31.121,44.043 31.121,73.162c0,28.391 -10.373,52.233 -31.121,71.524c-20.747,19.292 -47.137,28.937 -79.168,28.937Z" style="fill:#c9c9c9;fill-rule:nonzero;"/><path d="M3587.2,794.104c-32.759,0 -59.512,-9.645 -80.26,-28.937c-20.747,-19.291 -31.121,-43.133 -31.121,-71.524c0,-29.119 10.374,-53.507 31.121,-73.162c20.748,-19.656 47.501,-29.483 80.26,-29.483c32.031,-0 58.421,9.827 79.168,29.483c20.748,19.655 31.121,44.043 31.121,73.162c0,28.391 -10.373,52.233 -31.121,71.524c-20.747,19.292 -47.137,28.937 -79.168,28.937Z" style="fill:#fff;fill-rule:nonzero;"/></g><g><path d="M1564.7,857.612c0,-0 17.033,-17.054 31.94,-31.981c12.586,-12.602 29.589,-9.806 39.945,6.569c-0,0 -0,0 -0,0c10.397,16.44 27.479,19.209 40.086,6.498c0.998,-1.006 1.994,-2.011 2.98,-3.005c10.8,-10.888 25.022,-11.205 36.044,-0.803c4.851,4.578 10.175,9.603 15.314,14.452c14.868,14.032 34.15,12.981 48.262,-2.631c2.597,-2.874 5.242,-5.799 7.836,-8.669c13.99,-15.477 33.076,-16.656 47.909,-2.961c7.715,7.123 16.169,14.929 23.67,21.854c12.952,11.959 29.713,10.264 41.416,-4.19c0,0 0,0 0,0c13.377,-16.521 32.937,-16.617 46.39,-0.228c0.053,0.064 0.107,0.129 0.16,0.194c12.317,15.005 29.968,16.157 43.15,2.815c12.517,-12.668 25.644,-25.954 25.644,-25.954" style="fill:none;stroke:#c9c9c9;stroke-width:21.9px;"/><path d="M1579.72,916.681c0,0 17.033,-17.054 31.94,-31.981c12.586,-12.601 29.589,-9.805 39.945,6.57c0,-0 0,-0 0,-0c10.397,16.44 27.479,19.208 40.087,6.497c0.997,-1.006 1.994,-2.01 2.98,-3.004c10.8,-10.889 25.021,-11.206 36.043,-0.804c4.851,4.579 10.176,9.604 15.314,14.453c14.868,14.032 34.15,12.98 48.262,-2.631c2.598,-2.874 5.242,-5.8 7.836,-8.67c13.99,-15.476 33.076,-16.656 47.91,-2.96c7.715,7.123 16.168,14.928 23.669,21.853c12.953,11.959 29.714,10.264 41.416,-4.189c0,-0 0,-0 0.001,-0c13.377,-16.521 32.937,-16.618 46.39,-0.229c0.053,0.065 0.106,0.13 0.159,0.195c12.317,15.005 29.968,16.156 43.15,2.815c12.518,-12.669 25.645,-25.955 25.645,-25.955" style="fill:none;stroke:#fff;stroke-width:21.9px;"/></g></g></g></g></svg>