<?xml version="1.0" encoding="UTF-8" standalone="no"?><!DOCTYPE svg PUBLIC "-//W3C//DTD SVG 1.1//EN" "http://www.w3.org/Graphics/SVG/1.1/DTD/svg11.dtd"><svg width="100%" height="100%" viewBox="0 0 8000 4500" version="1.1" xmlns="http://www.w3.org/2000/svg" xmlns:xlink="http://www.w3.org/1999/xlink" xml:space="preserve" xmlns:serif="http://www.serif.com/" style="fill-rule:evenodd;clip-rule:evenodd;stroke-linejoin:round;stroke-miterlimit:2;"><rect id="splash-foreground" serif:id="splash foreground" x="0" y="0" width="8000" height="4500" style="fill:none;"/><clipPath id="_clip1"><rect x="0" y="0" width="8000" height="4500"/></clipPath><g clip-path="url(#_clip1)"><path d="M2397.05,4500l-23.979,0l-696.916,-696.917c-0,0 -361.234,0 -361.234,0c-0.001,0.001 -127.185,127.185 -127.185,127.185c-1.59,1.59 -3.747,2.484 -5.995,2.484l-129.381,-0l567.249,567.248l-23.979,0l-567.248,-567.248l-1028.38,-0l-0,-16.956l1011.43,0l-80.459,-80.459c-0,-0 -87.496,-0 -87.496,-0c-1.05,-0 -2.056,-0.192 -2.985,-0.542l-0.515,-0.214c-0.905,-0.409 -1.752,-0.985 -2.494,-1.727l-180.185,-180.185l-657.294,-0l-0,-16.956l660.805,0c2.249,0 4.405,0.893 5.995,2.483l180.185,180.185l87.495,0c2.249,0 4.405,0.893 5.995,2.483l94.932,94.932l142.824,0c0,0 127.185,-127.185 127.185,-127.185c1.59,-1.59 3.746,-2.483 5.995,-2.483l368.257,0c2.249,0 4.405,0.893 5.995,2.483l711.389,711.389Zm-1115.14,0l-23.979,0l-287.166,-287.166l-970.762,0.001l-0,-16.956l974.274,0c2.248,0 4.405,0.893 5.995,2.483l301.638,301.638Z" style="fill:#f75656;"/><path d="M5602.95,-0l23.979,-0l696.916,696.917c0,-0 361.234,-0 361.234,-0c0.001,-0.001 127.185,-127.185 127.185,-127.185c1.59,-1.59 3.747,-2.484 5.995,-2.484l129.381,0l-567.249,-567.248l23.979,-0l567.248,567.248l1028.38,0l0,16.956l-1011.43,-0l80.459,80.459c0,0 87.496,0 87.496,0c1.05,0 2.056,0.192 2.985,0.542l0.515,0.214c0.905,0.409 1.752,0.985 2.494,1.727l180.185,180.185l657.294,0l0,16.956l-660.805,-0c-2.249,-0 -4.405,-0.893 -5.995,-2.483l-180.185,-180.185l-87.495,-0c-2.249,-0 -4.405,-0.893 -5.995,-2.483l-94.932,-94.932l-142.824,-0c-0,-0 -127.185,127.185 -127.185,127.185c-1.59,1.59 -3.746,2.483 -5.995,2.483l-368.257,-0c-2.249,-0 -4.405,-0.893 -5.995,-2.483l-711.389,-711.389Zm1115.14,-0l23.979,-0l287.166,287.166l970.762,-0.001l-0,16.956l-974.274,-0c-2.248,-0 -4.405,-0.893 -5.995,-2.483l-301.638,-301.638Z" style="fill:#f75656;"/><path d="M7969.75,5174.61c1.406,1.423 3.357,2.304 5.513,2.304c4.279,0 7.753,-3.474 7.753,-7.753l-0,-513.854c-0,-2.156 -0.882,-4.107 -2.305,-5.513l-0.046,-0.046c-1.406,-1.427 -3.361,-2.312 -5.52,-2.312c-4.279,0 -7.753,3.474 -7.753,7.753l-0,513.855c-0,2.159 0.885,4.114 2.311,5.52l0.047,0.046Zm186.077,-30.354l-132.995,-496.345c-1.108,-4.133 -5.362,-6.59 -9.495,-5.482c-4.134,1.107 -6.59,5.362 -5.483,9.495l132.996,496.345c1.107,4.134 5.362,6.59 9.495,5.483c4.133,-1.108 6.59,-5.363 5.482,-9.496Zm-360.225,7.291c0.929,0.936 2.111,1.648 3.477,2.016c4.131,1.114 8.39,-1.336 9.503,-5.468l133.747,-496.143c0.75,-2.786 -0.119,-5.629 -2.031,-7.527c-0.929,-0.937 -2.111,-1.648 -3.477,-2.016c-4.131,-1.114 -8.39,1.336 -9.503,5.468l-133.746,496.143c-0.751,2.785 0.118,5.629 2.03,7.527Zm-160.418,-66.619c0.475,0.48 1.021,0.905 1.634,1.258c3.705,2.14 8.451,0.868 10.59,-2.838l256.927,-445.011c1.796,-3.109 1.189,-6.952 -1.243,-9.371c-0.475,-0.48 -1.021,-0.905 -1.634,-1.259c-3.705,-2.139 -8.451,-0.868 -10.59,2.838l-256.928,445.011c-1.795,3.11 -1.188,6.952 1.244,9.372Zm681.265,-9.372l-256.927,-445.011c-2.14,-3.706 -6.885,-4.977 -10.591,-2.838c-3.706,2.14 -4.977,6.885 -2.838,10.591l256.927,445.011c2.14,3.706 6.885,4.977 10.591,2.838c3.706,-2.14 4.977,-6.885 2.838,-10.591Zm-819.831,-96.98l0.019,0.02c3.026,3.026 7.939,3.026 10.964,0l363.35,-363.35c3.026,-3.026 3.026,-7.938 0,-10.964l-0.019,-0.02l-0.02,-0.02c-3.026,-3.025 -7.939,-3.025 -10.964,0l-363.35,363.35c-3.026,3.026 -3.026,7.939 -0,10.965l0.02,0.019Zm957.198,-10.951l-363.349,-363.35c-3.026,-3.026 -7.939,-3.026 -10.965,0c-3.026,3.026 -3.026,7.939 0,10.964l363.35,363.35c3.026,3.026 7.939,3.026 10.964,0c3.026,-3.025 3.026,-7.938 0,-10.964Zm104.753,-139.807l-445.011,-256.927c-3.706,-2.14 -8.451,-0.868 -10.591,2.838c-2.139,3.705 -0.868,8.451 2.838,10.591l445.011,256.927c3.706,2.139 8.451,0.868 10.591,-2.838c2.139,-3.706 0.868,-8.451 -2.838,-10.591Zm-1168.27,12.167c2.419,2.432 6.261,3.039 9.371,1.243l445.011,-256.927c3.706,-2.139 4.978,-6.885 2.838,-10.591c-0.354,-0.612 -0.779,-1.158 -1.259,-1.634c-2.419,-2.431 -6.261,-3.038 -9.371,-1.243l-445.011,256.928c-3.706,2.139 -4.977,6.885 -2.838,10.59c0.354,0.613 0.779,1.159 1.259,1.634Zm1233.02,-173.341l-496.144,-133.746c-4.131,-1.114 -8.39,1.336 -9.504,5.468c-1.113,4.131 1.337,8.39 5.468,9.503l496.144,133.746c4.131,1.114 8.39,-1.336 9.503,-5.467c1.114,-4.132 -1.336,-8.39 -5.467,-9.504Zm-1299.87,11.926c1.896,1.912 4.735,2.783 7.519,2.037l496.345,-132.995c4.134,-1.108 6.59,-5.363 5.483,-9.496c-0.367,-1.368 -1.078,-2.552 -2.017,-3.485c-1.895,-1.911 -4.734,-2.782 -7.518,-2.036l-496.345,132.995c-4.134,1.107 -6.59,5.362 -5.483,9.495c0.367,1.368 1.078,2.553 2.016,3.485Zm799.699,-180.994c-0.269,0.786 -0.415,1.629 -0.415,2.506c0,4.279 3.474,7.753 7.753,7.753l513.855,-0c3.445,-0 6.369,-2.253 7.377,-5.365c0.269,-0.787 0.415,-1.63 0.415,-2.506c-0,-4.279 -3.474,-7.753 -7.753,-7.753l-513.854,-0c-3.446,-0 -6.37,2.253 -7.378,5.365Zm-822.546,7.888c1.405,1.415 3.351,2.292 5.5,2.292l513.855,0c2.159,0 4.114,-0.885 5.52,-2.311c1.426,-1.406 2.311,-3.361 2.311,-5.521c0,-2.149 -0.876,-4.095 -2.292,-5.5c-1.405,-1.415 -3.351,-2.292 -5.5,-2.292l-513.854,0c-2.16,0 -4.115,0.885 -5.521,2.311c-1.426,1.407 -2.311,3.361 -2.311,5.521c-0,2.149 0.876,4.095 2.292,5.5Zm1318.95,-186.065l-496.345,132.995c-4.133,1.108 -6.59,5.363 -5.482,9.496c1.107,4.133 5.362,6.59 9.495,5.482l496.345,-132.995c4.134,-1.108 6.59,-5.362 5.483,-9.496c-1.108,-4.133 -5.363,-6.589 -9.496,-5.482Zm-1295.86,11.907c0.929,0.937 2.111,1.649 3.477,2.017l496.143,133.746c4.131,1.114 8.39,-1.336 9.504,-5.468c0.751,-2.785 -0.118,-5.629 -2.03,-7.527c-0.93,-0.936 -2.112,-1.648 -3.477,-2.016l-496.144,-133.746c-4.131,-1.114 -8.39,1.336 -9.504,5.468c-0.75,2.785 0.119,5.628 2.031,7.526Zm1227.16,-172.528l-445.011,256.927c-3.706,2.139 -4.977,6.885 -2.838,10.591c2.14,3.705 6.885,4.977 10.591,2.837l445.011,-256.927c3.706,-2.139 4.977,-6.885 2.838,-10.591c-2.14,-3.705 -6.885,-4.977 -10.591,-2.837Zm-1160.57,12.112c0.476,0.48 1.022,0.905 1.634,1.259l445.011,256.927c3.706,2.139 8.452,0.868 10.591,-2.838c1.795,-3.11 1.189,-6.952 -1.243,-9.372c-0.475,-0.48 -1.022,-0.904 -1.634,-1.258l-445.011,-256.927c-3.706,-2.14 -8.451,-0.868 -10.591,2.838c-1.795,3.109 -1.188,6.952 1.243,9.371Zm1052.64,-149.48l-363.35,363.35c-3.026,3.026 -3.026,7.938 0,10.964c3.026,3.026 7.939,3.026 10.964,0l363.35,-363.35c3.026,-3.025 3.026,-7.938 0,-10.964c-3.025,-3.026 -7.938,-3.026 -10.964,-0Zm-946.294,10.892l363.39,363.39c3.025,3.025 7.938,3.025 10.964,-0c3.026,-3.026 3.026,-7.939 -0,-10.965l-363.389,-363.389c-3.026,-3.026 -7.939,-3.026 -10.965,0c-3.025,3.026 -3.025,7.939 0,10.964Zm395.554,338.714c2.419,2.432 6.261,3.039 9.371,1.243c3.706,-2.139 4.978,-6.885 2.838,-10.59l-256.927,-445.011c-0.354,-0.613 -0.779,-1.159 -1.259,-1.634c-2.419,-2.432 -6.261,-3.039 -9.371,-1.244c-3.706,2.14 -4.978,6.886 -2.838,10.591l256.927,445.011c0.354,0.613 0.779,1.159 1.259,1.634Zm410.933,-454.358l-256.927,445.011c-2.14,3.705 -0.868,8.451 2.838,10.59c3.705,2.14 8.451,0.868 10.591,-2.837l256.927,-445.011c2.139,-3.706 0.868,-8.452 -2.838,-10.591c-3.706,-2.14 -8.451,-0.868 -10.591,2.838Zm-161.174,-64.747l-133.746,496.143c-1.114,4.132 1.336,8.39 5.468,9.504c4.131,1.114 8.39,-1.336 9.503,-5.468l133.747,-496.143c1.113,-4.132 -1.337,-8.39 -5.468,-9.504c-4.132,-1.114 -8.39,1.336 -9.504,5.468Zm-212.312,503.59c1.895,1.912 4.734,2.783 7.519,2.037c4.133,-1.108 6.589,-5.362 5.482,-9.496l-132.995,-496.345c-0.367,-1.368 -1.078,-2.552 -2.017,-3.485c-1.895,-1.911 -4.734,-2.782 -7.518,-2.036c-4.133,1.107 -6.59,5.362 -5.482,9.495l132.995,496.345c0.366,1.368 1.078,2.553 2.016,3.485Zm40.168,-5.304l0.022,0.022l0.022,0.022c1.404,1.414 3.35,2.29 5.498,2.29c4.279,-0 7.753,-3.474 7.753,-7.753l0,-513.855c0,-2.148 -0.875,-4.094 -2.289,-5.498l-0.022,-0.022l-0.022,-0.022c-1.404,-1.414 -3.35,-2.289 -5.498,-2.289c-4.279,-0 -7.753,3.474 -7.753,7.753l-0,513.854c-0,2.148 0.875,4.094 2.289,5.498Z" style="fill:#f75656;"/><g><path d="M7109.07,1564.66l-123.08,-0l-92.334,134.891l123.08,-0l92.334,-134.891Zm175.656,-0l-123.081,-0l-92.334,134.891l123.081,-0l92.334,-134.891Zm175.655,-0l-123.08,-0l-92.334,134.891l123.08,-0l92.334,-134.891Zm175.656,-0l-123.08,-0l-92.334,134.891l123.08,-0l92.334,-134.891Zm175.656,-0l-123.08,-0l-92.334,134.891l123.08,-0l92.334,-134.891Zm175.656,-0l-123.08,-0l-92.334,134.891l123.08,-0l92.334,-134.891Zm175.656,-0l-123.081,-0l-92.334,134.891l123.081,-0l92.334,-134.891Zm175.655,-0l-123.08,-0l-92.334,134.891l123.08,-0l92.334,-134.891Zm175.656,-0l-123.08,-0l-92.334,134.891l123.08,-0l92.334,-134.891Zm175.656,-0l-123.08,-0l-92.334,134.891l123.08,-0l92.334,-134.891Z" style="fill:#f75656;"/><path d="M7114.09,1584.3l-123.08,-0l-92.334,134.891l123.08,-0l92.334,-134.891Zm175.655,-0l-123.08,-0l-92.334,134.891l123.08,-0l92.334,-134.891Zm175.656,-0l-123.08,-0l-92.334,134.891l123.08,-0l92.334,-134.891Zm175.656,-0l-123.08,-0l-92.334,134.891l123.08,-0l92.334,-134.891Zm175.656,-0l-123.08,-0l-92.334,134.891l123.08,-0l92.334,-134.891Zm175.656,-0l-123.08,-0l-92.334,134.891l123.08,-0l92.334,-134.891Zm175.655,-0l-123.08,-0l-92.334,134.891l123.08,-0l92.334,-134.891Zm175.656,-0l-123.08,-0l-92.334,134.891l123.08,-0l92.334,-134.891Zm175.656,-0l-123.08,-0l-92.334,134.891l123.08,-0l92.334,-134.891Zm175.656,-0l-123.08,-0l-92.334,134.891l123.08,-0l92.334,-134.891Z" style="fill:#fff4f4;"/></g><g><path d="M-934.306,2829.86l-123.08,0l-92.334,134.891l123.08,0l92.334,-134.891Zm175.656,0l-123.08,0l-92.334,134.891l123.08,0l92.334,-134.891Zm175.656,0l-123.08,0l-92.334,134.891l123.08,0l92.334,-134.891Zm175.656,0l-123.08,0l-92.334,134.891l123.08,0l92.334,-134.891Zm175.656,0l-123.081,0l-92.334,134.891l123.081,0l92.334,-134.891Zm175.655,0l-123.08,0l-92.334,134.891l123.08,0l92.334,-134.891Zm175.656,0l-123.08,0l-92.334,134.891l123.08,0l92.334,-134.891Zm175.656,0l-123.08,0l-92.334,134.891l123.08,0l92.334,-134.891Zm175.656,0l-123.08,0l-92.334,134.891l123.08,0l92.334,-134.891Zm175.656,0l-123.081,0l-92.334,134.891l123.081,0l92.334,-134.891Z" style="fill:#f75656;"/><path d="M-929.288,2849.5l-123.08,0l-92.334,134.891l123.08,0l92.334,-134.891Zm175.656,0l-123.08,0l-92.334,134.891l123.08,0l92.334,-134.891Zm175.656,0l-123.08,0l-92.334,134.891l123.08,0l92.334,-134.891Zm175.656,0l-123.08,0l-92.334,134.891l123.08,0l92.334,-134.891Zm175.655,0l-123.08,0l-92.334,134.891l123.08,0l92.334,-134.891Zm175.656,0l-123.08,0l-92.334,134.891l123.08,0l92.334,-134.891Zm175.656,0l-123.08,0l-92.334,134.891l123.08,0l92.334,-134.891Zm175.656,0l-123.08,0l-92.334,134.891l123.08,0l92.334,-134.891Zm175.656,0l-123.08,0l-92.334,134.891l123.08,0l92.334,-134.891Zm175.655,0l-123.08,0l-92.334,134.891l123.08,0l92.334,-134.891Z" style="fill:#fff4f4;"/></g><g><path d="M810.007,1652.65c0,-0 44.427,55.454 57.046,71.206c-0,-0 -57.046,71.206 -57.046,71.206c-1.824,2.277 -1.937,5.483 -0.276,7.883l57.599,83.217c-12.133,15.654 -57.388,74.043 -57.388,74.043c-2.232,2.879 -1.706,7.029 1.173,9.26c2.879,2.232 7.029,1.706 9.261,-1.173l60.351,-77.866c1.764,-2.276 1.849,-5.433 0.21,-7.8c0,-0 -45.668,-65.98 -57.552,-83.15c0,0 57.276,-71.493 57.276,-71.493c1.933,-2.412 1.933,-5.842 0,-8.254l-60.351,-75.333c-2.278,-2.843 -6.435,-3.302 -9.278,-1.024c-2.843,2.278 -3.302,6.435 -1.025,9.278Z" style="fill:#f75656;"/><path d="M844.436,1652.65c-0,-0 44.426,55.454 57.045,71.206c0,-0 -57.045,71.206 -57.045,71.206c-1.825,2.277 -1.937,5.483 -0.276,7.883c-0,-0 45.788,66.153 57.599,83.217c-0,-0 -57.389,74.043 -57.389,74.043c-2.232,2.879 -1.706,7.029 1.174,9.26c2.879,2.232 7.028,1.706 9.26,-1.173l60.351,-77.866c1.764,-2.276 1.849,-5.433 0.211,-7.8c-0,-0 -45.668,-65.98 -57.552,-83.15c-0,0 57.276,-71.493 57.276,-71.493c1.932,-2.412 1.932,-5.842 -0,-8.254l-60.352,-75.333c-2.277,-2.843 -6.435,-3.302 -9.278,-1.024c-2.843,2.278 -3.302,6.435 -1.024,9.278Z" style="fill:#f75656;"/></g><g><path d="M1770.69,400.388c-0,0 44.426,55.455 57.045,71.206c-0,0 -57.045,71.206 -57.045,71.206c-1.825,2.278 -1.937,5.483 -0.276,7.883l57.598,83.217c-12.133,15.655 -57.388,74.043 -57.388,74.043c-2.232,2.879 -1.706,7.029 1.173,9.26c2.88,2.232 7.029,1.706 9.261,-1.173l60.351,-77.866c1.764,-2.276 1.849,-5.432 0.21,-7.8c0,0 -45.667,-65.979 -57.552,-83.149c0,-0 57.276,-71.494 57.276,-71.494c1.933,-2.412 1.933,-5.842 0,-8.254l-60.351,-75.332c-2.278,-2.843 -6.435,-3.302 -9.278,-1.025c-2.843,2.278 -3.302,6.435 -1.024,9.278Z" style="fill:#f75656;"/><path d="M1805.12,400.388c-0,0 44.426,55.455 57.045,71.206c0,0 -57.045,71.206 -57.045,71.206c-1.825,2.278 -1.937,5.483 -0.276,7.883c-0,0 45.788,66.153 57.599,83.217c-0,-0 -57.389,74.043 -57.389,74.043c-2.231,2.879 -1.706,7.029 1.174,9.26c2.879,2.232 7.028,1.706 9.26,-1.173l60.351,-77.866c1.764,-2.276 1.849,-5.432 0.211,-7.8c-0,0 -45.668,-65.979 -57.552,-83.149c-0,-0 57.276,-71.494 57.276,-71.494c1.932,-2.412 1.932,-5.842 -0,-8.254l-60.352,-75.332c-2.277,-2.843 -6.435,-3.302 -9.278,-1.025c-2.843,2.278 -3.302,6.435 -1.024,9.278Z" style="fill:#f75656;"/></g><g><path d="M6046.2,3833.82c0,-0 44.427,55.454 57.046,71.206c-0,-0 -57.046,71.205 -57.046,71.205c-1.824,2.278 -1.937,5.484 -0.276,7.884l57.599,83.216c-12.133,15.655 -57.388,74.044 -57.388,74.044c-2.232,2.879 -1.706,7.028 1.173,9.26c2.88,2.232 7.029,1.706 9.261,-1.174l60.351,-77.866c1.764,-2.275 1.849,-5.432 0.21,-7.799c0,-0 -45.668,-65.98 -57.552,-83.15c0,0 57.276,-71.494 57.276,-71.494c1.933,-2.412 1.933,-5.841 0,-8.253l-60.351,-75.333c-2.278,-2.843 -6.435,-3.302 -9.278,-1.024c-2.843,2.277 -3.302,6.435 -1.025,9.278Z" style="fill:#f75656;"/><path d="M6080.63,3833.82c-0,-0 44.426,55.454 57.045,71.206c0,-0 -57.045,71.205 -57.045,71.205c-1.825,2.278 -1.937,5.484 -0.276,7.884c-0,-0 45.788,66.153 57.599,83.216c-0,0 -57.389,74.044 -57.389,74.044c-2.232,2.879 -1.706,7.028 1.174,9.26c2.879,2.232 7.028,1.706 9.26,-1.174l60.351,-77.866c1.764,-2.275 1.849,-5.432 0.211,-7.799c-0,-0 -45.668,-65.98 -57.552,-83.15c-0,0 57.276,-71.494 57.276,-71.494c1.932,-2.412 1.932,-5.841 -0,-8.253l-60.352,-75.333c-2.277,-2.843 -6.435,-3.302 -9.278,-1.024c-2.843,2.277 -3.302,6.435 -1.024,9.278Z" style="fill:#f75656;"/></g><g><path d="M6350.79,2096.26c0,0 44.427,55.455 57.046,71.206c-0,-0 -57.046,71.206 -57.046,71.206c-1.824,2.277 -1.937,5.483 -0.276,7.883l57.599,83.217c-12.133,15.655 -57.388,74.043 -57.388,74.043c-2.232,2.879 -1.706,7.029 1.173,9.26c2.879,2.232 7.029,1.706 9.26,-1.173l60.352,-77.866c1.764,-2.276 1.849,-5.432 0.21,-7.8c0,-0 -45.668,-65.979 -57.552,-83.149c0,-0 57.276,-71.494 57.276,-71.494c1.933,-2.412 1.933,-5.842 0,-8.254l-60.351,-75.332c-2.278,-2.843 -6.435,-3.302 -9.278,-1.025c-2.843,2.278 -3.302,6.435 -1.025,9.278Z" style="fill:#f75656;"/><path d="M6385.22,2096.26c-0,0 44.426,55.455 57.045,71.206c0,-0 -57.045,71.206 -57.045,71.206c-1.825,2.277 -1.937,5.483 -0.276,7.883c-0,0 45.788,66.153 57.599,83.217c-0,-0 -57.389,74.043 -57.389,74.043c-2.232,2.879 -1.706,7.029 1.173,9.26c2.88,2.232 7.029,1.706 9.261,-1.173l60.351,-77.866c1.764,-2.276 1.849,-5.432 0.211,-7.8c-0,-0 -45.668,-65.979 -57.552,-83.149c-0,-0 57.276,-71.494 57.276,-71.494c1.932,-2.412 1.932,-5.842 -0,-8.254l-60.352,-75.332c-2.278,-2.843 -6.435,-3.302 -9.278,-1.025c-2.843,2.278 -3.302,6.435 -1.024,9.278Z" style="fill:#f75656;"/></g></g></svg>