<?xml version="1.0" encoding="UTF-8" standalone="no"?><!DOCTYPE svg PUBLIC "-//W3C//DTD SVG 1.1//EN" "http://www.w3.org/Graphics/SVG/1.1/DTD/svg11.dtd"><svg width="100%" height="100%" viewBox="0 0 2398 4500" version="1.1" xmlns="http://www.w3.org/2000/svg" xmlns:xlink="http://www.w3.org/1999/xlink" xml:space="preserve" xmlns:serif="http://www.serif.com/" style="fill-rule:evenodd;clip-rule:evenodd;stroke-linejoin:round;stroke-miterlimit:2;"><rect id="Artboard1" x="0" y="0" width="2397.22" height="4500" style="fill:none;"/><clipPath id="_clip1"><rect x="0" y="0" width="2397.22" height="4500"/></clipPath><g clip-path="url(#_clip1)"><path d="M-2.837,996.826c0.729,0.737 1.74,1.194 2.857,1.194c2.218,0 4.019,-1.8 4.019,-4.018l-0,-266.327c-0,-1.118 -0.457,-2.129 -1.195,-2.858l-0.024,-0.024c-0.728,-0.739 -1.741,-1.198 -2.861,-1.198c-2.218,0 -4.018,1.801 -4.018,4.019l-0,266.327c-0,1.119 0.459,2.132 1.198,2.861l0.024,0.024Zm96.443,-15.732l-68.931,-257.253c-0.574,-2.142 -2.779,-3.415 -4.921,-2.841c-2.142,0.574 -3.416,2.779 -2.842,4.921l68.931,257.253c0.574,2.142 2.779,3.415 4.921,2.841c2.143,-0.574 3.416,-2.779 2.842,-4.921Zm-186.703,3.778c0.482,0.486 1.095,0.854 1.802,1.045c2.142,0.577 4.349,-0.692 4.926,-2.834l69.32,-257.147c0.389,-1.444 -0.061,-2.918 -1.052,-3.901c-0.482,-0.486 -1.095,-0.855 -1.802,-1.045c-2.142,-0.578 -4.349,0.692 -4.926,2.833l-69.32,257.148c-0.389,1.444 0.061,2.917 1.052,3.901Zm-83.143,-34.528c0.246,0.249 0.529,0.469 0.847,0.652c1.92,1.109 4.38,0.45 5.489,-1.471l133.163,-230.646c0.931,-1.611 0.616,-3.603 -0.644,-4.857c-0.246,-0.249 -0.529,-0.469 -0.847,-0.652c-1.921,-1.109 -4.38,-0.45 -5.489,1.471l-133.164,230.646c-0.93,1.612 -0.616,3.603 0.645,4.857Zm353.095,-4.857l-133.164,-230.646c-1.109,-1.921 -3.568,-2.58 -5.489,-1.471c-1.921,1.109 -2.58,3.568 -1.471,5.489l133.164,230.646c1.109,1.921 3.568,2.58 5.489,1.471c1.921,-1.109 2.58,-3.569 1.471,-5.489Zm-424.913,-50.264l0.01,0.01c1.568,1.568 4.115,1.568 5.683,0l188.322,-188.322c1.568,-1.568 1.568,-4.114 -0,-5.682l-0.011,-0.01l-0.01,-0.011c-1.568,-1.568 -4.114,-1.568 -5.683,0l-188.321,188.322c-1.568,1.568 -1.568,4.115 -0,5.683l0.01,0.01Zm496.109,-5.676l-188.321,-188.322c-1.568,-1.568 -4.115,-1.568 -5.683,0c-1.568,1.568 -1.568,4.115 -0,5.683l188.322,188.322c1.568,1.568 4.114,1.568 5.682,-0c1.569,-1.569 1.569,-4.115 0,-5.683Zm54.293,-72.461l-230.646,-133.164c-1.921,-1.108 -4.38,-0.449 -5.489,1.471c-1.109,1.921 -0.45,4.38 1.47,5.489l230.646,133.164c1.921,1.109 4.381,0.45 5.49,-1.471c1.108,-1.921 0.449,-4.38 -1.471,-5.489Zm-605.506,6.306c1.254,1.26 3.245,1.575 4.857,0.644l230.646,-133.163c1.921,-1.109 2.58,-3.569 1.471,-5.489c-0.184,-0.318 -0.404,-0.601 -0.653,-0.847c-1.254,-1.261 -3.245,-1.575 -4.857,-0.644l-230.646,133.163c-1.92,1.109 -2.579,3.569 -1.471,5.489c0.184,0.318 0.404,0.601 0.653,0.847Zm639.064,-89.842l-257.148,-69.319c-2.141,-0.577 -4.349,0.692 -4.926,2.834c-0.577,2.141 0.693,4.348 2.834,4.925l257.148,69.32c2.141,0.577 4.348,-0.692 4.925,-2.834c0.578,-2.141 -0.692,-4.348 -2.833,-4.926Zm-673.711,6.182c0.983,0.991 2.454,1.442 3.897,1.055l257.252,-68.93c2.143,-0.574 3.416,-2.779 2.842,-4.922c-0.19,-0.709 -0.559,-1.322 -1.045,-1.806c-0.983,-0.99 -2.454,-1.442 -3.897,-1.055l-257.252,68.93c-2.142,0.574 -3.416,2.779 -2.842,4.922c0.19,0.709 0.559,1.323 1.045,1.806Zm414.478,-93.808c-0.139,0.407 -0.215,0.844 -0.215,1.298c0,2.218 1.801,4.019 4.019,4.019l266.327,-0c1.786,-0 3.301,-1.168 3.823,-2.781c0.14,-0.407 0.215,-0.844 0.215,-1.299c0,-2.217 -1.8,-4.018 -4.018,-4.018l-266.327,0c-1.786,0 -3.301,1.168 -3.824,2.781Zm-426.32,4.088c0.729,0.734 1.737,1.188 2.851,1.188l266.327,0c1.12,0 2.133,-0.459 2.861,-1.198c0.74,-0.729 1.198,-1.742 1.198,-2.861c0,-1.114 -0.454,-2.123 -1.187,-2.851c-0.729,-0.733 -1.737,-1.188 -2.851,-1.188l-266.327,0c-1.12,0 -2.133,0.459 -2.861,1.198c-0.74,0.729 -1.198,1.742 -1.198,2.861c-0,1.114 0.454,2.123 1.187,2.851Zm683.604,-96.436l-257.253,68.931c-2.142,0.574 -3.415,2.779 -2.841,4.921c0.574,2.142 2.779,3.415 4.921,2.841l257.253,-68.93c2.142,-0.574 3.415,-2.779 2.841,-4.922c-0.574,-2.142 -2.779,-3.415 -4.921,-2.841Zm-671.636,6.171c0.482,0.486 1.094,0.855 1.802,1.046l257.147,69.319c2.142,0.577 4.349,-0.692 4.926,-2.834c0.389,-1.443 -0.061,-2.917 -1.052,-3.901c-0.482,-0.485 -1.094,-0.854 -1.802,-1.045l-257.148,-69.319c-2.141,-0.578 -4.348,0.692 -4.925,2.833c-0.39,1.444 0.061,2.918 1.052,3.901Zm636.029,-89.42l-230.646,133.164c-1.921,1.108 -2.58,3.568 -1.471,5.489c1.109,1.92 3.569,2.579 5.489,1.47l230.646,-133.163c1.921,-1.109 2.58,-3.569 1.471,-5.489c-1.109,-1.921 -3.569,-2.58 -5.489,-1.471Zm-601.516,6.278c0.246,0.249 0.529,0.469 0.847,0.652l230.646,133.164c1.92,1.109 4.38,0.449 5.489,-1.471c0.93,-1.612 0.616,-3.603 -0.645,-4.857c-0.246,-0.249 -0.529,-0.469 -0.846,-0.653l-230.646,-133.163c-1.921,-1.109 -4.381,-0.45 -5.49,1.471c-0.93,1.611 -0.616,3.603 0.645,4.857Zm545.576,-77.475l-188.322,188.322c-1.568,1.568 -1.568,4.115 0,5.683c1.568,1.568 4.115,1.568 5.683,-0l188.322,-188.322c1.568,-1.568 1.568,-4.114 -0,-5.683c-1.569,-1.568 -4.115,-1.568 -5.683,0Zm-490.457,5.646l188.342,188.342c1.568,1.568 4.114,1.568 5.682,-0c1.569,-1.568 1.569,-4.115 0,-5.683l-188.342,-188.342c-1.568,-1.568 -4.114,-1.568 -5.682,0c-1.569,1.568 -1.569,4.115 -0,5.683Zm205.012,175.553c1.254,1.26 3.246,1.575 4.857,0.644c1.921,-1.109 2.58,-3.568 1.471,-5.489l-133.163,-230.646c-0.184,-0.318 -0.404,-0.601 -0.653,-0.847c-1.254,-1.26 -3.245,-1.575 -4.857,-0.644c-1.921,1.109 -2.58,3.568 -1.471,5.489l133.164,230.646c0.183,0.317 0.403,0.6 0.652,0.847Zm212.984,-235.491l-133.164,230.646c-1.108,1.921 -0.449,4.38 1.471,5.489c1.921,1.109 4.381,0.45 5.489,-1.471l133.164,-230.646c1.109,-1.92 0.45,-4.38 -1.471,-5.489c-1.921,-1.109 -4.38,-0.45 -5.489,1.471Zm-83.535,-33.558l-69.32,257.148c-0.577,2.141 0.692,4.348 2.834,4.925c2.141,0.578 4.348,-0.692 4.926,-2.833l69.319,-257.148c0.577,-2.141 -0.692,-4.349 -2.834,-4.926c-2.141,-0.577 -4.348,0.693 -4.925,2.834Zm-110.04,261.007c0.982,0.991 2.454,1.443 3.897,1.056c2.142,-0.574 3.415,-2.779 2.841,-4.921l-68.93,-257.253c-0.19,-0.709 -0.559,-1.322 -1.045,-1.806c-0.983,-0.99 -2.454,-1.442 -3.897,-1.055c-2.143,0.574 -3.416,2.779 -2.842,4.921l68.931,257.252c0.19,0.709 0.559,1.323 1.045,1.806Zm20.819,-2.749l0.011,0.012l0.011,0.011c0.728,0.733 1.737,1.187 2.85,1.187c2.218,-0 4.018,-1.801 4.018,-4.019l0,-266.327c0,-1.113 -0.453,-2.121 -1.186,-2.849l-0.011,-0.012l-0.012,-0.011c-0.728,-0.733 -1.736,-1.187 -2.85,-1.187c-2.217,0 -4.018,1.801 -4.018,4.019l0,266.327c0,1.113 0.454,2.122 1.187,2.849Z" style="fill:#f75656;"/><path d="M2394.38,4256.42c0.728,0.738 1.739,1.195 2.857,1.195c2.218,-0 4.018,-1.801 4.018,-4.019l0,-266.327c0,-1.117 -0.457,-2.128 -1.194,-2.857l-0.024,-0.024c-0.729,-0.74 -1.742,-1.198 -2.861,-1.198c-2.218,-0 -4.019,1.8 -4.019,4.018l0,266.327c0,1.12 0.459,2.133 1.198,2.861l0.025,0.024Zm96.442,-15.732l-68.93,-257.252c-0.574,-2.142 -2.78,-3.415 -4.922,-2.841c-2.142,0.574 -3.415,2.779 -2.841,4.921l68.93,257.252c0.574,2.142 2.779,3.416 4.922,2.842c2.142,-0.574 3.415,-2.78 2.841,-4.922Zm-186.702,3.779c0.482,0.485 1.094,0.854 1.802,1.045c2.141,0.577 4.348,-0.693 4.926,-2.834l69.319,-257.148c0.389,-1.443 -0.061,-2.917 -1.052,-3.901c-0.482,-0.485 -1.094,-0.854 -1.802,-1.045c-2.141,-0.577 -4.349,0.693 -4.926,2.834l-69.319,257.148c-0.39,1.443 0.061,2.917 1.052,3.901Zm-83.144,-34.528c0.247,0.248 0.53,0.469 0.847,0.652c1.921,1.109 4.38,0.45 5.489,-1.471l133.164,-230.646c0.93,-1.612 0.616,-3.603 -0.645,-4.857c-0.246,-0.249 -0.529,-0.469 -0.846,-0.652c-1.921,-1.109 -4.381,-0.45 -5.49,1.47l-133.163,230.646c-0.931,1.612 -0.616,3.604 0.644,4.858Zm353.095,-4.858l-133.163,-230.646c-1.109,-1.92 -3.569,-2.579 -5.49,-1.47c-1.92,1.108 -2.579,3.568 -1.47,5.489l133.163,230.646c1.109,1.92 3.569,2.579 5.489,1.47c1.921,-1.108 2.58,-3.568 1.471,-5.489Zm-424.913,-50.264l0.011,0.011c1.568,1.568 4.114,1.568 5.682,-0l188.322,-188.322c1.568,-1.568 1.568,-4.115 -0,-5.683l-0.01,-0.01l-0.01,-0.01c-1.569,-1.568 -4.115,-1.568 -5.683,-0l-188.322,188.322c-1.568,1.568 -1.568,4.114 0,5.682l0.01,0.01Zm496.11,-5.676l-188.322,-188.321c-1.568,-1.568 -4.114,-1.568 -5.683,-0c-1.568,1.568 -1.568,4.114 0,5.683l188.322,188.321c1.568,1.568 4.115,1.568 5.683,0c1.568,-1.568 1.568,-4.114 -0,-5.683Zm54.292,-72.46l-230.646,-133.164c-1.92,-1.109 -4.38,-0.45 -5.489,1.471c-1.109,1.92 -0.45,4.38 1.471,5.489l230.646,133.163c1.92,1.109 4.38,0.45 5.489,-1.47c1.109,-1.921 0.45,-4.381 -1.471,-5.489Zm-605.506,6.306c1.254,1.26 3.246,1.575 4.857,0.644l230.646,-133.164c1.921,-1.108 2.58,-3.568 1.471,-5.489c-0.183,-0.317 -0.403,-0.6 -0.652,-0.847c-1.254,-1.26 -3.246,-1.574 -4.857,-0.644l-230.646,133.164c-1.921,1.109 -2.58,3.568 -1.471,5.489c0.183,0.317 0.403,0.6 0.652,0.847Zm639.064,-89.842l-257.148,-69.32c-2.141,-0.577 -4.348,0.693 -4.925,2.834c-0.578,2.142 0.692,4.349 2.834,4.926l257.147,69.32c2.141,0.577 4.349,-0.693 4.926,-2.834c0.577,-2.142 -0.693,-4.349 -2.834,-4.926Zm-673.71,6.181c0.982,0.991 2.454,1.443 3.897,1.056l257.252,-68.931c2.142,-0.574 3.415,-2.779 2.841,-4.921c-0.19,-0.709 -0.559,-1.323 -1.045,-1.806c-0.982,-0.991 -2.454,-1.442 -3.897,-1.056l-257.252,68.931c-2.142,0.574 -3.415,2.779 -2.841,4.921c0.19,0.709 0.558,1.323 1.045,1.806Zm414.478,-93.808c-0.14,0.408 -0.215,0.845 -0.215,1.299c-0,2.218 1.8,4.018 4.018,4.018l266.327,0c1.786,0 3.301,-1.167 3.824,-2.78c0.139,-0.408 0.215,-0.845 0.215,-1.299c-0,-2.218 -1.801,-4.018 -4.019,-4.018l-266.327,-0c-1.786,-0 -3.301,1.167 -3.823,2.78Zm-426.32,4.089c0.728,0.733 1.737,1.188 2.851,1.188l266.327,-0c1.119,-0 2.132,-0.459 2.861,-1.198c0.739,-0.729 1.198,-1.742 1.198,-2.861c-0,-1.114 -0.454,-2.123 -1.188,-2.851c-0.728,-0.734 -1.737,-1.188 -2.851,-1.188l-266.327,-0c-1.119,-0 -2.132,0.458 -2.861,1.198c-0.739,0.729 -1.198,1.742 -1.198,2.861c0,1.114 0.454,2.123 1.188,2.851Zm683.603,-96.436l-257.252,68.93c-2.142,0.574 -3.416,2.779 -2.842,4.922c0.574,2.142 2.78,3.415 4.922,2.841l257.252,-68.931c2.142,-0.574 3.415,-2.779 2.841,-4.921c-0.574,-2.142 -2.779,-3.415 -4.921,-2.841Zm-671.636,6.171c0.482,0.486 1.095,0.854 1.802,1.045l257.148,69.32c2.141,0.577 4.348,-0.693 4.926,-2.834c0.389,-1.444 -0.062,-2.917 -1.053,-3.901c-0.482,-0.486 -1.094,-0.854 -1.802,-1.045l-257.147,-69.32c-2.142,-0.577 -4.349,0.693 -4.926,2.834c-0.389,1.444 0.061,2.917 1.052,3.901Zm636.029,-89.42l-230.646,133.163c-1.92,1.109 -2.579,3.569 -1.471,5.489c1.109,1.921 3.569,2.58 5.49,1.471l230.646,-133.163c1.92,-1.109 2.579,-3.569 1.47,-5.49c-1.109,-1.92 -3.568,-2.579 -5.489,-1.47Zm-601.516,6.277c0.247,0.249 0.53,0.469 0.847,0.653l230.646,133.163c1.921,1.109 4.38,0.45 5.489,-1.471c0.931,-1.611 0.616,-3.603 -0.644,-4.857c-0.247,-0.249 -0.53,-0.469 -0.847,-0.652l-230.646,-133.164c-1.921,-1.108 -4.38,-0.449 -5.489,1.471c-0.931,1.612 -0.616,3.603 0.644,4.857Zm545.576,-77.474l-188.321,188.322c-1.569,1.568 -1.569,4.114 -0,5.682c1.568,1.569 4.114,1.569 5.682,0l188.322,-188.321c1.568,-1.569 1.568,-4.115 0,-5.683c-1.568,-1.568 -4.115,-1.568 -5.683,-0Zm-490.457,5.645l188.342,188.342c1.568,1.569 4.115,1.569 5.683,0c1.568,-1.568 1.568,-4.114 -0,-5.682l-188.342,-188.342c-1.568,-1.569 -4.115,-1.569 -5.683,-0c-1.568,1.568 -1.568,4.114 0,5.682Zm205.012,175.553c1.255,1.261 3.246,1.575 4.858,0.645c1.92,-1.109 2.579,-3.569 1.471,-5.489l-133.164,-230.646c-0.183,-0.318 -0.403,-0.601 -0.652,-0.847c-1.254,-1.261 -3.246,-1.575 -4.857,-0.645c-1.921,1.109 -2.58,3.569 -1.471,5.489l133.163,230.646c0.184,0.318 0.404,0.601 0.652,0.847Zm212.984,-235.49l-133.163,230.646c-1.109,1.92 -0.45,4.38 1.471,5.489c1.92,1.109 4.38,0.449 5.489,-1.471l133.163,-230.646c1.109,-1.921 0.45,-4.38 -1.471,-5.489c-1.92,-1.109 -4.38,-0.45 -5.489,1.471Zm-83.535,-33.558l-69.32,257.147c-0.577,2.142 0.693,4.349 2.834,4.926c2.142,0.577 4.349,-0.693 4.926,-2.834l69.32,-257.147c0.577,-2.142 -0.693,-4.349 -2.834,-4.926c-2.142,-0.577 -4.349,0.692 -4.926,2.834Zm-110.04,261.007c0.982,0.991 2.454,1.442 3.897,1.056c2.142,-0.574 3.415,-2.78 2.841,-4.922l-68.93,-257.252c-0.19,-0.709 -0.559,-1.323 -1.045,-1.806c-0.982,-0.991 -2.454,-1.442 -3.897,-1.056c-2.142,0.574 -3.415,2.78 -2.841,4.922l68.93,257.252c0.19,0.709 0.559,1.323 1.045,1.806Zm20.819,-2.749l0.011,0.011l0.012,0.012c0.728,0.732 1.736,1.186 2.85,1.186c2.217,0 4.018,-1.8 4.018,-4.018l-0,-266.327c-0,-1.113 -0.454,-2.122 -1.187,-2.85l-0.011,-0.011l-0.012,-0.011c-0.727,-0.733 -1.736,-1.187 -2.849,-1.187c-2.218,-0 -4.019,1.8 -4.019,4.018l0,266.327c0,1.114 0.454,2.122 1.187,2.85Z" style="fill:#f75656;"/><g><path d="M1757.21,1451.17c-0,0 33.991,42.43 43.647,54.482c-0,-0 -43.647,54.481 -43.647,54.481c-1.397,1.743 -1.482,4.196 -0.212,6.032l44.071,63.671c-9.284,11.978 -43.91,56.653 -43.91,56.653c-1.707,2.203 -1.305,5.378 0.898,7.085c2.203,1.708 5.378,1.305 7.085,-0.898l46.177,-59.577c1.35,-1.741 1.415,-4.157 0.161,-5.968c-0,-0 -34.942,-50.483 -44.035,-63.62c0,0 43.824,-54.702 43.824,-54.702c1.478,-1.845 1.478,-4.469 -0,-6.315l-46.177,-57.639c-1.742,-2.175 -4.923,-2.526 -7.099,-0.784c-2.175,1.743 -2.526,4.924 -0.783,7.099Z" style="fill:#f75656;"/><path d="M1783.55,1451.17c-0,0 33.991,42.43 43.647,54.482c-0,-0 -43.647,54.481 -43.647,54.481c-1.397,1.743 -1.482,4.196 -0.212,6.032c0,-0 35.034,50.615 44.071,63.671c-0,0 -43.91,56.653 -43.91,56.653c-1.707,2.203 -1.305,5.378 0.898,7.085c2.203,1.708 5.378,1.305 7.086,-0.898l46.176,-59.577c1.35,-1.741 1.415,-4.157 0.161,-5.968c-0,-0 -34.942,-50.483 -44.035,-63.62c0,0 43.824,-54.702 43.824,-54.702c1.478,-1.845 1.478,-4.469 -0,-6.315l-46.177,-57.639c-1.742,-2.175 -4.923,-2.526 -7.099,-0.784c-2.175,1.743 -2.526,4.924 -0.783,7.099Z" style="fill:#f75656;"/></g><g><path d="M122.317,1747.76c0,-0 33.992,42.429 43.647,54.481c0,-0 -43.647,54.481 -43.647,54.481c-1.396,1.743 -1.482,4.196 -0.211,6.032l44.07,63.672c-9.283,11.977 -43.909,56.652 -43.909,56.652c-1.708,2.203 -1.305,5.378 0.898,7.085c2.203,1.708 5.377,1.305 7.085,-0.898l46.177,-59.577c1.349,-1.741 1.414,-4.156 0.16,-5.968c0,0 -34.941,-50.483 -44.034,-63.62c-0,0 43.823,-54.702 43.823,-54.702c1.479,-1.845 1.479,-4.469 0,-6.315l-46.176,-57.639c-1.743,-2.175 -4.924,-2.526 -7.099,-0.783c-2.175,1.742 -2.527,4.923 -0.784,7.099Z" style="fill:#f75656;"/><path d="M148.659,1747.76c0,-0 33.992,42.429 43.647,54.481c0,-0 -43.647,54.481 -43.647,54.481c-1.396,1.743 -1.482,4.196 -0.211,6.032c-0,0 35.034,50.616 44.07,63.672c0,-0 -43.909,56.652 -43.909,56.652c-1.708,2.203 -1.305,5.378 0.898,7.085c2.203,1.708 5.378,1.305 7.085,-0.898l46.177,-59.577c1.349,-1.741 1.414,-4.156 0.16,-5.968c0,0 -34.941,-50.483 -44.034,-63.62c-0,0 43.823,-54.702 43.823,-54.702c1.479,-1.845 1.479,-4.469 0,-6.315l-46.176,-57.639c-1.743,-2.175 -4.924,-2.526 -7.099,-0.783c-2.175,1.742 -2.527,4.923 -0.784,7.099Z" style="fill:#f75656;"/></g><g><path d="M204.936,1873.6c-0,-0 33.992,42.429 43.647,54.481c-0,0 -43.647,54.482 -43.647,54.482c-1.396,1.742 -1.482,4.195 -0.211,6.031l44.07,63.672c-9.283,11.978 -43.909,56.652 -43.909,56.652c-1.708,2.203 -1.305,5.378 0.898,7.086c2.203,1.707 5.377,1.305 7.085,-0.898l46.176,-59.578c1.35,-1.741 1.415,-4.156 0.161,-5.968c0,0 -34.941,-50.482 -44.034,-63.619c-0,-0 43.823,-54.702 43.823,-54.702c1.479,-1.846 1.479,-4.47 0,-6.315l-46.176,-57.639c-1.743,-2.176 -4.924,-2.527 -7.099,-0.784c-2.175,1.743 -2.527,4.924 -0.784,7.099Z" style="fill:#f75656;"/><path d="M231.278,1873.6c0,-0 33.992,42.429 43.647,54.481c-0,0 -43.647,54.482 -43.647,54.482c-1.396,1.742 -1.482,4.195 -0.211,6.031c-0,0 35.034,50.616 44.07,63.672c0,-0 -43.909,56.652 -43.909,56.652c-1.708,2.203 -1.305,5.378 0.898,7.086c2.203,1.707 5.377,1.305 7.085,-0.898l46.176,-59.578c1.35,-1.741 1.415,-4.156 0.161,-5.968c0,0 -34.941,-50.482 -44.034,-63.619c-0,-0 43.823,-54.702 43.823,-54.702c1.479,-1.846 1.479,-4.47 0,-6.315l-46.176,-57.639c-1.743,-2.176 -4.924,-2.527 -7.099,-0.784c-2.175,1.743 -2.527,4.924 -0.784,7.099Z" style="fill:#f75656;"/></g><g><path d="M1757.21,2658.76c-0,-0 33.991,42.43 43.647,54.481c-0,0 -43.647,54.482 -43.647,54.482c-1.397,1.743 -1.482,4.195 -0.212,6.032l44.071,63.671c-9.284,11.978 -43.91,56.652 -43.91,56.652c-1.707,2.203 -1.305,5.378 0.898,7.086c2.203,1.707 5.378,1.305 7.085,-0.898l46.177,-59.578c1.35,-1.741 1.415,-4.156 0.161,-5.967c-0,-0 -34.942,-50.483 -44.035,-63.62c0,-0 43.824,-54.702 43.824,-54.702c1.478,-1.846 1.478,-4.47 -0,-6.315l-46.177,-57.639c-1.742,-2.175 -4.923,-2.527 -7.099,-0.784c-2.175,1.743 -2.526,4.924 -0.783,7.099Z" style="fill:#f75656;"/><path d="M1783.55,2658.76c-0,-0 33.991,42.43 43.647,54.481c-0,0 -43.647,54.482 -43.647,54.482c-1.397,1.743 -1.482,4.195 -0.212,6.032c0,-0 35.034,50.615 44.071,63.671c-0,-0 -43.91,56.652 -43.91,56.652c-1.707,2.203 -1.305,5.378 0.898,7.086c2.203,1.707 5.378,1.305 7.086,-0.898l46.176,-59.578c1.35,-1.741 1.415,-4.156 0.161,-5.967c-0,-0 -34.942,-50.483 -44.035,-63.62c0,-0 43.824,-54.702 43.824,-54.702c1.478,-1.846 1.478,-4.47 -0,-6.315l-46.177,-57.639c-1.742,-2.175 -4.923,-2.527 -7.099,-0.784c-2.175,1.743 -2.526,4.924 -0.783,7.099Z" style="fill:#f75656;"/></g><g><path d="M611.053,3663.32c0,-0 33.992,42.429 43.647,54.481c0,0 -43.647,54.482 -43.647,54.482c-1.396,1.742 -1.482,4.195 -0.211,6.031l44.071,63.672c-9.284,11.978 -43.91,56.652 -43.91,56.652c-1.707,2.203 -1.305,5.378 0.898,7.085c2.203,1.708 5.378,1.306 7.085,-0.897l46.177,-59.578c1.349,-1.741 1.414,-4.156 0.161,-5.968c-0,0 -34.942,-50.482 -44.035,-63.62c-0,0 43.823,-54.701 43.823,-54.701c1.479,-1.846 1.479,-4.47 0,-6.315l-46.176,-57.639c-1.743,-2.176 -4.924,-2.527 -7.099,-0.784c-2.175,1.742 -2.526,4.923 -0.784,7.099Z" style="fill:#f75656;"/><path d="M637.395,3663.32c0,-0 33.992,42.429 43.647,54.481c0,0 -43.647,54.482 -43.647,54.482c-1.396,1.742 -1.482,4.195 -0.211,6.031c0,0 35.034,50.616 44.071,63.672c-0,-0 -43.91,56.652 -43.91,56.652c-1.707,2.203 -1.305,5.378 0.898,7.085c2.203,1.708 5.378,1.306 7.085,-0.897l46.177,-59.578c1.349,-1.741 1.415,-4.156 0.161,-5.968c-0,0 -34.942,-50.482 -44.035,-63.62c0,0 43.824,-54.701 43.824,-54.701c1.478,-1.846 1.478,-4.47 -0,-6.315l-46.177,-57.639c-1.743,-2.176 -4.924,-2.527 -7.099,-0.784c-2.175,1.742 -2.526,4.923 -0.784,7.099Z" style="fill:#f75656;"/></g><g><path d="M908.873,239.258c-0,0 33.991,42.43 43.647,54.481c-0,0 -43.647,54.482 -43.647,54.482c-1.397,1.743 -1.482,4.195 -0.212,6.032l44.071,63.671c-9.284,11.978 -43.91,56.653 -43.91,56.653c-1.707,2.203 -1.305,5.377 0.898,7.085c2.203,1.707 5.378,1.305 7.086,-0.898l46.176,-59.577c1.35,-1.742 1.415,-4.157 0.161,-5.968c0,-0 -34.942,-50.483 -44.035,-63.62c0,-0 43.824,-54.702 43.824,-54.702c1.478,-1.845 1.478,-4.47 -0,-6.315l-46.177,-57.639c-1.742,-2.175 -4.923,-2.526 -7.099,-0.784c-2.175,1.743 -2.526,4.924 -0.783,7.099Z" style="fill:#f75656;"/><path d="M935.215,239.258c-0,0 33.991,42.43 43.647,54.481c-0,0 -43.647,54.482 -43.647,54.482c-1.396,1.743 -1.482,4.195 -0.211,6.032c-0,-0 35.033,50.615 44.07,63.671c-0,0 -43.91,56.653 -43.91,56.653c-1.707,2.203 -1.305,5.377 0.898,7.085c2.203,1.707 5.378,1.305 7.086,-0.898l46.176,-59.577c1.35,-1.742 1.415,-4.157 0.161,-5.968c0,-0 -34.942,-50.483 -44.035,-63.62c0,-0 43.824,-54.702 43.824,-54.702c1.478,-1.845 1.478,-4.47 -0,-6.315l-46.177,-57.639c-1.742,-2.175 -4.923,-2.526 -7.098,-0.784c-2.176,1.743 -2.527,4.924 -0.784,7.099Z" style="fill:#f75656;"/></g><path d="M2397.22,1003.41l0,-10.037l-291.73,-291.73c0,-0 0,-151.213 0,-151.213c0,-0 53.24,-53.24 53.24,-53.24c0.666,-0.665 1.04,-1.568 1.04,-2.509l-0,-54.159l237.45,237.451l0,-10.038l-237.45,-237.451l-0,-430.482l-7.098,-0l0,423.385l-33.68,-33.681c-0,0 -0,-36.625 -0,-36.625c-0,-0.44 -0.081,-0.861 -0.227,-1.25l-0.09,-0.216c-0.171,-0.378 -0.412,-0.733 -0.723,-1.044l-75.425,-75.425l-0,-275.144l-7.098,-0l0,276.614c0,0.941 0.374,1.844 1.039,2.509l75.426,75.426l0,36.625c0,0.942 0.374,1.844 1.039,2.51l39.739,39.738l0,59.787c0,-0 -53.24,53.24 -53.24,53.24c-0.665,0.665 -1.039,1.568 -1.039,2.509l-0,154.153c-0,0.941 0.374,1.844 1.039,2.509l297.788,297.788Zm0,-466.801l0,-10.037l-120.207,-120.208l-0,-406.362l-7.098,-0l0,407.832c0,0.941 0.374,1.844 1.039,2.509l126.266,126.266Z" style="fill:#f75656;"/><path d="M-0,3496.59l-0,10.037l291.73,291.73c-0,0 -0,151.213 -0,151.213c-0,0 -53.24,53.24 -53.24,53.24c-0.665,0.665 -1.039,1.568 -1.039,2.509l-0,54.159l-237.451,-237.451l-0,10.038l237.451,237.451l-0,430.482l7.097,-0l0,-423.385l33.681,33.681c-0,-0 -0,36.625 -0,36.625c-0,0.44 0.08,0.861 0.227,1.25l0.089,0.216c0.171,0.378 0.412,0.733 0.723,1.044l75.426,75.425l-0,275.144l7.097,-0l0,-276.614c0,-0.941 -0.373,-1.844 -1.039,-2.509l-75.426,-75.426l0,-36.625c0,-0.942 -0.374,-1.844 -1.039,-2.51l-39.739,-39.738l0,-59.787c0,0 53.24,-53.24 53.24,-53.24c0.666,-0.665 1.04,-1.568 1.04,-2.509l-0,-154.153c-0,-0.941 -0.374,-1.844 -1.04,-2.509l-297.788,-297.788Zm-0,466.801l-0,10.037l120.208,120.208l-0,406.362l7.097,-0l0,-407.832c0,-0.941 -0.374,-1.844 -1.039,-2.509l-126.266,-126.266Z" style="fill:#f75656;"/></g></svg>