<svg xmlns="http://www.w3.org/2000/svg" xmlns:xlink="http://www.w3.org/1999/xlink" width="360" height="760" viewBox="0 0 360 760"><defs><clipPath id="a"><rect width="361" height="760"/></clipPath><clipPath id="c"><rect width="360" height="760"/></clipPath></defs><g id="b" clip-path="url(#c)"><rect width="360" height="760" fill="#fff"/><rect width="360" height="760"/><g clip-path="url(#a)"><g transform="translate(194.775 -341.509) rotate(180)" style="isolation:isolate"><path d="M213.2-430.335v66.212a1,1,0,0,0,1,1,1,1,0,0,0,1-1v-66.212a1,1,0,0,0-1-1A1,1,0,0,0,213.2-430.335Z" transform="translate(-126.973 0)" fill="#f65656" fill-rule="evenodd"/><path d="M243.343-423.24l-17.234,63.93a1,1,0,0,0,.7,1.225,1,1,0,0,0,1.225-.7l17.234-63.93a1,1,0,0,0-.7-1.225A1,1,0,0,0,243.343-423.24Z" transform="translate(-134.642 -4.38)" fill="#f65656" fill-rule="evenodd"/><path d="M271.174-402.259l-33.106,57.341a1,1,0,0,0,.366,1.365,1,1,0,0,0,1.365-.366L272.9-401.26a1,1,0,0,0-.366-1.365A1,1,0,0,0,271.174-402.259Z" transform="translate(-141.705 -17.019)" fill="#f65656" fill-rule="evenodd"/><path d="M295.29-368.58,248.47-321.76a1,1,0,0,0,0,1.413,1,1,0,0,0,1.413,0L296.7-367.167a1,1,0,0,0,0-1.413A1,1,0,0,0,295.29-368.58Z" transform="translate(-147.806 -37.2)" fill="#f65656" fill-rule="evenodd"/><path d="M313.877-324.58l-57.341,33.106a1,1,0,0,0-.366,1.365,1,1,0,0,0,1.365.366l57.341-33.107a1,1,0,0,0,.366-1.365A1,1,0,0,0,313.877-324.58Z" transform="translate(-152.486 -63.499)" fill="#f65656" fill-rule="evenodd"/><path d="M325.669-273.258l-63.956,17.137a1,1,0,0,0-.707,1.223,1,1,0,0,0,1.223.707l63.956-17.137a1,1,0,0,0,.707-1.224A1,1,0,0,0,325.669-273.258Z" transform="translate(-155.426 -94.124)" fill="#f65656" fill-rule="evenodd"/><path d="M329.864-218.112H263.651a1,1,0,0,0-1,1,1,1,0,0,0,1,1h66.212a1,1,0,0,0,1-1A1,1,0,0,0,329.864-218.112Z" transform="translate(-156.427 -126.988)" fill="#f65656" fill-rule="evenodd"/><path d="M1-216.139H67.211a1,1,0,0,0,1-1,1,1,0,0,0-1-1H1a1,1,0,0,0-1,1A1,1,0,0,0,1-216.139Z" transform="translate(0 -126.973)" fill="#f65656" fill-rule="evenodd"/><path d="M8.093-271.664l63.93,17.234a1,1,0,0,0,1.225-.7,1,1,0,0,0-.7-1.225L8.613-273.593a1,1,0,0,0-1.225.7A1,1,0,0,0,8.093-271.664Z" transform="translate(-4.38 -93.925)" fill="#f65656" fill-rule="evenodd"/><path d="M29.075-322.868l57.342,33.106a1,1,0,0,0,1.365-.366,1,1,0,0,0-.366-1.365L30.074-324.6a1,1,0,0,0-1.365.366A1,1,0,0,0,29.075-322.868Z" transform="translate(-17.019 -63.488)" fill="#f65656" fill-rule="evenodd"/><path d="M62.755-367.177l46.819,46.819a1,1,0,0,0,1.413,0,1,1,0,0,0,0-1.413L64.167-368.59a1,1,0,0,0-1.413,0A1,1,0,0,0,62.755-367.177Z" transform="translate(-37.2 -37.194)" fill="#f65656" fill-rule="evenodd"/><path d="M106.754-401.26l33.106,57.341a1,1,0,0,0,1.365.366,1,1,0,0,0,.366-1.365l-33.107-57.341a1,1,0,0,0-1.365-.366A1,1,0,0,0,106.754-401.26Z" transform="translate(-63.499 -17.019)" fill="#f65656" fill-rule="evenodd"/><path d="M158.076-422.794l17.137,63.956a1,1,0,0,0,1.223.707,1,1,0,0,0,.707-1.223l-17.137-63.956a1,1,0,0,0-1.224-.707A1,1,0,0,0,158.076-422.794Z" transform="translate(-94.124 -4.337)" fill="#f65656" fill-rule="evenodd"/><path d="M213.222-430.31V-364.1a1,1,0,0,0,1,1,1,1,0,0,0,1-1V-430.31a1,1,0,0,0-1-1A1,1,0,0,0,213.222-430.31Z" transform="translate(-126.988 -0.015)" fill="#f65656" fill-rule="evenodd"/><path d="M215.195-101.445v-66.212a1,1,0,0,0-1-1,1,1,0,0,0-1,1v66.212a1,1,0,0,0,1,1A1,1,0,0,0,215.195-101.445Z" transform="translate(-126.973 -156.442)" fill="#f65656" fill-rule="evenodd"/><path d="M159.67-105.179l17.234-63.93a1,1,0,0,0-.7-1.225,1,1,0,0,0-1.225.7L157.741-105.7a1,1,0,0,0,.7,1.225A1,1,0,0,0,159.67-105.179Z" transform="translate(-93.925 -155.422)" fill="#f65656" fill-rule="evenodd"/><path d="M108.466-116.458,141.572-173.8a1,1,0,0,0-.366-1.365,1,1,0,0,0-1.365.366l-33.106,57.342a1,1,0,0,0,.366,1.365A1,1,0,0,0,108.466-116.458Z" transform="translate(-63.488 -152.486)" fill="#f65656" fill-rule="evenodd"/><path d="M64.157-134.642l46.819-46.819a1,1,0,0,0,0-1.413,1,1,0,0,0-1.413,0L62.744-136.055a1,1,0,0,0,0,1.413A1,1,0,0,0,64.157-134.642Z" transform="translate(-37.194 -147.801)" fill="#f65656" fill-rule="evenodd"/><path d="M30.074-158.448l57.342-33.106a1,1,0,0,0,.366-1.365,1,1,0,0,0-1.365-.366L29.075-160.178a1,1,0,0,0-.366,1.365A1,1,0,0,0,30.074-158.448Z" transform="translate(-17.019 -141.695)" fill="#f65656" fill-rule="evenodd"/><path d="M8.54-186.254,72.5-203.391a1,1,0,0,0,.707-1.223,1,1,0,0,0-1.223-.707L8.023-188.184a1,1,0,0,0-.706,1.224A1,1,0,0,0,8.54-186.254Z" transform="translate(-4.337 -134.585)" fill="#f65656" fill-rule="evenodd"/><path d="M1.024-216.164H67.236a1,1,0,0,0,1-1,1,1,0,0,0-1-1H1.024a1,1,0,0,0-1,1A1,1,0,0,0,1.024-216.164Z" transform="translate(-0.015 -126.958)" fill="#f65656" fill-rule="evenodd"/></g><g transform="translate(-194.108 189.628)"><path d="M32.118-48.359H13.767L0-28.246H18.351Zm26.19,0H39.958L26.19-28.246H44.542Zm26.191,0H66.148L52.381-28.246H70.732Zm26.19,0H92.338L78.571-28.246H96.922Zm26.191,0H118.529L104.761-28.246h18.352Zm26.191,0H144.719L130.952-28.246H149.3Zm26.19,0H170.91L157.143-28.246h18.351Zm26.191,0H197.1L183.333-28.246h18.352Zm26.191,0H223.291L209.523-28.246h18.352Zm26.19,0H249.481L235.714-28.246h18.351Z" fill="#f65656" fill-rule="evenodd"/><path d="M33.689-42.213H15.337L1.57-22.1H19.922Zm26.19,0H41.528L27.761-22.1H46.112Zm26.191,0H67.718L53.951-22.1H72.3Zm26.191,0H93.909L80.142-22.1H98.493Zm26.19,0H120.1L106.332-22.1h18.351Zm26.191,0H146.289L132.522-22.1h18.352Zm26.191,0H172.48L158.713-22.1h18.352Zm26.19,0H198.671L184.9-22.1h18.351Zm26.191,0H224.861L211.094-22.1h18.352Zm26.19,0H251.051L237.284-22.1h18.351Z" transform="translate(-0.822 -3.218)" fill="#fff4f4" fill-rule="evenodd"/></g><g transform="translate(-7.211 1000.222)"><path d="M7.211-7.211H144.693" transform="translate(0 -312.142)" fill="none" stroke="#f65656" stroke-linecap="square" stroke-miterlimit="1.5" stroke-width="8"/><g transform="translate(84.564 -345.959)"><path d="M265.414-55.782l7.682-7.682,7.682,7.682L273.1-48.1Z" transform="translate(-220.648 63.464)" fill="#f65656" fill-rule="evenodd"/><path d="M218.088-55.782l7.682-7.682,7.683,7.682L225.77-48.1Z" transform="translate(-195.706 63.464)" fill="#f65656" fill-rule="evenodd"/><path d="M170.763-55.782l7.682-7.682,7.682,7.682L178.445-48.1Z" transform="translate(-170.763 63.464)" fill="#f65656" fill-rule="evenodd"/></g><path d="M1774-971.239H1636.52" transform="translate(-1406.792)" fill="none" stroke="#f65656" stroke-linecap="square" stroke-miterlimit="1.5" stroke-width="8"/><g transform="translate(229.729 -959.998)"><path d="M1651.886-939.79l-7.681,7.682-7.686-7.682,7.686-7.682Z" transform="translate(-1636.52 947.472)" fill="#f65656" fill-rule="evenodd"/><path d="M1699.211-939.79l-7.681,7.682-7.681-7.682,7.681-7.682Z" transform="translate(-1661.465 947.472)" fill="#f65656" fill-rule="evenodd"/><path d="M1746.536-939.79l-7.681,7.682-7.685-7.682,7.685-7.682Z" transform="translate(-1686.405 947.472)" fill="#f65656" fill-rule="evenodd"/></g></g><g transform="translate(260.603 718.733)"><path d="M.274-119.877l10.776,13.451L.274-92.976a1.247,1.247,0,0,0-.052,1.489L11.1-75.767.261-61.781a1.247,1.247,0,0,0,.222,1.749,1.247,1.247,0,0,0,1.749-.222l11.4-14.709a1.247,1.247,0,0,0,.04-1.473L2.8-92.142l10.819-13.5a1.247,1.247,0,0,0,0-1.559l-11.4-14.23a1.247,1.247,0,0,0-1.753-.193A1.247,1.247,0,0,0,.274-119.877Z" transform="translate(0 0)" fill="#f65656" fill-rule="evenodd"/><path d="M13.033-119.877l10.776,13.451L13.033-92.976a1.247,1.247,0,0,0-.052,1.489l10.88,15.719L13.021-61.781a1.247,1.247,0,0,0,.222,1.749,1.247,1.247,0,0,0,1.749-.222l11.4-14.709a1.247,1.247,0,0,0,.04-1.473L15.56-92.142l10.819-13.5a1.247,1.247,0,0,0,0-1.559l-11.4-14.23a1.247,1.247,0,0,0-1.753-.193A1.247,1.247,0,0,0,13.033-119.877Z" transform="translate(-6.256 0)" fill="#f65656" fill-rule="evenodd"/></g><g transform="translate(184.577 175.08)"><path d="M.274-119.877l10.776,13.451L.274-92.976a1.247,1.247,0,0,0-.052,1.489L11.1-75.767.261-61.781a1.247,1.247,0,0,0,.222,1.749,1.247,1.247,0,0,0,1.749-.222l11.4-14.709a1.247,1.247,0,0,0,.04-1.473L2.8-92.142l10.819-13.5a1.247,1.247,0,0,0,0-1.559l-11.4-14.23a1.247,1.247,0,0,0-1.753-.193A1.247,1.247,0,0,0,.274-119.877Z" transform="translate(0 0)" fill="#f65656" fill-rule="evenodd"/><path d="M13.033-119.877l10.776,13.451L13.033-92.976a1.247,1.247,0,0,0-.052,1.489l10.88,15.719L13.021-61.781a1.247,1.247,0,0,0,.222,1.749,1.247,1.247,0,0,0,1.749-.222l11.4-14.709a1.247,1.247,0,0,0,.04-1.473L15.56-92.142l10.819-13.5a1.247,1.247,0,0,0,0-1.559l-11.4-14.23a1.247,1.247,0,0,0-1.753-.193A1.247,1.247,0,0,0,13.033-119.877Z" transform="translate(-6.256 0)" fill="#f65656" fill-rule="evenodd"/></g><g transform="translate(42.775 675.837)"><path d="M.274-119.877l10.776,13.451L.274-92.976a1.247,1.247,0,0,0-.052,1.489L11.1-75.767.261-61.781a1.247,1.247,0,0,0,.222,1.749,1.247,1.247,0,0,0,1.749-.222l11.4-14.709a1.247,1.247,0,0,0,.04-1.473L2.8-92.142l10.819-13.5a1.247,1.247,0,0,0,0-1.559l-11.4-14.23a1.247,1.247,0,0,0-1.753-.193A1.247,1.247,0,0,0,.274-119.877Z" transform="translate(0 0)" fill="#f65656" fill-rule="evenodd"/><path d="M13.033-119.877l10.776,13.451L13.033-92.976a1.247,1.247,0,0,0-.052,1.489l10.88,15.719L13.021-61.781a1.247,1.247,0,0,0,.222,1.749,1.247,1.247,0,0,0,1.749-.222l11.4-14.709a1.247,1.247,0,0,0,.04-1.473L15.56-92.142l10.819-13.5a1.247,1.247,0,0,0,0-1.559l-11.4-14.23a1.247,1.247,0,0,0-1.753-.193A1.247,1.247,0,0,0,13.033-119.877Z" transform="translate(-6.256 0)" fill="#f65656" fill-rule="evenodd"/></g><g transform="translate(349.801 414.837)"><path d="M.274-119.877l10.776,13.451L.274-92.976a1.247,1.247,0,0,0-.052,1.489L11.1-75.767.261-61.781a1.247,1.247,0,0,0,.222,1.749,1.247,1.247,0,0,0,1.749-.222l11.4-14.709a1.247,1.247,0,0,0,.04-1.473L2.8-92.142l10.819-13.5a1.247,1.247,0,0,0,0-1.559l-11.4-14.23a1.247,1.247,0,0,0-1.753-.193A1.247,1.247,0,0,0,.274-119.877Z" transform="translate(0 0)" fill="#f65656" fill-rule="evenodd"/><path d="M13.033-119.877l10.776,13.451L13.033-92.976a1.247,1.247,0,0,0-.052,1.489l10.88,15.719L13.021-61.781a1.247,1.247,0,0,0,.222,1.749,1.247,1.247,0,0,0,1.749-.222l11.4-14.709a1.247,1.247,0,0,0,.04-1.473L15.56-92.142l10.819-13.5a1.247,1.247,0,0,0,0-1.559l-11.4-14.23a1.247,1.247,0,0,0-1.753-.193A1.247,1.247,0,0,0,13.033-119.877Z" transform="translate(-6.256 0)" fill="#f65656" fill-rule="evenodd"/></g><g transform="translate(243.71 579.252)"><path d="M32.118-48.359H13.767L0-28.246H18.351Zm26.19,0H39.958L26.19-28.246H44.542Zm26.191,0H66.148L52.381-28.246H70.732Zm26.19,0H92.338L78.571-28.246H96.922Zm26.191,0H118.529L104.761-28.246h18.352Zm26.191,0H144.719L130.952-28.246H149.3Zm26.19,0H170.91L157.143-28.246h18.351Zm26.191,0H197.1L183.333-28.246h18.352Zm26.191,0H223.291L209.523-28.246h18.352Zm26.19,0H249.481L235.714-28.246h18.351Z" fill="#f65656" fill-rule="evenodd"/><path d="M33.689-42.213H15.337L1.57-22.1H19.922Zm26.19,0H41.528L27.761-22.1H46.112Zm26.191,0H67.718L53.951-22.1H72.3Zm26.191,0H93.909L80.142-22.1H98.493Zm26.19,0H120.1L106.332-22.1h18.351Zm26.191,0H146.289L132.522-22.1h18.352Zm26.191,0H172.48L158.713-22.1h18.352Zm26.19,0H198.671L184.9-22.1h18.351Zm26.191,0H224.861L211.094-22.1h18.352Zm26.19,0H251.051L237.284-22.1h18.351Z" transform="translate(-0.822 -3.218)" fill="#fff4f4" fill-rule="evenodd"/></g></g></g></svg>