<svg xmlns="http://www.w3.org/2000/svg" xmlns:xlink="http://www.w3.org/1999/xlink" width="360" height="760" viewBox="0 0 360 760">
  <defs>
    <clipPath id="clip-path">
      <rect id="Rectangle_37" data-name="Rectangle 37" width="361" height="760"/>
    </clipPath>
    <clipPath id="clip-Samsung_Galaxy_S10_3">
      <rect width="360" height="760"/>
    </clipPath>
  </defs>
  <g id="Samsung_Galaxy_S10_3" data-name="Samsung Galaxy S10 – 3" clip-path="url(#clip-Samsung_Galaxy_S10_3)">
    <rect width="360" height="760" fill="#fff"/>
    <rect id="Rectangle_49" data-name="Rectangle 49" width="360" height="760" fill="#200505"/>
    <g id="Group_282" data-name="Group 282" transform="translate(-7.211 1045.758)">
      <path id="Path_1" data-name="Path 1" d="M7.211-7.211H111.647" transform="translate(0 -353.066)" fill="none" stroke="#f65656" stroke-linecap="square" stroke-miterlimit="1.5" stroke-width="8"/>
      <g id="Group_224" data-name="Group 224" transform="translate(65.971 -380.487)">
        <path id="Path_2" data-name="Path 2" d="M265.414-57.628l5.836-5.836,5.836,5.836-5.836,5.836Z" transform="translate(-231.409 63.464)" fill="#f65656" fill-rule="evenodd"/>
        <path id="Path_3" data-name="Path 3" d="M218.088-57.628l5.836-5.836,5.836,5.836-5.836,5.836Z" transform="translate(-201.085 63.464)" fill="#f65656" fill-rule="evenodd"/>
        <path id="Path_4" data-name="Path 4" d="M170.763-57.628l5.836-5.836,5.836,5.836L176.6-51.793Z" transform="translate(-170.763 63.464)" fill="#f65656" fill-rule="evenodd"/>
      </g>
      <path id="Path_5" data-name="Path 5" d="M1740.957-971.239H1636.52" transform="translate(-1373.745)" fill="none" stroke="#f65656" stroke-linecap="square" stroke-miterlimit="1.5" stroke-width="8"/>
      <g id="Group_225" data-name="Group 225" transform="translate(262.775 -962.7)">
        <path id="Path_6" data-name="Path 6" d="M1648.193-941.636l-5.834,5.836-5.838-5.836,5.838-5.836Z" transform="translate(-1636.52 947.472)" fill="#f65656" fill-rule="evenodd"/>
        <path id="Path_7" data-name="Path 7" d="M1695.519-941.636l-5.834,5.836-5.835-5.836,5.835-5.836Z" transform="translate(-1666.846 947.472)" fill="#f65656" fill-rule="evenodd"/>
        <path id="Path_8" data-name="Path 8" d="M1742.843-941.636l-5.835,5.836-5.838-5.836,5.838-5.836Z" transform="translate(-1697.165 947.472)" fill="#f65656" fill-rule="evenodd"/>
      </g>
    </g>
    <g id="Group_283" data-name="Group 283" transform="translate(725.48 653.341) rotate(-90)" style="isolation: isolate">
      <path id="Path_9" data-name="Path 9" d="M213.2-430.58v49.991a.755.755,0,0,0,.754.755.755.755,0,0,0,.754-.755V-430.58a.755.755,0,0,0-.754-.754A.755.755,0,0,0,213.2-430.58Z" transform="translate(-148.097 0)" fill="#f65656" fill-rule="evenodd"/>
      <path id="Path_10" data-name="Path 10" d="M239.112-423.422,226.1-375.154a.754.754,0,0,0,.532.925.755.755,0,0,0,.925-.532l13.012-48.268a.755.755,0,0,0-.532-.925A.755.755,0,0,0,239.112-423.422Z" transform="translate(-157.042 -5.109)" fill="#f65656" fill-rule="evenodd"/>
      <path id="Path_11" data-name="Path 11" d="M263.03-402.381l-25,43.293a.754.754,0,0,0,.276,1.03.754.754,0,0,0,1.03-.276l25-43.293a.755.755,0,0,0-.276-1.031A.755.755,0,0,0,263.03-402.381Z" transform="translate(-165.28 -19.85)" fill="#f65656" fill-rule="evenodd"/>
      <path id="Path_12" data-name="Path 12" d="M283.748-368.651,248.4-333.3a.755.755,0,0,0,0,1.067.754.754,0,0,0,1.067,0l35.349-35.349a.754.754,0,0,0,0-1.067A.754.754,0,0,0,283.748-368.651Z" transform="translate(-172.396 -43.389)" fill="#f65656" fill-rule="evenodd"/>
      <path id="Path_13" data-name="Path 13" d="M299.706-324.613l-43.293,25a.754.754,0,0,0-.276,1.03.755.755,0,0,0,1.03.276l43.293-25a.755.755,0,0,0,.276-1.03A.755.755,0,0,0,299.706-324.613Z" transform="translate(-177.855 -74.063)" fill="#f65656" fill-rule="evenodd"/>
      <path id="Path_14" data-name="Path 14" d="M309.819-273.267l-48.287,12.939a.755.755,0,0,0-.533.924.755.755,0,0,0,.924.533L310.21-271.81a.755.755,0,0,0,.533-.924A.755.755,0,0,0,309.819-273.267Z" transform="translate(-181.284 -109.783)" fill="#f65656" fill-rule="evenodd"/>
      <path id="Path_15" data-name="Path 15" d="M313.4-218.112H263.406a.755.755,0,0,0-.754.754.755.755,0,0,0,.754.754H313.4a.755.755,0,0,0,.754-.754A.755.755,0,0,0,313.4-218.112Z" transform="translate(-182.451 -148.114)" fill="#f65656" fill-rule="evenodd"/>
      <path id="Path_16" data-name="Path 16" d="M.754-216.629H50.745a.755.755,0,0,0,.755-.754.755.755,0,0,0-.755-.754H.754a.755.755,0,0,0-.754.754A.755.755,0,0,0,.754-216.629Z" transform="translate(0 -148.097)" fill="#f65656" fill-rule="evenodd"/>
      <path id="Path_17" data-name="Path 17" d="M7.912-272.145,56.18-259.133a.754.754,0,0,0,.925-.532.755.755,0,0,0-.532-.925L8.3-273.6a.755.755,0,0,0-.925.532A.755.755,0,0,0,7.912-272.145Z" transform="translate(-5.109 -109.55)" fill="#f65656" fill-rule="evenodd"/>
      <path id="Path_18" data-name="Path 18" d="M28.953-323.325l43.293,25a.754.754,0,0,0,1.03-.276.754.754,0,0,0-.276-1.03l-43.293-25a.754.754,0,0,0-1.03.276A.755.755,0,0,0,28.953-323.325Z" transform="translate(-19.85 -74.051)" fill="#f65656" fill-rule="evenodd"/>
      <path id="Path_19" data-name="Path 19" d="M62.683-367.595l35.349,35.349a.755.755,0,0,0,1.067,0,.755.755,0,0,0,0-1.067L63.75-368.661a.755.755,0,0,0-1.067,0A.755.755,0,0,0,62.683-367.595Z" transform="translate(-43.389 -43.382)" fill="#f65656" fill-rule="evenodd"/>
      <path id="Path_20" data-name="Path 20" d="M106.721-401.627l25,43.293a.754.754,0,0,0,1.03.276.755.755,0,0,0,.276-1.03l-25-43.293a.755.755,0,0,0-1.03-.276A.755.755,0,0,0,106.721-401.627Z" transform="translate(-74.063 -19.85)" fill="#f65656" fill-rule="evenodd"/>
      <path id="Path_21" data-name="Path 21" d="M158.067-423.1l12.939,48.287a.755.755,0,0,0,.924.533.755.755,0,0,0,.533-.924l-12.939-48.288a.755.755,0,0,0-.924-.533A.755.755,0,0,0,158.067-423.1Z" transform="translate(-109.783 -5.059)" fill="#f65656" fill-rule="evenodd"/>
      <path id="Path_22" data-name="Path 22" d="M213.222-430.555v49.991a.755.755,0,0,0,.754.755.755.755,0,0,0,.754-.755v-49.991a.755.755,0,0,0-.754-.754A.755.755,0,0,0,213.222-430.555Z" transform="translate(-148.114 -0.017)" fill="#f65656" fill-rule="evenodd"/>
      <path id="Path_23" data-name="Path 23" d="M214.705-117.912V-167.9a.755.755,0,0,0-.754-.755.755.755,0,0,0-.754.755v49.991a.755.755,0,0,0,.754.754A.755.755,0,0,0,214.705-117.912Z" transform="translate(-148.097 -182.468)" fill="#f65656" fill-rule="evenodd"/>
      <path id="Path_24" data-name="Path 24" d="M159.189-121.15,172.2-169.418a.754.754,0,0,0-.532-.925.754.754,0,0,0-.925.532l-13.012,48.268a.755.755,0,0,0,.532.925A.755.755,0,0,0,159.189-121.15Z" transform="translate(-109.55 -181.279)" fill="#f65656" fill-rule="evenodd"/>
      <path id="Path_25" data-name="Path 25" d="M108.009-130.873l25-43.294a.754.754,0,0,0-.276-1.03.754.754,0,0,0-1.03.276l-25,43.293a.754.754,0,0,0,.276,1.03A.755.755,0,0,0,108.009-130.873Z" transform="translate(-74.051 -177.855)" fill="#f65656" fill-rule="evenodd"/>
      <path id="Path_26" data-name="Path 26" d="M63.739-146.53l35.349-35.349a.755.755,0,0,0,0-1.067.755.755,0,0,0-1.067,0L62.672-147.6a.755.755,0,0,0,0,1.067A.755.755,0,0,0,63.739-146.53Z" transform="translate(-43.382 -172.389)" fill="#f65656" fill-rule="evenodd"/>
      <path id="Path_27" data-name="Path 27" d="M29.707-167.016l43.293-25a.754.754,0,0,0,.276-1.03.755.755,0,0,0-1.03-.276l-43.293,25a.754.754,0,0,0-.276,1.03A.755.755,0,0,0,29.707-167.016Z" transform="translate(-19.85 -165.268)" fill="#f65656" fill-rule="evenodd"/>
      <path id="Path_28" data-name="Path 28" d="M8.232-190.934,56.52-203.873a.754.754,0,0,0,.533-.924.755.755,0,0,0-.924-.533L7.842-192.391a.755.755,0,0,0-.533.924A.755.755,0,0,0,8.232-190.934Z" transform="translate(-5.059 -156.975)" fill="#f65656" fill-rule="evenodd"/>
      <path id="Path_29" data-name="Path 29" d="M.779-216.654H50.77a.755.755,0,0,0,.755-.754.755.755,0,0,0-.755-.754H.779a.755.755,0,0,0-.754.754A.755.755,0,0,0,.779-216.654Z" transform="translate(-0.017 -148.08)" fill="#f65656" fill-rule="evenodd"/>
    </g>
    <g id="Group_284" data-name="Group 284" transform="translate(65.85 -266.99) rotate(-180)" style="isolation: isolate">
      <path id="Path_9-2" data-name="Path 9" d="M213.2-430.58v49.991a.755.755,0,0,0,.754.755.755.755,0,0,0,.754-.755V-430.58a.755.755,0,0,0-.754-.754A.755.755,0,0,0,213.2-430.58Z" transform="translate(-148.097 0)" fill="#f65656" fill-rule="evenodd"/>
      <path id="Path_10-2" data-name="Path 10" d="M239.112-423.422,226.1-375.154a.754.754,0,0,0,.532.925.755.755,0,0,0,.925-.532l13.012-48.268a.755.755,0,0,0-.532-.925A.755.755,0,0,0,239.112-423.422Z" transform="translate(-157.042 -5.109)" fill="#f65656" fill-rule="evenodd"/>
      <path id="Path_11-2" data-name="Path 11" d="M263.03-402.381l-25,43.293a.754.754,0,0,0,.276,1.03.754.754,0,0,0,1.03-.276l25-43.293a.755.755,0,0,0-.276-1.031A.755.755,0,0,0,263.03-402.381Z" transform="translate(-165.28 -19.85)" fill="#f65656" fill-rule="evenodd"/>
      <path id="Path_12-2" data-name="Path 12" d="M283.748-368.651,248.4-333.3a.755.755,0,0,0,0,1.067.754.754,0,0,0,1.067,0l35.349-35.349a.754.754,0,0,0,0-1.067A.754.754,0,0,0,283.748-368.651Z" transform="translate(-172.396 -43.389)" fill="#f65656" fill-rule="evenodd"/>
      <path id="Path_13-2" data-name="Path 13" d="M299.706-324.613l-43.293,25a.754.754,0,0,0-.276,1.03.755.755,0,0,0,1.03.276l43.293-25a.755.755,0,0,0,.276-1.03A.755.755,0,0,0,299.706-324.613Z" transform="translate(-177.855 -74.063)" fill="#f65656" fill-rule="evenodd"/>
      <path id="Path_14-2" data-name="Path 14" d="M309.819-273.267l-48.287,12.939a.755.755,0,0,0-.533.924.755.755,0,0,0,.924.533L310.21-271.81a.755.755,0,0,0,.533-.924A.755.755,0,0,0,309.819-273.267Z" transform="translate(-181.284 -109.783)" fill="#f65656" fill-rule="evenodd"/>
      <path id="Path_15-2" data-name="Path 15" d="M313.4-218.112H263.406a.755.755,0,0,0-.754.754.755.755,0,0,0,.754.754H313.4a.755.755,0,0,0,.754-.754A.755.755,0,0,0,313.4-218.112Z" transform="translate(-182.451 -148.114)" fill="#f65656" fill-rule="evenodd"/>
      <path id="Path_16-2" data-name="Path 16" d="M.754-216.629H50.745a.755.755,0,0,0,.755-.754.755.755,0,0,0-.755-.754H.754a.755.755,0,0,0-.754.754A.755.755,0,0,0,.754-216.629Z" transform="translate(0 -148.097)" fill="#f65656" fill-rule="evenodd"/>
      <path id="Path_17-2" data-name="Path 17" d="M7.912-272.145,56.18-259.133a.754.754,0,0,0,.925-.532.755.755,0,0,0-.532-.925L8.3-273.6a.755.755,0,0,0-.925.532A.755.755,0,0,0,7.912-272.145Z" transform="translate(-5.109 -109.55)" fill="#f65656" fill-rule="evenodd"/>
      <path id="Path_18-2" data-name="Path 18" d="M28.953-323.325l43.293,25a.754.754,0,0,0,1.03-.276.754.754,0,0,0-.276-1.03l-43.293-25a.754.754,0,0,0-1.03.276A.755.755,0,0,0,28.953-323.325Z" transform="translate(-19.85 -74.051)" fill="#f65656" fill-rule="evenodd"/>
      <path id="Path_19-2" data-name="Path 19" d="M62.683-367.595l35.349,35.349a.755.755,0,0,0,1.067,0,.755.755,0,0,0,0-1.067L63.75-368.661a.755.755,0,0,0-1.067,0A.755.755,0,0,0,62.683-367.595Z" transform="translate(-43.389 -43.382)" fill="#f65656" fill-rule="evenodd"/>
      <path id="Path_20-2" data-name="Path 20" d="M106.721-401.627l25,43.293a.754.754,0,0,0,1.03.276.755.755,0,0,0,.276-1.03l-25-43.293a.755.755,0,0,0-1.03-.276A.755.755,0,0,0,106.721-401.627Z" transform="translate(-74.063 -19.85)" fill="#f65656" fill-rule="evenodd"/>
      <path id="Path_21-2" data-name="Path 21" d="M158.067-423.1l12.939,48.287a.755.755,0,0,0,.924.533.755.755,0,0,0,.533-.924l-12.939-48.288a.755.755,0,0,0-.924-.533A.755.755,0,0,0,158.067-423.1Z" transform="translate(-109.783 -5.059)" fill="#f65656" fill-rule="evenodd"/>
      <path id="Path_22-2" data-name="Path 22" d="M213.222-430.555v49.991a.755.755,0,0,0,.754.755.755.755,0,0,0,.754-.755v-49.991a.755.755,0,0,0-.754-.754A.755.755,0,0,0,213.222-430.555Z" transform="translate(-148.114 -0.017)" fill="#f65656" fill-rule="evenodd"/>
      <path id="Path_23-2" data-name="Path 23" d="M214.705-117.912V-167.9a.755.755,0,0,0-.754-.755.755.755,0,0,0-.754.755v49.991a.755.755,0,0,0,.754.754A.755.755,0,0,0,214.705-117.912Z" transform="translate(-148.097 -182.468)" fill="#f65656" fill-rule="evenodd"/>
      <path id="Path_24-2" data-name="Path 24" d="M159.189-121.15,172.2-169.418a.754.754,0,0,0-.532-.925.754.754,0,0,0-.925.532l-13.012,48.268a.755.755,0,0,0,.532.925A.755.755,0,0,0,159.189-121.15Z" transform="translate(-109.55 -181.279)" fill="#f65656" fill-rule="evenodd"/>
      <path id="Path_25-2" data-name="Path 25" d="M108.009-130.873l25-43.294a.754.754,0,0,0-.276-1.03.754.754,0,0,0-1.03.276l-25,43.293a.754.754,0,0,0,.276,1.03A.755.755,0,0,0,108.009-130.873Z" transform="translate(-74.051 -177.855)" fill="#f65656" fill-rule="evenodd"/>
      <path id="Path_26-2" data-name="Path 26" d="M63.739-146.53l35.349-35.349a.755.755,0,0,0,0-1.067.755.755,0,0,0-1.067,0L62.672-147.6a.755.755,0,0,0,0,1.067A.755.755,0,0,0,63.739-146.53Z" transform="translate(-43.382 -172.389)" fill="#f65656" fill-rule="evenodd"/>
      <path id="Path_27-2" data-name="Path 27" d="M29.707-167.016l43.293-25a.754.754,0,0,0,.276-1.03.755.755,0,0,0-1.03-.276l-43.293,25a.754.754,0,0,0-.276,1.03A.755.755,0,0,0,29.707-167.016Z" transform="translate(-19.85 -165.268)" fill="#f65656" fill-rule="evenodd"/>
      <path id="Path_28-2" data-name="Path 28" d="M8.232-190.934,56.52-203.873a.754.754,0,0,0,.533-.924.755.755,0,0,0-.924-.533L7.842-192.391a.755.755,0,0,0-.533.924A.755.755,0,0,0,8.232-190.934Z" transform="translate(-5.059 -156.975)" fill="#f65656" fill-rule="evenodd"/>
      <path id="Path_29-2" data-name="Path 29" d="M.779-216.654H50.77a.755.755,0,0,0,.755-.754.755.755,0,0,0-.755-.754H.779a.755.755,0,0,0-.754.754A.755.755,0,0,0,.779-216.654Z" transform="translate(-0.017 -148.08)" fill="#f65656" fill-rule="evenodd"/>
    </g>
    <g id="Group_288" data-name="Group 288" transform="translate(65.85 308.569)">
      <path id="Path_30" data-name="Path 30" d="M.213-120.33l8.365,10.442L.213-99.447a.968.968,0,0,0-.04,1.156l8.446,12.2L.2-75.231a.968.968,0,0,0,.172,1.358.968.968,0,0,0,1.358-.172l8.85-11.418a.968.968,0,0,0,.031-1.144L2.174-98.8l8.4-10.484a.968.968,0,0,0,0-1.21l-8.85-11.047a.968.968,0,0,0-1.36-.15A.968.968,0,0,0,.213-120.33Z" transform="translate(0)" fill="#f65656" fill-rule="evenodd"/>
      <path id="Path_31" data-name="Path 31" d="M12.972-120.33l8.365,10.442L12.972-99.447a.968.968,0,0,0-.04,1.156l8.446,12.2L12.962-75.231a.968.968,0,0,0,.172,1.358.968.968,0,0,0,1.358-.172l8.85-11.418a.968.968,0,0,0,.031-1.144L14.934-98.8l8.4-10.484a.968.968,0,0,0,0-1.21l-8.85-11.047a.968.968,0,0,0-1.36-.15A.968.968,0,0,0,12.972-120.33Z" transform="translate(-7.711)" fill="#f65656" fill-rule="evenodd"/>
    </g>
    <g id="Group_289" data-name="Group 289" transform="translate(89.85 666.569)">
      <path id="Path_30-2" data-name="Path 30" d="M.213-120.33l8.365,10.442L.213-99.447a.968.968,0,0,0-.04,1.156l8.446,12.2L.2-75.231a.968.968,0,0,0,.172,1.358.968.968,0,0,0,1.358-.172l8.85-11.418a.968.968,0,0,0,.031-1.144L2.174-98.8l8.4-10.484a.968.968,0,0,0,0-1.21l-8.85-11.047a.968.968,0,0,0-1.36-.15A.968.968,0,0,0,.213-120.33Z" transform="translate(0)" fill="#f65656" fill-rule="evenodd"/>
      <path id="Path_31-2" data-name="Path 31" d="M12.972-120.33l8.365,10.442L12.972-99.447a.968.968,0,0,0-.04,1.156l8.446,12.2L12.962-75.231a.968.968,0,0,0,.172,1.358.968.968,0,0,0,1.358-.172l8.85-11.418a.968.968,0,0,0,.031-1.144L14.934-98.8l8.4-10.484a.968.968,0,0,0,0-1.21l-8.85-11.047a.968.968,0,0,0-1.36-.15A.968.968,0,0,0,12.972-120.33Z" transform="translate(-7.711)" fill="#f65656" fill-rule="evenodd"/>
    </g>
    <g id="Group_290" data-name="Group 290" transform="translate(271.85 262.131)">
      <path id="Path_30-3" data-name="Path 30" d="M.213-120.33l8.365,10.442L.213-99.447a.968.968,0,0,0-.04,1.156l8.446,12.2L.2-75.231a.968.968,0,0,0,.172,1.358.968.968,0,0,0,1.358-.172l8.85-11.418a.968.968,0,0,0,.031-1.144L2.174-98.8l8.4-10.484a.968.968,0,0,0,0-1.21l-8.85-11.047a.968.968,0,0,0-1.36-.15A.968.968,0,0,0,.213-120.33Z" transform="translate(0)" fill="#f65656" fill-rule="evenodd"/>
      <path id="Path_31-3" data-name="Path 31" d="M12.972-120.33l8.365,10.442L12.972-99.447a.968.968,0,0,0-.04,1.156l8.446,12.2L12.962-75.231a.968.968,0,0,0,.172,1.358.968.968,0,0,0,1.358-.172l8.85-11.418a.968.968,0,0,0,.031-1.144L14.934-98.8l8.4-10.484a.968.968,0,0,0,0-1.21l-8.85-11.047a.968.968,0,0,0-1.36-.15A.968.968,0,0,0,12.972-120.33Z" transform="translate(-7.711)" fill="#f65656" fill-rule="evenodd"/>
    </g>
    <g id="Group_291" data-name="Group 291" transform="translate(246.85 791.569)">
      <path id="Path_30-4" data-name="Path 30" d="M.213-120.33l8.365,10.442L.213-99.447a.968.968,0,0,0-.04,1.156l8.446,12.2L.2-75.231a.968.968,0,0,0,.172,1.358.968.968,0,0,0,1.358-.172l8.85-11.418a.968.968,0,0,0,.031-1.144L2.174-98.8l8.4-10.484a.968.968,0,0,0,0-1.21l-8.85-11.047a.968.968,0,0,0-1.36-.15A.968.968,0,0,0,.213-120.33Z" transform="translate(0)" fill="#f65656" fill-rule="evenodd"/>
      <path id="Path_31-4" data-name="Path 31" d="M12.972-120.33l8.365,10.442L12.972-99.447a.968.968,0,0,0-.04,1.156l8.446,12.2L12.962-75.231a.968.968,0,0,0,.172,1.358.968.968,0,0,0,1.358-.172l8.85-11.418a.968.968,0,0,0,.031-1.144L14.934-98.8l8.4-10.484a.968.968,0,0,0,0-1.21l-8.85-11.047a.968.968,0,0,0-1.36-.15A.968.968,0,0,0,12.972-120.33Z" transform="translate(-7.711)" fill="#f65656" fill-rule="evenodd"/>
    </g>
  </g>
</svg>
