<?xml version="1.0" encoding="UTF-8" standalone="no"?><!DOCTYPE svg PUBLIC "-//W3C//DTD SVG 1.1//EN" "http://www.w3.org/Graphics/SVG/1.1/DTD/svg11.dtd"><svg width="100%" height="100%" viewBox="0 0 100 100" version="1.1" xmlns="http://www.w3.org/2000/svg" xmlns:xlink="http://www.w3.org/1999/xlink" xml:space="preserve" xmlns:serif="http://www.serif.com/" style="fill-rule:evenodd;clip-rule:evenodd;stroke-linejoin:round;stroke-miterlimit:2;"><path d="M82.875,39.792c-0.705,-1.399 -2.142,-2.287 -3.708,-2.292l-20.834,0l0,-25c0.092,-1.873 -1.091,-3.588 -2.875,-4.167c-1.711,-0.563 -3.603,0.045 -4.666,1.5l-33.334,45.834c-0.849,1.227 -0.976,2.82 -0.333,4.166c0.594,1.545 2.055,2.595 3.708,2.667l20.834,0l-0,25c0.001,1.798 1.166,3.401 2.875,3.958c0.418,0.13 0.853,0.2 1.291,0.209c1.333,0.003 2.589,-0.633 3.375,-1.709l33.334,-45.833c0.914,-1.266 1.043,-2.943 0.333,-4.333Zm-32.875,34.875l0,-16.334c0,-2.285 -1.881,-4.166 -4.167,-4.166l-16.666,-0l20.833,-28.834l0,16.334c0,2.285 1.881,4.166 4.167,4.166l16.666,0l-20.833,28.834Z" style="fill:#fff;fill-rule:nonzero;"/></svg>