<?xml version="1.0" encoding="UTF-8" standalone="no"?><!DOCTYPE svg PUBLIC "-//W3C//DTD SVG 1.1//EN" "http://www.w3.org/Graphics/SVG/1.1/DTD/svg11.dtd"><svg width="100%" height="100%" viewBox="0 0 506 581" version="1.1" xmlns="http://www.w3.org/2000/svg" xmlns:xlink="http://www.w3.org/1999/xlink" xml:space="preserve" xmlns:serif="http://www.serif.com/" style="fill-rule:evenodd;clip-rule:evenodd;stroke-linejoin:round;stroke-miterlimit:2;"><g><path d="M252.777,503.065l-213.451,-227.873l-39.326,36.838l215.861,230.446l-1.166,1.244l19.02,17.817l17.817,19.02l1.245,-1.165l1.244,1.165l17.817,-19.02l19.02,-17.817l-1.165,-1.244l215.86,-230.446l-39.326,-36.838l-213.45,227.873Z" style="fill:#c9c9c9;"/><path d="M252.777,263.423l-213.451,-227.873l-39.326,36.838l215.861,230.446l-1.166,1.244l19.02,17.817l17.817,19.02l1.245,-1.165l1.244,1.165l17.817,-19.02l19.02,-17.817l-1.165,-1.244l215.86,-230.446l-39.326,-36.838l-213.45,227.873Z" style="fill:#c9c9c9;"/><path d="M252.777,467.515l-213.451,-227.873l-39.326,36.837l215.861,230.446l-1.166,1.245l19.02,17.816l17.817,19.021l1.245,-1.166l1.244,1.166l17.817,-19.021l19.02,-17.816l-1.165,-1.245l215.86,-230.446l-39.326,-36.837l-213.45,227.873Z"/><path d="M252.777,227.873l-213.451,-227.873l-39.326,36.837l215.861,230.446l-1.166,1.245l19.02,17.816l17.817,19.021l1.245,-1.166l1.244,1.166l17.817,-19.021l19.02,-17.816l-1.165,-1.245l215.86,-230.446l-39.326,-36.837l-213.45,227.873Z"/></g></svg>