<?xml version="1.0" encoding="UTF-8" standalone="no"?><!DOCTYPE svg PUBLIC "-//W3C//DTD SVG 1.1//EN" "http://www.w3.org/Graphics/SVG/1.1/DTD/svg11.dtd"><svg width="100%" height="100%" viewBox="0 0 3044 1047" version="1.1" xmlns="http://www.w3.org/2000/svg" xmlns:xlink="http://www.w3.org/1999/xlink" xml:space="preserve" xmlns:serif="http://www.serif.com/" style="fill-rule:evenodd;clip-rule:evenodd;stroke-linejoin:round;stroke-miterlimit:2;"><g><g><path d="M466.478,0l2110.23,0c19.141,-0 38.283,4.95 55.435,14.851c89.745,51.802 265.829,153.439 355.587,205.248c34.316,19.808 55.456,56.419 55.456,96.041l-0,410.451c-0,39.622 -21.14,76.234 -55.456,96.041c-89.758,51.809 -265.842,153.447 -355.587,205.248c-17.152,9.901 -36.294,14.851 -55.435,14.851l-2110.23,0l0,-1042.73Z" style="fill:#c3fffa;"/><g><path d="M55.456,826.603c-34.316,-19.808 -55.456,-56.419 -55.456,-96.041l0,-410.451c0,-39.622 21.14,-76.233 55.456,-96.041c89.758,-51.809 265.842,-153.447 355.587,-205.248c34.304,-19.802 76.566,-19.802 110.871,-0c89.745,51.801 265.829,153.439 355.587,205.248c34.316,19.808 55.456,56.419 55.456,96.041l-0,410.451c-0,39.622 -21.14,76.233 -55.456,96.041c-89.758,51.809 -265.842,153.446 -355.587,205.248c-34.305,19.801 -76.567,19.801 -110.871,0c-89.745,-51.802 -265.829,-153.439 -355.587,-205.248Z" style="fill:#222;"/><g><path d="M433.566,196.42c5.041,-13.825 18.187,-23.024 32.902,-23.024c14.715,0 27.86,9.199 32.901,23.024c38.874,106.616 102.535,281.214 136.406,374.107c14.505,39.784 10.722,83.94 -10.34,120.676c-22.252,38.811 -52.522,91.606 -80.679,140.716c-16.084,28.054 -45.95,45.358 -78.288,45.358c-32.339,-0 -62.205,-17.304 -78.289,-45.358c-28.136,-49.072 -58.381,-101.825 -80.628,-140.628c-21.094,-36.792 -24.883,-81.015 -10.355,-120.86c33.879,-92.917 97.51,-267.432 136.37,-374.011Z" style="fill:#02e1ce;"/><path d="M457.124,322.912c1.432,-3.926 5.165,-6.539 9.344,-6.539c4.178,0 7.911,2.613 9.343,6.539c26.198,71.852 98.461,270.04 98.461,270.04c7.896,21.656 5.837,45.693 -5.629,65.69c-22.251,38.811 -52.521,91.607 -80.678,140.717c-4.416,7.703 -12.618,12.454 -21.497,12.454c-8.88,0 -17.081,-4.751 -21.498,-12.454c-0,-0 -80.628,-140.628 -80.628,-140.628c-11.497,-20.054 -13.562,-44.158 -5.644,-65.875c0,0 72.234,-198.108 98.426,-269.944Z" style="fill:#c3fffa;"/></g></g></g><g><text x="1063.34px" y="861.364px" style="font-family:'Modulus-Bold', 'Modulus';font-weight:700;font-size:139.765px;fill:#222;">designed to be simple.</text><g><path d="M1171.81,256.491l-82.393,0c1.987,-8.302 6.194,-15.435 12.622,-21.399l-0,0.117c8.414,-7.484 17.881,-11.226 28.516,-11.226c5.376,-0 10.518,0.935 15.427,2.806c4.908,1.871 9.466,4.444 13.323,8.069c3.038,2.806 5.493,6.198 7.713,9.823c2.221,3.625 3.857,7.483 4.909,11.576l-0.117,0.234Zm18.699,8.408l-0,-0.233c-0,-8.292 -1.753,-15.893 -4.792,-22.792c-3.038,-6.899 -7.362,-13.331 -13.089,-18.942c-11.57,-11.329 -25.478,-16.818 -41.722,-16.818c-16.012,0 -30.036,5.489 -41.606,16.818c-11.691,11.341 -18.115,25.257 -18.115,41.267l0,1.751c0,16.128 5.606,30.277 17.402,42.204c11.805,11.912 26.064,17.518 42.311,17.518c9.702,-0 18.935,-2.336 27.702,-6.891c4.208,-2.219 8.182,-4.905 11.805,-8.058c3.623,-3.154 6.779,-6.662 9.468,-10.521c1.052,-1.52 1.636,-3.157 1.636,-4.911l-0,-0.935c-0,-0.234 -0.117,-0.468 -0.234,-0.819c-0.467,-2.455 -1.753,-4.326 -3.857,-5.613c-1.519,-0.935 -3.156,-1.403 -4.792,-1.403l-1.286,0c-2.688,0.585 -4.675,1.754 -5.961,3.508c-1.987,2.923 -4.325,5.496 -6.896,7.718c-2.572,2.221 -5.377,4.092 -8.299,5.612l0.117,0c-3.156,1.521 -6.312,2.69 -9.468,3.508c-3.155,0.819 -6.545,1.287 -10.168,1.287c-11.455,-0 -21.04,-4.093 -29.221,-11.927c-3.39,-3.391 -6.312,-6.782 -8.299,-10.641c-1.987,-3.859 -3.39,-7.952 -4.091,-12.395l92.689,-0c4.324,-0 7.13,-2.102 8.298,-6.306l-0.116,0.116c0.233,-0.584 0.35,-1.051 0.35,-1.401c0,-0.35 0,-0.701 0,-1.051l0.234,0.35Z" style="fill:#222;fill-rule:nonzero;stroke:#222;stroke-width:4.17px;"/><path d="M1375.87,206.348c-9.938,-0 -19.173,2.92 -27.591,8.525c-2.455,1.635 -4.676,3.387 -6.778,5.489c-2.102,2.102 -3.971,4.439 -5.722,6.893c-1.519,-2.22 -3.387,-4.441 -5.606,-6.543c-2.219,-2.219 -4.556,-4.087 -7.011,-5.839c-8.301,-5.722 -17.537,-8.525 -27.708,-8.525c-13.211,-0 -24.668,4.671 -34.252,14.014c-9.46,9.231 -14.481,20.569 -14.481,33.894l-0,62.766c-0,2.221 0.817,4.208 2.335,5.961c1.518,1.753 3.621,2.572 6.307,2.572c2.219,-0 4.204,-0.702 5.956,-2.455c1.635,-1.519 2.452,-3.506 2.452,-5.961l0,-62.065c0,-8.766 3.274,-16.013 9.353,-22.208c6.196,-6.195 13.561,-9.468 22.33,-9.468c8.651,0 16.133,3.156 22.33,9.468c6.196,6.195 9.236,13.558 9.236,22.208l-0,62.065c-0,2.805 0.934,4.792 2.803,6.429c1.635,1.519 3.503,2.104 5.605,2.104c2.453,-0 4.438,-0.702 6.073,-2.455c1.635,-1.753 2.452,-3.74 2.452,-6.078l0,-62.065c0,-8.766 3.157,-16.013 9.353,-22.208c6.313,-6.312 13.679,-9.468 22.447,-9.468c8.768,0 16.25,3.156 22.447,9.468c6.079,6.078 9.119,13.442 9.119,22.208l-0,62.065c-0,2.571 0.817,4.442 2.569,6.078c1.869,1.636 3.737,2.455 5.956,2.455c2.102,-0 4.088,-0.702 5.839,-2.338c1.869,-1.403 2.803,-3.507 2.803,-6.195l0,-62.065c0,-13.208 -4.788,-24.663 -14.364,-34.362c-9.233,-9.342 -20.691,-14.13 -34.369,-14.13l0.117,-0.234Z" style="fill:#222;fill-rule:nonzero;stroke:#222;stroke-width:4.17px;"/><path d="M1580.5,256.491l-82.393,0c1.987,-8.302 6.194,-15.435 12.622,-21.399l0,0.117c8.415,-7.484 17.881,-11.226 28.516,-11.226c5.376,-0 10.519,0.935 15.427,2.806c4.909,1.871 9.466,4.444 13.323,8.069c3.039,2.806 5.493,6.198 7.714,9.823c2.22,3.625 3.856,7.483 4.908,11.576l-0.117,0.234Zm18.699,8.408l0,-0.233c0,-8.292 -1.753,-15.893 -4.791,-22.792c-3.039,-6.899 -7.363,-13.331 -13.09,-18.942c-11.57,-11.329 -25.477,-16.818 -41.722,-16.818c-16.011,0 -30.036,5.489 -41.606,16.818c-11.691,11.341 -18.114,25.257 -18.114,41.267l-0,1.751c-0,16.128 5.605,30.277 17.401,42.204c11.805,11.912 26.065,17.518 42.312,17.518c9.701,-0 18.935,-2.336 27.701,-6.891c4.208,-2.219 8.182,-4.905 11.805,-8.058c3.624,-3.154 6.78,-6.662 9.468,-10.521c1.052,-1.52 1.636,-3.157 1.636,-4.911l0,-0.935c0,-0.234 -0.117,-0.468 -0.234,-0.819c-0.467,-2.455 -1.753,-4.326 -3.857,-5.613c-1.519,-0.935 -3.156,-1.403 -4.792,-1.403l-1.286,0c-2.688,0.585 -4.675,1.754 -5.961,3.508c-1.987,2.923 -4.324,5.496 -6.896,7.718c-2.571,2.221 -5.377,4.092 -8.299,5.612l0.117,0c-3.156,1.521 -6.311,2.69 -9.467,3.508c-3.156,0.819 -6.546,1.287 -10.169,1.287c-11.455,-0 -21.039,-4.093 -29.221,-11.927c-3.39,-3.391 -6.312,-6.782 -8.299,-10.641c-1.987,-3.859 -3.389,-7.952 -4.091,-12.395l92.689,-0c4.325,-0 7.13,-2.102 8.299,-6.306l-0.117,0.116c0.234,-0.584 0.351,-1.051 0.351,-1.401c-0,-0.35 -0,-0.701 -0,-1.051l0.233,0.35Z" style="fill:#222;fill-rule:nonzero;stroke:#222;stroke-width:4.17px;"/><path d="M1700.28,205.997c-13.445,0 -24.902,4.905 -34.603,14.248c-9.459,9.348 -14.715,20.686 -14.715,34.361l0,63.351c0,1.169 0.234,2.338 0.701,3.39c0.467,1.052 1.051,1.987 1.752,2.805c1.518,1.636 3.62,2.572 6.306,2.572c2.336,-0 4.205,-0.936 6.073,-2.455c1.518,-1.52 2.453,-3.507 2.453,-6.195l-0,-62.533c-0,-8.883 3.156,-16.48 9.469,-22.792c6.197,-6.195 13.679,-9.234 22.564,-9.234c4.443,0 8.534,0.818 12.276,2.338c3.741,1.519 7.131,3.857 10.288,6.896c6.313,6.312 9.469,13.909 9.469,22.792c0,2.104 0.818,4.208 2.57,6.429c1.751,1.403 3.737,2.104 5.956,2.104c2.335,-0 4.321,-0.818 6.073,-2.572c1.751,-1.753 2.686,-3.74 2.686,-5.961c-0,-13.792 -5.022,-25.247 -14.599,-34.829c-9.7,-9.576 -21.157,-14.481 -34.602,-14.481l-0.117,-0.234Z" style="fill:#222;fill-rule:nonzero;stroke:#222;stroke-width:4.17px;"/><path d="M1857.7,308.387c-11.69,0 -21.627,-4.097 -29.927,-12.409c-8.417,-8.545 -12.392,-18.496 -12.392,-29.968c0,-11.356 3.975,-21.54 12.392,-30.086c8.183,-8.312 18.237,-12.292 29.927,-12.292c11.807,0 21.861,4.097 30.044,12.292c8.3,8.546 12.392,18.613 12.392,30.203c0,11.589 -4.092,21.54 -12.392,29.851c-8.183,8.312 -18.237,12.409 -30.044,12.409Zm59.721,8.876l-0,-51.253c-0,-16.273 -5.723,-30.32 -17.402,-42.144c-11.573,-11.796 -25.836,-17.518 -42.319,-17.518c-16.483,-0 -30.512,5.722 -42.202,17.518c-11.679,11.824 -17.401,25.871 -17.401,42.144c-0,16.272 5.722,30.32 17.401,42.143c11.69,11.679 25.719,17.519 42.202,17.519c5.728,-0 11.106,-0.701 16.25,-2.219c5.143,-1.519 10.053,-3.738 14.729,-6.657c1.637,-1.051 3.508,-2.336 5.612,-3.971c2.104,-1.635 3.975,-3.27 5.612,-4.789l-0,8.993c-0,2.453 0.817,4.555 2.335,6.307c1.752,1.518 3.854,2.336 6.424,2.336c2.335,-0 4.321,-0.818 6.072,-2.57c1.635,-1.635 2.453,-3.62 2.453,-6.073l0.234,0.234Z" style="fill:#222;fill-rule:nonzero;stroke:#222;stroke-width:4.17px;"/><path d="M2029.25,308.037l-6.779,-0.468c-1.286,-0.35 -2.571,-0.701 -3.857,-1.052l-4.091,-0.935l-6.312,-2.104c-0.35,-0.35 -0.818,-0.701 -1.402,-1.052l-1.754,-1.052l-0.818,-0.467c-0.351,-0.234 -0.701,-0.468 -1.052,-0.818c-0.584,-0.351 -0.935,-0.585 -1.052,-0.702c0,-0.117 -0.117,-0.233 -0.234,-0.35c-0.584,-0.351 -1.168,-0.819 -1.753,-1.52c-0.35,-0.467 -0.818,-0.935 -1.402,-1.402l-1.637,-1.403c-3.857,-4.208 -6.896,-8.883 -9,-14.026c-2.104,-5.143 -3.156,-10.636 -3.156,-16.598l0,-95.143c0,-2.221 -0.817,-4.325 -2.569,-6.312c-1.869,-1.753 -3.971,-2.571 -6.19,-2.571c-2.219,-0 -4.321,0.701 -6.306,2.571c-1.752,1.754 -2.57,3.858 -2.57,6.312l0,96.429c0,16.715 6.541,30.974 18.454,42.779c12.039,11.796 26.298,17.519 42.779,17.519l0.584,-0c2.338,-0 4.325,-0.701 6.078,-2.453c1.754,-1.635 2.689,-3.737 2.689,-6.306c-0,-2.453 -0.935,-4.438 -2.689,-6.073c-1.636,-1.635 -3.623,-2.57 -5.844,-2.687l-0.117,-0.116Z" style="fill:#222;fill-rule:nonzero;stroke:#222;stroke-width:4.17px;"/><path d="M2142.02,309.322c-11.573,0 -21.627,-4.091 -30.161,-12.508c-8.3,-8.3 -12.509,-18.354 -12.509,-30.161c0,-11.808 4.209,-21.861 12.509,-30.161c8.3,-8.3 18.354,-12.509 30.161,-12.509c12.041,-0 21.978,4.209 30.161,12.509c8.183,8.417 12.392,18.353 12.392,30.278c-0,11.807 -4.092,21.861 -12.392,30.161c-8.3,8.3 -18.354,12.508 -30.161,12.508l0,-0.117Zm60.188,-42.319l0,-98.876c0,-2.455 -0.817,-4.559 -2.452,-6.195c-1.752,-1.636 -3.854,-2.454 -6.307,-2.454c-2.336,-0 -4.321,0.818 -6.073,2.454c-1.752,1.987 -2.686,4.091 -2.686,6.312l0,56.09c-1.637,-1.636 -3.39,-3.154 -5.261,-4.672c-1.87,-1.518 -3.858,-2.92 -6.079,-4.205c-9.469,-5.722 -19.873,-8.642 -31.33,-8.642c-16.483,0 -30.512,5.956 -42.319,17.753c-11.796,11.807 -17.752,25.835 -17.752,42.435c0,16.601 5.956,30.629 17.752,42.436c11.807,11.796 25.836,17.518 42.319,17.518c16.6,0 30.746,-5.722 42.436,-17.518c11.796,-11.807 17.752,-25.952 17.752,-42.436Z" style="fill:#222;fill-rule:nonzero;stroke:#222;stroke-width:4.17px;"/><path d="M1127.17,587.497c-11.573,0 -21.627,-4.091 -30.161,-12.508c-8.3,-8.3 -12.509,-18.354 -12.509,-30.161c0,-11.808 4.209,-21.861 12.509,-30.161c8.3,-8.301 18.354,-12.509 30.161,-12.509c12.041,-0 21.978,4.208 30.161,12.509c8.183,8.417 12.392,18.353 12.392,30.278c-0,11.807 -4.092,21.861 -12.392,30.161c-8.3,8.3 -18.354,12.508 -30.161,12.508l0,-0.117Zm60.188,-42.319l0,-98.876c0,-2.455 -0.817,-4.559 -2.452,-6.195c-1.752,-1.636 -3.854,-2.455 -6.307,-2.455c-2.336,0 -4.321,0.819 -6.073,2.455c-1.752,1.987 -2.686,4.091 -2.686,6.312l0,56.09c-1.637,-1.636 -3.39,-3.154 -5.261,-4.672c-1.87,-1.518 -3.858,-2.92 -6.079,-4.205c-9.469,-5.722 -19.873,-8.642 -31.33,-8.642c-16.483,0 -30.512,5.956 -42.319,17.752c-11.796,11.808 -17.752,25.836 -17.752,42.436c0,16.601 5.956,30.629 17.752,42.436c11.807,11.796 25.836,17.518 42.319,17.518c16.6,0 30.746,-5.722 42.436,-17.518c11.796,-11.807 17.752,-25.952 17.752,-42.436Z" style="fill:#222;fill-rule:nonzero;stroke:#222;stroke-width:4.17px;"/><path d="M1342.55,534.666l-82.393,-0c1.987,-8.302 6.194,-15.435 12.622,-21.399l-0,0.117c8.415,-7.484 17.881,-11.226 28.516,-11.226c5.376,-0 10.518,0.935 15.427,2.806c4.908,1.871 9.466,4.444 13.323,8.069c3.039,2.806 5.493,6.198 7.713,9.823c2.221,3.625 3.857,7.483 4.909,11.576l-0.117,0.234Zm18.699,8.408l0,-0.233c0,-8.292 -1.753,-15.893 -4.792,-22.792c-3.038,-6.899 -7.362,-13.331 -13.089,-18.942c-11.57,-11.329 -25.477,-16.818 -41.722,-16.818c-16.011,0 -30.036,5.489 -41.606,16.818c-11.691,11.341 -18.115,25.257 -18.115,41.267l0,1.751c0,16.128 5.606,30.277 17.402,42.204c11.805,11.912 26.065,17.518 42.311,17.518c9.702,-0 18.936,-2.336 27.702,-6.891c4.208,-2.219 8.182,-4.905 11.805,-8.058c3.623,-3.154 6.779,-6.662 9.468,-10.521c1.052,-1.52 1.636,-3.157 1.636,-4.911l0,-0.935c0,-0.234 -0.117,-0.468 -0.234,-0.819c-0.467,-2.455 -1.753,-4.326 -3.857,-5.613c-1.519,-0.935 -3.156,-1.403 -4.792,-1.403l-1.286,0c-2.688,0.585 -4.675,1.754 -5.961,3.508c-1.987,2.923 -4.325,5.496 -6.896,7.718c-2.572,2.221 -5.377,4.092 -8.299,5.612l0.117,0c-3.156,1.521 -6.312,2.69 -9.468,3.508c-3.155,0.819 -6.545,1.287 -10.168,1.287c-11.455,-0 -21.039,-4.093 -29.221,-11.927c-3.39,-3.391 -6.312,-6.782 -8.299,-10.641c-1.987,-3.859 -3.39,-7.952 -4.091,-12.395l92.689,-0c4.324,-0 7.13,-2.102 8.299,-6.306l-0.117,0.116c0.233,-0.584 0.35,-1.051 0.35,-1.401c0,-0.35 0,-0.701 0,-1.051l0.234,0.35Z" style="fill:#222;fill-rule:nonzero;stroke:#222;stroke-width:4.17px;"/><path d="M1501.6,553.704l0.117,-0c-1.168,-1.987 -2.687,-3.972 -4.555,-5.841c-1.869,-1.868 -3.971,-3.737 -6.423,-5.489c-3.621,-2.452 -8.18,-4.321 -13.675,-5.606c-5.495,-1.284 -11.925,-1.985 -19.174,-1.985c-5.144,-0 -9.703,-0.468 -13.562,-1.286c-3.858,-0.819 -6.898,-1.988 -9.119,-3.392c-3.04,-2.104 -5.027,-4.092 -5.963,-5.846l0,0.234c-0.35,-0.936 -0.467,-2.924 -0.467,-5.964l-0,-1.403c0.117,-1.287 0.935,-2.924 2.455,-4.912l0,0.117c2.806,-3.274 6.43,-5.847 10.99,-7.717c4.56,-1.871 10.055,-2.807 16.485,-2.807c8.768,0 16.485,2.807 23.149,8.419c0.117,0.117 0.234,0.234 0.351,0.234c1.519,1.053 3.39,1.754 5.493,1.637c1.635,0 2.92,-0.467 3.854,-0.935c0.934,-0.468 1.752,-1.169 2.569,-2.222c0.701,-0.818 1.168,-1.637 1.402,-2.572c0.233,-0.936 0.35,-1.988 0.35,-3.158c-0.117,-1.753 -0.467,-3.038 -1.051,-3.855c-0.584,-0.818 -1.401,-1.635 -2.452,-2.453c-4.789,-3.737 -10.049,-6.656 -15.894,-8.758c-5.846,-2.103 -11.925,-3.154 -18.239,-3.154c-9.353,0 -17.537,1.519 -24.435,4.438c-6.896,2.92 -12.619,7.241 -17.057,12.964c-1.751,2.338 -3.153,4.677 -4.204,7.133c-1.051,2.455 -1.635,4.794 -1.752,7.016l-0.117,3.04c-0.233,5.262 0.701,9.472 2.219,12.629c1.052,2.105 2.57,4.208 4.555,6.31c1.986,2.102 4.321,4.204 7.008,6.19c3.503,2.569 7.945,4.555 13.44,5.956c5.495,1.402 11.925,2.102 19.291,2.102c5.378,0 9.938,0.351 13.796,1.17c3.858,0.818 7.015,1.754 9.119,3.274c2.923,1.988 4.794,4.092 5.846,5.846c0.351,0.585 0.584,1.287 0.701,2.105c0.117,0.819 0.117,1.754 0.117,2.807l-0,1.403c-0,0.584 -0.117,1.169 -0.234,1.754l0,0.701c-0.233,1.287 -1.052,2.924 -2.572,4.912c-2.689,3.274 -6.43,5.846 -11.107,7.717c-4.676,1.871 -10.171,2.807 -16.484,2.807c-3.274,-0 -6.431,-0.351 -9.354,-1.17c-2.922,-0.818 -5.845,-1.988 -8.651,-3.508c-2.689,-1.52 -5.028,-3.274 -7.015,-5.379c-1.988,-2.104 -3.74,-4.326 -5.258,-6.782c-0.584,-0.935 -1.285,-1.754 -2.103,-2.455c-0.817,-0.702 -1.751,-1.287 -2.803,-1.637l0,0.116c-0.817,-0.35 -1.751,-0.584 -2.802,-0.584c-1.402,-0 -2.803,0.468 -4.205,1.403l0.117,-0.117c-1.168,0.585 -2.102,1.286 -2.686,2.105c-0.584,0.818 -1.051,1.754 -1.402,2.806c-0.234,0.585 -0.351,1.053 -0.351,1.404l0,1.286c0,1.52 0.468,3.04 1.402,4.443l-0.116,0c2.102,3.859 4.788,7.367 8.058,10.521c3.27,3.153 6.891,5.839 10.863,8.058c8.067,4.555 16.952,6.657 26.656,6.657c9.47,-0 17.654,-1.401 24.552,-4.321c6.896,-2.92 12.619,-7.241 17.057,-12.963c1.752,-2.222 3.153,-4.561 4.204,-7.016c1.051,-2.456 1.635,-4.795 1.869,-7.133c0.116,-0.702 0.116,-1.52 0.116,-2.339l0,-2.339c0,-5.612 -0.934,-10.173 -2.919,-13.798l-0,-0.818Z" style="fill:#222;fill-rule:nonzero;stroke:#222;stroke-width:4.17px;"/><path d="M1560.61,481.601c-2.219,-0 -4.204,1.052 -5.956,2.688c-1.869,1.753 -2.803,3.624 -2.803,6.078l-0,104.611c-0,2.455 0.934,4.442 2.803,6.195c1.752,1.636 3.737,2.688 5.956,2.688c2.452,0 4.788,-1.169 7.007,-3.506c0.467,-0.585 0.817,-1.286 1.168,-2.104c0.35,-0.818 0.467,-1.87 0.467,-3.156l0,-104.611c0,-1.286 -0.117,-2.338 -0.467,-3.156c-0.351,-0.818 -0.701,-1.519 -1.051,-2.104c-2.219,-2.454 -4.672,-3.623 -7.241,-3.623l0.117,-0Zm0.351,-43.715c-2.453,0 -4.438,0.818 -5.957,2.338l0,-0.117c-1.868,1.636 -2.802,3.857 -2.802,6.546l-0,19.519c-0,1.052 0.233,2.104 0.7,3.156c0.467,1.052 1.168,1.987 1.986,2.805c1.518,1.753 3.62,2.689 6.189,2.689c2.336,-0 4.321,-0.819 6.073,-2.572c1.752,-1.87 2.57,-3.974 2.57,-6.195l-0,-19.519c-0,-2.455 -0.818,-4.559 -2.453,-6.312c-1.752,-1.52 -3.854,-2.338 -6.306,-2.338Z" style="fill:#222;fill-rule:nonzero;stroke:#222;stroke-width:4.17px;"/><path d="M1676.41,585.744c-11.925,0 -21.978,-4.091 -30.162,-12.275c-4.208,-4.208 -7.364,-8.767 -9.469,-13.677c-2.104,-4.91 -3.156,-10.288 -3.156,-16.016c-0,-5.728 1.052,-11.106 3.156,-16.016c2.105,-4.91 5.261,-9.469 9.469,-13.678c8.184,-8.183 18.237,-12.275 30.162,-12.275c12.041,0 22.094,4.092 30.277,12.275c8.301,8.301 12.509,18.237 12.509,29.811c0,11.69 -4.208,21.51 -12.509,29.693c-8.183,8.067 -18.236,12.275 -30.277,12.275l-0,-0.117Zm60.071,11.212l-0,-53.063c-0,-2.221 -0.117,-4.326 -0.234,-6.43c-0.117,-2.104 -0.35,-4.208 -0.584,-6.43l-1.168,-4.325l-2.452,-5.962l-2.336,-5.261l-2.569,-4.793l-7.825,-8.768c-5.611,-6.19 -12.509,-10.161 -19.523,-13.08c-7.014,-2.92 -14.847,-4.321 -23.38,-4.321c-16.718,-0 -30.863,5.839 -42.436,17.401c-11.796,11.691 -17.635,25.719 -17.635,41.969c-0,16.483 5.839,30.395 17.635,42.085c11.573,11.445 25.718,17.401 42.436,17.401c11.339,0 21.744,-2.92 31.213,-8.642c1.987,-1.285 3.974,-2.686 5.962,-4.204c1.987,-1.519 3.858,-3.154 5.611,-4.906l0,11.446c0,8.89 -4.208,16.524 -12.625,23.219c-4.443,3.523 -9.236,6.225 -14.496,7.869c-5.261,1.644 -10.989,2.467 -17.185,2.467c-2.455,-0 -4.443,0.817 -6.079,2.569c-1.754,1.752 -2.572,3.854 -2.572,6.306c-0,2.336 0.818,4.321 2.572,6.073c1.636,1.752 3.624,2.569 6.079,2.569c16.717,0 31.096,-4.788 43.137,-14.481c12.381,-9.966 18.57,-22.181 18.57,-36.475l-0.116,-0.233Z" style="fill:#222;fill-rule:nonzero;stroke:#222;stroke-width:4.17px;"/><path d="M1836.98,484.757c-13.211,-0 -24.551,4.671 -34.018,14.131c-9.577,9.465 -14.482,20.685 -14.482,33.776l0,62.65c0,2.688 0.818,4.675 2.453,5.961c0.817,1.052 1.752,1.753 2.686,2.104c0.934,0.351 1.985,0.468 3.153,0.468c2.569,-0 4.671,-0.819 6.306,-2.572c1.635,-1.402 2.453,-3.39 2.453,-5.961l-0,-61.948c-0,-8.767 3.039,-16.247 9.119,-22.325c6.196,-6.078 13.561,-9.117 22.096,-9.117c8.534,-0 15.9,3.039 22.096,9.117c6.196,6.078 9.236,13.558 9.236,22.325l0,61.948c0,2.104 0.818,4.091 2.336,5.844c1.518,1.753 3.62,2.689 6.306,2.689c2.686,-0 4.789,-0.819 6.307,-2.572c0.934,-0.818 1.518,-1.636 1.868,-2.571c0.351,-0.935 0.467,-2.104 0.467,-3.39l0,-61.948c0,-13.325 -4.788,-24.78 -14.247,-34.245c-9.584,-9.576 -21.041,-14.364 -34.369,-14.364l0.234,-0Z" style="fill:#222;fill-rule:nonzero;stroke:#222;stroke-width:4.17px;"/><path d="M2114.17,553.704l0.117,-0c-1.168,-1.987 -2.686,-3.972 -4.555,-5.841c-1.869,-1.868 -3.971,-3.737 -6.423,-5.489c-3.621,-2.452 -8.179,-4.321 -13.674,-5.606c-5.495,-1.284 -11.926,-1.985 -19.174,-1.985c-5.145,-0 -9.704,-0.468 -13.562,-1.286c-3.859,-0.819 -6.898,-1.988 -9.12,-3.392c-3.039,-2.104 -5.027,-4.092 -5.962,-5.846l-0,0.234c-0.351,-0.936 -0.468,-2.924 -0.468,-5.964l0,-1.403c0.117,-1.287 0.935,-2.924 2.455,-4.912l0,0.117c2.806,-3.274 6.431,-5.847 10.99,-7.717c4.56,-1.871 10.055,-2.807 16.485,-2.807c8.769,0 16.485,2.807 23.149,8.419c0.117,0.117 0.234,0.234 0.351,0.234c1.52,1.053 3.39,1.754 5.493,1.637c1.635,0 2.92,-0.467 3.854,-0.935c0.935,-0.468 1.752,-1.169 2.57,-2.222c0.7,-0.818 1.167,-1.637 1.401,-2.572c0.234,-0.936 0.35,-1.988 0.35,-3.158c-0.116,-1.753 -0.467,-3.038 -1.051,-3.855c-0.584,-0.818 -1.401,-1.635 -2.452,-2.453c-4.788,-3.737 -10.048,-6.656 -15.894,-8.758c-5.846,-2.103 -11.925,-3.154 -18.239,-3.154c-9.353,0 -17.537,1.519 -24.435,4.438c-6.896,2.92 -12.618,7.241 -17.056,12.964c-1.752,2.338 -3.154,4.677 -4.205,7.133c-1.051,2.455 -1.635,4.794 -1.752,7.016l-0.116,3.04c-0.234,5.262 0.7,9.472 2.219,12.629c1.051,2.105 2.569,4.208 4.554,6.31c1.986,2.102 4.322,4.204 7.008,6.19c3.503,2.569 7.945,4.555 13.44,5.956c5.495,1.402 11.926,2.102 19.291,2.102c5.378,0 9.938,0.351 13.796,1.17c3.858,0.818 7.015,1.754 9.119,3.274c2.923,1.988 4.794,4.092 5.846,5.846c0.351,0.585 0.585,1.287 0.702,2.105c0.116,0.819 0.116,1.754 0.116,2.807l-0,1.403c-0,0.584 -0.116,1.169 -0.233,1.754l-0,0.701c-0.234,1.287 -1.053,2.924 -2.573,4.912c-2.689,3.274 -6.43,5.846 -11.106,7.717c-4.677,1.871 -10.172,2.807 -16.485,2.807c-3.274,-0 -6.43,-0.351 -9.353,-1.17c-2.923,-0.818 -5.846,-1.988 -8.652,-3.508c-2.689,-1.52 -5.027,-3.274 -7.015,-5.379c-1.987,-2.104 -3.74,-4.326 -5.258,-6.782c-0.584,-0.935 -1.285,-1.754 -2.102,-2.455c-0.818,-0.702 -1.752,-1.287 -2.803,-1.637l-0,0.116c-0.818,-0.35 -1.752,-0.584 -2.803,-0.584c-1.402,-0 -2.803,0.468 -4.205,1.403l0.117,-0.117c-1.168,0.585 -2.102,1.286 -2.686,2.105c-0.584,0.818 -1.051,1.754 -1.402,2.806c-0.234,0.585 -0.35,1.053 -0.35,1.404l-0,1.286c-0,1.52 0.467,3.04 1.402,4.443l-0.117,0c2.102,3.859 4.788,7.367 8.058,10.521c3.27,3.153 6.891,5.839 10.863,8.058c8.067,4.555 16.953,6.657 26.657,6.657c9.47,-0 17.654,-1.401 24.551,-4.321c6.896,-2.92 12.619,-7.241 17.057,-12.963c1.752,-2.222 3.153,-4.561 4.204,-7.016c1.051,-2.456 1.635,-4.795 1.869,-7.133c0.117,-0.702 0.117,-1.52 0.117,-2.339l-0,-2.339c-0,-5.612 -0.935,-10.173 -2.92,-13.798l0,-0.818Z" style="fill:#222;fill-rule:nonzero;stroke:#222;stroke-width:4.17px;"/><path d="M2278.94,489.899l0.117,0.117c-1.052,-2.337 -2.455,-3.973 -4.325,-5.025c-0.701,-0.351 -1.402,-0.585 -2.103,-0.702c-0.702,-0.117 -1.403,-0.132 -1.987,-0.132c-0.468,0 -0.935,0.015 -1.519,0.132c-0.585,0.117 -1.052,0.234 -1.52,0.468l0.117,-0c-1.285,0.467 -2.337,1.052 -3.155,1.753c-0.818,0.701 -1.52,1.636 -2.104,2.805l-7.48,15.194l-7.245,14.726l-15.544,31.205l-15.31,30.971l-6.077,-13.44l-5.493,-12.389l-5.259,-11.921l-5.493,-12.155l-8.999,-20.102l-9.583,-21.501c-0.468,-0.819 -1.169,-1.754 -2.104,-2.69c-0.935,-0.936 -1.987,-1.637 -3.039,-2.105c-0.584,-0 -0.935,-0 -1.051,-0.117c-0.351,-0.117 -0.702,-0.234 -0.935,-0.351c-0.234,-0.117 -0.468,-0.117 -0.585,-0.117c-1.052,-0 -2.22,0.234 -3.506,0.702c-2.337,0.935 -4.09,3.158 -5.142,6.549c-0.117,0.117 -0.117,0.234 -0.117,0.351l0,1.404c0,0.585 0.117,1.169 0.234,1.754l-0,0.702l14.141,31.812l14.258,31.929l18.582,41.988l-16.478,33.099c-0.585,1.286 -0.935,2.573 -0.935,3.859c-0,1.053 0.117,1.988 0.234,2.807c0.467,1.17 1.051,2.222 1.753,3.158c0.701,0.936 1.636,1.754 2.921,2.339c1.169,0.585 2.455,0.819 3.74,0.819c1.753,-0 3.272,-0.468 4.675,-1.404c1.402,-0.935 2.571,-2.105 3.272,-3.508l72.342,-145.846c0.117,-0.117 0.234,-0.35 0.351,-0.701c0.117,-0.351 0.234,-0.585 0.351,-0.702c0.117,-0.351 0.233,-0.585 0.35,-0.819c0.117,-0.124 0.117,-0.591 0.117,-1.409c0,-1.169 -0.234,-2.221 -0.584,-3.039l0.117,-0.468Z" style="fill:#222;fill-rule:nonzero;stroke:#222;stroke-width:4.17px;"/><path d="M2414.97,553.704l0.116,-0c-1.167,-1.987 -2.686,-3.972 -4.554,-5.841c-1.869,-1.868 -3.971,-3.737 -6.424,-5.489c-3.62,-2.452 -8.179,-4.321 -13.674,-5.606c-5.495,-1.284 -11.925,-1.985 -19.174,-1.985c-5.144,-0 -9.704,-0.468 -13.562,-1.286c-3.858,-0.819 -6.898,-1.988 -9.119,-3.392c-3.04,-2.104 -5.027,-4.092 -5.963,-5.846l0,0.234c-0.35,-0.936 -0.467,-2.924 -0.467,-5.964l-0,-1.403c0.117,-1.287 0.935,-2.924 2.455,-4.912l-0,0.117c2.806,-3.274 6.43,-5.847 10.99,-7.717c4.559,-1.871 10.054,-2.807 16.485,-2.807c8.768,0 16.485,2.807 23.149,8.419c0.117,0.117 0.233,0.234 0.35,0.234c1.52,1.053 3.391,1.754 5.494,1.637c1.635,0 2.92,-0.467 3.854,-0.935c0.934,-0.468 1.752,-1.169 2.569,-2.222c0.701,-0.818 1.168,-1.637 1.402,-2.572c0.233,-0.936 0.35,-1.988 0.35,-3.158c-0.117,-1.753 -0.467,-3.038 -1.051,-3.855c-0.584,-0.818 -1.402,-1.635 -2.453,-2.453c-4.788,-3.737 -10.048,-6.656 -15.893,-8.758c-5.846,-2.103 -11.926,-3.154 -18.239,-3.154c-9.353,0 -17.537,1.519 -24.435,4.438c-6.896,2.92 -12.619,7.241 -17.057,12.964c-1.751,2.338 -3.153,4.677 -4.204,7.133c-1.051,2.455 -1.635,4.794 -1.752,7.016l-0.117,3.04c-0.233,5.262 0.701,9.472 2.219,12.629c1.051,2.105 2.57,4.208 4.555,6.31c1.985,2.102 4.321,4.204 7.007,6.19c3.504,2.569 7.946,4.555 13.441,5.956c5.495,1.402 11.925,2.102 19.291,2.102c5.378,0 9.937,0.351 13.796,1.17c3.858,0.818 7.014,1.754 9.119,3.274c2.923,1.988 4.793,4.092 5.846,5.846c0.35,0.585 0.584,1.287 0.701,2.105c0.117,0.819 0.117,1.754 0.117,2.807l-0,1.403c-0,0.584 -0.117,1.169 -0.234,1.754l0,0.701c-0.234,1.287 -1.052,2.924 -2.572,4.912c-2.689,3.274 -6.43,5.846 -11.107,7.717c-4.676,1.871 -10.171,2.807 -16.485,2.807c-3.273,-0 -6.43,-0.351 -9.353,-1.17c-2.923,-0.818 -5.845,-1.988 -8.651,-3.508c-2.689,-1.52 -5.028,-3.274 -7.015,-5.379c-1.988,-2.104 -3.74,-4.326 -5.259,-6.782c-0.583,-0.935 -1.284,-1.754 -2.102,-2.455c-0.817,-0.702 -1.752,-1.287 -2.803,-1.637l0,0.116c-0.817,-0.35 -1.752,-0.584 -2.803,-0.584c-1.401,-0 -2.803,0.468 -4.204,1.403l0.117,-0.117c-1.168,0.585 -2.102,1.286 -2.686,2.105c-0.584,0.818 -1.052,1.754 -1.402,2.806c-0.234,0.585 -0.351,1.053 -0.351,1.404l0,1.286c0,1.52 0.468,3.04 1.402,4.443l-0.117,0c2.103,3.859 4.789,7.367 8.059,10.521c3.27,3.153 6.89,5.839 10.863,8.058c8.067,4.555 16.952,6.657 26.656,6.657c9.47,-0 17.654,-1.401 24.552,-4.321c6.896,-2.92 12.619,-7.241 17.057,-12.963c1.751,-2.222 3.153,-4.561 4.204,-7.016c1.051,-2.456 1.635,-4.795 1.869,-7.133c0.116,-0.702 0.116,-1.52 0.116,-2.339l0,-2.339c0,-5.612 -0.934,-10.173 -2.919,-13.798l-0,-0.818Z" style="fill:#222;fill-rule:nonzero;stroke:#222;stroke-width:4.17px;"/><path d="M2524.93,586.212c-12.156,-0 -22.559,-4.326 -31.208,-12.86c-8.533,-8.534 -12.974,-18.938 -12.974,-31.096l-0,-41.501l34.364,0c2.22,0 4.324,-0.817 6.311,-2.336c1.637,-1.751 2.455,-3.854 2.455,-6.423c-0,-2.452 -0.818,-4.555 -2.455,-6.19c-1.987,-1.751 -4.091,-2.686 -6.311,-2.686l-34.364,0l-0,-36.818c-0,-2.572 -0.818,-4.675 -2.453,-6.312c-1.752,-1.636 -3.854,-2.454 -6.306,-2.454c-2.453,-0 -4.555,0.818 -6.307,2.454c-1.752,1.987 -2.686,4.091 -2.686,6.312l0,97.006c0,8.534 2.102,16.367 5.255,23.498c3.154,7.131 7.592,13.677 13.432,19.522c12.039,11.796 26.416,17.519 43.247,17.519c2.454,-0 4.558,-0.701 6.311,-2.453c1.754,-1.752 2.689,-3.854 2.689,-6.307c-0,-2.452 -0.935,-4.437 -2.689,-6.072c-1.753,-1.752 -3.857,-2.687 -6.194,-2.687l-0.117,-0.116Z" style="fill:#222;fill-rule:nonzero;stroke:#222;stroke-width:4.17px;"/><path d="M2682.7,534.666l-82.393,-0c1.987,-8.302 6.194,-15.435 12.622,-21.399l0,0.117c8.415,-7.484 17.881,-11.226 28.516,-11.226c5.376,-0 10.518,0.935 15.427,2.806c4.908,1.871 9.466,4.444 13.323,8.069c3.039,2.806 5.493,6.198 7.713,9.823c2.221,3.625 3.857,7.483 4.909,11.576l-0.117,0.234Zm18.699,8.408l0,-0.233c0,-8.292 -1.753,-15.893 -4.791,-22.792c-3.039,-6.899 -7.363,-13.331 -13.09,-18.942c-11.57,-11.329 -25.477,-16.818 -41.722,-16.818c-16.011,0 -30.036,5.489 -41.606,16.818c-11.691,11.341 -18.115,25.257 -18.115,41.267l0,1.751c0,16.128 5.606,30.277 17.402,42.204c11.805,11.912 26.065,17.518 42.311,17.518c9.702,-0 18.936,-2.336 27.702,-6.891c4.208,-2.219 8.182,-4.905 11.805,-8.058c3.624,-3.154 6.779,-6.662 9.468,-10.521c1.052,-1.52 1.636,-3.157 1.636,-4.911l0,-0.935c0,-0.234 -0.117,-0.468 -0.234,-0.819c-0.467,-2.455 -1.753,-4.326 -3.857,-5.613c-1.519,-0.935 -3.156,-1.403 -4.792,-1.403l-1.286,0c-2.688,0.585 -4.675,1.754 -5.961,3.508c-1.987,2.923 -4.325,5.496 -6.896,7.718c-2.571,2.221 -5.377,4.092 -8.299,5.612l0.117,0c-3.156,1.521 -6.312,2.69 -9.467,3.508c-3.156,0.819 -6.546,1.287 -10.169,1.287c-11.455,-0 -21.039,-4.093 -29.221,-11.927c-3.39,-3.391 -6.312,-6.782 -8.299,-10.641c-1.987,-3.859 -3.39,-7.952 -4.091,-12.395l92.689,-0c4.325,-0 7.13,-2.102 8.299,-6.306l-0.117,0.116c0.234,-0.584 0.35,-1.051 0.35,-1.401c0,-0.35 0,-0.701 0,-1.051l0.234,0.35Z" style="fill:#222;fill-rule:nonzero;stroke:#222;stroke-width:4.17px;"/><path d="M2886.75,484.523c-9.937,-0 -19.173,2.92 -27.591,8.525c-2.455,1.635 -4.676,3.387 -6.778,5.489c-2.102,2.102 -3.971,4.439 -5.722,6.893c-1.518,-2.22 -3.387,-4.441 -5.606,-6.543c-2.219,-2.219 -4.556,-4.087 -7.011,-5.839c-8.301,-5.722 -17.537,-8.525 -27.708,-8.525c-13.211,-0 -24.668,4.671 -34.252,14.014c-9.46,9.231 -14.481,20.569 -14.481,33.894l-0,62.766c-0,2.221 0.817,4.208 2.335,5.961c1.519,1.753 3.621,2.572 6.307,2.572c2.219,-0 4.204,-0.702 5.956,-2.455c1.635,-1.519 2.452,-3.506 2.452,-5.961l0,-62.065c0,-8.766 3.274,-16.013 9.353,-22.208c6.196,-6.195 13.562,-9.468 22.33,-9.468c8.651,0 16.134,3.156 22.33,9.468c6.196,6.195 9.236,13.558 9.236,22.208l-0,62.065c-0,2.805 0.934,4.792 2.803,6.429c1.635,1.519 3.503,2.104 5.605,2.104c2.453,-0 4.438,-0.702 6.073,-2.455c1.635,-1.753 2.452,-3.74 2.452,-6.078l0,-62.065c0,-8.766 3.157,-16.013 9.353,-22.208c6.313,-6.312 13.679,-9.468 22.447,-9.468c8.768,0 16.251,3.156 22.447,9.468c6.079,6.078 9.119,13.442 9.119,22.208l0,62.065c0,2.571 0.818,4.442 2.569,6.078c1.869,1.636 3.737,2.455 5.956,2.455c2.102,-0 4.088,-0.702 5.839,-2.338c1.869,-1.403 2.803,-3.507 2.803,-6.195l0,-62.065c0,-13.208 -4.788,-24.663 -14.364,-34.362c-9.233,-9.342 -20.69,-14.13 -34.369,-14.13l0.117,-0.234Z" style="fill:#222;fill-rule:nonzero;stroke:#222;stroke-width:4.17px;"/></g></g></g></svg>