<?xml version="1.0" encoding="UTF-8" standalone="no"?><!DOCTYPE svg PUBLIC "-//W3C//DTD SVG 1.1//EN" "http://www.w3.org/Graphics/SVG/1.1/DTD/svg11.dtd"><svg width="100%" height="100%" viewBox="0 0 100 100" version="1.1" xmlns="http://www.w3.org/2000/svg" xmlns:xlink="http://www.w3.org/1999/xlink" xml:space="preserve" xmlns:serif="http://www.serif.com/" style="fill-rule:evenodd;clip-rule:evenodd;stroke-linejoin:round;stroke-miterlimit:2;"><path d="M41.96,85.429c-0.001,-2.286 -1.882,-4.167 -4.167,-4.167c-0.253,0 -0.506,0.023 -0.755,0.069c-5.454,1.001 -12.341,1.152 -14.172,-3.991c-1.597,-3.983 -4.242,-7.461 -7.654,-10.063c-0.243,-0.132 -0.476,-0.285 -0.694,-0.456c-0.61,-1.609 -2.157,-2.682 -3.878,-2.689l-0.02,-0c-2.278,-0.001 -4.156,1.868 -4.167,4.146c-0.016,3.398 3.38,5.575 4.757,6.311c1.624,1.632 2.93,3.553 3.849,5.664c1.518,4.265 5.929,10.734 18.608,9.9c0.004,0.147 0.008,0.285 0.01,0.411l0.018,1.115c0,2.286 1.881,4.167 4.167,4.167c2.286,-0 4.167,-1.881 4.167,-4.167l-0.021,-1.326c-0.02,-0.79 -0.048,-1.933 -0.048,-4.924Zm44.445,-63.025c0.133,-0.521 0.263,-1.099 0.377,-1.75c0.674,-4.643 0.086,-9.383 -1.701,-13.721c-0.456,-1.144 -1.396,-2.029 -2.565,-2.417c-1.484,-0.5 -6.961,-1.485 -17.434,5.209c-8.706,-2.049 -17.769,-2.049 -26.475,-0c-10.431,-6.596 -15.88,-5.701 -17.348,-5.229c-1.199,0.372 -2.167,1.267 -2.631,2.433c-1.824,4.422 -2.405,9.258 -1.681,13.986c0.102,0.533 0.212,1.025 0.326,1.477c-3.451,4.597 -5.29,10.206 -5.231,15.954c-0.011,1.283 0.048,2.565 0.177,3.841c1.392,19.178 13.892,24.935 22.602,26.913c-0.181,0.521 -0.346,1.078 -0.493,1.668c-0.078,0.323 -0.118,0.654 -0.118,0.986c-0,2.287 1.881,4.168 4.167,4.168c1.908,-0 3.583,-1.309 4.044,-3.16c0.266,-1.388 0.945,-2.664 1.95,-3.658c0.902,-0.79 1.421,-1.934 1.421,-3.133c-0,-2.109 -1.601,-3.901 -3.696,-4.138c-14.392,-1.644 -20.64,-7.508 -21.58,-20.411c-0.104,-1.021 -0.151,-2.048 -0.14,-3.076c-0.067,-4.096 1.287,-8.092 3.831,-11.303c0.255,-0.335 0.527,-0.657 0.815,-0.965c1.039,-1.162 1.342,-2.813 0.784,-4.268c-0.281,-0.752 -0.498,-1.527 -0.647,-2.315c-0.34,-2.243 -0.228,-4.531 0.327,-6.731c3.622,1.023 7.03,2.688 10.063,4.916c1.014,0.675 2.274,0.877 3.448,0.553c8.421,-2.285 17.301,-2.284 25.72,0.004c1.182,0.324 2.448,0.114 3.461,-0.573c3.019,-2.237 6.413,-3.917 10.022,-4.961c0.553,2.147 0.677,4.382 0.364,6.576c-0.151,0.865 -0.386,1.712 -0.704,2.531c-0.558,1.455 -0.255,3.106 0.784,4.268c0.321,0.362 0.643,0.753 0.931,1.119c2.526,3.158 3.857,7.107 3.758,11.149c0.008,1.082 -0.044,2.163 -0.156,3.239c-0.918,12.732 -7.19,18.6 -21.65,20.248c-2.094,0.238 -3.695,2.031 -3.695,4.139c0,1.201 0.519,2.345 1.423,3.136c1.036,1.021 1.717,2.348 1.943,3.784c0.281,1.116 0.411,2.264 0.384,3.414l0,9.725c-0.04,2.698 -0.04,4.72 -0.04,5.648c-0,2.286 1.881,4.166 4.166,4.166c2.286,0 4.167,-1.88 4.167,-4.166c-0,-0.904 -0,-2.885 0.041,-5.583l-0,-9.79c0.033,-1.842 -0.184,-3.681 -0.645,-5.465c-0.132,-0.585 -0.294,-1.164 -0.484,-1.733c13.034,-2.165 22.687,-13.552 22.688,-26.766c0.138,-1.327 0.202,-2.661 0.192,-3.996c0.092,-5.754 -1.762,-11.373 -5.262,-15.942l0,-0Z" style="fill:#fcfcfa;fill-rule:nonzero;"/></svg>