<?xml version="1.0" encoding="UTF-8" standalone="no"?><!DOCTYPE svg PUBLIC "-//W3C//DTD SVG 1.1//EN" "http://www.w3.org/Graphics/SVG/1.1/DTD/svg11.dtd"><svg width="100%" height="100%" viewBox="0 0 100 100" version="1.1" xmlns="http://www.w3.org/2000/svg" xmlns:xlink="http://www.w3.org/1999/xlink" xml:space="preserve" xmlns:serif="http://www.serif.com/" style="fill-rule:evenodd;clip-rule:evenodd;stroke-linejoin:round;stroke-miterlimit:2;"><path d="M72.25,22.75c-2.743,0 -5,2.257 -5,5c-0,2.743 2.257,5 5,5c2.743,0 5,-2.257 5,-5c-0,-2.743 -2.257,-5 -5,-5Zm19.167,10.083c-0.081,-3.457 -0.729,-6.877 -1.917,-10.125c-1.059,-2.778 -2.708,-5.294 -4.833,-7.375c-2.063,-2.135 -4.586,-3.774 -7.375,-4.791c-3.239,-1.225 -6.664,-1.887 -10.125,-1.959c-4.417,-0.25 -5.834,-0.25 -17.167,-0.25c-11.333,0 -12.75,0 -17.167,0.25c-3.461,0.072 -6.886,0.734 -10.125,1.959c-2.784,1.027 -5.304,2.665 -7.375,4.791c-2.135,2.063 -3.774,4.586 -4.791,7.375c-1.225,3.239 -1.887,6.664 -1.959,10.125c-0.25,4.417 -0.25,5.834 -0.25,17.167c0,11.333 0,12.75 0.25,17.167c0.072,3.461 0.734,6.886 1.959,10.125c1.017,2.789 2.656,5.312 4.791,7.375c2.071,2.126 4.591,3.764 7.375,4.791c3.239,1.225 6.664,1.887 10.125,1.959c4.417,0.25 5.834,0.25 17.167,0.25c11.333,-0 12.75,-0 17.167,-0.25c3.461,-0.072 6.886,-0.734 10.125,-1.959c2.789,-1.017 5.312,-2.656 7.375,-4.791c2.134,-2.073 3.784,-4.591 4.833,-7.375c1.188,-3.248 1.836,-6.668 1.917,-10.125c-0,-4.417 0.25,-5.834 0.25,-17.167c-0,-11.333 -0,-12.75 -0.25,-17.167Zm-7.5,33.834c-0.031,2.645 -0.51,5.265 -1.417,7.75c-0.665,1.813 -1.734,3.451 -3.125,4.791c-1.351,1.377 -2.987,2.444 -4.792,3.125c-2.484,0.908 -5.105,1.387 -7.75,1.417c-4.166,0.208 -5.708,0.25 -16.666,0.25c-10.959,-0 -12.5,-0 -16.667,-0.25c-2.746,0.051 -5.481,-0.371 -8.083,-1.25c-1.726,-0.716 -3.286,-1.78 -4.584,-3.125c-1.383,-1.338 -2.438,-2.978 -3.083,-4.792c-1.017,-2.52 -1.581,-5.2 -1.667,-7.916c0,-4.167 -0.25,-5.709 -0.25,-16.667c0,-10.958 0,-12.5 0.25,-16.667c0.019,-2.704 0.513,-5.383 1.459,-7.916c0.733,-1.759 1.859,-3.327 3.291,-4.584c1.266,-1.432 2.831,-2.57 4.584,-3.333c2.539,-0.916 5.216,-1.396 7.916,-1.417c4.167,0 5.709,-0.25 16.667,-0.25c10.958,0 12.5,0 16.667,0.25c2.645,0.031 5.265,0.51 7.75,1.417c1.893,0.703 3.593,1.845 4.958,3.333c1.365,1.28 2.432,2.845 3.125,4.584c0.926,2.537 1.405,5.215 1.417,7.916c0.208,4.167 0.25,5.709 0.25,16.667c-0,10.958 -0.042,12.5 -0.25,16.667Zm-33.917,-38.042c-11.71,0.023 -21.333,9.665 -21.333,21.375c-0,11.726 9.649,21.375 21.375,21.375c11.726,-0 21.375,-9.649 21.375,-21.375c-0,-0.014 -0,-0.028 -0,-0.042c-0,-11.703 -9.631,-21.333 -21.334,-21.333c-0.027,-0 -0.055,-0 -0.083,0Zm0,35.25c-7.612,0 -13.875,-6.263 -13.875,-13.875c0,-7.612 6.263,-13.875 13.875,-13.875c7.612,0 13.875,6.263 13.875,13.875c0,7.612 -6.263,13.875 -13.875,13.875Z" style="fill:#fcfcfa;fill-rule:nonzero;"/></svg>