<?xml version="1.0" encoding="UTF-8" standalone="no"?><!DOCTYPE svg PUBLIC "-//W3C//DTD SVG 1.1//EN" "http://www.w3.org/Graphics/SVG/1.1/DTD/svg11.dtd"><svg width="100%" height="100%" viewBox="0 0 100 100" version="1.1" xmlns="http://www.w3.org/2000/svg" xmlns:xlink="http://www.w3.org/1999/xlink" xml:space="preserve" xmlns:serif="http://www.serif.com/" style="fill-rule:evenodd;clip-rule:evenodd;stroke-linejoin:round;stroke-miterlimit:2;"><path d="M72.917,37.496c-3.73,-0.002 -7.403,0.921 -10.69,2.685c-0.612,-1.613 -2.168,-2.686 -3.894,-2.685l-16.669,-0c-2.284,-0 -4.164,1.88 -4.164,4.164l0,50.003c-0,0 -0,0.001 -0,0.002c-0,2.284 1.88,4.164 4.164,4.164l16.672,0c2.284,0 4.164,-1.88 4.164,-4.164l0,-22.919c0,-2.286 1.881,-4.167 4.167,-4.167c2.285,0 4.166,1.881 4.166,4.167l0,22.919c0,2.284 1.88,4.164 4.165,4.164l16.671,0c2.285,0 4.164,-1.88 4.164,-4.164l0,-31.252c-0.015,-12.566 -10.351,-22.902 -22.916,-22.917Zm14.583,50l-8.333,-0l-0,-18.75c-0,-6.857 -5.643,-12.5 -12.5,-12.5c-6.858,-0 -12.5,5.643 -12.5,12.5l-0,18.75l-8.334,-0l0,-41.667l8.334,0l-0,2.93c0.001,2.286 1.882,4.166 4.168,4.166c1.265,0 2.463,-0.575 3.254,-1.562c2.749,-3.492 6.956,-5.534 11.4,-5.534c7.961,0 14.511,6.55 14.511,14.511c0,0.024 0,0.048 -0,0.072l-0,27.084Zm-58.331,-50l-16.671,-0c-2.285,-0 -4.165,1.88 -4.165,4.164l0,50.003c0,0 0,0.001 0,0.002c0,2.284 1.88,4.164 4.165,4.164l16.671,0c2.285,0 4.164,-1.88 4.164,-4.164c0,-0.001 0,-0.002 0,-0.002l0,-50.003c0,-2.284 -1.879,-4.164 -4.164,-4.164Zm-4.169,50l-8.333,-0l-0,-41.667l8.333,0l-0,41.667Zm-4.106,-81.071c-0.268,-0.016 -0.536,-0.024 -0.804,-0.024c-7.39,-0 -13.471,6.081 -13.471,13.47c0,7.39 6.081,13.47 13.471,13.47c0.189,0 0.379,-0.004 0.568,-0.012l0.118,0c0.266,0.016 0.533,0.024 0.799,0.024c7.391,-0 13.473,-6.082 13.473,-13.473c-0,-7.39 -6.082,-13.472 -13.473,-13.472c-0.227,-0 -0.454,0.006 -0.681,0.017l0,-0Zm-0.118,18.571l-0.118,-0c-0.203,0.025 -0.408,0.037 -0.613,0.037c-2.793,-0 -5.092,-2.298 -5.092,-5.091c0,-0.022 0,-0.043 0.001,-0.065c-0,-3.109 2.331,-5.119 5.94,-5.119c0.226,-0.03 0.452,-0.045 0.68,-0.045c2.819,0 5.139,2.32 5.139,5.14c0,0.008 0,0.016 0,0.024c0,3.109 -2.332,5.119 -5.937,5.119Z" style="fill:#fcfcfa;fill-rule:nonzero;"/></svg>