<?xml version="1.0" encoding="UTF-8" standalone="no"?><!DOCTYPE svg PUBLIC "-//W3C//DTD SVG 1.1//EN" "http://www.w3.org/Graphics/SVG/1.1/DTD/svg11.dtd"><svg width="100%" height="100%" viewBox="0 0 16475 5916" version="1.1" xmlns="http://www.w3.org/2000/svg" xmlns:xlink="http://www.w3.org/1999/xlink" xml:space="preserve" xmlns:serif="http://www.serif.com/" style="fill-rule:evenodd;clip-rule:evenodd;stroke-linejoin:round;stroke-miterlimit:2;"><g><path d="M2485.6,1727.27l0.108,1.862l2.604,13.367l4.404,12.875l6.113,12.154l7.716,11.208l9.167,10.055l10.454,8.708l11.546,7.204l1.942,0.996l4.637,1.954l5.838,2.617l2.229,0.779l4.858,1.292l5.971,1.745l2.496,0.509c139.55,26.941 269.212,84.212 390.65,154.383c80.212,46.35 157.117,99.179 243.037,132.7c11.992,4.679 25.667,9.204 25.667,9.204c90.729,29.442 190.096,36.517 280.183,7.509c31.18,-10.042 60.746,-24.459 87.784,-42.5c23.825,23.937 46.691,48.837 68.529,74.629c-26.471,19.887 -42.471,52.808 -40.629,85.737c0.258,4.588 1.15,9.121 1.721,13.679l3.595,13.309c1.384,4.004 2.755,8.016 4.092,12.033c44.55,133.529 57.979,272.758 57.55,411.638c-0.258,84.812 -6.108,171.595 4.888,256.487c15.229,117.558 72.22,237.933 169.304,309.175c16.408,12.042 33.816,22.513 51.937,31.371c-8.829,32.646 -18.946,64.762 -30.296,96.292c-0.866,-0.388 -1.741,-0.759 -2.616,-1.121c-11.384,-4.671 -14.629,-4.625 -26.642,-6.838c-4.592,-0.2 -9.183,-0.396 -13.775,-0.596c-12.162,1.159 -15.392,0.83 -27.137,4.496c-8.792,2.75 -17.163,6.7 -24.871,11.75c-3.846,2.517 -7.321,5.554 -10.984,8.334l-9.729,9.766c-93.233,107.592 -208.646,191.846 -331.362,262.488c-78.475,45.166 -159.754,84.341 -230.225,139.716c-100.617,79.055 -175.321,198.459 -179.242,324.73c-0.342,10.908 -0.137,21.812 0.588,32.67c-32.309,8.555 -65.13,15.846 -98.4,21.817c-3.705,-33.179 -24.571,-63.471 -54.109,-78.396c-4.104,-2.071 -8.471,-3.566 -12.708,-5.35l-13.321,-3.546c-101.029,-19.512 -197.587,-53.962 -289.071,-99.412c-99.775,-49.567 -190.404,-113.088 -288.754,-162.517c-73.033,-36.704 -154.225,-60.179 -237.087,-60.629l-2.271,0c-75.063,0.204 -149.088,21.029 -210.338,61.079c-23.754,-23.875 -46.55,-48.7 -68.325,-74.416c26.634,-19.93 42.446,-52.838 40.6,-85.767c-0.258,-4.588 -1.15,-9.117 -1.721,-13.679l-3.595,-13.309c-1.58,-4.562 -3.134,-9.137 -4.655,-13.72c-43.72,-131.809 -57.408,-271.696 -56.983,-409.946c0.267,-87.579 6.671,-177.538 -6.05,-265.004c-11.95,-82.184 -43.1,-163.767 -94.833,-229.475c-34.117,-43.33 -77.309,-78.184 -125.375,-102.146c8.887,-32.909 19.083,-65.279 30.529,-97.05c26.246,11.329 57.137,11.554 82.887,-0.604c8.296,-3.913 15.68,-9.496 23.017,-15.063l9.729,-9.767c2.771,-3.195 5.559,-6.383 8.367,-9.554c92.483,-104.333 205.487,-185.437 325.375,-254.304c74.287,-42.675 153.383,-81.379 222.042,-133.854c85.037,-64.992 154.337,-158.571 177.054,-264.079c6.912,-32.092 9.312,-65.109 7.237,-97.796c32.392,-8.583 65.296,-15.896 98.659,-21.879Z" style="fill:url(#_Radial1);"/><path d="M1880.97,4333.69c29.821,21.834 65.871,40.763 108.58,55.513c154.391,53.337 571.895,52.125 840.595,-191.067c-331.925,-63.775 -515.891,-248.758 -671.22,-299.329c-350.459,-114.212 -520.78,257.013 -277.95,434.875l-0.005,0.008Zm1340.01,3.667c89.721,68.804 230.771,76.046 367.3,-42.412c123.4,-107.046 331.141,-469.213 254.833,-823.513c-221.183,255.592 -473.383,322.404 -594.821,431.638c-173.15,155.629 -142.666,345.837 -27.312,434.295l-0,-0.008Zm-1759.35,-776.25c68.67,51.963 146.462,95.35 232.708,123.129c-110.763,-319.346 -42.55,-571.158 -76.383,-730.966c-85.7,-404.905 -587.85,-307.125 -509.388,98.52c23.258,120.28 147.079,353.392 353.067,509.313l-0.004,0.004Zm2451.05,-394.95c173.133,137.796 453.404,7.692 393.337,-302.875c-31,-160.379 -240.766,-521.371 -585.762,-632.433c110.754,319.341 42.554,571.154 76.391,730.95c20.084,94.9 63.03,162.179 116.034,204.358Zm-2341.2,-722.521c221.187,-255.583 473.379,-322.408 594.829,-431.646c307.804,-276.654 -27.942,-662.629 -340.009,-391.87c-123.391,107.058 -331.133,469.225 -254.82,823.516Zm1012.98,-726.7c268.704,-243.175 686.208,-244.396 840.587,-191.05c390.521,134.879 224.121,618.638 -169.371,490.396l-0.016,-0.012c-155.321,-50.567 -339.296,-235.555 -671.2,-299.334Z" style="fill:url(#_Radial2);"/><path d="M2085.44,5597.9c67.284,197.154 276.159,352.333 606.5,310.166c298.55,-38.079 987.025,-381.175 1231.93,-1002.37c-600.213,165.958 -1055.16,10.783 -1352.94,54.221c-424.462,61.75 -572.012,384.533 -485.504,637.995l0.008,-0.016Zm-2050.87,-1374.42c23.425,63.937 59.358,129.787 109.779,196.037c182.241,239.484 823.629,664.1 1484.05,565.696c-443.796,-436.846 -536.909,-908.396 -723.413,-1144.6c-420.683,-533.108 -1061.04,-137.896 -870.4,382.867l-0.012,0.004Zm4307.79,285.212c124.704,388.13 687.338,474.942 912.479,-62.604c116.292,-277.575 163.413,-1045.35 -252.12,-1568.05c-156.384,602.775 -518.175,919.209 -629.521,1198.79c-66.15,166.025 -69.021,313.05 -30.838,431.866Zm-4161.59,-1898.15c52.208,149.817 127.166,295.805 231.029,426.496c156.383,-602.787 518.187,-919.212 629.558,-1198.8c282.2,-708.375 -587.617,-1071.39 -881.671,-369.275c-87.204,208.179 -135.475,692.092 21.096,1141.58l-0.012,0.004Zm3605.4,-1680.68c660.404,-98.379 1301.8,326.221 1484.02,565.713c461,605.725 -288.291,1177.48 -760.629,578.908l-0.012,-0.033c-186.5,-236.196 -279.621,-707.767 -723.375,-1144.59Zm-2295.49,79.496c600.217,-165.946 1055.15,-10.796 1352.96,-54.229c754.555,-109.767 634.025,-1044.54 -121.033,-948.163c-298.554,38.109 -987.029,381.209 -1231.92,1002.39Z" style="fill:url(#_Radial3);"/><path d="M7718.24,1780.85c0,0 101.979,-279.087 101.979,-279.087l140.4,-355.875c48.284,-128.963 91.638,-230.855 130.063,-305.671c27.562,-53.159 41.346,-90.571 41.346,-112.225c-0,-28.55 -23.204,-59.563 -69.613,-93.034c-30.746,-20.67 -46.121,-38.883 -46.121,-54.633c0,-19.692 30.6,-40.854 91.805,-63.5c52.329,-21.654 112.062,-40.604 179.195,-56.85c67.138,-16.242 121.438,-24.362 162.909,-24.362c82.937,-0 145.633,22.087 188.087,66.262c49.363,50.083 109.842,206.104 181.446,468.058c29.425,106.363 62.042,209.28 97.842,308.75c35.8,99.467 65.475,170.863 89.025,214.196c6.862,15.75 25.004,46.275 54.429,91.575c32.458,-103.366 70.812,-238.725 115.067,-406.083c64.908,-263.829 124.408,-442.013 178.491,-534.55c16.717,-29.533 35.892,-55.621 57.521,-78.263c40.313,-37.408 83.829,-65.958 130.546,-85.645c46.712,-19.692 93.675,-29.534 140.883,-29.534c28.517,0 48.184,7.384 58.996,22.159c10.813,14.775 16.221,41.366 16.221,79.775c-0,28.566 -1.933,49.737 -5.792,63.52c-9.662,51.221 -26.771,117.446 -51.337,198.667c-24.567,81.225 -59.204,185.583 -103.921,313.079c-44.717,127.492 -100.483,281.813 -167.3,462.967l-22.129,54.637c-7.859,23.625 -14.734,42.821 -20.625,57.588c-119.396,333.65 -210.171,550.175 -272.329,649.571c-12.83,20.675 -28.125,39.862 -45.892,57.566c-30.579,30.517 -60.675,45.78 -90.283,45.78c-75.971,-0 -157.867,-80.65 -245.684,-241.946c-159.846,-289.163 -284.65,-586.625 -374.4,-892.388c-18.537,-57.221 -32.679,-110.979 -42.433,-161.279l-5.929,0l-179.021,562.933c-1.971,9.859 -5.917,22.421 -11.838,37.688c-5.92,15.267 -10.858,29.792 -14.812,43.575c-3.938,10.842 -8.617,22.912 -14.042,36.212c-5.421,13.296 -10.108,24.375 -14.062,33.238c-32.488,98.475 -59.071,172.571 -79.75,222.292c-20.679,49.725 -41.359,90.837 -62.034,123.337c-17.716,30.533 -43.804,63.521 -78.262,98.958c-50.221,46.288 -105.854,82.721 -166.896,109.309c-61.042,26.587 -121.6,39.883 -181.667,39.883c-50.204,0 -75.308,-20.183 -75.308,-60.546c0,-30.516 22.167,-83.183 66.496,-158c51.237,-85.646 108.875,-203.287 172.908,-352.925c10.846,-31.5 26.117,-69.896 45.825,-115.179Z" style="fill:url(#_Radial4);fill-rule:nonzero;"/><path d="M11153.4,1813.35c-0,0 -538.979,-2.954 -538.979,-2.954l-0,36.917c-0,71.866 20.671,137.083 62.016,195.658c41.35,58.575 87.125,87.862 137.334,87.862c51.187,0 125.266,-18.704 222.237,-56.112c96.967,-37.413 207.471,-91.063 331.509,-160.958l51.683,-31.009c35.442,-19.691 59.558,-34.458 72.358,-44.3c58.079,-36.425 94.504,-54.637 109.271,-54.637c17.721,-0 26.579,16.241 26.579,48.729c0,35.442 -6.396,75.804 -19.196,121.087c-12.795,45.284 -29.041,88.846 -48.729,130.684c-19.687,41.837 -39.379,71.621 -59.066,89.337c-56.113,50.209 -152.096,104.846 -287.95,163.913c-135.85,59.066 -273.675,105.333 -413.463,138.804c-47.254,9.846 -90.571,14.767 -129.95,14.767c-134.867,-0 -258.167,-27.317 -369.904,-81.955c-111.733,-54.637 -198.363,-129.7 -259.892,-225.191c-61.525,-95.492 -92.291,-201.809 -92.291,-318.959c-0,-96.475 20.183,-202.795 60.545,-318.958c40.363,-116.167 96.967,-232.083 169.813,-347.754c72.85,-115.675 155.05,-220.763 246.604,-315.271c79.742,-82.692 168.833,-157.754 267.275,-225.187c98.446,-67.438 194.183,-119.367 287.213,-155.792c93.029,-36.421 178.429,-54.633 256.2,-54.633c122.07,-0 226.67,34.7 313.791,104.104c87.125,69.404 130.684,153.325 130.684,251.771c-0,43.316 -7.875,90.566 -23.625,141.758c-15.75,51.192 -36.917,95.983 -63.496,134.379c-27.567,41.346 -68.421,81.708 -122.563,121.083c-54.146,39.38 -115.179,73.342 -183.108,101.892c-81.708,32.488 -151.604,48.729 -209.683,48.729c-58.084,0 -87.125,-14.275 -87.125,-42.825c-0,-16.733 16.241,-42.821 48.729,-78.262c35.441,-31.5 69.404,-74.817 101.891,-129.946c31.5,-58.083 59.067,-126.5 82.692,-205.254c23.625,-78.759 35.442,-140.284 35.442,-184.584c-0,-36.425 -10.829,-54.637 -32.488,-54.637c-34.454,-0 -96.475,37.9 -186.058,113.704c-89.588,75.8 -160.467,150.617 -212.642,224.45c-49.221,68.913 -89.583,139.054 -121.087,210.425c-31.5,71.375 -52.667,141.517 -63.496,210.425l788.537,0c86.634,0 129.946,22.15 129.946,66.45c0,41.346 -48.237,108.783 -144.712,202.304c-95.488,86.629 -183.104,129.946 -262.846,129.946Z" style="fill:url(#_Radial5);fill-rule:nonzero;"/><path d="M12841.9,877.146c-67.925,67.925 -117.391,123.791 -148.404,167.6c-31.008,43.808 -64.233,106.566 -99.675,188.275c-26.579,59.066 -45.775,121.579 -57.587,187.537c-14.767,58.079 -22.15,132.9 -22.15,224.45c-0,128.963 12.304,236.513 36.916,322.654c24.609,86.138 61.034,151.109 109.271,194.917c48.238,43.808 106.321,65.713 174.246,65.713c55.129,-0 111.487,-20.18 169.079,-60.542c57.592,-40.363 109.767,-93.275 156.525,-158.742c46.763,-65.466 84.417,-138.562 112.967,-219.283c28.55,-80.725 42.821,-158.496 42.821,-233.317c-0,-134.866 -46.267,-275.641 -138.805,-422.325c-34.454,-59.066 -51.683,-99.429 -51.683,-121.083c0,-40.363 22.15,-80.725 66.45,-121.088c50.204,-48.237 107.796,-91.062 172.771,-128.47c64.971,-37.409 116.162,-56.113 153.571,-56.113c21.658,0 44.546,5.167 68.666,15.504c24.117,10.338 42.575,23.379 55.375,39.134c31.5,32.487 57.588,92.291 78.263,179.412c20.671,87.125 31.008,179.417 31.008,276.875c0,232.329 -47.5,446.692 -142.496,643.088c-95,196.395 -223.962,351.937 -386.887,466.625c-162.925,114.687 -339.388,172.033 -529.383,172.033c-109.275,-0 -217.563,-20.183 -324.867,-60.546c-107.304,-40.362 -194.425,-94.504 -261.367,-162.433c-113.212,-113.209 -169.816,-261.367 -169.816,-444.475c-0,-106.321 20.67,-219.038 62.016,-338.154c41.35,-119.117 98.2,-235.038 170.559,-347.755c72.354,-112.72 156.033,-215.841 251.029,-309.362c95,-93.521 192.704,-167.354 293.121,-221.5c91.55,-49.221 189.995,-88.6 295.329,-118.133c105.337,-29.534 197.875,-44.3 277.612,-44.3c112.229,-0 168.342,17.229 168.342,51.683c-0,13.783 -11.813,34.95 -35.442,63.496c-43.312,40.362 -80.966,68.912 -112.962,85.65c-31.996,16.733 -84.417,35.437 -157.267,56.112c-78.754,23.625 -135.85,45.038 -171.292,64.234c-35.441,19.195 -80.725,53.408 -135.854,102.629Z" style="fill:url(#_Radial6);fill-rule:nonzero;"/><path d="M8449.7,4562.44l-5.909,0c-75.862,147.667 -154.679,283.025 -236.45,406.08c-97.521,145.7 -179.775,253.495 -246.762,323.391c-36.454,34.454 -81.775,64.725 -135.959,90.813c-54.183,26.087 -100.979,39.133 -140.387,39.133c-9.858,0 -22.913,-3.2 -39.167,-9.6c-16.25,-6.396 -29.304,-15.504 -39.166,-27.317c-50.234,-54.145 -90.625,-193.195 -121.167,-417.158c-30.538,-223.958 -45.808,-495.912 -45.808,-815.854c-0,-259.896 19.195,-432.663 57.587,-518.308c15.754,-36.425 38.396,-66.45 67.929,-90.08c29.534,-23.625 73.338,-46.758 131.421,-69.404c51.192,-20.671 104.104,-37.9 158.742,-51.683c54.637,-13.779 97.704,-20.671 129.208,-20.671c27.563,0 49.467,6.892 65.713,20.671c16.241,13.783 24.362,32.979 24.362,57.592c0,9.845 -1.967,23.133 -5.904,39.87c-20.675,91.555 -39.871,220.513 -57.592,386.884c-12.796,110.258 -21.658,199.841 -26.579,268.754c-4.921,68.912 -9.354,162.925 -13.292,282.042c-3.937,119.116 -6.395,236.758 -7.383,352.925l5.908,5.904c44.363,-57.096 91.675,-125.517 141.946,-205.254c17.734,-29.534 34.979,-57.1 51.738,-82.696c16.758,-25.596 34.991,-55.621 54.696,-90.075c45.345,-80.725 85.762,-159.479 121.25,-236.267c17.733,-35.437 33.5,-71.371 47.295,-107.796c147.855,-328.804 251.842,-519.291 311.971,-571.466c27.596,-24.613 78.109,-47.992 151.542,-70.142c73.433,-22.15 139.221,-33.225 197.367,-33.225c37.454,-0 68.5,8.612 93.141,25.842c24.642,17.225 36.963,40.112 36.963,68.662c-0,25.596 -13.288,76.788 -39.867,153.575c-51.192,148.65 -92.783,311.083 -124.779,487.296c-31.996,176.217 -47.992,333.233 -47.992,471.058c0,280.567 54.446,420.85 163.334,420.85c31.379,0 63.254,-23.629 95.625,-70.883c32.37,-47.25 60.083,-107.304 83.133,-180.15c23.05,-72.85 42.183,-157.758 57.404,-254.725c15.221,-96.967 22.829,-196.642 22.829,-299.025c0,-61.038 -2.954,-133.392 -8.858,-217.071c-1.971,-22.642 -2.954,-43.808 -2.954,-63.496c-0,-108.287 59.558,-217.562 178.675,-327.816c58.083,-56.117 101.4,-84.171 129.946,-84.171c67.929,-0 101.891,127.975 101.891,383.933c0,182.121 -19.683,356.367 -59.041,522.738c-49.192,199.841 -117.084,369.658 -203.667,509.45c-45.254,75.8 -99.121,148.65 -161.6,218.545c-62.483,69.896 -124.217,126.009 -185.208,168.338c-77.738,54.146 -160.388,81.217 -247.942,81.217c-161.371,-0 -281.413,-62.759 -360.121,-188.275c-78.708,-125.517 -118.062,-319.696 -118.062,-582.542l-0,-100.413Z" style="fill:url(#_Radial7);fill-rule:nonzero;"/><path d="M11186.1,4022.85l-269.696,573.546l399.113,-0l-123.529,-573.546l-5.888,0Zm-127.221,-389.237l-90.079,-162.434c22.629,-17.721 43.788,-30.025 63.475,-36.916c75.754,-25.596 167.254,-38.396 274.5,-38.396c108.242,-0 191.879,31.016 250.917,93.054c51.158,54.158 92.975,129.979 125.446,227.462c32.471,97.484 62.512,236.288 90.121,416.409c14.8,91.554 27.62,160.458 38.462,206.708c34.533,128.95 57.467,211.388 68.804,247.321c11.338,35.929 31.804,93.267 61.396,172.008c9.846,22.642 22.892,54.388 39.133,95.242c16.242,40.854 31.75,79.004 46.517,114.442c32.483,76.787 81.708,178.187 147.667,304.195c-82.663,58.08 -152.538,99.921 -209.621,125.517c-57.079,25.592 -109.242,38.392 -156.479,38.392c-58.067,-0 -106.534,-11.321 -145.404,-33.963c-38.871,-22.641 -74.055,-58.583 -105.559,-107.821c-37.391,-66.941 -74.787,-158.012 -112.179,-273.204c-3.954,-10.829 -8.646,-24.608 -14.075,-41.337c-5.429,-16.725 -11.604,-34.934 -18.529,-54.625c-115.608,48.254 -205.525,72.379 -269.742,72.379c-36.566,-0 -68.183,-0.983 -94.854,-2.95c-22.733,-1.971 -127.971,-4.925 -315.708,-8.863l-13.613,28.934c-54.329,115.566 -105.116,203.375 -152.371,263.433c-47.254,60.058 -101.641,102.396 -163.162,127.008c-61.517,24.609 -138.538,36.913 -231.063,36.913c-53.158,-0 -91.058,-5.904 -113.7,-17.717c-22.645,-11.812 -33.966,-31.012 -33.966,-57.591c-0,-32.488 54.146,-122.071 162.433,-268.755c38.396,-51.187 66.942,-91.55 85.646,-121.083c-103.367,-19.692 -155.046,-56.112 -155.046,-109.275c0,-43.312 41.346,-107.796 124.038,-193.442c39.379,-41.345 76.05,-67.679 110.012,-79c33.963,-11.32 93.275,-17.475 177.938,-18.458c78.754,-144.717 128.962,-237.004 150.62,-276.875c21.655,-39.871 49.713,-90.079 84.167,-150.621c34.458,-60.541 73.588,-129.454 117.396,-206.733c43.808,-77.279 102.629,-180.4 176.462,-309.358Z" style="fill:url(#_Radial8);fill-rule:nonzero;"/><path d="M13255.2,4166.6l-48.708,118.133c-63.971,151.621 -123.517,302.746 -178.63,453.384c-26.566,72.862 -66.912,199.871 -121.041,381.025c81.725,-6.892 191.504,-24.129 329.341,-51.709c88.617,-17.72 142.275,-26.579 160.98,-26.579c34.458,0 51.683,13.784 51.683,41.346c-0,32.488 -18.95,78.017 -56.85,136.592c-37.9,58.575 -80.479,109.025 -127.733,151.358c-32.484,30.517 -80.721,51.683 -144.713,63.496c-63.987,11.812 -163.908,17.721 -299.762,17.721c-126.992,-0 -224.942,-3.938 -293.855,-11.813c-0.983,0 -17.229,-4.925 -48.729,-14.766c-56.112,-23.63 -84.171,-72.85 -84.171,-147.667c0,-54.146 15.505,-153.083 46.517,-296.808c31.008,-143.73 76.046,-322.409 135.113,-536.03c133.883,-476.47 234.791,-770.82 302.716,-883.045c21.642,-38.392 48.946,-68.171 81.909,-89.338c32.962,-21.167 77.979,-37.654 135.045,-49.471c55.113,-11.812 118.588,-17.716 190.421,-17.716c66.942,-0 113.95,8.612 141.021,25.841c27.071,17.225 40.608,47.004 40.608,89.338c0,40.346 -17.72,115.891 -53.162,226.633c-35.438,110.742 -88.104,250.767 -158,420.075Z" style="fill:url(#_Radial9);fill-rule:nonzero;"/><path d="M14573,4166.6l-48.708,118.133c-63.975,151.621 -123.517,302.746 -178.629,453.384c-26.567,72.862 -66.913,199.871 -121.042,381.025c81.725,-6.892 191.504,-24.129 329.342,-51.709c88.616,-17.72 142.275,-26.579 160.979,-26.579c34.458,0 51.683,13.784 51.683,41.346c0,32.488 -18.95,78.017 -56.85,136.592c-37.9,58.575 -80.479,109.025 -127.733,151.358c-32.483,30.517 -80.725,51.683 -144.713,63.496c-63.987,11.812 -163.908,17.721 -299.762,17.721c-126.992,-0 -224.946,-3.938 -293.854,-11.813c-0.988,0 -17.229,-4.925 -48.729,-14.766c-56.117,-23.63 -84.171,-72.85 -84.171,-147.667c-0,-54.146 15.504,-153.083 46.512,-296.808c31.013,-143.73 76.05,-322.409 135.117,-536.03c133.883,-476.47 234.787,-770.82 302.717,-883.045c21.641,-38.392 48.945,-68.171 81.908,-89.338c32.962,-21.167 77.979,-37.654 135.046,-49.471c55.112,-11.812 118.587,-17.716 190.421,-17.716c66.941,-0 113.945,8.612 141.02,25.841c27.071,17.225 40.609,47.004 40.609,89.338c-0,40.346 -17.721,115.891 -53.163,226.633c-35.437,110.742 -88.108,250.767 -158,420.075Z" style="fill:url(#_Radial10);fill-rule:nonzero;"/><path d="M15473.2,4487.1c-84.663,-85.646 -144.221,-161.692 -178.679,-228.142c-34.454,-66.45 -51.684,-137.579 -51.684,-213.379c0,-114.196 34.705,-221.5 104.109,-321.912c69.4,-100.413 162.433,-180.154 279.087,-239.221c116.659,-59.067 241.925,-88.6 375.813,-88.6c151.604,-0 268.258,31.504 349.966,94.508c81.709,63.004 122.563,152.096 122.563,267.275c-0,55.129 -14.767,112.225 -44.3,171.292c-29.533,59.067 -70.388,114.196 -122.563,165.387c-35.437,35.442 -68.416,62.267 -98.933,80.48c-30.521,18.212 -56.117,27.316 -76.787,27.316c-25.596,0 -38.396,-19.687 -38.396,-59.066c-0,0.983 1.971,-14.275 5.908,-45.775c5.908,-46.271 8.858,-87.617 8.858,-124.042c0,-51.192 -7.629,-102.625 -22.887,-154.308c-15.258,-51.684 -34.946,-95 -59.067,-129.95c-24.116,-34.946 -47.004,-52.421 -68.662,-52.421c-10.829,-0 -23.138,8.375 -36.917,25.129c-26.579,27.608 -47.254,61.862 -62.021,102.767c-14.766,40.9 -22.15,79.091 -22.15,114.579c0,44.362 6.317,85.516 18.954,123.462c12.638,37.946 34.734,76.575 66.288,115.884c31.558,39.308 73.462,82.55 125.712,129.725c82.834,74.679 146.646,140.075 191.438,196.191c44.792,56.113 77.525,111.979 98.196,167.6c20.675,55.621 31.012,115.917 31.012,180.892c0,114.196 -30.025,224.454 -90.079,330.771c-60.05,106.321 -139.542,192.212 -238.479,257.679c-98.938,65.467 -201.075,98.196 -306.408,98.196c-100.413,-0 -198.367,-21.654 -293.855,-64.971c-95.491,-43.317 -185.075,-105.338 -268.754,-186.058c-86.629,-85.65 -129.946,-161.45 -129.946,-227.409c0,-40.362 19.196,-79.737 57.588,-118.133c39.379,-39.375 87.862,-72.846 145.454,-100.413c57.588,-27.562 106.071,-41.345 145.45,-41.345c22.642,-0 41.838,5.658 57.592,16.979c15.75,11.325 29.779,30.521 42.083,57.591c12.304,27.071 24.367,63.742 36.179,110.013c18.704,65.958 35.929,114.933 51.684,146.925c15.75,31.996 37.9,63.746 66.45,95.246c29.533,29.533 60.541,44.3 93.029,44.3c39.375,-0 70.387,-15.513 93.029,-46.538c22.642,-31.025 33.962,-73.633 33.962,-127.825c0,-84.708 -29.97,-169.412 -89.912,-254.121c-17.692,-28.566 -37.1,-53.929 -58.225,-76.095c-21.129,-22.167 -67.188,-64.696 -138.175,-127.592c-21.688,-17.692 -56.196,-48.646 -103.525,-92.871Z" style="fill:url(#_Radial11);fill-rule:nonzero;"/></g><defs><radialGradient id="_Radial1" cx="0" cy="0" r="1" gradientUnits="userSpaceOnUse" gradientTransform="matrix(-3178.75,3245.33,-3545.29,-3472.55,3913.99,1172.19)"><stop offset="0" style="stop-color:#b100e8;stop-opacity:1"/><stop offset="1" style="stop-color:#6a00f4;stop-opacity:1"/></radialGradient><radialGradient id="_Radial2" cx="0" cy="0" r="1" gradientUnits="userSpaceOnUse" gradientTransform="matrix(-3178.75,3245.33,-3545.29,-3472.55,3913.99,1172.19)"><stop offset="0" style="stop-color:#b100e8;stop-opacity:1"/><stop offset="1" style="stop-color:#6a00f4;stop-opacity:1"/></radialGradient><radialGradient id="_Radial3" cx="0" cy="0" r="1" gradientUnits="userSpaceOnUse" gradientTransform="matrix(-3178.75,3245.33,-3545.29,-3472.55,3913.99,1172.19)"><stop offset="0" style="stop-color:#b100e8;stop-opacity:1"/><stop offset="1" style="stop-color:#6a00f4;stop-opacity:1"/></radialGradient><radialGradient id="_Radial4" cx="0" cy="0" r="1" gradientUnits="userSpaceOnUse" gradientTransform="matrix(7503.5,4955.04,-4955.04,7503.5,7841.37,0.0206946)"><stop offset="0" style="stop-color:#b100e8;stop-opacity:1"/><stop offset="1" style="stop-color:#6a00f4;stop-opacity:1"/></radialGradient><radialGradient id="_Radial5" cx="0" cy="0" r="1" gradientUnits="userSpaceOnUse" gradientTransform="matrix(7503.5,4955.04,-4955.04,7503.5,7841.37,0.0206946)"><stop offset="0" style="stop-color:#b100e8;stop-opacity:1"/><stop offset="1" style="stop-color:#6a00f4;stop-opacity:1"/></radialGradient><radialGradient id="_Radial6" cx="0" cy="0" r="1" gradientUnits="userSpaceOnUse" gradientTransform="matrix(7503.5,4955.04,-4955.04,7503.5,7841.37,0.0206946)"><stop offset="0" style="stop-color:#b100e8;stop-opacity:1"/><stop offset="1" style="stop-color:#6a00f4;stop-opacity:1"/></radialGradient><radialGradient id="_Radial7" cx="0" cy="0" r="1" gradientUnits="userSpaceOnUse" gradientTransform="matrix(7503.5,4955.04,-4955.04,7503.5,7841.37,0.0206946)"><stop offset="0" style="stop-color:#b100e8;stop-opacity:1"/><stop offset="1" style="stop-color:#6a00f4;stop-opacity:1"/></radialGradient><radialGradient id="_Radial8" cx="0" cy="0" r="1" gradientUnits="userSpaceOnUse" gradientTransform="matrix(7503.5,4955.04,-4955.04,7503.5,7841.37,0.0206946)"><stop offset="0" style="stop-color:#b100e8;stop-opacity:1"/><stop offset="1" style="stop-color:#6a00f4;stop-opacity:1"/></radialGradient><radialGradient id="_Radial9" cx="0" cy="0" r="1" gradientUnits="userSpaceOnUse" gradientTransform="matrix(7503.5,4955.04,-4955.04,7503.5,7841.37,0.0206946)"><stop offset="0" style="stop-color:#b100e8;stop-opacity:1"/><stop offset="1" style="stop-color:#6a00f4;stop-opacity:1"/></radialGradient><radialGradient id="_Radial10" cx="0" cy="0" r="1" gradientUnits="userSpaceOnUse" gradientTransform="matrix(7503.5,4955.04,-4955.04,7503.5,7841.37,0.0206946)"><stop offset="0" style="stop-color:#b100e8;stop-opacity:1"/><stop offset="1" style="stop-color:#6a00f4;stop-opacity:1"/></radialGradient><radialGradient id="_Radial11" cx="0" cy="0" r="1" gradientUnits="userSpaceOnUse" gradientTransform="matrix(7503.5,4955.04,-4955.04,7503.5,7841.37,0.0206946)"><stop offset="0" style="stop-color:#b100e8;stop-opacity:1"/><stop offset="1" style="stop-color:#6a00f4;stop-opacity:1"/></radialGradient></defs></svg>