<?xml version="1.0" encoding="UTF-8"?>
<svg xmlns="http://www.w3.org/2000/svg" xmlns:xlink="http://www.w3.org/1999/xlink" width="48pt" height="48pt" viewBox="0 0 48 48" version="1.1">
<g id="surface23125846">
<path style=" stroke:none;fill-rule:nonzero;fill:rgb(0%,74.117647%,100%);fill-opacity:1;" d="M 7.703125 4.042969 C 7.292969 4.148438 7 4.507812 7 5.121094 C 7 6.921875 7 23.914062 7 23.914062 C 7 23.914062 7 42.28125 7 43.089844 C 7 43.535156 7.195312 43.835938 7.5 43.945312 L 27.679688 23.882812 Z M 7.703125 4.042969 "/>
<path style=" stroke:none;fill-rule:nonzero;fill:rgb(0%,100%,41.960784%);fill-opacity:1;" d="M 33.238281 18.359375 L 24.929688 13.5625 C 24.929688 13.5625 9.683594 4.761719 8.789062 4.242188 C 8.402344 4.019531 8.019531 3.960938 7.703125 4.042969 L 27.683594 23.882812 Z M 33.238281 18.359375 "/>
<path style=" stroke:none;fill-rule:nonzero;fill:rgb(100%,0%,24.313725%);fill-opacity:1;" d="M 8.417969 43.800781 C 8.949219 43.492188 23.699219 34.976562 33.28125 29.445312 L 27.679688 23.882812 L 7.5 43.945312 C 7.746094 44.039062 8.066406 44.003906 8.417969 43.800781 Z M 8.417969 43.800781 "/>
<path style=" stroke:none;fill-rule:nonzero;fill:rgb(99.607843%,81.568627%,0%);fill-opacity:1;" d="M 41.398438 23.070312 C 40.601562 22.640625 33.296875 18.394531 33.296875 18.394531 L 33.238281 18.359375 L 27.679688 23.882812 L 33.28125 29.445312 C 37.714844 26.886719 41.042969 24.964844 41.339844 24.792969 C 42.285156 24.246094 42.195312 23.5 41.398438 23.070312 Z M 41.398438 23.070312 "/>
</g>
</svg>
