<?xml version="1.0" encoding="UTF-8" standalone="no"?><!DOCTYPE svg PUBLIC "-//W3C//DTD SVG 1.1//EN" "http://www.w3.org/Graphics/SVG/1.1/DTD/svg11.dtd"><svg width="100%" height="100%" viewBox="0 0 100 100" version="1.1" xmlns="http://www.w3.org/2000/svg" xmlns:xlink="http://www.w3.org/1999/xlink" xml:space="preserve" xmlns:serif="http://www.serif.com/" style="fill-rule:evenodd;clip-rule:evenodd;stroke-linejoin:round;stroke-miterlimit:2;"><path d="M95.797,16.459c-0,-0.001 -0,-0.002 -0,-0.003c-0,-2.284 -1.88,-4.164 -4.165,-4.164c-0.749,0 -1.486,0.203 -2.13,0.586c-2.439,1.452 -5.065,2.564 -7.804,3.305c-3.912,-3.357 -8.904,-5.195 -14.059,-5.176c-11.685,0.013 -21.387,9.419 -21.765,21.098c-11.147,-1.778 -21.257,-7.601 -28.389,-16.35c-0.872,-1.057 -2.207,-1.626 -3.573,-1.522c-1.366,0.113 -2.592,0.893 -3.272,2.084c-3.483,6.078 -3.858,13.469 -1.009,19.869l-0.008,0.008c-1.283,0.79 -2.066,2.195 -2.063,3.703c-0.007,0.612 0.029,1.224 0.11,1.831c0.426,5.241 2.75,10.151 6.535,13.802c-0.519,0.988 -0.618,2.144 -0.277,3.206c1.65,5.141 5.162,9.484 9.843,12.175c-4.757,1.839 -9.894,2.481 -14.958,1.867c-0.172,-0.021 -0.345,-0.032 -0.518,-0.032c-2.285,-0 -4.166,1.88 -4.166,4.165c0,1.417 0.722,2.739 1.914,3.505c8.707,5.608 18.849,8.591 29.207,8.59c24.078,0.27 45.49,-15.813 51.937,-39.014c1.471,-4.931 2.222,-10.048 2.23,-15.194c-0,-0.272 -0,-0.553 -0.004,-0.834c4.392,-4.738 6.695,-11.052 6.384,-17.505Zm-13.778,13.383c-0.688,0.814 -1.036,1.862 -0.972,2.926c0.04,0.687 0.036,1.379 0.036,2.03c-0.008,4.348 -0.646,8.672 -1.892,12.838c-5.269,19.754 -23.501,33.461 -43.941,33.036c-3.58,0.001 -7.147,-0.419 -10.628,-1.253c4.439,-1.431 8.59,-3.636 12.26,-6.515c1.003,-0.789 1.589,-1.998 1.589,-3.274c0,-2.26 -1.837,-4.129 -4.096,-4.168c-3.462,-0.054 -6.771,-1.451 -9.224,-3.894c0.622,-0.118 1.241,-0.264 1.855,-0.439c1.786,-0.509 3.027,-2.152 3.027,-4.009c-0,-1.983 -1.415,-3.704 -3.361,-4.089c-4.071,-0.804 -7.542,-3.466 -9.375,-7.19c0.753,0.103 1.511,0.167 2.271,0.192c1.847,0.028 3.51,-1.15 4.097,-2.902c0.564,-1.768 -0.12,-3.71 -1.668,-4.736c-3.719,-2.477 -5.951,-6.668 -5.933,-11.137c0,-0.276 0.009,-0.553 0.025,-0.826c9.336,8.708 21.454,13.844 34.204,14.498c1.303,0.052 2.561,-0.5 3.406,-1.493c0.837,-1.004 1.155,-2.345 0.858,-3.617c-0.238,-0.995 -0.36,-2.013 -0.362,-3.036c0.008,-7.372 6.072,-13.436 13.444,-13.444c3.706,-0.01 7.252,1.533 9.77,4.252c0.976,1.05 2.431,1.521 3.837,1.241c1.711,-0.333 3.399,-0.781 5.05,-1.342c-1.127,2.304 -2.566,4.441 -4.277,6.351Z" style="fill:#fcfcfa;fill-rule:nonzero;"/></svg>