<?xml version="1.0" encoding="UTF-8" standalone="no"?><!DOCTYPE svg PUBLIC "-//W3C//DTD SVG 1.1//EN" "http://www.w3.org/Graphics/SVG/1.1/DTD/svg11.dtd"><svg width="100%" height="100%" viewBox="0 0 100 100" version="1.1" xmlns="http://www.w3.org/2000/svg" xmlns:xlink="http://www.w3.org/1999/xlink" xml:space="preserve" xmlns:serif="http://www.serif.com/" style="fill-rule:evenodd;clip-rule:evenodd;stroke-linejoin:round;stroke-miterlimit:2;"><path d="M94.066,27.852c-1.074,-3.973 -4.173,-7.084 -8.146,-8.146c-5.337,-2.06 -57.024,-3.07 -72.018,0.059c-3.973,1.074 -7.084,4.173 -8.147,8.146c-2.408,10.567 -2.591,33.412 0.059,44.215c1.075,3.973 4.174,7.083 8.147,8.146c10.566,2.432 60.802,2.775 72.018,0c3.973,-1.074 7.084,-4.173 8.146,-8.146c2.568,-11.511 2.751,-32.94 -0.059,-44.274Zm-6.048,1.577c2.594,10.56 2.406,30.369 0.048,41.153c-0.513,1.768 -1.872,3.112 -3.597,3.622c-10.907,2.646 -58.421,2.31 -68.923,0.019c-1.8,-0.514 -3.151,-1.875 -3.664,-3.606c-2.461,-10.134 -2.281,-31.218 -0.072,-41.145c0.505,-1.757 1.838,-3.095 3.538,-3.62c10.404,-2.1 37.852,-2.169 55.216,-1.39c6.685,0.3 11.715,0.538 13.105,1.074c0.208,0.081 0.421,0.15 0.636,0.207c1.78,0.476 3.171,1.855 3.693,3.617l0.02,0.069Zm-19.768,25.981c1.943,-1.114 3.141,-3.182 3.141,-5.421c-0,-2.239 -1.198,-4.308 -3.141,-5.422l-24.085,-13.813c-1.934,-1.109 -4.312,-1.104 -6.242,0.013c-1.929,1.118 -3.117,3.179 -3.117,5.409l-0,27.626c-0,2.23 1.188,4.291 3.117,5.408c1.93,1.118 4.308,1.123 6.242,0.014l24.085,-13.814Zm-3.109,-5.421l-24.085,-13.813l-0,27.626l24.085,-13.813Z" style="fill:#fff;"/></svg>