<?xml version="1.0" encoding="UTF-8" standalone="no"?><!DOCTYPE svg PUBLIC "-//W3C//DTD SVG 1.1//EN" "http://www.w3.org/Graphics/SVG/1.1/DTD/svg11.dtd"><svg width="100%" height="100%" viewBox="0 0 5220 1334" version="1.1" xmlns="http://www.w3.org/2000/svg" xmlns:xlink="http://www.w3.org/1999/xlink" xml:space="preserve" xmlns:serif="http://www.serif.com/" style="fill-rule:evenodd;clip-rule:evenodd;stroke-linejoin:round;stroke-miterlimit:2;"><g><path d="M5219.99,0l-4497.23,0l-722.768,1333.11l4497.23,0l722.769,-1333.11Z" style="fill:#319af6;"/><path d="M1756.68,826.198c-7.006,9.521 -15.243,18.45 -24.712,26.787c-13.584,11.963 -28.689,21.796 -45.315,29.501c-16.626,7.705 -32.846,11.557 -48.661,11.557c-23.925,0 -40.449,-5.981 -49.573,-17.944c-9.124,-11.962 -13.686,-29.602 -13.686,-52.918c-0,-23.317 9.124,-63.361 27.371,-120.132c-55.96,-2.433 -96.713,-3.65 -122.26,-3.65l-8.516,0c-7.299,45.012 -10.949,92.253 -10.949,141.725c0,21.898 -8.312,36.902 -24.938,45.012c-7.705,3.649 -15.105,7.096 -22.202,10.34c-7.096,3.244 -14.699,4.866 -22.81,4.866c-20.275,0 -30.413,-18.248 -30.413,-54.743c0,-36.496 8.313,-83.332 24.939,-140.509c-17.842,2.028 -33.556,4.055 -47.14,6.083c-13.585,2.027 -24.229,3.041 -31.934,3.041c-7.705,0 -11.557,-2.027 -11.557,-6.083c-0,-12.165 9.935,-24.533 29.805,-37.103c20.275,-12.571 47.647,-22.101 82.115,-28.589c38.118,-96.916 84.751,-161.595 139.9,-194.035c20.276,-12.166 41.768,-18.248 64.476,-18.248c40.551,0.405 69.849,11.354 87.894,32.846c18.045,21.492 27.169,49.979 27.372,85.461c0.203,35.482 -10.645,81.608 -32.542,138.379c-8.11,21.898 -15.612,41.768 -22.506,59.61c-6.894,17.842 -10.34,32.238 -10.34,43.187c-0,10.948 0.811,19.261 2.433,24.938c1.622,5.677 5.474,8.516 11.557,8.516c10.948,-0 36.698,-21.086 77.249,-63.259c3.65,-4.056 6.793,-7.098 9.43,-9.126c0.556,-4.173 1.164,-8.127 1.823,-11.859c4.258,-24.128 12.672,-48.56 25.243,-73.296c-18.654,-17.842 -27.98,-33.251 -27.98,-46.228c-0,-27.169 14.598,-40.753 43.794,-40.753c15.004,-0 28.183,7.907 39.537,23.722c8.111,10.949 13.99,23.722 17.64,38.32c5.677,2.028 12.774,3.042 21.289,3.042c11.76,-0 25.344,-3.853 40.754,-11.557l15.815,-7.908c4.866,-2.433 9.123,-3.649 12.773,-3.649c11.76,-0 23.519,17.234 35.279,51.702c-3.649,15.815 -7.603,31.021 -11.861,45.62c-4.258,14.598 -9.225,32.238 -14.902,52.918c-5.677,20.681 -8.617,34.57 -8.82,41.666c-0.203,7.097 1.926,10.645 6.387,10.645c6.082,-0 13.584,-3.852 22.505,-11.557c8.922,-7.705 17.843,-16.119 26.764,-25.243c8.921,-9.124 17.133,-17.538 24.634,-25.243c2.914,-2.992 5.476,-5.404 7.687,-7.234c0.677,-25.269 5.516,-58.339 14.515,-99.212l-27.372,0c-4.866,0 -7.299,-2.027 -7.299,-6.082c0,-9.732 0.912,-17.741 2.737,-24.027c1.825,-6.285 6.184,-13.483 13.078,-21.593l14.598,0c5.677,0 11.76,-0.203 18.248,-0.608c19.464,-62.448 39.334,-93.672 59.61,-93.672c16.22,0.405 27.574,10.746 34.062,31.021c1.622,5.677 3.447,11.76 5.475,18.248l-24.939,43.795c28.386,0.811 46.329,1.216 53.831,1.216c7.502,0 11.557,0.71 12.165,2.129c0.609,1.419 0.913,3.548 0.913,6.387c-0,7.299 -1.724,16.423 -5.17,27.372c-3.447,10.948 -7.401,16.22 -11.862,15.814l-60.826,-3.041c-8.515,49.472 -12.773,90.428 -12.773,122.869c-0,32.441 4.663,48.661 13.99,48.661c7.704,-0 21.694,-6.387 41.97,-19.16c20.275,-12.774 34.874,-25.04 43.795,-36.8c8.921,-11.76 16.22,-17.64 21.897,-17.64c5.677,0 8.516,6.894 8.516,20.681c-0,13.787 -4.866,27.879 -14.598,42.274c-9.733,14.396 -21.999,27.575 -36.8,39.537c-14.801,11.963 -31.224,21.796 -49.27,29.501c-18.045,7.705 -33.758,11.557 -47.14,11.557c-13.382,0 -23.621,-3.143 -30.717,-9.428c-7.096,-6.285 -12.976,-14.801 -17.64,-25.547c-4.663,-10.746 -8.008,-23.317 -10.036,-37.712l-0.001,-0.006c-5.871,10.912 -13.677,21.762 -23.417,32.548c-24.533,27.169 -52.615,40.551 -84.244,40.145c-18.654,0 -32.644,-7.502 -41.97,-22.506c-9.327,-15.003 -14.193,-33.251 -14.599,-54.743c0,-42.578 9.53,-82.927 28.589,-121.044c-8.922,3.649 -18.958,5.474 -30.109,5.474c-11.152,0 -19.161,-0.405 -24.027,-1.216c-3.649,15.409 -7.299,30.92 -10.948,46.532c-3.65,15.612 -5.475,30.109 -5.475,43.49l3.65,74.208c-0,9.732 -5.069,18.451 -15.207,26.156c-10.137,7.704 -23.925,11.556 -41.361,11.557c-10.138,-0.001 -17.133,-5.272 -20.986,-15.815c-3.852,-10.544 -5.778,-25.953 -5.778,-46.228c-0,-4.684 0.026,-9.256 0.077,-13.71Zm825.943,39.257c-0,23.925 -23.317,35.887 -69.951,35.887c-10.137,0 -16.118,-5.17 -17.943,-15.51c-1.825,-10.341 -2.737,-24.838 -2.737,-43.491c-0,-39.334 7.907,-87.995 23.722,-145.983c26.358,-95.7 54.541,-152.065 84.548,-169.097c4.055,-2.433 8.516,-3.649 13.382,-3.649c4.866,-0 7.299,7.907 7.299,23.722c0,15.815 -0.811,29.805 -2.433,41.97c-3.244,24.33 -9.023,55.757 -17.335,94.281c-8.313,38.523 -12.47,61.231 -12.47,68.125l-6.082,113.745Zm486.517,-22.066c-2.852,3.281 -5.863,6.48 -9.032,9.596c-12.165,11.963 -26.155,21.796 -41.97,29.501c-15.815,7.705 -32.035,11.557 -48.661,11.557c-57.988,0.406 -97.525,-21.289 -118.611,-65.084c-7.299,-15.409 -10.949,-34.772 -10.949,-58.089c0,-23.317 2.028,-48.154 6.083,-74.512c8.11,-52.716 23.722,-101.377 46.836,-145.983c11.76,-22.708 24.939,-42.173 39.537,-58.393c32.035,-35.685 67.72,-53.324 107.054,-52.919c17.437,0 31.123,4.765 41.058,14.294c9.935,9.53 14.902,23.216 14.902,41.058c0,17.842 -5.271,35.786 -15.815,53.831c-10.543,18.045 -24.026,36.699 -40.449,55.96c-16.423,19.262 -34.569,39.436 -54.439,60.522c-19.87,21.087 -39.335,43.998 -58.393,68.734l-0,24.33c-0,22.709 4.866,39.335 14.598,49.878c9.732,10.543 21.086,15.815 34.062,15.815c33.106,-0 62.557,-15.531 88.354,-46.594c5.56,-55.655 28.014,-100.544 67.361,-134.668c19.465,-16.626 37.611,-27.575 54.44,-32.846c16.829,-5.272 34.569,-7.908 53.223,-7.908c18.653,0 33.86,3.244 45.619,9.732c5.678,-11.759 12.166,-17.639 19.465,-17.639c14.193,-0 27.676,6.184 40.449,18.552c12.774,12.368 19.161,24.026 19.161,34.975c-5.678,13.382 -13.991,29.399 -24.939,48.052c-3.244,18.654 -4.866,44.809 -4.866,78.466c-0,33.657 4.258,50.486 12.773,50.486c9.87,-0 32.887,-18.478 69.056,-55.438c2.261,-17.153 6.31,-33.244 12.147,-48.271c9.53,-24.533 22.1,-45.721 37.712,-63.563c15.612,-17.842 33.353,-31.731 53.223,-41.666c19.87,-9.935 38.726,-14.902 56.569,-14.902c31.224,-0 46.836,12.368 46.836,37.104c-0,14.192 -2.94,25.547 -8.82,34.062c-5.88,8.516 -11.861,12.774 -17.944,12.774c-8.11,-0 -15.206,-2.839 -21.289,-8.516c-6.083,-5.677 -12.773,-8.617 -20.073,-8.82c-7.299,-0.202 -14.294,3.346 -20.985,10.645c-6.69,7.299 -12.266,16.626 -16.727,27.98c-8.921,22.708 -13.382,49.269 -13.382,79.682c0.406,14.599 7.097,25.547 20.073,32.846c8.921,4.866 19.465,7.401 31.63,7.604c12.165,0.202 23.823,-3.751 34.975,-11.861c11.151,-8.111 21.39,-16.93 30.717,-26.46c5.95,-6.079 11.445,-11.869 16.486,-17.369c1.905,-16.08 5.94,-32.592 12.102,-49.54c8.921,-24.533 20.783,-45.721 35.584,-63.563c14.801,-17.842 31.933,-31.731 51.398,-41.666c19.464,-9.935 40.246,-14.902 62.347,-14.902c22.1,-0 39.131,5.474 51.094,16.423c11.962,10.948 17.943,25.141 17.943,42.578c0,17.437 -4.359,31.731 -13.077,42.882c-8.719,11.152 -19.972,20.479 -33.759,27.981c-13.787,7.501 -29.095,14.192 -45.924,20.072c-16.828,5.88 -33.353,12.47 -49.573,19.769l0,15.206c0.406,14.599 6.488,24.939 18.248,31.022c11.76,6.082 25.141,9.326 40.145,9.732c31.63,-0 62.246,-12.571 91.848,-37.712c10.948,-9.327 19.87,-17.944 26.763,-25.852c6.894,-7.907 12.165,-11.861 15.815,-11.861c5.677,0 8.516,5.677 8.516,17.032c-0,11.354 -3.042,24.026 -9.124,38.016c-6.083,13.99 -16.221,27.676 -30.413,41.058c-34.874,32.846 -82.724,49.269 -143.55,49.269c-48.256,-0 -81.102,-17.437 -98.539,-52.311c-0.765,-1.53 -1.482,-3.144 -2.151,-4.843c-2.652,3.165 -5.482,6.299 -8.493,9.405c-12.774,13.179 -29.095,24.432 -48.965,33.759c-19.87,9.327 -43.288,13.99 -70.254,13.99c-26.967,-0 -50.588,-8.009 -70.863,-24.026c-11.447,-9.044 -19.663,-20.35 -24.647,-33.918c-4.652,5.217 -9.717,10.238 -15.194,15.061c-13.585,11.963 -28.69,21.796 -45.316,29.501c-16.625,7.705 -32.846,11.557 -48.661,11.557c-21.491,0 -35.887,-18.856 -43.186,-56.568c-10.543,17.437 -24.331,31.731 -41.362,42.882c-17.031,11.152 -39.841,16.727 -68.429,16.727c-28.589,0 -51.601,-8.921 -69.038,-26.763c-7.984,-8.17 -14.098,-17.148 -18.34,-26.932Zm82.207,-58.225c0,31.224 11.557,46.836 34.671,46.836c24.736,-0.405 45.214,-13.584 61.435,-39.537c5.677,-8.921 10.34,-19.87 13.99,-32.846c-0,-45.417 4.055,-84.345 12.165,-116.786c-32.846,6.488 -61.434,22.303 -85.765,47.444c-24.33,25.142 -36.496,56.771 -36.496,94.889Zm-527.363,-83.332c0,-5.271 2.94,-8.718 8.82,-10.34c5.88,-1.622 13.281,-3.143 22.202,-4.562c8.921,-1.419 18.653,-3.548 29.196,-6.387c10.544,-2.838 20.276,-8.11 29.197,-15.815c20.681,-17.842 31.021,-47.647 31.021,-89.414c0,-26.764 -9.022,-47.242 -27.067,-61.435c-18.046,-14.192 -43.998,-21.289 -77.858,-21.289c-33.86,0 -65.591,7.097 -95.193,21.289c-10.949,5.272 -20.782,10.138 -29.501,14.599c-8.718,4.46 -16.727,6.691 -24.026,6.691c-7.299,-0 -10.949,-2.231 -10.949,-6.691c0,-6.894 6.691,-18.248 20.073,-34.063c13.382,-14.598 34.57,-28.183 63.563,-40.753c28.994,-12.571 59.509,-18.857 91.544,-18.857c60.42,-0.405 107.459,13.788 141.116,42.579c29.197,25.141 43.795,57.683 43.795,97.626c0,39.942 -14.395,75.627 -43.186,107.054c-28.791,31.427 -64.78,47.14 -107.967,47.14c-43.186,0 -64.78,-9.124 -64.78,-27.372Zm1148.4,-47.444c-21.087,-0 -35.685,24.533 -43.795,73.6c8.516,-5.677 16.524,-10.746 24.026,-15.207c7.502,-4.461 14.092,-8.718 19.769,-12.773c12.165,-8.922 18.45,-19.059 18.856,-30.414c-0,-10.137 -6.286,-15.206 -18.856,-15.206Zm-770.06,-86.982c8.516,-10.543 15.207,-20.072 20.073,-28.588c4.866,-8.515 7.299,-17.335 7.299,-26.459c0,-9.124 -3.244,-13.686 -9.732,-13.686c-14.193,-0 -29.906,14.598 -47.14,43.795c-17.235,29.196 -30.109,67.517 -38.625,114.961c13.787,-21.086 26.459,-38.726 38.016,-52.919c11.557,-14.192 21.594,-26.56 30.109,-37.104Zm-1364.33,0c-0,-35.279 -13.179,-52.918 -39.537,-52.918c-26.764,-0 -49.776,11.253 -69.038,33.758c-19.261,22.506 -34.164,52.615 -44.707,90.327l138.075,1.825c10.138,-32.441 15.207,-56.771 15.207,-72.992Z" style="fill:#e1effb;fill-rule:nonzero;"/></g></svg>