<?xml version="1.0" encoding="UTF-8" standalone="no"?><!DOCTYPE svg PUBLIC "-//W3C//DTD SVG 1.1//EN" "http://www.w3.org/Graphics/SVG/1.1/DTD/svg11.dtd"><svg width="100%" height="100%" viewBox="0 0 1253 320" version="1.1" xmlns="http://www.w3.org/2000/svg" xmlns:xlink="http://www.w3.org/1999/xlink" xml:space="preserve" xmlns:serif="http://www.serif.com/" style="fill-rule:evenodd;clip-rule:evenodd;stroke-linejoin:round;stroke-miterlimit:2;"><g><path d="M1252.8,0l-1079.34,0l-173.464,319.946l1079.33,-0l173.465,-319.946Z" style="fill:#fff6ec;"/><g><path d="M487.735,108.66c1.088,-0 1.978,0.321 2.67,0.964c0.692,0.642 1.038,1.557 1.038,2.743l-0,95.953c-0,1.087 -0.346,1.928 -1.038,2.521c-0.692,0.692 -1.582,1.038 -2.67,1.038l-18.834,0c-0.989,0 -1.854,-0.371 -2.596,-1.112c-0.741,-0.742 -1.112,-1.557 -1.112,-2.447l-0,-50.72c-0,-0.494 -0.247,-0.742 -0.742,-0.742c-0.296,0 -0.543,0.099 -0.741,0.297l-14.386,26.546c-1.285,2.274 -3.015,3.411 -5.19,3.411l-8.009,0c-2.076,0 -3.806,-1.137 -5.19,-3.411l-14.237,-26.398c-0.198,-0.296 -0.445,-0.445 -0.742,-0.445c-0.494,0 -0.741,0.248 -0.741,0.742l-0,50.72c-0,0.989 -0.396,1.829 -1.187,2.521c-0.692,0.692 -1.582,1.038 -2.669,1.038l-18.687,0c-1.087,0 -1.977,-0.346 -2.669,-1.038c-0.692,-0.593 -1.038,-1.434 -1.038,-2.521l-0,-87.351c-0,-2.076 0.445,-3.906 1.334,-5.487c0.89,-1.582 1.978,-2.868 3.263,-3.856c1.285,-0.989 2.62,-1.731 4.004,-2.225c1.385,-0.494 2.571,-0.741 3.56,-0.741l8.305,-0c2.373,-0 4.152,1.038 5.339,3.114l24.618,44.343c0.099,0.296 0.346,0.445 0.742,0.445c0.296,-0 0.543,-0.149 0.741,-0.445l24.767,-44.343c1.186,-2.076 2.966,-3.114 5.339,-3.114l16.758,-0Z" style="fill:#ffb56a;fill-rule:nonzero;"/><path d="M511.612,207.875l0,-86.758c0,-3.757 1.285,-6.847 3.856,-9.269c2.571,-2.422 5.586,-3.633 9.047,-3.633l11.864,-0c1.186,-0 2.076,0.346 2.669,1.038c0.692,0.692 1.038,1.582 1.038,2.669l0,95.953c0,0.989 -0.346,1.829 -1.038,2.521c-0.593,0.791 -1.483,1.187 -2.669,1.187l-21.059,-0c-0.989,-0 -1.854,-0.371 -2.596,-1.113c-0.741,-0.741 -1.112,-1.606 -1.112,-2.595Z" style="fill:#ffb56a;fill-rule:nonzero;"/><path d="M560.701,207.727l-0,-86.906c-0,-1.879 0.37,-3.609 1.112,-5.191c0.742,-1.582 1.73,-2.917 2.966,-4.004c1.236,-1.088 2.62,-1.953 4.153,-2.596c1.532,-0.642 3.089,-0.964 4.671,-0.964l11.568,0c1.087,0 1.928,0.346 2.521,1.039c0.692,0.692 1.038,1.581 1.038,2.669l0,71.927c0,0.791 0.396,1.755 1.187,2.892c0.791,1.137 1.928,1.706 3.411,1.706l39.745,-0c1.088,-0 2.002,0.321 2.744,0.964c0.741,0.642 1.112,1.557 1.112,2.743l-0,15.721c-0,1.186 -0.371,2.101 -1.112,2.743c-0.742,0.643 -1.656,0.964 -2.744,0.964l-68.665,0c-0.89,0 -1.73,-0.395 -2.521,-1.186c-0.791,-0.791 -1.186,-1.632 -1.186,-2.521Z" style="fill:#ffb56a;fill-rule:nonzero;"/><path d="M690.912,157.452c1.779,-0 3.46,0.346 5.042,1.038c1.582,0.692 2.991,1.483 4.227,2.373c1.235,0.889 2.298,1.779 3.188,2.669c0.89,0.89 1.533,1.533 1.928,1.928l30.996,41.08c0.395,0.297 0.593,0.89 0.593,1.78c-0,0.791 -0.297,1.483 -0.89,2.076c-0.692,0.593 -1.483,0.89 -2.373,0.89l-23.135,-0c-2.571,-0 -4.548,-0.939 -5.932,-2.818c-4.647,-6.031 -8.849,-11.469 -12.606,-16.313c-2.274,-2.867 -4.103,-5.191 -5.488,-6.971c-1.384,-1.779 -2.669,-3.435 -3.855,-4.968c-1.187,-1.532 -2.2,-2.842 -3.041,-3.93c-0.84,-1.087 -1.359,-1.779 -1.557,-2.076c-0.395,-0.198 -0.643,-0.297 -0.741,-0.297c-0.495,0 -0.742,0.297 -0.742,0.89l0,32.924c0,1.087 -0.346,1.952 -1.038,2.595c-0.692,0.643 -1.582,0.964 -2.67,0.964l-19.724,-0c-0.989,-0 -1.854,-0.321 -2.595,-0.964c-0.742,-0.643 -1.113,-1.508 -1.113,-2.595l0,-86.906c0,-3.263 1.187,-6.205 3.56,-8.825c2.373,-2.62 5.438,-3.93 9.195,-3.93l10.677,0c1.088,0 1.978,0.346 2.67,1.039c0.692,0.692 1.038,1.581 1.038,2.669l0,29.957c0,0.495 0.247,0.742 0.742,0.742c0.296,-0 0.543,-0.099 0.741,-0.297l24.619,-31.292c1.186,-1.878 3.114,-2.818 5.783,-2.818l22.543,0c0.791,0 1.532,0.297 2.224,0.89c0.593,0.593 0.89,1.286 0.89,2.076c0,0.989 -0.198,1.582 -0.593,1.78c-5.043,6.624 -9.591,12.557 -13.644,17.797c-2.472,3.163 -4.4,5.685 -5.784,7.563c-1.384,1.879 -2.694,3.609 -3.93,5.191c-1.236,1.582 -2.274,2.892 -3.114,3.93c-0.841,1.038 -1.31,1.606 -1.409,1.705c-0.198,0.297 -0.692,0.915 -1.483,1.854c-0.791,0.939 -1.829,1.903 -3.115,2.892c-1.285,0.989 -2.793,1.854 -4.523,2.595c-1.73,0.742 -3.584,1.113 -5.561,1.113Z" style="fill:#ffb56a;fill-rule:nonzero;"/><path d="M775.148,208.023l0,-26.398c0,-1.582 -0.198,-3.188 -0.593,-4.82c-0.395,-1.631 -0.89,-2.991 -1.483,-4.078l-32.034,-59.618c-0.296,-0.495 -0.445,-1.038 -0.445,-1.632c0,-0.791 0.322,-1.507 0.964,-2.15c0.643,-0.643 1.36,-0.964 2.151,-0.964l19.428,-0c1.087,-0 2.15,0.272 3.188,0.816c1.038,0.543 1.755,1.359 2.151,2.447c3.559,6.426 6.772,12.21 9.639,17.351c1.681,3.164 3.041,5.661 4.079,7.49c1.038,1.829 1.977,3.534 2.817,5.116c0.841,1.582 1.582,2.917 2.225,4.004c0.643,1.088 1.013,1.73 1.112,1.928c0.198,0.297 0.445,0.445 0.742,0.445c0.296,0 0.494,-0.148 0.593,-0.445c0.099,-0.198 0.47,-0.865 1.112,-2.002c0.643,-1.137 1.434,-2.546 2.373,-4.227c0.939,-1.68 2.002,-3.608 3.189,-5.783c1.186,-2.176 2.373,-4.351 3.559,-6.526c2.867,-5.141 6.08,-10.925 9.64,-17.351c1.285,-2.175 3.065,-3.263 5.339,-3.263l19.427,-0c0.791,-0 1.508,0.321 2.151,0.964c0.643,0.643 0.964,1.359 0.964,2.15c-0,0.594 -0.148,1.137 -0.445,1.632c-5.734,10.678 -10.925,20.268 -15.572,28.771c-2.768,5.24 -4.968,9.368 -6.599,12.383c-1.632,3.016 -3.14,5.833 -4.524,8.453c-1.384,2.62 -2.57,4.845 -3.559,6.674c-0.989,1.829 -1.582,2.892 -1.78,3.189c-0.692,1.285 -1.211,2.694 -1.557,4.226c-0.346,1.533 -0.519,2.991 -0.519,4.375l0,26.843c0,1.187 -0.346,2.101 -1.038,2.744c-0.692,0.643 -1.631,0.964 -2.818,0.964l-20.169,-0c-1.088,-0 -1.978,-0.346 -2.67,-1.038c-0.692,-0.692 -1.038,-1.582 -1.038,-2.67Z" style="fill:#ffb56a;fill-rule:nonzero;"/><path d="M860.126,184.74c1.088,-0 1.978,0.346 2.67,1.038c0.692,0.889 1.038,1.829 1.038,2.817l-0,19.428c-0,0.89 -0.346,1.78 -1.038,2.67c-0.692,0.692 -1.582,1.038 -2.67,1.038l-19.576,-0c-1.087,-0 -2.002,-0.346 -2.743,-1.038c-0.742,-0.692 -1.113,-1.582 -1.113,-2.67l0,-10.974c0,-1.582 0.396,-3.115 1.187,-4.598c0.791,-1.483 1.804,-2.793 3.04,-3.93c1.236,-1.137 2.645,-2.051 4.227,-2.743c1.582,-0.692 3.164,-1.038 4.745,-1.038l10.233,-0Z" style="fill:#ffb56a;fill-rule:nonzero;"/></g></g></svg>