<?xml version="1.0" encoding="UTF-8" standalone="no"?><!DOCTYPE svg PUBLIC "-//W3C//DTD SVG 1.1//EN" "http://www.w3.org/Graphics/SVG/1.1/DTD/svg11.dtd"><svg width="100%" height="100%" viewBox="0 0 4500 4500" version="1.1" xmlns="http://www.w3.org/2000/svg" xmlns:xlink="http://www.w3.org/1999/xlink" xml:space="preserve" xmlns:serif="http://www.serif.com/" style="fill-rule:evenodd;clip-rule:evenodd;stroke-linejoin:round;stroke-miterlimit:2;"><rect id="Mark-transparent" serif:id="Mark transparent" x="0" y="0" width="4500" height="4500" style="fill:none;"/><g><g><path d="M2313.69,4095.36l21.053,23.813l31.251,-5.803l1161.88,-1073.19l360.007,-572.215l-43.872,-582.128l-40.028,219.505l-90.79,-553.242l-116.966,98.058l-35.532,-960.702l-212.451,532.912l-16.376,-180.639l-170.327,450.818l-11.808,-237.169l-298.689,795.398l-101.218,-110.759l-274.152,856.924l-166.629,1180.38l4.646,118.036l0.001,0.004Z"/><path d="M2851.49,2049.57l298.237,-794.194l11.808,237.169l170.327,-450.818l16.376,180.639l212.451,-532.912l35.532,960.702l116.966,-98.058l90.79,553.242l40.028,-219.505l43.872,582.128l-102.318,162.629l-54.781,4.299l-115.8,-375.834l-217.657,57.405l-144.458,-423.29l-401.373,156.398Zm-1.145,0.446l-125.324,48.834l-10.863,-47.365l35.662,-111.47l100.525,110.001Z" style="fill:#f75656;"/><path d="M2313.69,4106.28c-3.131,0 -6.111,-1.343 -8.184,-3.688c-0,0 21.053,23.813 21.053,23.813c2.542,2.875 6.406,4.205 10.178,3.505l31.251,-5.804c2.026,-0.376 3.904,-1.317 5.418,-2.715l1161.88,-1073.19c0.705,-0.652 1.322,-1.394 1.834,-2.207l360.006,-572.216c1.246,-1.979 1.823,-4.306 1.647,-6.637c0,-0 -43.871,-582.128 -43.871,-582.128c-0.413,-5.479 -4.832,-9.798 -10.318,-10.087c-5.487,-0.289 -10.335,3.543 -11.321,8.948c0,0 -28.715,157.468 -28.715,157.468c-0,-0 -80.578,-491.013 -80.578,-491.013c-0.636,-3.874 -3.3,-7.108 -6.98,-8.473c-3.68,-1.365 -7.809,-0.651 -10.817,1.871l-99.857,83.715c-5.333,-144.183 -34.707,-938.393 -34.707,-938.393c-0.191,-5.159 -3.968,-9.48 -9.055,-10.36c-5.088,-0.879 -10.096,1.923 -12.008,6.719l-195.546,490.51c-0,-0 -12.256,-135.178 -12.256,-135.178c-0.459,-5.07 -4.36,-9.15 -9.404,-9.837c-5.044,-0.687 -9.893,2.201 -11.693,6.962l-151.804,401.794c-0,0 -9.203,-184.827 -9.203,-184.827c-0.257,-5.171 -4.11,-9.452 -9.226,-10.25c-5.116,-0.798 -10.089,2.106 -11.909,6.953l-292.424,778.712c0,0 -89.193,-97.602 -89.193,-97.602c-2.629,-2.876 -6.592,-4.135 -10.398,-3.302c-3.807,0.833 -6.882,3.631 -8.07,7.343l-274.152,856.924c-0.188,0.587 -0.326,1.19 -0.412,1.801l-166.63,1180.38c-0.091,0.648 -0.124,1.303 -0.098,1.957l4.646,118.036l10.915,10.494c-0,-0 -10.686,-8.66 -10.686,-8.66c-0,0 10.687,8.663 10.687,8.663Zm10.761,-15.243l-4.455,-113.167c5.285,-37.438 161.228,-1142.11 166.362,-1178.48c0,0 228.721,-714.916 268.124,-838.08c-0,0 88.496,96.839 88.496,96.839c2.564,2.805 6.401,4.077 10.133,3.357c3.732,-0.72 6.821,-3.328 8.157,-6.886l280.172,-746.088c-0,-0 9.189,184.562 9.189,184.562c0.257,5.168 4.104,9.446 9.215,10.248c5.111,0.803 10.084,-2.09 11.913,-6.93l153.523,-406.341c-0,-0 12.084,133.287 12.084,133.287c0.456,5.033 4.305,9.096 9.306,9.823c5.001,0.728 9.848,-2.07 11.719,-6.764c0,-0 193.3,-484.873 193.3,-484.873c-0,-0 33.62,909.022 33.62,909.022c0.155,4.169 2.669,7.885 6.481,9.579c3.812,1.694 8.256,1.068 11.453,-1.612l102.273,-85.741c15.924,97.033 87.686,534.323 87.686,534.323c0.86,5.244 5.369,9.107 10.682,9.154c5.313,0.047 9.89,-3.736 10.843,-8.963l24.778,-135.877c0,-0 33.836,448.972 37.213,493.77c-0,0 -357.319,567.943 -357.319,567.943c0,-0 -1158.5,1070.06 -1158.5,1070.06c-0,-0 -22.069,4.098 -22.069,4.098l-14.379,-16.264Zm0.147,3.893c0.072,1.658 -0.24,3.341 -0.95,4.915c-1.765,3.917 -5.662,6.435 -9.958,6.435c-0,0 4.779,-4.42 7.947,-8.271l2.961,-3.079Z" style="fill:#fff4f4;"/></g><g><path d="M2375.99,4073.35l-16.387,39.931l-42.76,5.889l-1285.95,-907.529l-418.032,-1256.59l138.241,213.953l67.419,-745.231l211.552,-609.633l56.869,141.034l273.37,-382.922l200.629,1091.17l582.905,1055.63l232.141,1354.31Z"/><path d="M757.861,2390.89l-144.993,-435.843l138.241,213.953l67.419,-745.231l211.552,-609.633l56.869,141.034l273.37,-382.922l200.629,1091.17l101.363,183.565l-34.006,70.37l-264.34,-148.147l-99.983,276.489l-239.012,-509.731l-77.568,713.403l33.244,228.491l-222.785,-86.967Z" style="fill:#f75656;"/><path d="M2387.38,4078.02l0.745,-6.75l-232.142,-1354.31l-1.356,-3.868l-581.937,-1053.87c0,0 -200.266,-1089.2 -200.266,-1089.2l-22.112,-4.923l-260.337,364.665c-0,0 -48.48,-120.23 -48.48,-120.23l-23.032,0.567l-211.552,609.634l-0.63,2.924l-64.203,709.685c-38.047,-58.884 -118.872,-183.974 -118.872,-183.974l-22.006,10.559l418.032,1256.6l4.58,6.168l1285.95,907.528l8.772,2.136l42.759,-5.889l9.703,-7.517l16.387,-39.93Zm-24.103,-6.074l-12.358,30.113c-0,-0 -30.938,4.261 -30.938,4.261c0,-0 -1278.68,-902.4 -1278.68,-902.4c0,0 -386.159,-1160.79 -386.159,-1160.79c0,-0 85.638,132.54 85.638,132.54l22.585,-5.568l67.284,-743.73c-0,0 200.299,-577.205 200.299,-577.205c-0,0 44.595,110.598 44.595,110.598l21.423,2.547l256.506,-359.301c0,0 195.381,1062.62 195.381,1062.62l1.329,3.722l581.901,1053.81c-0,-0 231.193,1348.78 231.193,1348.78l0,-0Z" style="fill:#fff4f4;"/></g><g><path d="M2371.2,4119.17l-57.856,-9.515l-413.957,-799.178l-220.55,-959.185l97.126,187.999l25.147,-1025.99l175.793,-542.665l20.382,231.843l40.764,-822.915l657.312,957.944l12.375,-97.905l149.834,873.3l81.675,-150.309l-142.271,1055.84l-335.614,920.286l-90.16,180.453Z"/><path d="M1792.72,1855.6l8.389,-342.296l175.793,-542.665l20.382,231.843l40.764,-822.915l657.312,957.944l12.375,-97.905l114.754,668.84l-85.081,78.445l-99.854,-95.315l-167.937,285.945l-267.79,-644.512l-249.635,503.809l-159.472,-181.218Z" style="fill:#f75656;"/><path d="M2369.43,4129.95c4.725,0.777 9.405,-1.614 11.545,-5.897l90.159,-180.453c0.185,-0.37 0.349,-0.75 0.491,-1.139l335.614,-920.286c0.27,-0.739 0.459,-1.505 0.564,-2.284c-0,0 142.27,-1055.84 142.27,-1055.84c0.704,-5.224 -2.423,-10.205 -7.432,-11.842c-5.01,-1.637 -10.475,0.536 -12.991,5.168c-0,-0 -66.638,122.634 -66.638,122.634c-26.678,-155.495 -144.507,-842.258 -144.507,-842.258c-0.915,-5.333 -5.597,-9.193 -11.007,-9.073c-5.41,0.12 -9.917,4.182 -10.596,9.551l-8.775,69.422c0,-0 -641.068,-934.271 -641.068,-934.271c-2.652,-3.865 -7.474,-5.607 -11.983,-4.33c-4.51,1.277 -7.702,5.288 -7.934,9.969c-0,0 -21.05,424.951 -32.897,664.106c-0,0 -6.457,-73.45 -6.457,-73.45c-0.455,-5.174 -4.491,-9.313 -9.652,-9.897c-5.162,-0.585 -10.021,2.546 -11.621,7.487l-175.793,542.666c-0.325,1.002 -0.503,2.045 -0.529,3.098c0,0 -19.348,789.401 -24.102,983.347c0,-0 -77.547,-150.101 -77.547,-150.101c-2.526,-4.89 -8.297,-7.137 -13.465,-5.242c-5.168,1.895 -8.118,7.339 -6.885,12.704l220.551,959.185c0.206,0.895 0.524,1.761 0.946,2.576l413.956,799.178c1.586,3.062 4.524,5.195 7.927,5.755l57.856,9.515Zm-4.4,-22.864l-44.504,-7.319c-0,-0 -410.8,-793.085 -410.8,-793.085c-0,0 -147.035,-639.461 -200.828,-873.41c-0,0 57.364,111.034 57.364,111.034c2.29,4.432 7.292,6.75 12.154,5.631c4.862,-1.119 8.348,-5.39 8.47,-10.378l25.108,-1024.4c0,0 158.738,-490.017 158.738,-490.017c0,0 15.675,178.296 15.675,178.296c0.503,5.72 5.349,10.075 11.09,9.965c5.741,-0.11 10.417,-4.646 10.701,-10.381c0,0 31.619,-638.307 39.162,-790.583c0,0 638.998,931.252 638.998,931.252c2.565,3.739 7.173,5.504 11.58,4.436c4.406,-1.068 7.695,-4.748 8.264,-9.246l3.176,-25.129c-0,0 137.428,801.001 137.428,801.001c0.787,4.586 4.393,8.17 8.984,8.93c4.591,0.759 9.159,-1.473 11.38,-5.562c0,0 53.322,-98.128 53.322,-98.128c-29.254,217.101 -129.658,962.236 -134.182,995.811c-0,0 -334.997,918.591 -334.997,918.591l-86.283,172.694Z" style="fill:#fff4f4;"/></g></g></svg>